<svg width="70" height="70" viewBox="0 0 70 70" fill="none" xmlns="http://www.w3.org/2000/svg">
<circle cx="35" cy="35" r="35" fill="#DBF4FF"/>
<path d="M34.3125 47.2405H24.9148C22.4135 47.2405 21.3416 46.1746 21.3416 43.6754C21.3416 38.732 21.3416 33.7703 21.3416 28.827C21.3619 28.4402 21.4635 28.0625 21.6393 27.7199C21.8151 27.3773 22.0609 27.0779 22.3599 26.8423C25.9332 24.3247 29.5958 21.9357 33.169 19.3997C33.4973 19.095 33.9238 18.9263 34.3661 18.9263C34.8083 18.9263 35.2348 19.095 35.5631 19.3997C39.1363 21.899 42.8168 24.2879 46.3722 26.7504C46.683 27.0024 46.9344 27.3233 47.1076 27.6893C47.2809 28.0552 47.3715 28.4567 47.3727 28.8637C47.462 33.8071 47.3727 38.7688 47.3727 43.7121C47.3727 46.1195 46.2828 47.2037 43.9245 47.2221L34.3125 47.2405ZM44.4605 44.2267C44.4605 39.3017 44.4605 34.5605 44.4605 29.801C44.3362 29.2887 44.022 28.8468 43.585 28.5697C40.8515 26.732 38.1001 24.7474 35.2951 22.9464C35.0158 22.8106 34.7107 22.7402 34.4018 22.7402C34.0929 22.7402 33.7878 22.8106 33.5085 22.9464C30.7571 24.7841 28.0235 26.6218 25.3793 28.4594C25.0877 28.714 24.8476 29.0252 24.6729 29.3752C24.4981 29.7252 24.3921 30.1071 24.3609 30.4993C24.1466 34.5605 24.1466 38.6585 24.1466 42.7382C24.1686 43.2122 24.2163 43.6846 24.2895 44.1532L44.4605 44.2267Z" fill="#0097DB"/>
<path d="M39.9939 36.7474H35.8847V41.1027H32.9725V36.8577H28.6846V33.8623H32.7938V29.4702H35.706V33.6969H39.9939V36.7474Z" fill="#0097DB"/>
</svg>
