<svg width="70" height="70" viewBox="0 0 70 70" fill="none" xmlns="http://www.w3.org/2000/svg">
<circle cx="35" cy="35" r="35" fill="#DBF4FF"/>
<path d="M33.4291 18.5252C39.4934 18.3231 41.3127 21.3001 40.1182 28.8529H46.0355C48.5899 28.8529 49.5823 29.9372 49.7109 32.418C49.9202 34.7283 49.4065 37.0465 48.2408 39.052C46.9544 41.294 45.8518 43.6462 44.7124 45.98C44.4223 46.703 43.91 47.3151 43.2494 47.728C42.5888 48.1409 41.8141 48.3332 41.0371 48.2771C37.1963 48.2771 33.3556 48.2771 29.5333 48.2771C26.9789 48.2771 25.8579 47.1929 25.8579 44.6018C25.8579 40.2833 25.8579 35.9464 25.8579 31.6278C25.9242 30.4299 26.4509 29.304 27.328 28.4854C30.7094 25.8575 33.7415 23.2297 33.4291 18.5252ZM28.8901 45.1898C33.0616 45.1898 37.031 45.1898 40.9636 45.1898C41.2344 45.1149 41.4868 44.9848 41.705 44.8077C41.9232 44.6306 42.1025 44.4104 42.2316 44.1607C43.5547 41.6983 44.8962 39.2542 45.9069 36.6998C46.4337 35.0728 46.8029 33.399 47.0095 31.7013H35.8181C36.4797 29.441 37.1963 27.3277 37.6558 25.1776C37.8021 24.8311 37.8695 24.4564 37.8532 24.0806C37.8368 23.7048 37.7371 23.3374 37.5612 23.0049C37.3852 22.6724 37.1376 22.3832 36.8361 22.1583C36.5346 21.9334 36.1869 21.7783 35.8181 21.7044C36.1121 25.8759 32.8227 27.5298 30.3051 29.735C30.0048 29.9509 29.7277 30.1972 29.4781 30.4701C29.1845 30.824 28.9881 31.2484 28.9084 31.7013C28.8717 36.1669 28.8901 40.5589 28.8901 45.1898Z" fill="#0097DB"/>
<path d="M20.0874 28.9265H22.8439V48.0934H20.0874V28.9265Z" fill="#0097DB"/>
</svg>
