<svg width="70" height="70" viewBox="0 0 70 70" fill="none" xmlns="http://www.w3.org/2000/svg">
<circle cx="35" cy="35" r="35" fill="#DBF4FF"/>
<g clip-path="url(#clip0_419_1836)">
<path d="M40.3749 17L41.9736 19.9954L44.3075 20.1424V23.1194L41.6612 23.2848C40.8894 26.6662 38.7945 28.026 34.4392 27.7871C31.0211 27.6401 29.1467 26.2067 28.9262 23.2848L26.041 23.1562V20.1608L28.4667 19.9954L29.992 17H31.0946C32.2081 18.028 33.668 18.5989 35.1834 18.5989C36.6989 18.5989 38.1588 18.028 39.2723 17H40.3749ZM31.9032 21.4839C32.2156 22.4211 32.234 23.5054 32.8037 24.0567C33.5018 24.5772 34.3494 24.8584 35.2202 24.8584C36.091 24.8584 36.9386 24.5772 37.6367 24.0567C38.1697 23.487 38.1513 22.4028 38.4086 21.5207L31.9032 21.4839Z" fill="#0097DB"/>
<path d="M41.5143 44.8774H44.3443V47.8361L41.7164 48.0566C40.7424 51.493 38.5189 52.8529 34.3657 52.5957C31.0579 52.3935 29.2937 50.9785 28.8527 48.075L26.0962 47.8545V44.9509L28.9446 44.7855C28.9446 44.2894 28.9446 43.8116 29.0732 43.3522C29.3489 41.9739 30.3228 41.3675 31.4806 42.1025C32.5872 42.9036 33.9184 43.3349 35.2846 43.3349C36.6507 43.3349 37.9819 42.9036 39.0885 42.1025C40.1911 41.3858 41.11 41.9004 41.4408 43.2051C41.4944 43.7609 41.5189 44.3191 41.5143 44.8774ZM38.5556 46.2373H31.8849C32.1973 47.2113 32.234 48.4058 32.8221 48.8284C33.4958 49.3325 34.3145 49.6048 35.1559 49.6048C35.9973 49.6048 36.8161 49.3325 37.4898 48.8284C38.0962 48.4425 38.1697 47.2664 38.5556 46.2373Z" fill="#0097DB"/>
<path d="M41.5327 35.6341C41.2203 38.6479 39.1805 40.1364 35.4133 40.2283C31.646 40.3202 29.2387 38.7765 28.7977 35.6341L26.0044 35.5055V32.6203L28.816 32.4366C28.8507 31.8757 28.9182 31.3173 29.0182 30.7643C29.349 29.5882 30.2127 28.9266 31.2601 29.6617C32.392 30.4835 33.7542 30.9277 35.153 30.931C36.5518 30.9343 37.9161 30.4966 39.0519 29.6801C40.1912 28.9634 41.0733 29.6801 41.3673 30.8745C41.4644 31.3904 41.5258 31.9123 41.5511 32.4366L44.3811 32.602V35.4871L41.5327 35.6341ZM31.9768 33.7964C32.2341 34.6418 32.2157 35.9098 32.8222 36.3508C33.5004 36.8438 34.3175 37.1094 35.156 37.1094C35.9946 37.1094 36.8116 36.8438 37.4898 36.3508C38.0963 35.9281 38.1514 34.6785 38.4638 33.7597L31.9768 33.7964Z" fill="#0097DB"/>
</g>
<defs>
<clipPath id="clip0_419_1836">
<rect width="36" height="36" fill="white" transform="translate(17 17)"/>
</clipPath>
</defs>
</svg>
