<svg width="70" height="54" viewBox="0 0 70 54" fill="none" xmlns="http://www.w3.org/2000/svg">
<path d="M10.9375 0.75C8.03669 0.75 5.2547 1.90234 3.20352 3.95352C1.15234 6.0047 0 8.78669 0 11.6875V42.3125C0 45.2133 1.15234 47.9953 3.20352 50.0465C5.2547 52.0977 8.03669 53.25 10.9375 53.25H41.5625C44.4633 53.25 47.2453 52.0977 49.2965 50.0465C51.3477 47.9953 52.5 45.2133 52.5 42.3125V38.046L62.9317 46.194C65.8052 48.4375 70 46.39 70 42.7465V11.2535C70 7.61 65.8052 5.5625 62.9317 7.806L52.5 15.954V11.6875C52.5 8.78669 51.3477 6.0047 49.2965 3.95352C47.2453 1.90234 44.4633 0.75 41.5625 0.75H10.9375ZM52.5 21.505L65.625 11.2535V42.7448L52.5 32.495V21.505ZM48.125 11.6875V42.3125C48.125 43.1743 47.9553 44.0277 47.6255 44.8239C47.2957 45.6201 46.8123 46.3435 46.2029 46.9529C45.5935 47.5623 44.8701 48.0457 44.0739 48.3755C43.2777 48.7053 42.4243 48.875 41.5625 48.875H10.9375C9.19702 48.875 7.52782 48.1836 6.29711 46.9529C5.0664 45.7222 4.375 44.053 4.375 42.3125V11.6875C4.375 9.94702 5.0664 8.27782 6.29711 7.04711C7.52782 5.8164 9.19702 5.125 10.9375 5.125H41.5625C42.4243 5.125 43.2777 5.29474 44.0739 5.62454C44.8701 5.95434 45.5935 6.43773 46.2029 7.04711C46.8123 7.6565 47.2957 8.37994 47.6255 9.17614C47.9553 9.97234 48.125 10.8257 48.125 11.6875Z" fill="#DBECF4"/>
</svg>
