<svg width="29" height="28" viewBox="0 0 29 28" fill="none" xmlns="http://www.w3.org/2000/svg">
<path d="M4 18.375C4 18.1429 4.09219 17.9204 4.25628 17.7563C4.42038 17.5922 4.64293 17.5 4.875 17.5H10.125C10.3571 17.5 10.5796 17.5922 10.7437 17.7563C10.9078 17.9204 11 18.1429 11 18.375C11 18.6071 10.9078 18.8296 10.7437 18.9937C10.5796 19.1578 10.3571 19.25 10.125 19.25H4.875C4.64293 19.25 4.42038 19.1578 4.25628 18.9937C4.09219 18.8296 4 18.6071 4 18.375ZM4 13.125C4 12.8929 4.09219 12.6704 4.25628 12.5063C4.42038 12.3422 4.64293 12.25 4.875 12.25H17.125C17.3571 12.25 17.5796 12.3422 17.7437 12.5063C17.9078 12.6704 18 12.8929 18 13.125C18 13.3571 17.9078 13.5796 17.7437 13.7437C17.5796 13.9078 17.3571 14 17.125 14H4.875C4.64293 14 4.42038 13.9078 4.25628 13.7437C4.09219 13.5796 4 13.3571 4 13.125ZM4 7.875C4 7.64294 4.09219 7.42038 4.25628 7.25628C4.42038 7.09219 4.64293 7 4.875 7H24.125C24.3571 7 24.5796 7.09219 24.7437 7.25628C24.9078 7.42038 25 7.64294 25 7.875C25 8.10706 24.9078 8.32962 24.7437 8.49372C24.5796 8.65781 24.3571 8.75 24.125 8.75H4.875C4.64293 8.75 4.42038 8.65781 4.25628 8.49372C4.09219 8.32962 4 8.10706 4 7.875Z" fill="white"/>
</svg>
