<svg width="34" height="33" viewBox="0 0 34 33" fill="none" xmlns="http://www.w3.org/2000/svg">
<path d="M26 14.75L25.25 16.75L25.375 17.875C25.375 18.2917 25.1667 18.625 24.75 18.875C24.8333 19.125 24.875 19.5 24.875 20L24.75 22.625C24.75 22.9583 24.8333 23.5 25 24.25H25.375C25.9583 24.3333 26.4583 24.2083 26.875 23.875C27.2917 23.5417 27.7083 23.375 28.125 23.375L29.875 23.625H30C30.1667 23.4583 30.3333 23.375 30.5 23.375C30.75 23.375 31.125 23.6667 31.625 24.25C32.125 24.75 32.5417 25.0833 32.875 25.25L33 27C33 27.0833 32.875 27.375 32.625 27.875C32.625 28.375 32.2083 28.625 31.375 28.625C31.2083 28.7917 31.125 29.0417 31.125 29.375C31.125 29.7083 31.0417 29.9583 30.875 30.125C30.375 30.2083 29.9583 30.375 29.625 30.625C29.2917 30.875 28.75 31.25 28 31.75C27.25 32.1667 26.3333 32.375 25.25 32.375C24.25 32.375 23.5417 32.0417 23.125 31.375C22.7083 30.7083 22.25 30.4583 21.75 30.625C21.75 29.7083 21.125 28.7083 19.875 27.625C19.7917 26.875 19.5833 26.2083 19.25 25.625C18.9167 24.9583 18.75 24.0833 18.75 23L18.875 18.125C18.875 17.875 18.9583 17.75 19.125 17.75C19.2917 17.75 19.4583 17.6667 19.625 17.5C19.4583 17.1667 19.375 16.75 19.375 16.25C19.375 15.6667 19.625 15.125 20.125 14.625L20 13.875L20.125 13.75C20.2083 13.5833 20.2917 13.4583 20.375 13.375C20.5417 13.2083 20.75 13 21 12.75C21.25 12.4167 21.4167 11.9167 21.5 11.25C21.6667 10.5833 21.8333 10.125 22 9.875C22.1667 9.54167 22.4167 9.29167 22.75 9.125C23.1667 8.95833 23.4583 8.75 23.625 8.5C23.875 8.25 23.9583 8.04167 23.875 7.875C23.875 7.70833 23.9167 7.58333 24 7.5L24.5 7.25L24.75 6.5L25.25 6.25L25.5 5.5C26 4.91667 26.4167 4.33333 26.75 3.75C27.1667 3.08333 27.6667 2.41667 28.25 1.75C28.9167 1 30.2083 0.625 32.125 0.625C32.125 1.04167 32.2917 1.25 32.625 1.25C32.9583 1.16667 33.125 1.41667 33.125 2C33.125 2.58333 32.7917 2.875 32.125 2.875C32.0417 3.54167 31.7917 4.08333 31.375 4.5C30.9583 4.83333 30.7917 5.41667 30.875 6.25C29.7083 6.83333 29.125 7.41667 29.125 8C29.125 8.58333 28.9583 9 28.625 9.25C28.375 9.41667 28.125 9.79167 27.875 10.375C27.625 10.875 27.25 11.2083 26.75 11.375C26.75 12.125 26.5 12.625 26 12.875C25.9167 13.125 25.875 13.4167 25.875 13.75C25.9583 14 26 14.3333 26 14.75ZM0.625 18.75L2.375 12.125C2.625 11.7083 2.95833 11.2917 3.375 10.875C3.875 10.375 4.125 9.83333 4.125 9.25C4.625 9.08333 5 8.66667 5.25 8C5.58333 7 5.91667 6.33333 6.25 6C6.58333 5.83333 6.75 5.58333 6.75 5.25C6.75 4.83333 7 4.5 7.5 4.25C8 4 8.33333 3.79167 8.5 3.625C8.75 3.45833 8.91667 3.20833 9 2.875C9.16667 2.45833 9.33333 2.16667 9.5 2C9.66667 1.83333 10.125 1.58333 10.875 1.25C11.625 0.833333 12.1667 0.625 12.5 0.625C12.9167 0.625 13.2083 0.833333 13.375 1.25C13.625 1.66667 13.9167 2 14.25 2.25C13.75 4.08333 13.5833 5.25 13.75 5.75C13.3333 6.08333 12.875 6.33333 12.375 6.5C11.9583 6.58333 11.5417 6.83333 11.125 7.25C10.7083 7.66667 10.3333 8.375 10 9.375C9.75 10.2917 9.45833 10.9583 9.125 11.375C8.875 11.7083 8.70833 12 8.625 12.25C8.54167 12.5 8.375 12.625 8.125 12.625C7.20833 15.2083 6.66667 17.9167 6.5 20.75L8.75 20.125C9.25 20.375 9.66667 20.4167 10 20.25C10.3333 20.0833 10.6667 20.3333 11 21C11.1667 21.1667 11.375 21.25 11.625 21.25C11.875 21.1667 12.0417 21.2083 12.125 21.375C12.2917 21.4583 12.375 21.6667 12.375 22C12.4583 22.3333 12.75 22.4167 13.25 22.25V22.625C13.1667 23.0417 13.2083 23.4167 13.375 23.75C13.5417 24 13.6667 24.3333 13.75 24.75C13.3333 25 13.0417 25.3333 12.875 25.75C12.7083 26.0833 12.4583 26.4167 12.125 26.75C11.7917 27 11.5 27.125 11.25 27.125C11.0833 27.0417 10.9167 27.4583 10.75 28.375C10.5833 28.2917 10.25 28.25 9.75 28.25C9.33333 28.25 8.91667 28.5 8.5 29C8.08333 29.4167 7.5 29.625 6.75 29.625C6.08333 29.625 5.54167 29.375 5.125 28.875C4.70833 28.2917 4.125 27.9583 3.375 27.875C2.79167 26.875 2.29167 26.1667 1.875 25.75C1.54167 25.25 1.29167 24.75 1.125 24.25C0.958333 23.6667 0.875 22.2917 0.875 20.125L0.625 18.75Z" fill="#0097DB"/>
</svg>
