<svg width="177" height="116" viewBox="0 0 177 116" fill="none" xmlns="http://www.w3.org/2000/svg">
<path d="M89.2435 41.7837H93.0391V42.8614H92.7855C92.5403 42.8614 92.3966 42.8784 92.3375 42.9038C92.2445 42.9462 92.1853 43.0056 92.143 43.0735C92.1008 43.1414 92.0839 43.2857 92.0839 43.4978V45.5768L94.51 43.3196C94.6199 43.2178 94.6791 43.1499 94.7044 43.116C94.7298 43.082 94.7383 43.0481 94.7383 43.0226C94.7383 42.9717 94.7129 42.9293 94.6706 42.9038C94.6284 42.8784 94.5185 42.8614 94.3409 42.8614H94.0282V41.7837H97.5448V42.8614H97.4265C97.2659 42.8614 97.1475 42.8699 97.0883 42.8868C97.0292 42.9038 96.9446 42.9378 96.8601 42.9972C96.7671 43.0566 96.6488 43.1414 96.505 43.2687L94.6284 44.9064L96.8685 47.9443C97.063 48.2074 97.2067 48.3601 97.2912 48.411C97.4096 48.4789 97.5786 48.5129 97.8069 48.5129H97.9591V49.5906H94.0282V48.5129H94.1803C94.4677 48.5129 94.6368 48.4959 94.7044 48.4705C94.7636 48.445 94.7974 48.411 94.7974 48.3686C94.7974 48.3262 94.7383 48.2159 94.6284 48.0462L93.2589 46.086L92.0754 47.1127V47.9019C92.0754 48.0971 92.0923 48.2329 92.1346 48.3007C92.1684 48.3771 92.2276 48.428 92.2952 48.462C92.3628 48.4959 92.5065 48.5129 92.7094 48.5129H93.0306V49.5906H89.235V48.5129H89.5224C89.7422 48.5129 89.8944 48.4959 89.962 48.462C90.0381 48.428 90.0888 48.3686 90.1226 48.2922C90.1564 48.2328 90.1649 48.0716 90.1649 47.834V43.5657C90.1649 43.3366 90.148 43.1754 90.1142 43.099C90.0804 43.0226 90.0296 42.9632 89.9536 42.9208C89.8775 42.8784 89.7422 42.8614 89.5478 42.8614H89.2266V41.7837H89.2435Z" fill="#3344BB"/>
<path d="M102.465 43.8371L100.969 47.8932C100.91 48.0545 100.876 48.1648 100.876 48.2242C100.876 48.3345 100.927 48.4109 101.028 48.4533C101.13 48.4957 101.341 48.5212 101.662 48.5212V49.5989H98.6611V48.5212C98.9147 48.5212 99.1007 48.4872 99.2022 48.4109C99.3036 48.343 99.405 48.1817 99.498 47.9441L101.899 41.792H103.64L105.99 47.8253C106.1 48.1054 106.202 48.2836 106.295 48.3854C106.388 48.4788 106.582 48.5297 106.869 48.5297V49.6074H103.184V48.5297L103.404 48.5212C103.776 48.5127 103.953 48.4193 103.953 48.2411C103.953 48.1648 103.919 48.029 103.843 47.8253L102.465 43.8371Z" fill="#3344BB"/>
<path d="M107.512 41.7837H111.316V42.8614H110.961C110.716 42.8614 110.556 42.8953 110.48 42.9717C110.403 43.0481 110.37 43.2432 110.37 43.5572V46.1623L113.202 43.4978C113.202 43.1838 113.159 42.9972 113.075 42.9462C112.99 42.8953 112.821 42.8699 112.551 42.8699H112.255V41.7922H116.059V42.8699H115.738C115.467 42.8699 115.298 42.9123 115.222 42.9887C115.154 43.065 115.112 43.2602 115.112 43.5742V47.8086C115.112 48.131 115.154 48.3347 115.23 48.411C115.307 48.4874 115.509 48.5298 115.831 48.5298H116.05V49.6075H112.246V48.5298H112.5C112.813 48.5298 113.007 48.4874 113.083 48.4026C113.159 48.3177 113.193 48.1225 113.193 47.8086V45.178L110.361 47.8086C110.361 48.0716 110.378 48.2413 110.403 48.3092C110.429 48.3771 110.48 48.4365 110.556 48.4704C110.632 48.5044 110.801 48.5214 111.046 48.5214H111.308V49.599H107.504V48.5214H107.766C108.07 48.5214 108.265 48.4789 108.332 48.3941C108.408 48.3092 108.442 48.131 108.442 47.868V43.6251C108.442 43.2941 108.408 43.082 108.332 42.9972C108.256 42.9123 108.096 42.8699 107.851 42.8699H107.504V41.7837H107.512Z" fill="#3344BB"/>
<path d="M117.107 41.7837H120.903V42.8614H120.556C120.362 42.8614 120.235 42.8784 120.159 42.9208C120.091 42.9632 120.04 43.0141 120.007 43.0905C119.973 43.1669 119.964 43.3196 119.964 43.5657V44.9234H122.796V43.4639C122.796 43.2857 122.788 43.1669 122.762 43.099C122.729 43.0056 122.686 42.9462 122.61 42.9123C122.543 42.8784 122.382 42.8614 122.145 42.8614H121.85V41.7837H125.662V42.8614H125.341C125.121 42.8614 124.986 42.8784 124.91 42.9123C124.842 42.9462 124.791 42.9972 124.766 43.065C124.741 43.1329 124.724 43.2942 124.724 43.5572V47.7916C124.724 48.0547 124.741 48.2244 124.774 48.3007C124.808 48.3771 124.867 48.428 124.935 48.462C125.011 48.4959 125.172 48.5129 125.434 48.5129H125.654V49.5906H121.841V48.5129H122.095C122.331 48.5129 122.492 48.4959 122.568 48.4535C122.653 48.4195 122.712 48.3601 122.737 48.2922C122.771 48.2244 122.788 48.0547 122.788 47.7916V46.1369H119.956V47.7916C119.956 48.0547 119.964 48.2159 119.99 48.2753C120.024 48.3686 120.083 48.428 120.159 48.462C120.235 48.4959 120.396 48.5044 120.632 48.5044H120.894V49.5821H117.099V48.5044H117.361C117.58 48.5044 117.733 48.4874 117.817 48.445C117.902 48.4111 117.961 48.3516 117.995 48.2922C118.029 48.2244 118.045 48.0801 118.045 47.851V43.6081C118.045 43.3451 118.029 43.1669 117.995 43.0905C117.961 43.0141 117.91 42.9547 117.843 42.9123C117.775 42.8784 117.648 42.8529 117.454 42.8529H117.107V41.7837Z" fill="#3344BB"/>
<path d="M126.702 41.7837H130.506V42.8614H130.151C129.906 42.8614 129.745 42.8953 129.669 42.9717C129.593 43.0481 129.559 43.2432 129.559 43.5572V46.1623L132.391 43.4978C132.391 43.1838 132.349 42.9972 132.264 42.9462C132.18 42.8953 132.011 42.8699 131.74 42.8699H131.444V41.7922H135.248V42.8699H134.927C134.657 42.8699 134.488 42.9123 134.411 42.9887C134.344 43.065 134.302 43.2602 134.302 43.5742V47.8086C134.302 48.131 134.344 48.3347 134.42 48.411C134.496 48.4874 134.699 48.5298 135.02 48.5298H135.24V49.6075H131.436V48.5298H131.689C132.002 48.5298 132.197 48.4874 132.273 48.4026C132.349 48.3177 132.383 48.1225 132.383 47.8086V45.178L129.551 47.8086C129.551 48.0716 129.568 48.2413 129.593 48.3092C129.618 48.3771 129.669 48.4365 129.745 48.4704C129.821 48.5044 129.99 48.5214 130.235 48.5214H130.497V49.599H126.693V48.5214H126.955C127.26 48.5214 127.454 48.4789 127.522 48.3941C127.598 48.3092 127.632 48.131 127.632 47.868V43.6251C127.632 43.2941 127.598 43.082 127.522 42.9972C127.446 42.9123 127.285 42.8699 127.04 42.8699H126.693V41.7837H126.702Z" fill="#3344BB"/>
<path d="M136.313 41.7837H140.108V42.8614H139.855C139.61 42.8614 139.466 42.8784 139.407 42.9038C139.314 42.9462 139.255 43.0056 139.212 43.0735C139.17 43.1414 139.153 43.2857 139.153 43.4978V45.5768L141.579 43.3196C141.689 43.2178 141.748 43.1499 141.774 43.116C141.799 43.082 141.808 43.0481 141.808 43.0226C141.808 42.9717 141.782 42.9293 141.74 42.9038C141.698 42.8784 141.588 42.8614 141.41 42.8614H141.098V41.7837H144.614V42.8614H144.496C144.335 42.8614 144.217 42.8699 144.158 42.8868C144.099 42.9038 144.014 42.9378 143.929 42.9972C143.836 43.0566 143.718 43.1414 143.574 43.2687L141.698 44.9064L143.938 47.9443C144.132 48.2074 144.276 48.3601 144.361 48.411C144.479 48.4789 144.648 48.5129 144.876 48.5129H145.028V49.5906H141.098V48.5129H141.25C141.537 48.5129 141.706 48.4959 141.774 48.4705C141.833 48.445 141.867 48.411 141.867 48.3686C141.867 48.3262 141.808 48.2159 141.698 48.0462L140.328 46.086L139.145 47.1127V47.9019C139.145 48.0971 139.162 48.2329 139.204 48.3007C139.238 48.3771 139.297 48.428 139.365 48.462C139.432 48.4959 139.576 48.5129 139.779 48.5129H140.1V49.5906H136.304V48.5129H136.592C136.812 48.5129 136.964 48.4959 137.031 48.462C137.107 48.428 137.158 48.3686 137.192 48.2922C137.226 48.2328 137.234 48.0716 137.234 47.834V43.5657C137.234 43.3366 137.217 43.1754 137.184 43.099C137.15 43.0226 137.099 42.9632 137.023 42.9208C136.947 42.8784 136.812 42.8614 136.617 42.8614H136.296V41.7837H136.313Z" fill="#3344BB"/>
<path d="M148.968 41.7837H150.718L153.051 47.817C153.178 48.1395 153.288 48.3347 153.389 48.411C153.49 48.4874 153.668 48.5214 153.93 48.5214V49.5991H150.244V48.5214L150.464 48.5129C150.667 48.5129 150.811 48.4874 150.895 48.428C150.98 48.3771 151.022 48.3092 151.022 48.2329C151.022 48.165 150.988 48.0292 150.912 47.817L150.684 47.1042H148.317L148.021 47.8934C147.962 48.0631 147.928 48.1734 147.928 48.2244C147.928 48.2838 147.953 48.3347 147.996 48.3856C148.038 48.4365 148.106 48.4704 148.207 48.4959C148.266 48.5129 148.444 48.5214 148.731 48.5214V49.5991H145.722V48.5214C145.916 48.5214 146.06 48.5044 146.144 48.4705C146.229 48.4365 146.305 48.3856 146.364 48.3177C146.423 48.2498 146.482 48.1225 146.559 47.9443L148.968 41.7837ZM148.731 45.9926H150.278L149.526 43.8457L148.731 45.9926Z" fill="#3344BB"/>
<path d="M90.7571 54.0118V52.9341H97.7228V54.0118H97.41C97.1395 54.0118 96.962 54.0542 96.8943 54.1306C96.8267 54.2069 96.7845 54.4021 96.7845 54.7161V58.9505C96.7845 59.2729 96.8267 59.4766 96.9028 59.553C96.9789 59.6293 97.1733 59.6718 97.4946 59.6718H97.7143L98.5428 61.9714L97.5284 62.3363C97.3508 61.8865 97.1057 61.5132 96.776 61.2077C96.4463 60.9022 95.9222 60.7495 95.2036 60.7495H91.8307C91.1121 60.7495 90.588 60.9022 90.2668 61.1992C89.9456 61.4962 89.6835 61.8781 89.506 62.3278L88.5 61.9629L89.3284 59.6633H89.6159C89.9878 59.6633 90.233 59.4681 90.3513 59.0862L91.7208 54.7585C91.7546 54.6397 91.78 54.5549 91.78 54.4785C91.78 54.1645 91.5602 54.0118 91.1121 54.0118H90.7571ZM94.857 59.5275V54.156H93.1663L91.7462 59.0184C91.7208 59.1032 91.7039 59.1796 91.7039 59.239C91.7039 59.4342 91.8814 59.5275 92.2449 59.5275H94.857Z" fill="#3344BB"/>
<path d="M103.285 52.7983C104.52 52.7983 105.517 53.1717 106.286 53.9269C107.047 54.6822 107.436 55.6495 107.436 56.8291C107.436 57.6267 107.259 58.331 106.912 58.942C106.565 59.5615 106.084 60.0367 105.466 60.3676C104.849 60.6986 104.105 60.8683 103.235 60.8683C102.085 60.8683 101.147 60.5543 100.411 59.9179C99.5236 59.1542 99.084 58.1274 99.084 56.846C99.084 55.658 99.4729 54.6822 100.251 53.9269C101.02 53.1802 102.034 52.7983 103.285 52.7983ZM103.311 54.0457C102.719 54.0457 102.246 54.2664 101.899 54.7161C101.459 55.2762 101.24 55.9975 101.24 56.88C101.24 57.7625 101.443 58.4668 101.857 58.976C102.212 59.4172 102.677 59.6378 103.26 59.6378C103.843 59.6378 104.308 59.4172 104.663 58.976C105.078 58.4498 105.28 57.7455 105.28 56.863C105.28 56.2435 105.196 55.7259 105.018 55.3016C104.841 54.8773 104.604 54.5634 104.3 54.3512C103.987 54.1476 103.666 54.0457 103.311 54.0457Z" fill="#3344BB"/>
<path d="M108.467 52.9341H112.263V54.0118H112.009C111.764 54.0118 111.62 54.0287 111.561 54.0542C111.468 54.0966 111.409 54.156 111.367 54.2239C111.324 54.2918 111.307 54.4361 111.307 54.6482V56.7272L113.734 54.47C113.844 54.3682 113.903 54.3003 113.928 54.2663C113.953 54.2324 113.962 54.1985 113.962 54.173C113.962 54.1221 113.937 54.0797 113.894 54.0542C113.852 54.0287 113.742 54.0118 113.565 54.0118H113.252V52.9341H116.768V54.0118H116.65C116.49 54.0118 116.371 54.0203 116.312 54.0372C116.253 54.0542 116.168 54.0881 116.084 54.1475C115.991 54.2069 115.872 54.2918 115.729 54.4191L113.852 56.0568L116.092 59.0947C116.287 59.3578 116.43 59.5105 116.515 59.5614C116.633 59.6293 116.802 59.6633 117.031 59.6633H117.183V60.741H113.252V59.6633H113.404C113.691 59.6633 113.86 59.6463 113.928 59.6208C113.987 59.5954 114.021 59.5614 114.021 59.519C114.021 59.4766 113.962 59.3663 113.852 59.1966L112.483 57.2364L111.299 58.2631V59.0523C111.299 59.2475 111.316 59.3832 111.358 59.4511C111.392 59.5275 111.451 59.5784 111.519 59.6124C111.586 59.6463 111.73 59.6633 111.933 59.6633H112.254V60.741H108.459V59.6633H108.746C108.966 59.6633 109.118 59.6463 109.186 59.6124C109.262 59.5784 109.312 59.519 109.346 59.4426C109.38 59.3832 109.389 59.222 109.389 58.9844V54.7161C109.389 54.487 109.372 54.3257 109.338 54.2494C109.304 54.173 109.253 54.1136 109.177 54.0712C109.101 54.0287 108.966 54.0118 108.771 54.0118H108.45V52.9341H108.467Z" fill="#3344BB"/>
<path d="M118.392 52.6709H119.128L119.204 52.934H123.591L123.684 52.6709H124.428L125.392 55.4118L124.352 55.7767C124.124 55.3184 123.955 55.0214 123.853 54.8857C123.659 54.6141 123.43 54.402 123.168 54.2408C122.974 54.122 122.779 54.0626 122.593 54.0626C122.5 54.0626 122.441 54.088 122.408 54.1304C122.374 54.1729 122.357 54.2747 122.357 54.4274V58.9164C122.357 59.1795 122.365 59.3492 122.382 59.4171C122.399 59.4849 122.433 59.5359 122.475 59.5783C122.517 59.6207 122.585 59.6462 122.661 59.6547C122.737 59.6631 122.949 59.6716 123.287 59.6716V60.7493H119.491V59.6716H119.719C119.973 59.6716 120.134 59.6547 120.21 59.6207C120.277 59.5868 120.336 59.5359 120.37 59.451C120.404 59.3746 120.429 59.2049 120.429 58.9503V54.3596C120.429 54.2323 120.412 54.1474 120.387 54.1135C120.353 54.0795 120.294 54.0626 120.201 54.0626C120.007 54.0626 119.795 54.1389 119.55 54.2832C119.305 54.4274 119.102 54.6311 118.916 54.9026C118.84 55.0045 118.688 55.3015 118.443 55.7852L117.42 55.4203L118.392 52.6709Z" fill="#3344BB"/>
<path d="M130.243 52.7983C131.478 52.7983 132.475 53.1717 133.244 53.9269C134.005 54.6822 134.394 55.6495 134.394 56.8291C134.394 57.6267 134.217 58.331 133.87 58.942C133.523 59.5615 133.042 60.0367 132.424 60.3676C131.807 60.6986 131.063 60.8683 130.193 60.8683C129.043 60.8683 128.105 60.5543 127.369 59.9179C126.482 59.1542 126.042 58.1274 126.042 56.846C126.042 55.658 126.431 54.6822 127.209 53.9269C127.978 53.1802 128.992 52.7983 130.243 52.7983ZM130.269 54.0457C129.677 54.0457 129.204 54.2664 128.857 54.7161C128.417 55.2762 128.198 55.9975 128.198 56.88C128.198 57.7625 128.401 58.4668 128.815 58.976C129.17 59.4172 129.635 59.6378 130.218 59.6378C130.801 59.6378 131.266 59.4172 131.621 58.976C132.036 58.4498 132.238 57.7455 132.238 56.863C132.238 56.2435 132.154 55.7259 131.976 55.3016C131.799 54.8773 131.562 54.5634 131.258 54.3512C130.945 54.1476 130.624 54.0457 130.269 54.0457Z" fill="#3344BB"/>
<path d="M135.459 52.9341H139.576C140.1 52.9341 140.531 52.985 140.878 53.0953C141.224 53.2056 141.52 53.3669 141.765 53.579C142.01 53.7996 142.205 54.0542 142.34 54.3512C142.475 54.6482 142.543 54.9622 142.543 55.2931C142.543 55.9635 142.289 56.5236 141.774 56.9733C141.267 57.423 140.556 57.6522 139.66 57.6522H138.333V59.1117C138.333 59.2984 138.35 59.4087 138.375 59.4596C138.409 59.5275 138.46 59.5869 138.528 59.6124C138.595 59.6463 138.714 59.6633 138.874 59.6633H139.272V60.741H135.476V59.6633H135.738C135.966 59.6633 136.127 59.6463 136.194 59.6124C136.271 59.5784 136.321 59.5275 136.355 59.4511C136.389 59.3748 136.406 59.2305 136.406 59.0014V54.7076C136.406 54.47 136.389 54.3088 136.364 54.2324C136.33 54.156 136.287 54.0966 136.22 54.0627C136.152 54.0287 136.034 54.0118 135.848 54.0118H135.476V52.9341H135.459ZM138.325 54.2154V56.4302H138.993C139.398 56.4302 139.694 56.3878 139.889 56.3029C140.075 56.2181 140.227 56.0908 140.345 55.9126C140.463 55.7429 140.514 55.5307 140.514 55.2931C140.514 54.9367 140.379 54.6482 140.1 54.4445C139.897 54.2918 139.593 54.2069 139.187 54.2069H138.325V54.2154Z" fill="#3344BB"/>
<path d="M145.578 52.9341H147.328L149.661 58.9674C149.788 59.2899 149.898 59.4851 149.999 59.5614C150.101 59.6378 150.278 59.6718 150.54 59.6718V60.7495H146.855V59.6718L147.074 59.6633C147.277 59.6633 147.421 59.6378 147.506 59.5784C147.59 59.519 147.632 59.4596 147.632 59.3832C147.632 59.3154 147.599 59.1796 147.522 58.9674L147.294 58.2546H144.927L144.631 59.0438C144.572 59.2135 144.538 59.3238 144.538 59.3748C144.538 59.4342 144.564 59.4851 144.606 59.536C144.648 59.5869 144.716 59.6208 144.817 59.6463C144.877 59.6633 145.054 59.6718 145.341 59.6718V60.7495H142.332V59.6718C142.526 59.6718 142.67 59.6548 142.755 59.6208C142.839 59.5869 142.915 59.536 142.975 59.4681C143.034 59.4002 143.093 59.2729 143.169 59.0947L145.578 52.9341ZM145.341 57.143H146.888L146.136 54.9961L145.341 57.143Z" fill="#3344BB"/>
<path d="M89.2773 64.084H93.3942C93.9183 64.084 94.3495 64.1349 94.6961 64.2452C95.0426 64.3555 95.3385 64.5168 95.5837 64.7289C95.8288 64.9495 96.0233 65.2041 96.1585 65.5011C96.2938 65.7981 96.3614 66.1121 96.3614 66.443C96.3614 67.1134 96.1078 67.6735 95.5921 68.1232C95.0849 68.5729 94.3748 68.8021 93.4788 68.8021H92.1431V70.2616C92.1431 70.4483 92.16 70.5586 92.1854 70.6095C92.2192 70.6774 92.2699 70.7368 92.3375 70.7623C92.4052 70.7962 92.5235 70.8132 92.6841 70.8132H93.0814V71.8909H89.2858V70.8132H89.5479C89.7761 70.8132 89.9367 70.7962 90.0043 70.7623C90.0804 70.7283 90.1312 70.6774 90.165 70.601C90.1988 70.5247 90.2157 70.3804 90.2157 70.1513V65.8575C90.2157 65.6199 90.1988 65.4587 90.1734 65.3823C90.1396 65.3059 90.0973 65.2465 90.0297 65.2126C89.9621 65.1786 89.8437 65.1617 89.6578 65.1617H89.2858V64.084H89.2773ZM92.1431 65.3653V67.5801H92.8109C93.2167 67.5801 93.5126 67.5377 93.707 67.4528C93.893 67.368 94.0451 67.2407 94.1635 67.0625C94.2818 66.8928 94.3326 66.6806 94.3326 66.443C94.3326 66.0866 94.1973 65.7981 93.9183 65.5944C93.7154 65.4417 93.4111 65.3568 93.0053 65.3568H92.1431V65.3653Z" fill="#3344BB"/>
<path d="M99.3969 64.084H101.147L103.48 70.1173C103.607 70.4398 103.717 70.635 103.818 70.7113C103.92 70.7877 104.097 70.8217 104.359 70.8217V71.8994H100.682V70.8217L100.902 70.8132C101.104 70.8132 101.248 70.7877 101.333 70.7283C101.417 70.6689 101.46 70.6095 101.46 70.5332C101.46 70.4653 101.426 70.3295 101.35 70.1173L101.121 69.4045H98.7544L98.4585 70.1937C98.3994 70.3634 98.3655 70.4737 98.3655 70.5247C98.3655 70.5841 98.3909 70.635 98.4332 70.6859C98.4754 70.7368 98.5431 70.7707 98.6445 70.7962C98.7037 70.8132 98.8812 70.8217 99.1686 70.8217V71.8994H96.1592V70.8217C96.3536 70.8217 96.4973 70.8047 96.5819 70.7708C96.6664 70.7368 96.7425 70.6859 96.8016 70.618C96.8608 70.5501 96.92 70.4228 96.9961 70.2446L99.3969 64.084ZM99.1602 68.2929H100.707L99.9548 66.146L99.1602 68.2929Z" fill="#3344BB"/>
<path d="M105.576 63.8213H106.311L106.387 64.0843H110.775L110.868 63.8213H111.611L112.575 66.5622L111.535 66.9271C111.307 66.4688 111.138 66.1718 111.037 66.0361C110.842 65.7645 110.614 65.5524 110.352 65.3911C110.157 65.2723 109.963 65.213 109.777 65.213C109.684 65.213 109.625 65.2384 109.591 65.2808C109.557 65.3233 109.54 65.4251 109.54 65.5778V70.0668C109.54 70.3298 109.549 70.4996 109.566 70.5674C109.583 70.6353 109.616 70.6862 109.659 70.7287C109.701 70.7711 109.769 70.7966 109.845 70.805C109.921 70.8135 110.132 70.822 110.47 70.822V71.8997H106.675V70.822H106.903C107.156 70.822 107.317 70.805 107.393 70.7711C107.461 70.7372 107.52 70.6862 107.554 70.6014C107.588 70.525 107.613 70.3553 107.613 70.1007V65.51C107.613 65.3827 107.596 65.2978 107.571 65.2639C107.537 65.2299 107.478 65.213 107.385 65.213C107.19 65.213 106.979 65.2893 106.734 65.4336C106.489 65.5778 106.286 65.7815 106.1 66.053C106.024 66.1549 105.872 66.4519 105.626 66.9356L104.604 66.5707L105.576 63.8213Z" fill="#3344BB"/>
<path d="M113.226 64.084H117.03V65.1617H116.675C116.43 65.1617 116.269 65.1956 116.193 65.272C116.117 65.3484 116.084 65.5435 116.084 65.8575V68.4541L118.915 65.7896C118.915 65.4756 118.873 65.2974 118.789 65.238C118.704 65.1871 118.535 65.1617 118.265 65.1617H117.969V64.084H121.773V65.1617H121.452C121.181 65.1617 121.012 65.2041 120.936 65.2805C120.868 65.3568 120.826 65.552 120.826 65.866V70.1004C120.826 70.4228 120.868 70.6265 120.944 70.7029C121.02 70.7792 121.223 70.8217 121.545 70.8217H121.764V71.8994H117.96V70.8217H118.214C118.527 70.8217 118.721 70.7792 118.797 70.6944C118.873 70.6095 118.907 70.4143 118.907 70.1004V67.4698L116.075 70.1004C116.075 70.3634 116.092 70.5331 116.117 70.601C116.143 70.6689 116.193 70.7283 116.27 70.7623C116.346 70.7962 116.515 70.8132 116.76 70.8132H117.022V71.8909H113.218V70.8132H113.48C113.784 70.8132 113.979 70.7708 114.046 70.6859C114.122 70.601 114.156 70.4228 114.156 70.1598V65.9169C114.156 65.586 114.122 65.3738 114.046 65.289C113.97 65.2041 113.81 65.1617 113.564 65.1617H113.218V64.084H113.226Z" fill="#3344BB"/>
<path d="M122.821 64.084H126.617V65.1617H126.27C126.076 65.1617 125.949 65.1786 125.873 65.2211C125.805 65.2635 125.754 65.3144 125.721 65.3908C125.687 65.4672 125.678 65.6199 125.678 65.866V67.2237H128.51V65.7642C128.51 65.586 128.502 65.4672 128.476 65.3993C128.443 65.3059 128.4 65.2465 128.324 65.2126C128.257 65.1786 128.096 65.1617 127.859 65.1617H127.563V64.084H131.376V65.1617H131.055C130.835 65.1617 130.7 65.1786 130.624 65.2126C130.556 65.2465 130.505 65.2974 130.48 65.3653C130.454 65.4332 130.438 65.5944 130.438 65.8575V70.0919C130.438 70.355 130.454 70.5247 130.488 70.601C130.522 70.6774 130.581 70.7283 130.649 70.7623C130.725 70.7962 130.886 70.8132 131.148 70.8132H131.367V71.8909H127.555V70.8132H127.809C128.045 70.8132 128.206 70.7962 128.282 70.7538C128.366 70.7198 128.426 70.6604 128.451 70.5926C128.485 70.5247 128.502 70.355 128.502 70.0919V68.4372H125.67V70.0919C125.67 70.355 125.678 70.5162 125.704 70.5756C125.737 70.6689 125.797 70.7283 125.873 70.7623C125.949 70.7962 126.109 70.8047 126.346 70.8047H126.608V71.8824H122.812V70.8047H123.075C123.294 70.8047 123.447 70.7877 123.531 70.7453C123.616 70.7114 123.675 70.652 123.709 70.5926C123.742 70.5247 123.759 70.3804 123.759 70.1513V65.9084C123.759 65.6454 123.742 65.4672 123.709 65.3908C123.675 65.3144 123.624 65.255 123.556 65.2126C123.489 65.1786 123.362 65.1532 123.168 65.1532H122.821V64.084Z" fill="#3344BB"/>
<path d="M136.617 63.9482C137.852 63.9482 138.849 64.3216 139.618 65.0768C140.388 65.8321 140.768 66.7995 140.768 67.979C140.768 68.7766 140.591 69.4809 140.244 70.0919C139.897 70.7114 139.416 71.1866 138.798 71.5175C138.181 71.8485 137.437 72.0182 136.567 72.0182C135.417 72.0182 134.479 71.7042 133.743 71.0678C132.856 70.3041 132.416 69.2773 132.416 67.9959C132.416 66.8079 132.805 65.8321 133.583 65.0768C134.352 64.3301 135.366 63.9482 136.617 63.9482ZM136.643 65.1956C136.051 65.1956 135.578 65.4163 135.231 65.866C134.791 66.4261 134.572 67.1474 134.572 68.0299C134.572 68.9124 134.775 69.6167 135.189 70.1259C135.544 70.5671 136.009 70.7878 136.592 70.7878C137.175 70.7878 137.64 70.5671 137.995 70.1259C138.41 69.5997 138.612 68.8954 138.612 68.0129C138.612 67.3935 138.528 66.8758 138.35 66.4515C138.173 66.0272 137.936 65.7133 137.632 65.5011C137.319 65.2975 136.989 65.1956 136.643 65.1956Z" fill="#3344BB"/>
<path d="M141.825 65.1617V64.084H146.246C146.923 64.084 147.455 64.1604 147.844 64.3216C148.233 64.4828 148.529 64.7119 148.732 65.0004C148.943 65.2974 149.045 65.6199 149.045 65.9763C149.045 66.2309 148.985 66.477 148.875 66.7061C148.766 66.9352 148.605 67.1389 148.402 67.3171C148.199 67.4953 147.92 67.6395 147.582 67.7583C147.946 67.8517 148.225 67.9535 148.419 68.0638C148.698 68.2165 148.918 68.4372 149.078 68.7257C149.239 69.0057 149.323 69.3197 149.323 69.6676C149.323 70.0834 149.197 70.4653 148.952 70.8132C148.706 71.1611 148.351 71.4242 147.895 71.6109C147.438 71.7975 146.771 71.8824 145.9 71.8824H141.825V70.8047H142.13C142.332 70.8047 142.476 70.7877 142.544 70.7538C142.62 70.7199 142.671 70.6689 142.696 70.6011C142.73 70.5332 142.738 70.3889 142.738 70.1598V65.8066C142.738 65.5775 142.721 65.4247 142.696 65.3653C142.662 65.3059 142.611 65.255 142.544 65.2126C142.468 65.1786 142.332 65.1532 142.13 65.1532H141.825V65.1617ZM144.666 67.2492H145.519C145.967 67.2492 146.297 67.2152 146.508 67.1389C146.72 67.0625 146.88 66.9522 146.99 66.7994C147.1 66.6467 147.151 66.477 147.151 66.2733C147.151 66.0697 147.1 65.8915 146.999 65.7472C146.897 65.6029 146.745 65.5011 146.559 65.4332C146.365 65.3738 146.018 65.3399 145.519 65.3399H144.666V67.2492ZM144.666 68.3948V70.0834C144.666 70.321 144.682 70.4653 144.691 70.4992C144.708 70.5501 144.742 70.5841 144.784 70.6095C144.826 70.6265 144.945 70.6435 145.131 70.6435H145.697C146.027 70.6435 146.297 70.6095 146.517 70.5501C146.737 70.4907 146.923 70.3635 147.075 70.1683C147.227 69.9731 147.303 69.744 147.303 69.4724C147.303 69.2433 147.252 69.0482 147.142 68.8869C147.033 68.7257 146.872 68.6069 146.661 68.522C146.449 68.4372 146.12 68.3948 145.672 68.3948H144.666Z" fill="#3344BB"/>
<path d="M153.085 64.084H154.835L157.168 70.1173C157.295 70.4398 157.405 70.635 157.506 70.7113C157.608 70.7877 157.785 70.8217 158.047 70.8217V71.8994H154.362V70.8217L154.581 70.8132C154.784 70.8132 154.928 70.7877 155.012 70.7283C155.097 70.6689 155.139 70.6095 155.139 70.5332C155.139 70.4653 155.105 70.3295 155.029 70.1173L154.801 69.4045H152.434L152.138 70.1937C152.079 70.3634 152.045 70.4737 152.045 70.5247C152.045 70.5841 152.071 70.635 152.113 70.6859C152.155 70.7368 152.223 70.7707 152.324 70.7962C152.383 70.8132 152.561 70.8217 152.848 70.8217V71.8994H149.839V70.8217C150.033 70.8217 150.177 70.8047 150.262 70.7708C150.346 70.7368 150.422 70.6859 150.481 70.618C150.541 70.5501 150.6 70.4228 150.676 70.2446L153.085 64.084ZM152.857 68.2929H154.404L153.651 66.146L152.857 68.2929Z" fill="#3344BB"/>
<path d="M78.2373 59.2048C78.2288 59.2897 78.2035 59.3746 78.2035 59.4594C78.1697 60.2316 78.0682 60.9953 77.9414 61.759C77.7892 62.6755 77.5779 63.5835 77.3243 64.4745C77.1468 65.0855 76.9777 65.6964 76.7833 66.3074C76.5804 66.9438 76.3606 67.5803 76.1239 68.2082C75.9971 68.5476 75.8449 68.8701 75.6928 69.1926C75.4645 69.6762 75.2447 70.1684 74.9911 70.6351C74.7122 71.1697 74.4163 71.6958 74.0951 72.205C73.6808 72.8584 73.2582 73.5033 72.8101 74.1312C72.3536 74.7677 71.8718 75.3871 71.373 75.9981C70.6122 76.94 69.7838 77.831 68.9215 78.6796C67.5858 79.9949 66.1572 81.1914 64.5257 82.1333C64.4665 82.1672 64.4073 82.2012 64.3397 82.2351C63.655 81.2508 62.9787 80.2749 62.2939 79.2991C62.3531 79.2651 62.4038 79.2312 62.4546 79.1972C63.7733 78.4335 65.0498 77.6104 66.2586 76.677C66.8335 76.2357 67.3745 75.7605 67.924 75.2853C68.4227 74.8441 68.9131 74.4028 69.378 73.9361C69.7669 73.5457 70.1134 73.1215 70.46 72.6972C70.8912 72.1795 71.3308 71.6619 71.7365 71.1188C72.1085 70.6182 72.4635 70.109 72.8017 69.5829C73.106 69.1077 73.3934 68.624 73.6639 68.1318C73.9852 67.5463 74.2895 66.9438 74.5854 66.3413C74.7629 65.9765 74.932 65.6031 75.0841 65.2297C75.4561 64.3133 75.8196 63.3883 76.0732 62.4294C76.293 61.5978 76.4536 60.7492 76.6565 59.9176C76.8932 58.9163 77.0031 57.898 77.0876 56.8797C77.2144 55.4881 77.1975 54.0879 77.113 52.6878C77.0453 51.5592 76.9101 50.4476 76.6903 49.3444C76.4113 47.9443 76.0056 46.5781 75.5068 45.2458C75.2955 44.6773 75.0165 44.1342 74.7629 43.5741C74.6784 43.3789 74.5938 43.1923 74.5008 43.0056C74.4332 42.8698 74.4078 42.7425 74.467 42.5983C74.4924 42.5389 74.5093 42.471 74.5431 42.3691C74.6276 42.5219 74.6953 42.6407 74.7629 42.768C75.6674 44.5075 76.386 46.332 76.9693 48.2073C77.3328 49.3699 77.6117 50.5494 77.8146 51.7459C77.9583 52.5775 78.0598 53.4261 78.1781 54.2661C78.2035 54.4274 78.1866 54.5886 78.195 54.7583C78.195 54.8347 78.2119 54.9026 78.2288 54.9789C78.2373 56.3876 78.2373 57.7962 78.2373 59.2048Z" fill="#0097DB"/>
<path d="M62.0062 93.5891C61.9893 93.5552 61.9809 93.5297 61.964 93.4958C61.871 93.3091 61.8456 93.1139 61.9217 92.9103C62.2007 92.0956 62.2599 91.2556 62.0401 90.424C61.8456 89.6602 61.4314 89.0153 60.8481 88.4722C60.4001 88.0564 59.8929 87.751 59.3772 87.437C59.1659 87.3097 58.9461 87.1824 58.7432 87.0381C58.0585 86.546 57.7372 85.8501 57.6527 85.0355C57.6442 84.9507 57.678 84.8488 57.7119 84.764C57.9824 84.1954 58.3966 83.7881 58.9461 83.4911C59.2419 83.3299 59.5294 83.3044 59.8421 83.3978C59.9351 83.4232 60.0197 83.4487 60.1127 83.4911C60.3832 83.6099 60.6537 83.7457 60.9242 83.8645C61.1863 83.9833 61.3638 84.1785 61.4483 84.45C61.5075 84.6706 61.6343 84.8403 61.8034 84.9761C61.9386 85.0864 62.0823 85.1967 62.2176 85.2986C62.3697 85.4089 62.4712 85.5531 62.5473 85.7313C62.6572 86.0114 62.7079 86.2999 62.7502 86.5969C62.8009 86.9787 62.8939 87.3521 63.0038 87.7255C63.1306 88.1498 63.1982 88.5825 63.1897 89.0238C63.1813 89.6348 63.1813 90.2457 63.1644 90.8567C63.1475 91.3828 63.0629 91.9005 62.9108 92.4011C62.8516 92.5963 62.7671 92.783 62.6825 92.9612C62.5642 93.2073 62.412 93.4194 62.15 93.5212C62.1331 93.5297 62.1161 93.5637 62.0992 93.5807C62.0654 93.5891 62.0401 93.5891 62.0062 93.5891Z" fill="#3344BB"/>
<path d="M44.8965 27.6207C44.3724 27.7226 43.882 27.8159 43.4002 27.9177C41.4897 28.3166 39.6553 28.9275 37.9223 29.8185C37.1699 30.2004 36.4176 30.5907 35.6821 30.9981C35.3017 31.2102 34.9636 31.4817 34.6001 31.7193C34.338 31.8975 34.0506 32.0503 33.797 32.237C32.9263 32.8734 32.0809 33.5607 31.2863 34.2905C30.8636 34.6724 30.4409 35.0542 30.0436 35.4531C29.7393 35.7585 29.4688 36.1065 29.1898 36.4289C28.8094 36.8787 28.4205 37.3284 28.057 37.7866C27.5245 38.4485 27.0257 39.1444 26.5861 39.8826C26.2142 40.4936 25.8507 41.1215 25.5041 41.7495C25.0053 42.649 24.5742 43.5739 24.236 44.5413C23.9909 45.2371 23.7542 45.9329 23.5175 46.6373C23.1963 47.6216 22.9088 48.6229 22.7229 49.6412C22.613 50.2437 22.5622 50.8547 22.4862 51.4572C22.4523 51.7202 22.427 51.9833 22.4016 52.2463C22.2833 53.3664 22.3002 54.495 22.3255 55.6236C22.3425 56.328 22.3847 57.0323 22.4439 57.7366C22.4862 58.1863 22.5707 58.6361 22.6383 59.0858C22.7313 59.6628 22.8159 60.2399 22.9257 60.8084C23.1286 61.9116 23.4245 62.9893 23.8218 64.033C24.0923 64.7543 24.4305 65.4501 24.7517 66.1544C25.1068 66.9351 25.5463 67.6819 25.9606 68.4371C26.4171 69.2772 26.9581 70.0664 27.4991 70.847C28.0232 71.5938 28.6234 72.2642 29.2152 72.96C30.3057 74.2328 31.5399 75.3615 32.8417 76.4137C33.3659 76.838 33.9407 77.2029 34.4986 77.5932C36.4091 78.9424 38.5141 79.9098 40.6951 80.7159C41.6503 81.0723 42.6394 81.3354 43.6453 81.5306C44.1187 81.6239 44.5921 81.7003 45.0571 81.7851C45.167 81.8021 45.2177 81.87 45.2853 81.9379C45.9785 82.744 46.6802 83.5502 47.3734 84.3563C48.0581 85.1455 48.7428 85.9347 49.4191 86.7238C49.4614 86.7748 49.5036 86.8257 49.5713 86.902C49.4783 86.9105 49.4191 86.919 49.3599 86.919C48.2525 86.9445 47.1451 86.902 46.0377 86.8002C43.8905 86.5966 41.7856 86.1977 39.7229 85.5698C37.5926 84.9164 35.5384 84.0593 33.6279 82.9053C33.0869 82.5743 32.5205 82.2773 32.0048 81.9124C30.4156 80.8008 28.9108 79.5873 27.5498 78.2042C26.6115 77.2453 25.7239 76.244 24.9039 75.1833C24.1261 74.1819 23.4161 73.1382 22.7651 72.0435C22.2917 71.2544 21.8352 70.4482 21.4548 69.6081C21.1505 68.9462 20.8631 68.2674 20.601 67.5885C20.3305 66.8927 20.0938 66.1884 19.8656 65.4756C19.7134 65.0004 19.6204 64.4997 19.5021 64.016C19.2907 63.142 19.1301 62.251 18.9864 61.36C18.885 60.749 18.8004 60.1381 18.7751 59.5271C18.7666 59.2725 18.7159 59.0179 18.6905 58.7634C18.6229 58.1609 18.5975 57.5584 18.6144 56.9559C18.6314 56.5316 18.6398 56.1158 18.6398 55.6915C18.6398 55.0042 18.7074 54.3253 18.7835 53.6465C18.8681 52.9252 19.0118 52.2124 19.1639 51.5081C19.3076 50.8037 19.4513 50.0994 19.6035 49.3951C19.6627 49.1151 19.7472 48.8435 19.8318 48.572C20.0093 48.0035 20.1868 47.4349 20.3728 46.8664C20.4996 46.4845 20.6517 46.1196 20.8124 45.7547C21.1167 45.0589 21.421 44.3631 21.7507 43.6842C21.9536 43.2599 22.1818 42.8356 22.4185 42.4283C22.8328 41.707 23.2554 40.9942 23.695 40.2814C23.9993 39.7808 24.3544 39.3226 24.7263 38.8728C25.2758 38.2194 25.8253 37.566 26.3748 36.9211C26.9496 36.2422 27.5921 35.6313 28.2515 35.0373C29.342 34.0444 30.4832 33.128 31.6836 32.2879C32.6219 31.6345 33.5603 30.9726 34.5916 30.4719C35.6145 29.9713 36.6458 29.4621 37.7025 29.0379C39.1481 28.4608 40.6274 27.9856 42.1575 27.6971C42.8845 27.5613 43.6115 27.451 44.3385 27.3577C44.3893 27.3492 44.4484 27.3577 44.4907 27.3831C44.6175 27.434 44.7359 27.5189 44.8965 27.6207Z" fill="#0097DB"/>
<path d="M59.1071 24.7866C58.6421 24.8121 58.1856 24.7442 57.7207 24.6848C57.577 24.6678 57.4586 24.6084 57.3741 24.4981C57.2726 24.3623 57.1881 24.2181 57.0867 24.0823C57.0275 24.0059 56.9683 23.9296 56.8922 23.8787C56.7485 23.7938 56.6471 23.8193 56.5879 23.9805C56.5456 24.0993 56.5287 24.2266 56.5118 24.3539C56.5034 24.4387 56.5118 24.5321 56.5034 24.6169C56.478 24.846 56.3681 24.9563 56.1314 24.9563C55.7764 24.9648 55.4129 24.9563 55.0578 24.9648C54.7197 24.9733 54.39 25.0412 54.0772 25.1855C53.8659 25.2873 53.6968 25.4316 53.5784 25.6437C53.4601 25.8558 53.3417 25.8813 53.1304 25.7625C52.9698 25.6692 52.8007 25.5673 52.6486 25.4655C52.471 25.3467 52.3442 25.177 52.2682 24.9733C52.2174 24.8206 52.2259 24.6933 52.3358 24.5745C52.5471 24.3539 52.7585 24.1417 52.9782 23.9296C53.1051 23.8108 53.2403 23.7005 53.384 23.5901C53.7137 23.3441 53.7644 22.7585 53.5531 22.4446C53.4939 22.3512 53.4263 22.2494 53.3756 22.1476C53.2741 21.9354 53.3587 21.7912 53.5869 21.7912C53.9589 21.7827 54.3308 21.7827 54.6859 21.9185C54.8296 21.9779 55.0071 21.9609 55.1677 21.9609C55.2945 21.9609 55.3452 21.9015 55.3537 21.7657C55.3621 21.6554 55.3537 21.5451 55.3452 21.4433C55.3283 21.1208 55.4298 20.9596 55.7426 20.8747C56.1483 20.7729 56.5625 20.7474 56.9683 20.8577C57.6784 21.0529 58.3293 20.9171 58.9464 20.5523C59.1155 20.4589 59.293 20.3741 59.479 20.3062C59.7495 20.2128 60.02 20.2553 60.2567 20.4165C60.7217 20.7389 61.0006 21.1547 60.9246 21.7572C60.8569 22.2494 61.0175 22.6482 61.4233 22.9452C61.474 22.9877 61.5332 23.0301 61.5839 23.0725C61.8714 23.3356 61.8967 23.5732 61.7784 23.9381C61.7615 23.989 61.7361 24.0399 61.6938 24.0738C61.3388 24.3793 60.9584 24.6424 60.485 24.7018C60.113 24.7527 59.7326 24.7612 59.3522 24.7866C59.2761 24.7951 59.1916 24.7866 59.1071 24.7866Z" fill="#3344BB"/>
<path d="M62.5472 34.2315C61.7864 34.2739 61.0932 34.0108 60.3915 33.7987C60.0618 33.7054 59.8674 33.4678 59.842 33.1198C59.842 33.0774 59.8336 33.035 59.8251 33.001C59.7998 32.8738 59.7321 32.7974 59.5969 32.7719C59.4616 32.7465 59.3517 32.7889 59.2841 32.9077C59.2334 32.9926 59.1911 33.0859 59.1489 33.1792C59.0897 33.315 59.0305 33.4508 58.9713 33.5866C58.8952 33.7478 58.8107 33.8072 58.6332 33.7902C58.3289 33.7648 58.0245 33.7223 57.7287 33.6969C57.4159 33.6714 57.0946 33.6205 56.7819 33.6714C56.5452 33.7054 56.3254 33.7732 56.1225 33.909C56.0887 33.9345 56.0549 33.9514 56.021 33.9769C55.6745 34.189 55.3701 34.1466 55.1081 33.8242C54.9559 33.6375 54.8883 33.4168 54.8798 33.1877C54.8714 33.0604 54.9221 32.9586 55.0151 32.8822C55.0996 32.8144 55.1926 32.755 55.2856 32.704C55.6829 32.4749 56.0802 32.2458 56.4775 32.0082C56.6043 31.9318 56.7227 31.8385 56.8241 31.7282C57.0186 31.5245 57.0862 31.2699 57.0355 30.9899C57.027 30.9135 57.0101 30.8457 57.0101 30.7693C57.0017 30.5826 57.1031 30.4638 57.2891 30.4638C57.4497 30.4638 57.6103 30.4808 57.7709 30.5232C58.0245 30.5911 58.2697 30.6844 58.5233 30.7608C58.6078 30.7863 58.6839 30.8287 58.7684 30.8457C58.9629 30.8966 59.0812 30.8372 59.1489 30.6505C59.1827 30.5656 59.1911 30.4808 59.2165 30.3959C59.301 30.0819 59.5208 29.8953 59.842 29.8783C60.0196 29.8698 60.2055 29.9037 60.3831 29.9292C60.4761 29.9462 60.569 29.9801 60.6536 30.0141C61.1185 30.1838 61.6173 30.2262 62.1076 30.2771C62.3443 30.3026 62.5641 30.2177 62.7839 30.1498C63.1305 30.0395 63.4686 29.9462 63.8321 29.9547C63.8913 29.9547 63.9505 29.9547 64.0096 29.9716C64.4492 30.0565 64.8381 30.3365 64.7705 30.9645C64.7451 31.2021 64.6775 31.4312 64.5253 31.6263C64.4746 31.6942 64.4239 31.7706 64.3731 31.847C64.2632 32.0252 64.2717 32.2119 64.39 32.3816C64.4492 32.4664 64.5253 32.5513 64.6014 32.6277C64.855 32.9247 64.8634 33.2471 64.6183 33.5526C64.3224 33.926 63.9082 34.0957 63.4602 34.1551C63.1558 34.1975 62.8515 34.206 62.5472 34.2315Z" fill="#3344BB"/>
<path d="M62.302 39.0255C62.1329 39 61.9638 38.983 61.7863 38.9406C61.1777 38.7963 60.5859 38.6181 60.028 38.3381C59.7828 38.2193 59.7152 38.1175 59.7321 37.8459C59.7406 37.7017 59.7236 37.5659 59.6391 37.4386C59.563 37.3198 59.4869 37.2944 59.3686 37.3622C59.301 37.3962 59.2333 37.4556 59.1911 37.515C59.0643 37.7017 58.9544 37.8884 58.8445 38.092C58.7599 38.2532 58.6501 38.3127 58.4725 38.2872C58.0921 38.2363 57.7117 38.1854 57.3228 38.1599C56.9593 38.1429 56.5958 38.1599 56.2323 38.1769C56.1309 38.1854 56.0295 38.2363 55.928 38.2787C55.8688 38.3042 55.8097 38.3381 55.742 38.3636C55.4123 38.5078 55.2686 38.4654 55.0742 38.1769C54.9897 38.0496 54.9051 37.9308 54.846 37.795C54.7445 37.5829 54.7699 37.4471 54.9389 37.2859C55.1334 37.1077 55.3447 36.9719 55.5983 36.8701C56.0379 36.6919 56.4521 36.4628 56.8579 36.2252C57.1115 36.0809 57.1876 35.8094 57.196 35.5208C57.196 35.436 57.196 35.3426 57.2129 35.2578C57.2637 34.9693 57.4835 34.8165 57.7709 34.8759C57.8639 34.8929 57.9569 34.9268 58.0414 34.9693C58.295 35.0881 58.5486 35.2154 58.8107 35.3426C59.1319 35.4954 59.2841 35.4614 59.47 35.156C59.5123 35.0881 59.5461 35.0117 59.5799 34.9353C59.7152 34.6468 59.9265 34.4941 60.2478 34.511C60.5436 34.528 60.8226 34.5789 61.0931 34.6977C61.4059 34.8335 61.7271 34.9268 62.0653 34.9778C62.4711 35.0372 62.8599 34.9523 63.2488 34.8759C63.4094 34.842 63.5616 34.808 63.7222 34.7741C63.9589 34.7232 64.1956 34.7402 64.4238 34.825C64.7197 34.9268 64.8803 35.1305 64.931 35.4275C64.9733 35.6566 64.9395 35.8772 64.8211 36.0809C64.7112 36.2676 64.5929 36.4543 64.4576 36.6155C64.2801 36.8276 64.2632 37.0313 64.4069 37.2689C64.4745 37.3792 64.5253 37.498 64.5675 37.6168C64.6774 37.9393 64.5929 38.2448 64.3139 38.4569C64.018 38.6775 63.6799 38.8218 63.3164 38.8812C63.0797 38.9151 62.8346 38.9576 62.5979 38.9915C62.5049 39.0085 62.4119 39.017 62.302 39.0255Z" fill="#3344BB"/>
<path d="M57.3659 29.3861C57.07 29.3861 56.7741 29.3691 56.4783 29.3861C56.1148 29.4115 55.7766 29.5218 55.5061 29.7849C55.3201 29.9631 55.0919 29.9886 54.8721 29.8613C54.7284 29.7849 54.6016 29.6831 54.4832 29.5728C54.2465 29.3521 54.2381 28.8854 54.5086 28.6818C54.7707 28.4866 55.0243 28.2914 55.2863 28.0962C55.4385 27.9859 55.5991 27.8841 55.7428 27.7568C56.081 27.4513 56.174 27.0779 56.0049 26.6537C55.9795 26.5858 55.9542 26.5179 55.9373 26.4415C55.9119 26.3057 55.9542 26.2294 56.1063 26.2209C56.3092 26.2124 56.5121 26.2039 56.715 26.2294C56.9517 26.2633 57.1799 26.3482 57.4166 26.4076C57.5265 26.433 57.6364 26.467 57.7548 26.4755C57.9407 26.4839 58.0084 26.4245 58.0506 26.2379C58.0929 26.0512 58.1267 25.8645 58.1774 25.6863C58.2282 25.4911 58.262 25.4657 58.4564 25.4657C58.6677 25.4572 58.8791 25.4487 59.082 25.4572C59.3018 25.4657 59.5216 25.4996 59.7413 25.5335C60.2486 25.6184 60.7558 25.6948 61.2714 25.5845C61.4828 25.542 61.6772 25.4402 61.8801 25.3723C62.0745 25.3129 62.269 25.245 62.4634 25.2111C62.8692 25.1347 63.1819 25.2959 63.4017 25.6269C63.6469 25.9918 63.6891 26.3991 63.537 26.8149C63.5116 26.8913 63.4694 26.9676 63.4524 27.044C63.4017 27.2731 63.444 27.4853 63.6046 27.6719C63.7061 27.7907 63.816 27.9011 63.9089 28.0283C64.1118 28.3084 64.1034 28.546 63.9005 28.809C63.6469 29.1485 63.3256 29.3691 62.8945 29.4285C62.3366 29.5049 61.7787 29.5558 61.2207 29.5473C60.6543 29.5388 60.1133 29.42 59.5807 29.2079C59.4455 29.157 59.3525 29.0636 59.2933 28.9363C59.2341 28.8175 59.1834 28.6902 59.1242 28.563C59.0989 28.512 59.082 28.4611 59.0566 28.4187C59.0059 28.3338 58.9298 28.2744 58.8199 28.2829C58.7185 28.2914 58.6762 28.3763 58.6508 28.4696C58.6086 28.6308 58.5748 28.8006 58.5325 28.9618C58.448 29.2927 58.355 29.3691 58.0084 29.3691C57.7801 29.3861 57.5772 29.3861 57.3659 29.3861Z" fill="#3344BB"/>
<path d="M61.6009 43.6842C61.0937 43.7691 60.6287 43.6078 60.1638 43.4127C59.8172 43.2684 59.4706 43.1326 59.124 43.0054C58.9634 42.946 58.8873 42.8441 58.8788 42.6744C58.8704 42.5047 58.8535 42.335 58.8366 42.1653C58.8196 42.0465 58.8112 41.9022 58.6759 41.8683C58.5407 41.8343 58.4308 41.9107 58.3463 42.021C58.2279 42.1822 58.1095 42.335 57.9997 42.4962C57.9067 42.6405 57.7799 42.7084 57.6108 42.6999C57.3487 42.6914 57.0867 42.6914 56.8246 42.6744C56.7401 42.6659 56.6471 42.6405 56.5795 42.598C56.4442 42.5132 56.3005 42.4708 56.1399 42.4538C55.6749 42.4029 55.2269 42.4029 54.8042 42.6574C54.6351 42.7593 54.4914 42.7338 54.3646 42.5896C54.2125 42.4198 54.1026 42.2332 54.0434 42.004C53.9842 41.7749 54.0518 41.5882 54.2294 41.4355C54.3139 41.3591 54.4153 41.2912 54.5252 41.2573C54.8127 41.147 55.1085 41.0367 55.4044 40.9688C55.8102 40.8669 56.1568 40.6887 56.4357 40.3663C56.6048 40.1796 56.7063 39.9675 56.7401 39.7129C56.7908 39.3565 56.8331 39.331 57.1797 39.348C57.4417 39.3565 57.7038 39.4074 57.932 39.5601C58.0081 39.611 58.1096 39.628 58.1941 39.662C58.304 39.7044 58.4054 39.7383 58.5069 39.7892C58.6844 39.8741 58.8281 39.8487 58.9549 39.6874C59.0225 39.6026 59.0733 39.5007 59.1324 39.4159C59.3691 39.0849 59.6988 38.9916 60.0792 39.1528C60.392 39.2886 60.6963 39.4244 61.0091 39.5516C61.2712 39.662 61.5501 39.7044 61.8376 39.6959C62.4631 39.6874 63.0971 39.6959 63.7227 39.6874C64.0778 39.6789 64.2722 39.8571 64.306 40.222C64.3314 40.5699 64.2299 40.8839 64.0101 41.147C63.9087 41.2743 63.7819 41.3761 63.6635 41.4949C63.4099 41.7495 63.3592 41.9701 63.5114 42.2841C63.6804 42.6235 63.6382 43.0732 63.207 43.3448C62.8182 43.5909 62.404 43.7266 61.939 43.7097C61.8291 43.6927 61.7108 43.6842 61.6009 43.6842Z" fill="#3344BB"/>
<path d="M60.3328 48.3262C59.7241 48.2753 59.1493 48.2414 58.5998 48.0377C58.3631 47.9529 58.1349 47.8256 57.9066 47.6983C57.7375 47.5964 57.5685 47.4946 57.374 47.4692C57.2472 47.4522 57.205 47.4013 57.205 47.257C57.1965 47.0788 57.205 46.9006 57.1965 46.7309C57.1965 46.6291 57.1881 46.5272 57.1712 46.4254C57.1458 46.3066 57.0782 46.2727 56.9598 46.3151C56.9006 46.3406 56.833 46.3745 56.7907 46.4169C56.6893 46.5188 56.5794 46.6291 56.4949 46.7479C56.3089 47.0279 56.0553 47.0958 55.7341 47.0109C55.3959 46.9261 55.0493 46.8412 54.7027 46.8073C54.3139 46.7733 53.9166 46.7903 53.5277 46.7818C53.4432 46.7818 53.3671 46.7903 53.2825 46.7733C53.0205 46.7309 52.843 46.5697 52.7838 46.3066C52.7246 46.0181 52.7922 45.8399 53.0374 45.6787C53.3333 45.4835 53.6376 45.3308 53.9926 45.2544C54.3392 45.178 54.6774 45.0422 55.0071 44.9065C55.3114 44.7792 55.4889 44.5161 55.5734 44.2022C55.5904 44.1343 55.6073 44.0579 55.6326 43.99C55.7087 43.7864 55.8778 43.7185 56.0722 43.8118C56.1229 43.8373 56.1736 43.8797 56.2244 43.9052C56.478 44.0579 56.7316 44.2106 56.9936 44.3464C57.2472 44.4737 57.4417 44.4228 57.6277 44.2191C57.6784 44.1597 57.7122 44.1003 57.7629 44.0409C57.9912 43.727 58.287 43.6251 58.6505 43.7694C58.8957 43.8627 59.1239 43.9985 59.3522 44.1343C59.6058 44.2785 59.8678 44.4143 60.1553 44.4482C60.299 44.4652 60.4511 44.4652 60.6033 44.4652C60.9837 44.4822 61.3726 44.4822 61.753 44.5076C61.8713 44.5161 61.9897 44.5586 62.108 44.5755C62.4293 44.6349 62.5561 44.9574 62.4884 45.212C62.4631 45.3223 62.4123 45.4326 62.3447 45.5259C62.1756 45.7466 61.9981 45.9587 61.8121 46.1708C61.753 46.2387 61.6769 46.3066 61.6093 46.366C61.474 46.4933 61.4486 46.6376 61.4994 46.8073C61.5247 46.8921 61.5501 46.977 61.5755 47.0618C61.6346 47.291 61.5924 47.5116 61.4402 47.6983C61.1781 48.1056 60.7724 48.2923 60.3328 48.3262Z" fill="#3344BB"/>
<path d="M57.7457 52.3485C57.2639 52.3739 56.7989 52.2636 56.3678 52.06C55.9958 51.8818 55.6408 51.6781 55.2857 51.4659C55.0744 51.3471 55.0406 51.2029 55.0829 50.9398C55.0998 50.838 55.0998 50.7277 55.0913 50.6174C55.0829 50.524 55.0152 50.4816 54.9222 50.4816C54.8123 50.4816 54.7109 50.524 54.6348 50.6089C54.5503 50.7022 54.4742 50.7956 54.3981 50.8889C54.153 51.2029 54.0177 51.2368 53.6457 51.118C53.2738 51.0077 52.9018 50.9059 52.5383 50.8041C52.2932 50.7362 52.0565 50.7701 51.8198 50.8295C51.6845 50.8635 51.5577 50.8974 51.4225 50.9144C51.2111 50.9483 51.0674 50.8719 50.9829 50.6768C50.9322 50.5665 50.8899 50.4477 50.8645 50.3289C50.8054 50.0319 50.8899 49.8452 51.1689 49.7179C51.3548 49.633 51.5493 49.5651 51.7352 49.5142C51.955 49.4463 52.1833 49.4039 52.4031 49.353C52.5045 49.3275 52.5975 49.2936 52.6905 49.2597C53.1301 49.1069 53.4513 48.8354 53.6119 48.3856C53.6204 48.3602 53.6373 48.3347 53.6457 48.3092C53.7979 47.9953 53.9754 47.9359 54.2882 48.0971C54.4404 48.1735 54.5756 48.2753 54.7194 48.3686C54.7701 48.4026 54.8123 48.445 54.8631 48.479C55.2012 48.7166 55.3956 48.6741 55.6154 48.3347C55.8437 47.9868 56.2748 47.868 56.6468 48.0547C56.8074 48.1395 56.968 48.2244 57.1202 48.3262C57.5513 48.6063 58.0247 48.7505 58.5404 48.742C58.9292 48.742 59.3265 48.7335 59.7154 48.742C60.1296 48.7505 60.3241 49.0221 60.2226 49.4209C60.1127 49.8282 59.876 50.1507 59.5463 50.4052C59.4787 50.4561 59.4026 50.5071 59.335 50.5665C59.2082 50.6683 59.1659 50.8041 59.2082 50.9653C59.2251 51.0247 59.242 51.0841 59.2589 51.1435C59.3603 51.449 59.2927 51.7035 59.056 51.9157C58.7686 52.1788 58.4305 52.34 58.0331 52.3485C57.9402 52.3485 57.8472 52.3485 57.7457 52.3485Z" fill="#3344BB"/>
<path d="M52.9945 54.7835C52.7662 54.7326 52.5887 54.8005 52.4535 54.9872C52.4112 55.0466 52.3689 55.106 52.3267 55.1654C52.1576 55.386 51.9378 55.4793 51.6673 55.4369C51.4644 55.403 51.2615 55.3351 51.0586 55.2842C50.6444 55.1654 50.2302 55.106 49.7991 55.2248C49.7061 55.2502 49.6215 55.2842 49.5285 55.3181C49.2242 55.4284 48.9706 55.3011 48.8776 54.9956C48.8692 54.9702 48.8607 54.9447 48.8607 54.9193C48.7508 54.4186 48.8438 54.2404 49.3341 54.0707C49.7568 53.9264 50.1795 53.7907 50.6021 53.6379C50.7036 53.604 50.805 53.5531 50.898 53.5021C51.1009 53.3918 51.2531 53.2391 51.3461 53.0269C51.3883 52.9336 51.4221 52.8403 51.4644 52.7469C51.6081 52.4329 51.8617 52.3396 52.1576 52.5008C52.352 52.6027 52.5295 52.7215 52.7155 52.8403C52.7747 52.8742 52.8254 52.9166 52.8846 52.9506C53.0621 53.0439 53.1805 53.0269 53.3157 52.8657C53.3664 52.8063 53.4087 52.7299 53.4594 52.6705C53.5355 52.5772 53.62 52.4839 53.713 52.4075C53.8821 52.2632 54.085 52.2208 54.3048 52.2972C54.4147 52.3396 54.5161 52.382 54.6176 52.4414C55.1586 52.7724 55.7503 52.8997 56.3843 52.8742C56.714 52.8657 57.0437 52.8657 57.3734 52.8572C57.906 52.8487 58.1596 53.2645 57.8975 53.7652C57.7707 54.0198 57.5847 54.2234 57.3819 54.4101C57.348 54.4356 57.3227 54.461 57.2889 54.495C56.9423 54.792 56.9423 54.8853 57.1029 55.2417C57.1959 55.4539 57.1621 55.649 57.0099 55.8272C56.5703 56.3279 56.0208 56.5316 55.3615 56.4128C55.0656 56.3618 54.7782 56.294 54.4908 56.2346C54.0174 56.1327 53.5947 55.9121 53.1889 55.649C53.0368 55.5557 52.986 55.4199 53.0283 55.2502C53.0621 55.0805 53.0537 54.9278 52.9945 54.7835Z" fill="#3344BB"/>
<path d="M52.2514 64.6951C51.6935 64.6951 51.1524 64.5848 50.6199 64.4066C50.4761 64.3556 50.4085 64.2708 50.3747 64.135C50.3493 64.0417 50.3409 63.9483 50.3155 63.855C50.2479 63.6428 50.0704 63.5834 49.8929 63.7192C49.8337 63.7616 49.7914 63.8295 49.7491 63.8889C49.6815 64.0077 49.6054 64.135 49.5547 64.2708C49.4786 64.4575 49.3434 64.5253 49.1574 64.5169C48.8108 64.5169 48.4642 64.5338 48.1261 64.5169C47.7964 64.4999 47.5005 64.5678 47.2046 64.712C47.0863 64.7714 46.9595 64.8308 46.8411 64.8817C46.4185 65.043 46.0211 64.763 46.0127 64.3132C46.0127 64.1011 46.1226 63.9568 46.2917 63.855C46.6636 63.6344 47.0356 63.4137 47.4075 63.1931C47.5005 63.1337 47.5935 63.0828 47.678 63.0149C47.957 62.8027 48.1261 62.5312 48.143 62.1748C48.143 62.1239 48.1514 62.0815 48.1599 62.0305C48.1937 61.8354 48.2867 61.7336 48.4896 61.7505C48.7939 61.7845 49.1067 61.8439 49.411 61.8863C49.5209 61.9033 49.6223 61.9202 49.7322 61.9287C49.8675 61.9372 49.9689 61.8778 50.0366 61.7675C50.0873 61.6826 50.1296 61.5978 50.1718 61.5214C50.4001 61.1226 50.6706 60.9868 51.1186 61.0886C51.6596 61.2159 52.2007 61.2329 52.7501 61.2244C52.9277 61.2244 53.0967 61.1905 53.2574 61.1141C53.5701 60.9783 53.8914 60.8935 54.238 60.9019C54.3056 60.9019 54.3732 60.9104 54.4408 60.9274C54.7621 61.0038 54.9142 61.2838 54.8043 61.5978C54.779 61.6572 54.7536 61.7251 54.7198 61.7845C54.593 62.039 54.4662 62.2936 54.331 62.5482C54.2211 62.7603 54.2211 62.964 54.3563 63.1591C54.5338 63.4137 54.5 63.6683 54.331 63.9144C54.1112 64.2284 53.8068 64.4235 53.4518 64.5254C53.0629 64.6526 52.6572 64.6951 52.2514 64.6951Z" fill="#3344BB"/>
<path d="M53.2317 60.4861C52.8175 60.4691 52.3526 60.4097 51.9045 60.2739C51.634 60.1891 51.3889 60.0787 51.1606 59.9175C51.0254 59.8242 50.9577 59.7054 50.9747 59.5441C50.9831 59.4423 50.9831 59.3405 50.9747 59.2387C50.9747 59.1453 50.9493 59.0605 50.8563 59.018C50.7549 58.9756 50.6619 59.0095 50.5942 59.0774C50.5013 59.1793 50.3998 59.2896 50.3406 59.4084C50.2392 59.612 50.0701 59.7308 49.8757 59.8072C49.8334 59.8242 49.7658 59.8242 49.7151 59.8157C49.3262 59.7393 48.9374 59.6629 48.54 59.5951C48.3033 59.5526 48.0666 59.612 47.8384 59.6884C47.7116 59.7308 47.5848 59.7817 47.458 59.8157C47.2297 59.8836 47.0776 59.8411 46.9423 59.6545C46.7902 59.4338 46.7563 59.1877 46.8578 58.9417C46.9085 58.8144 47.01 58.7295 47.1283 58.6871C47.4326 58.5683 47.737 58.4495 48.0328 58.3307C48.2188 58.2543 48.4132 58.1779 48.5908 58.0846C48.912 57.9234 49.1318 57.6603 49.2332 57.3124C49.2501 57.2445 49.2755 57.1681 49.3009 57.1003C49.3685 56.9305 49.453 56.8711 49.6305 56.9221C49.9011 56.9984 50.1716 57.0918 50.4421 57.1851C50.5351 57.2191 50.6281 57.2615 50.7295 57.2785C50.9662 57.3294 51.1353 57.2275 51.2283 57.0069C51.2536 56.939 51.279 56.8627 51.3212 56.8033C51.4819 56.5741 51.7355 56.4978 52.0483 56.5911C52.192 56.6335 52.3357 56.7014 52.4794 56.7693C52.9697 57.0154 53.4938 57.1427 54.0433 57.1003C54.2377 57.0833 54.4321 57.0324 54.6181 56.9984C54.8633 56.956 55.1169 56.9305 55.362 57.0154C55.6495 57.1172 55.7424 57.27 55.7002 57.5755C55.6579 57.8725 55.5311 58.127 55.3029 58.3052C54.9985 58.5598 54.8971 58.8653 54.9732 59.2471C54.9901 59.3065 54.9901 59.3659 54.9985 59.4253C55.0493 59.7817 54.9647 59.9854 54.6519 60.1551C54.2293 60.3757 53.7728 60.5285 53.2317 60.4861Z" fill="#3344BB"/>
<path d="M51.4736 68.9634C51.2792 68.9295 51.0256 68.8956 50.772 68.8531C50.6621 68.8361 50.5606 68.8192 50.4592 68.7852C50.3662 68.7513 50.2648 68.7089 50.2056 68.641C50.0111 68.4373 49.7744 68.4882 49.5377 68.5222C49.487 68.5307 49.4278 68.5985 49.394 68.6579C49.1827 68.9634 48.8868 69.0822 48.5233 69.0822C48.3373 69.0822 48.1598 69.0737 47.9738 69.0822C47.6864 69.0907 47.4159 69.1671 47.1708 69.3198C47.0524 69.3962 46.9256 69.4641 46.8157 69.5574C46.6551 69.6932 46.486 69.7017 46.3085 69.6253C46.1056 69.5405 45.9281 69.4132 45.8689 69.1841C45.8182 68.9719 45.8774 68.7768 46.0634 68.641C46.317 68.4543 46.5706 68.2846 46.8242 68.0979C47.0101 67.9536 47.2046 67.8179 47.3821 67.6566C47.6442 67.4105 47.7625 67.1136 47.7033 66.7402C47.6611 66.4856 47.7794 66.3414 48.0415 66.3583C48.3373 66.3753 48.6332 66.4177 48.9291 66.4517C49.0305 66.4601 49.132 66.4771 49.2334 66.4771C49.4025 66.4771 49.4701 66.4262 49.5293 66.2565C49.5462 66.1971 49.5631 66.1377 49.5716 66.0783C49.6138 65.8322 49.7575 65.671 49.9773 65.5861C50.1633 65.5182 50.3493 65.4928 50.5522 65.5182C50.8396 65.5607 51.127 65.6031 51.4144 65.6116C51.7948 65.6286 52.1499 65.5352 52.4965 65.3994C52.7924 65.2891 53.0967 65.1958 53.401 65.1024C53.4686 65.077 53.5447 65.0685 53.6208 65.0685C53.9251 65.0515 54.128 65.2297 54.1534 65.5267C54.1703 65.6964 54.1196 65.8492 54.0604 66.0019C53.9758 66.1971 53.8913 66.3838 53.8152 66.5789C53.7307 66.7911 53.773 66.9947 53.9167 67.1729C54.1534 67.4784 54.1618 67.8263 53.9167 68.1233C53.8152 68.2421 53.68 68.344 53.5447 68.4288C53.0798 68.7004 52.5641 68.8361 52.0315 68.9125C51.8456 68.921 51.6934 68.938 51.4736 68.9634Z" fill="#3344BB"/>
<path d="M55.1586 73.6219C55.1416 73.851 55.1247 74.0801 55.0994 74.3093C55.074 74.5044 55.1416 74.6657 55.2854 74.8014C55.6235 75.1239 55.6489 75.4718 55.3614 75.8452C55.0656 76.2355 54.6683 76.4731 54.2033 76.5834C53.7468 76.6938 53.2819 76.7871 52.8169 76.8804C52.7409 76.8974 52.6563 76.8889 52.5802 76.872C52.4112 76.838 52.2421 76.7786 52.073 76.7447C51.9293 76.7107 51.8532 76.6344 51.811 76.4986C51.7941 76.4392 51.7772 76.3798 51.7518 76.3289C51.7011 76.2355 51.5912 76.1761 51.4982 76.1931C51.3967 76.2101 51.3545 76.2949 51.3376 76.3798C51.3122 76.541 51.3038 76.7022 51.2953 76.8635C51.2784 77.0841 51.253 77.118 51.0502 77.169C50.619 77.2878 50.1879 77.3981 49.7652 77.5254C49.4271 77.6272 49.1397 77.8054 48.9621 78.1278C48.8861 78.2721 48.81 78.2806 48.6578 78.2212C48.5395 78.1703 48.4211 78.1278 48.3028 78.0769C47.9646 77.9242 47.8716 77.6187 48.0999 77.3302C48.3366 77.0247 48.5986 76.7447 48.8522 76.4562C48.9452 76.3458 49.0467 76.244 49.1397 76.1422C49.3848 75.8961 49.4017 75.6245 49.2749 75.3191C49.2411 75.2342 49.1988 75.1409 49.1819 75.0475C49.1566 74.8778 49.2157 74.759 49.3848 74.7251C49.537 74.6911 49.6891 74.6911 49.8413 74.6911C50.0442 74.6996 50.2471 74.742 50.4415 74.759C50.6106 74.776 50.6444 74.759 50.7036 74.5978C50.7543 74.462 50.7965 74.3262 50.8304 74.1905C50.9149 73.834 51.084 73.6813 51.439 73.6474C51.6504 73.6304 51.8532 73.6134 52.0646 73.6134C52.6732 73.6219 53.2227 73.4607 53.7215 73.0958C53.9835 72.9006 54.2794 72.7648 54.6175 72.7733C54.9557 72.7903 55.1247 72.943 55.1416 73.291C55.1586 73.4182 55.1501 73.5201 55.1586 73.6219Z" fill="#3344BB"/>
<path d="M51.5321 72.8921C51.4645 72.8921 51.3968 72.8836 51.3292 72.8921C51.008 72.9176 50.7966 72.7733 50.6783 72.4848C50.6276 72.3575 50.5346 72.2981 50.4247 72.2302C50.3401 72.1878 50.281 72.1963 50.2387 72.2811C50.188 72.3914 50.1373 72.5018 50.1034 72.6206C49.9851 73.0448 49.8245 73.1806 49.3764 73.223C49.2327 73.2315 49.0975 73.2485 48.9538 73.274C48.5734 73.3249 48.2268 73.4861 47.9393 73.7407C47.8379 73.8255 47.7365 73.9189 47.6181 73.9952C47.3307 74.1989 46.8235 74.0292 46.7051 73.6898C46.6629 73.5794 46.6713 73.4522 46.7305 73.3588C46.815 73.2315 46.8996 73.0958 47.0095 72.9939C47.2884 72.7224 47.5928 72.4678 47.8802 72.1963C47.9901 72.0944 48.0831 71.9841 48.176 71.8653C48.3198 71.6702 48.3367 71.458 48.2099 71.2374C48.1845 71.195 48.1676 71.1525 48.1507 71.1101C48.0915 70.9489 48.1591 70.8046 48.3197 70.7537C48.4043 70.7282 48.4888 70.7113 48.5818 70.7113C48.7762 70.7113 48.9707 70.7198 49.1651 70.7283C49.2496 70.7283 49.3257 70.7452 49.4103 70.7452C49.6639 70.7452 49.7822 70.6434 49.8329 70.3973C49.8498 70.3209 49.8583 70.2531 49.8752 70.1767C49.9428 69.9476 50.0865 69.7948 50.3232 69.7694C50.543 69.7439 50.7713 69.7185 50.9911 69.7269C51.642 69.7609 52.2337 69.5912 52.8001 69.2942C53.0284 69.1754 53.2735 69.099 53.5018 68.9802C53.8484 68.8105 54.3133 69.2008 54.2372 69.5997C54.2203 69.693 54.1865 69.7863 54.1611 69.8712C54.1104 70.0409 54.0597 70.2106 54.0174 70.3803C53.9667 70.584 54.009 70.7622 54.1611 70.9234C54.2457 71.0083 54.3133 71.1186 54.3556 71.2289C54.4655 71.4835 54.4317 71.738 54.2626 71.9587C54.178 72.0605 54.0766 72.1538 53.9667 72.2302C53.4426 72.6036 52.8424 72.7733 52.2084 72.8497C51.9801 72.8751 51.7519 72.8836 51.5236 72.9006C51.5405 72.9006 51.5321 72.9006 51.5321 72.8921Z" fill="#3344BB"/>
<path d="M51.6424 82.091C51.4395 82.091 51.2366 82.108 51.0337 82.091C50.7716 82.0656 50.6702 81.9468 50.6448 81.6837C50.6195 81.4207 50.6871 81.1915 50.8477 80.9794C51.0252 80.7503 51.1943 80.5297 51.3549 80.2921C51.431 80.1817 51.4817 80.0545 51.524 79.9272C51.5663 79.7914 51.5409 79.7405 51.3887 79.6896C51.2958 79.6556 51.2619 79.5962 51.2619 79.5029C51.2619 79.3586 51.2535 79.2144 51.2535 79.0786C51.2535 78.841 51.3634 78.7052 51.5916 78.6713C51.7269 78.6458 51.8706 78.6543 52.0143 78.6458C52.1665 78.6373 52.3102 78.6458 52.4623 78.6373C52.5976 78.6289 52.6483 78.561 52.6652 78.4252C52.6737 78.3658 52.6737 78.3064 52.6652 78.2385C52.6399 77.9924 52.7159 77.7718 52.8005 77.5512C52.8343 77.4578 52.885 77.4154 52.9949 77.4069C53.2992 77.373 53.5951 77.3305 53.8994 77.2966C54.2714 77.2542 54.6095 77.1354 54.9054 76.9062C55.2013 76.6856 55.5141 76.4735 55.8015 76.2444C55.9452 76.134 56.0805 76.1256 56.2326 76.185C56.4693 76.2783 56.6468 76.4141 56.6722 76.6856C56.706 76.9741 56.7483 77.2627 56.7567 77.5512C56.7652 77.7463 56.8244 77.8906 56.985 77.9924C57.0442 78.0349 57.1033 78.0858 57.154 78.1367C57.4499 78.4422 57.4753 78.8495 57.2132 79.1889C57.1541 79.2653 57.0864 79.3332 57.0103 79.3926C56.5708 79.732 56.1058 80.012 55.5648 80.1563C55.3534 80.2157 55.1337 80.2836 54.9223 80.3515C54.5588 80.4618 54.2714 80.3684 54.0516 80.0629C54.0262 80.029 54.0093 79.9866 53.9755 79.9611C53.891 79.8932 53.7811 79.8169 53.6797 79.8678C53.6205 79.9017 53.5867 80.012 53.5698 80.0884C53.5444 80.2496 53.5444 80.4109 53.5359 80.5721C53.5275 80.7503 53.443 80.8606 53.2654 80.9115C53.1809 80.937 53.0964 80.9539 53.0118 80.9879C52.8428 81.0473 52.6652 81.0982 52.4962 81.1746C52.158 81.3273 51.8791 81.5395 51.7184 81.8874C51.7269 81.9637 51.6846 82.0232 51.6424 82.091Z" fill="#3344BB"/>
<path d="M55.1931 81.6154C55.1762 81.2081 55.3621 80.9874 55.7679 80.9195C56.0553 80.8686 56.3428 80.8262 56.6217 80.7583C56.9768 80.6735 57.2811 80.4868 57.5432 80.2322C57.7038 80.0795 57.8898 79.9522 58.0757 79.8334C58.2702 79.7061 58.5238 79.7655 58.6506 79.9607C58.8365 80.2492 58.9803 80.5547 58.9211 80.9195C58.8788 81.2081 58.9803 81.4202 59.2423 81.556C59.7411 81.819 59.6988 82.3282 59.4283 82.6591C59.3776 82.7185 59.3268 82.7694 59.2677 82.8204C58.7182 83.2531 58.118 83.5756 57.4164 83.6774C57.2557 83.7029 57.0782 83.6774 56.9176 83.652C56.7739 83.635 56.6555 83.5501 56.5625 83.4398C56.5287 83.4059 56.5034 83.3634 56.4696 83.3295C56.3258 83.2107 56.216 83.2446 56.1652 83.4228C56.1483 83.4907 56.1483 83.5586 56.1483 83.6265C56.1399 83.7198 56.1399 83.8132 56.1314 83.9065C56.1145 84.0338 56.0469 84.1187 55.937 84.1696C55.8524 84.212 55.7595 84.2375 55.6665 84.2629C55.472 84.3308 55.2692 84.3987 55.0747 84.4751C54.7958 84.5939 54.5929 84.789 54.4661 85.0691C54.3224 85.4 54.111 85.4594 53.7982 85.2812C53.7391 85.2473 53.6883 85.2048 53.6292 85.1624C53.384 84.9503 53.3333 84.7296 53.4855 84.4411C53.5446 84.3308 53.6207 84.2205 53.6883 84.1102C53.8236 83.898 53.9758 83.6944 54.111 83.4822C54.3054 83.1852 54.2716 82.8458 54.0349 82.5828C54.018 82.5658 54.0011 82.5573 53.9927 82.5403C53.8321 82.3621 53.849 82.2348 54.0603 82.116C54.1617 82.0566 54.2801 82.0057 54.39 81.9633C54.5252 81.9124 54.652 81.9209 54.7873 81.9718C55.0747 82.0821 55.1931 81.9972 55.1846 81.6918C55.1931 81.6663 55.1931 81.6408 55.1931 81.6154Z" fill="#3344BB"/>
</svg>
