<svg width="375" height="104" viewBox="0 0 375 104" fill="none" xmlns="http://www.w3.org/2000/svg">
<g filter="url(#filter0_i_188_2885)">
<rect width="375" height="104" fill="#0097DB"/>
</g>
<path d="M187.876 38.8574H191.201V39.8015H190.979C190.765 39.8015 190.639 39.8164 190.587 39.8387C190.505 39.8758 190.454 39.9279 190.417 39.9873C190.379 40.0468 190.365 40.1732 190.365 40.359V42.1803L192.49 40.2029C192.586 40.1137 192.638 40.0542 192.66 40.0245C192.683 39.9948 192.69 39.965 192.69 39.9427C192.69 39.8981 192.668 39.861 192.631 39.8387C192.594 39.8164 192.497 39.8015 192.342 39.8015H192.068V38.8574H195.149V39.8015H195.045C194.904 39.8015 194.801 39.8089 194.749 39.8238C194.697 39.8387 194.623 39.8684 194.549 39.9204C194.467 39.9725 194.364 40.0468 194.238 40.1583L192.594 41.593L194.556 44.2543C194.726 44.4847 194.852 44.6185 194.926 44.6631C195.03 44.7226 195.178 44.7523 195.378 44.7523H195.511V45.6964H192.068V44.7523H192.201C192.453 44.7523 192.601 44.7374 192.66 44.7151C192.712 44.6928 192.742 44.6631 192.742 44.6259C192.742 44.5888 192.69 44.4921 192.594 44.3435L191.394 42.6263L190.357 43.5258V44.2171C190.357 44.3881 190.372 44.507 190.409 44.5665C190.439 44.6334 190.491 44.678 190.55 44.7077C190.609 44.7374 190.735 44.7523 190.913 44.7523H191.194V45.6964H187.869V44.7523H188.121C188.313 44.7523 188.447 44.7374 188.506 44.7077C188.573 44.678 188.617 44.6259 188.647 44.559C188.676 44.507 188.684 44.3658 188.684 44.1576V40.4185C188.684 40.2178 188.669 40.0765 188.639 40.0096C188.61 39.9427 188.565 39.8907 188.498 39.8535C188.432 39.8164 188.313 39.8015 188.143 39.8015H187.862V38.8574H187.876Z" fill="white"/>
<path d="M199.459 40.6565L198.148 44.2098C198.096 44.351 198.066 44.4477 198.066 44.4997C198.066 44.5963 198.111 44.6632 198.2 44.7004C198.288 44.7376 198.474 44.7599 198.755 44.7599V45.7039H196.126V44.7599C196.348 44.7599 196.511 44.7301 196.6 44.6632C196.689 44.6038 196.778 44.4625 196.859 44.2544L198.962 38.865H200.488L202.547 44.1503C202.643 44.3956 202.732 44.5517 202.813 44.6409C202.895 44.7227 203.065 44.7673 203.317 44.7673V45.7114H200.088V44.7673L200.281 44.7599C200.606 44.7524 200.762 44.6707 200.762 44.5146C200.762 44.4477 200.732 44.3287 200.666 44.1503L199.459 40.6565Z" fill="white"/>
<path d="M203.88 38.8574H207.213V39.8015H206.902C206.687 39.8015 206.546 39.8312 206.48 39.8981C206.413 39.965 206.383 40.136 206.383 40.4111V42.6932L208.864 40.359C208.864 40.084 208.827 39.9204 208.753 39.8758C208.679 39.8312 208.531 39.8089 208.294 39.8089H208.035V38.8649H211.367V39.8089H211.086C210.849 39.8089 210.701 39.8461 210.634 39.913C210.575 39.9799 210.538 40.1509 210.538 40.4259V44.1353C210.538 44.4178 210.575 44.5962 210.641 44.6631C210.708 44.73 210.886 44.7672 211.167 44.7672H211.36V45.7112H208.027V44.7672H208.249C208.523 44.7672 208.694 44.73 208.76 44.6557C208.827 44.5813 208.857 44.4104 208.857 44.1353V41.8309L206.376 44.1353C206.376 44.3658 206.391 44.5144 206.413 44.5739C206.435 44.6334 206.48 44.6854 206.546 44.7151C206.613 44.7449 206.761 44.7597 206.976 44.7597H207.205V45.7038H203.873V44.7597H204.102C204.369 44.7597 204.539 44.7226 204.599 44.6482C204.665 44.5739 204.695 44.4178 204.695 44.1873V40.4705C204.695 40.1806 204.665 39.9948 204.599 39.9204C204.532 39.8461 204.391 39.8089 204.176 39.8089H203.873V38.8574H203.88Z" fill="white"/>
<path d="M212.286 38.8574H215.611V39.8015H215.307C215.137 39.8015 215.026 39.8164 214.959 39.8535C214.9 39.8907 214.855 39.9353 214.826 40.0022C214.796 40.0691 214.789 40.2029 214.789 40.4185V41.6079H217.27V40.3293C217.27 40.1732 217.262 40.0691 217.24 40.0096C217.21 39.9279 217.173 39.8758 217.107 39.8461C217.047 39.8164 216.907 39.8015 216.699 39.8015H216.44V38.8574H219.78V39.8015H219.499C219.306 39.8015 219.188 39.8164 219.121 39.8461C219.062 39.8758 219.017 39.9204 218.995 39.9799C218.973 40.0394 218.958 40.1806 218.958 40.4111V44.1204C218.958 44.3509 218.973 44.4996 219.002 44.5665C219.032 44.6334 219.084 44.678 219.143 44.7077C219.21 44.7374 219.351 44.7523 219.58 44.7523H219.773V45.6964H216.433V44.7523H216.655C216.862 44.7523 217.003 44.7374 217.07 44.7003C217.144 44.6705 217.196 44.6185 217.218 44.559C217.247 44.4996 217.262 44.3509 217.262 44.1204V42.6709H214.781V44.1204C214.781 44.3509 214.789 44.4921 214.811 44.5442C214.841 44.6259 214.892 44.678 214.959 44.7077C215.026 44.7374 215.166 44.7449 215.374 44.7449H215.603V45.6889H212.278V44.7449H212.508C212.7 44.7449 212.834 44.73 212.908 44.6928C212.982 44.6631 213.034 44.6111 213.063 44.559C213.093 44.4996 213.108 44.3732 213.108 44.1725V40.4557C213.108 40.2252 213.093 40.0691 213.063 40.0022C213.034 39.9353 212.989 39.8833 212.93 39.8461C212.871 39.8164 212.76 39.7941 212.589 39.7941H212.286V38.8574Z" fill="white"/>
<path d="M220.691 38.8574H224.023V39.8015H223.712C223.497 39.8015 223.357 39.8312 223.29 39.8981C223.223 39.965 223.194 40.136 223.194 40.4111V42.6932L225.674 40.359C225.674 40.084 225.637 39.9204 225.563 39.8758C225.489 39.8312 225.341 39.8089 225.104 39.8089H224.845V38.8649H228.178V39.8089H227.896C227.659 39.8089 227.511 39.8461 227.444 39.913C227.385 39.9799 227.348 40.1509 227.348 40.4259V44.1353C227.348 44.4178 227.385 44.5962 227.452 44.6631C227.518 44.73 227.696 44.7672 227.978 44.7672H228.17V45.7112H224.838V44.7672H225.06C225.334 44.7672 225.504 44.73 225.571 44.6557C225.637 44.5813 225.667 44.4104 225.667 44.1353V41.8309L223.186 44.1353C223.186 44.3658 223.201 44.5144 223.223 44.5739C223.245 44.6334 223.29 44.6854 223.357 44.7151C223.423 44.7449 223.571 44.7597 223.786 44.7597H224.016V45.7038H220.683V44.7597H220.913C221.179 44.7597 221.35 44.7226 221.409 44.6482C221.476 44.5739 221.505 44.4178 221.505 44.1873V40.4705C221.505 40.1806 221.476 39.9948 221.409 39.9204C221.342 39.8461 221.202 39.8089 220.987 39.8089H220.683V38.8574H220.691Z" fill="white"/>
<path d="M229.11 38.8574H232.435V39.8015H232.213C231.998 39.8015 231.872 39.8164 231.821 39.8387C231.739 39.8758 231.687 39.9279 231.65 39.9873C231.613 40.0468 231.598 40.1732 231.598 40.359V42.1803L233.724 40.2029C233.82 40.1137 233.872 40.0542 233.894 40.0245C233.916 39.9948 233.924 39.965 233.924 39.9427C233.924 39.8981 233.902 39.861 233.864 39.8387C233.827 39.8164 233.731 39.8015 233.576 39.8015H233.302V38.8574H236.382V39.8015H236.279C236.138 39.8015 236.034 39.8089 235.982 39.8238C235.931 39.8387 235.857 39.8684 235.782 39.9204C235.701 39.9725 235.597 40.0468 235.471 40.1583L233.827 41.593L235.79 44.2543C235.96 44.4847 236.086 44.6185 236.16 44.6631C236.264 44.7226 236.412 44.7523 236.612 44.7523H236.745V45.6964H233.302V44.7523H233.435C233.687 44.7523 233.835 44.7374 233.894 44.7151C233.946 44.6928 233.976 44.6631 233.976 44.6259C233.976 44.5888 233.924 44.4921 233.827 44.3435L232.628 42.6263L231.591 43.5258V44.2171C231.591 44.3881 231.606 44.507 231.643 44.5665C231.672 44.6334 231.724 44.678 231.784 44.7077C231.843 44.7374 231.969 44.7523 232.146 44.7523H232.428V45.6964H229.103V44.7523H229.355C229.547 44.7523 229.68 44.7374 229.74 44.7077C229.806 44.678 229.851 44.6259 229.88 44.559C229.91 44.507 229.917 44.3658 229.917 44.1576V40.4185C229.917 40.2178 229.903 40.0765 229.873 40.0096C229.843 39.9427 229.799 39.8907 229.732 39.8535C229.666 39.8164 229.547 39.8015 229.377 39.8015H229.095V38.8574H229.11Z" fill="white"/>
<path d="M240.196 38.8574H241.729L243.773 44.1427C243.884 44.4252 243.98 44.5962 244.069 44.6631C244.158 44.73 244.313 44.7597 244.543 44.7597V45.7038H241.314V44.7597L241.507 44.7523C241.684 44.7523 241.81 44.73 241.884 44.678C241.958 44.6334 241.995 44.5739 241.995 44.507C241.995 44.4475 241.966 44.3286 241.899 44.1427L241.699 43.5183H239.626L239.367 44.2097C239.315 44.3583 239.285 44.455 239.285 44.4996C239.285 44.5516 239.307 44.5962 239.344 44.6408C239.381 44.6854 239.441 44.7151 239.529 44.7374C239.581 44.7523 239.737 44.7597 239.989 44.7597V45.7038H237.352V44.7597C237.523 44.7597 237.648 44.7449 237.723 44.7151C237.797 44.6854 237.863 44.6408 237.915 44.5813C237.967 44.5219 238.019 44.4104 238.085 44.2543L240.196 38.8574ZM239.989 42.5445H241.344L240.685 40.6638L239.989 42.5445Z" fill="white"/>
<path d="M189.202 49.5693V48.6252H195.304V49.5693H195.03C194.794 49.5693 194.638 49.6065 194.579 49.6734C194.52 49.7403 194.482 49.9113 194.482 50.1863V53.8957C194.482 54.1782 194.52 54.3566 194.586 54.4235C194.653 54.4904 194.823 54.5276 195.105 54.5276H195.297L196.023 56.5421L195.134 56.8617C194.979 56.4678 194.764 56.1407 194.475 55.8731C194.186 55.6054 193.727 55.4716 193.098 55.4716H190.143C189.513 55.4716 189.054 55.6055 188.773 55.8656C188.491 56.1258 188.262 56.4603 188.106 56.8543L187.225 56.5347L187.951 54.5201H188.203C188.529 54.5201 188.743 54.3492 188.847 54.0146L190.047 50.2235C190.076 50.1194 190.098 50.0451 190.098 49.9782C190.098 49.7031 189.906 49.5693 189.513 49.5693H189.202ZM192.794 54.4012V49.6957H191.313L190.069 53.9552C190.047 54.0295 190.032 54.0964 190.032 54.1485C190.032 54.3194 190.187 54.4012 190.506 54.4012H192.794Z" fill="white"/>
<path d="M200.178 48.5063C201.259 48.5063 202.133 48.8334 202.807 49.495C203.473 50.1566 203.814 51.0041 203.814 52.0373C203.814 52.7361 203.658 53.3531 203.355 53.8883C203.051 54.431 202.629 54.8473 202.088 55.1372C201.548 55.4271 200.896 55.5757 200.133 55.5757C199.126 55.5757 198.304 55.3007 197.66 54.7432C196.882 54.0742 196.497 53.1747 196.497 52.0522C196.497 51.0115 196.838 50.1566 197.519 49.495C198.193 48.8409 199.082 48.5063 200.178 48.5063ZM200.2 49.5991C199.682 49.5991 199.267 49.7924 198.963 50.1864C198.578 50.677 198.386 51.3088 198.386 52.0819C198.386 52.855 198.563 53.472 198.926 53.918C199.237 54.3046 199.645 54.4979 200.156 54.4979C200.667 54.4979 201.074 54.3046 201.385 53.918C201.748 53.4572 201.926 52.8402 201.926 52.0671C201.926 51.5244 201.851 51.071 201.696 50.6993C201.54 50.3276 201.333 50.0525 201.066 49.8667C200.792 49.6883 200.511 49.5991 200.2 49.5991Z" fill="white"/>
<path d="M204.717 48.6252H208.042V49.5693H207.82C207.605 49.5693 207.479 49.5842 207.428 49.6065C207.346 49.6437 207.294 49.6957 207.257 49.7552C207.22 49.8146 207.205 49.941 207.205 50.1268V51.9481L209.331 49.9707C209.427 49.8815 209.479 49.8221 209.501 49.7923C209.523 49.7626 209.531 49.7329 209.531 49.7106C209.531 49.666 209.509 49.6288 209.472 49.6065C209.435 49.5842 209.338 49.5693 209.183 49.5693H208.909V48.6252H211.989V49.5693H211.886C211.745 49.5693 211.641 49.5768 211.589 49.5916C211.538 49.6065 211.464 49.6362 211.39 49.6883C211.308 49.7403 211.204 49.8146 211.079 49.9261L209.435 51.3608L211.397 54.0221C211.567 54.2525 211.693 54.3863 211.767 54.4309C211.871 54.4904 212.019 54.5201 212.219 54.5201H212.352V55.4642H208.909V54.5201H209.042C209.294 54.5201 209.442 54.5053 209.501 54.483C209.553 54.4607 209.583 54.4309 209.583 54.3938C209.583 54.3566 209.531 54.26 209.435 54.1113L208.235 52.3941L207.198 53.2936V53.9849C207.198 54.1559 207.213 54.2748 207.25 54.3343C207.28 54.4012 207.331 54.4458 207.391 54.4755C207.45 54.5053 207.576 54.5201 207.753 54.5201H208.035V55.4642H204.71V54.5201H204.962C205.154 54.5201 205.287 54.5053 205.347 54.4755C205.413 54.4458 205.458 54.3938 205.487 54.3269C205.517 54.2748 205.524 54.1336 205.524 53.9254V50.1863C205.524 49.9856 205.51 49.8444 205.48 49.7775C205.45 49.7106 205.406 49.6585 205.339 49.6214C205.273 49.5842 205.154 49.5693 204.984 49.5693H204.702V48.6252H204.717Z" fill="white"/>
<path d="M213.41 48.3945H214.055L214.121 48.625H217.965L218.046 48.3945H218.698L219.542 50.7956L218.631 51.1152C218.431 50.7138 218.283 50.4537 218.194 50.3347C218.024 50.0968 217.824 49.911 217.595 49.7698C217.424 49.6657 217.254 49.6136 217.091 49.6136C217.009 49.6136 216.958 49.636 216.928 49.6731C216.898 49.7103 216.884 49.7995 216.884 49.9333V53.8657C216.884 54.0961 216.891 54.2448 216.906 54.3043C216.921 54.3638 216.95 54.4084 216.987 54.4455C217.024 54.4827 217.084 54.505 217.15 54.5124C217.217 54.5199 217.402 54.5273 217.698 54.5273V55.4714H214.373V54.5273H214.573C214.795 54.5273 214.936 54.5124 215.003 54.4827C215.062 54.453 215.114 54.4084 215.143 54.334C215.173 54.2671 215.195 54.1184 215.195 53.8954V49.8738C215.195 49.7623 215.18 49.688 215.158 49.6583C215.129 49.6285 215.077 49.6136 214.995 49.6136C214.825 49.6136 214.64 49.6806 214.425 49.8069C214.21 49.9333 214.033 50.1117 213.87 50.3496C213.803 50.4388 213.67 50.699 213.455 51.1227L212.559 50.803L213.41 48.3945Z" fill="white"/>
<path d="M223.793 48.5063C224.874 48.5063 225.748 48.8334 226.422 49.495C227.088 50.1566 227.429 51.0041 227.429 52.0373C227.429 52.7361 227.274 53.3531 226.97 53.8883C226.666 54.431 226.244 54.8473 225.704 55.1372C225.163 55.4271 224.511 55.5757 223.749 55.5757C222.741 55.5757 221.919 55.3007 221.275 54.7432C220.498 54.0742 220.113 53.1747 220.113 52.0522C220.113 51.0115 220.453 50.1566 221.134 49.495C221.808 48.8409 222.697 48.5063 223.793 48.5063ZM223.815 49.5991C223.297 49.5991 222.882 49.7924 222.579 50.1864C222.193 50.677 222.001 51.3088 222.001 52.0819C222.001 52.855 222.179 53.472 222.541 53.918C222.853 54.3046 223.26 54.4979 223.771 54.4979C224.282 54.4979 224.689 54.3046 225 53.918C225.363 53.4572 225.541 52.8402 225.541 52.0671C225.541 51.5244 225.467 51.071 225.311 50.6993C225.156 50.3276 224.948 50.0525 224.682 49.8667C224.408 49.6883 224.126 49.5991 223.815 49.5991Z" fill="white"/>
<path d="M228.362 48.6252H231.969C232.428 48.6252 232.805 48.6698 233.109 48.7665C233.413 48.8631 233.672 49.0044 233.887 49.1902C234.101 49.3835 234.272 49.6065 234.39 49.8667C234.509 50.1268 234.568 50.4019 234.568 50.6918C234.568 51.2791 234.346 51.7697 233.894 52.1637C233.45 52.5577 232.828 52.7584 232.043 52.7584H230.88V54.0369C230.88 54.2005 230.895 54.2971 230.917 54.3417C230.947 54.4012 230.991 54.4532 231.05 54.4755C231.109 54.5053 231.213 54.5201 231.354 54.5201H231.702V55.4642H228.377V54.5201H228.606C228.806 54.5201 228.947 54.5053 229.006 54.4755C229.073 54.4458 229.117 54.4012 229.147 54.3343C229.177 54.2674 229.191 54.141 229.191 53.9403V50.1789C229.191 49.9707 229.177 49.8295 229.154 49.7626C229.125 49.6957 229.088 49.6437 229.029 49.6139C228.969 49.5842 228.866 49.5693 228.703 49.5693H228.377V48.6252H228.362ZM230.873 49.7477V51.6879H231.458C231.813 51.6879 232.072 51.6507 232.243 51.5764C232.405 51.5021 232.539 51.3906 232.642 51.2345C232.746 51.0858 232.791 50.8999 232.791 50.6918C232.791 50.3796 232.672 50.1268 232.428 49.9484C232.25 49.8146 231.983 49.7403 231.628 49.7403H230.873V49.7477Z" fill="white"/>
<path d="M237.227 48.6252H238.76L240.804 53.9106C240.915 54.1931 241.011 54.364 241.1 54.4309C241.189 54.4978 241.344 54.5276 241.574 54.5276V55.4716H238.345V54.5276L238.537 54.5201C238.715 54.5201 238.841 54.4978 238.915 54.4458C238.989 54.3938 239.026 54.3417 239.026 54.2748C239.026 54.2154 238.997 54.0964 238.93 53.9106L238.73 53.2861H236.656L236.397 53.9775C236.345 54.1262 236.316 54.2228 236.316 54.2674C236.316 54.3194 236.338 54.364 236.375 54.4086C236.412 54.4532 236.471 54.483 236.56 54.5053C236.612 54.5201 236.768 54.5276 237.019 54.5276V55.4716H234.383V54.5276C234.553 54.5276 234.679 54.5127 234.753 54.483C234.827 54.4532 234.894 54.4086 234.946 54.3492C234.998 54.2897 235.05 54.1782 235.116 54.0221L237.227 48.6252ZM237.019 52.3123H238.375L237.715 50.4316L237.019 52.3123Z" fill="white"/>
<path d="M187.906 58.3928H191.513C191.972 58.3928 192.349 58.4374 192.653 58.5341C192.957 58.6307 193.216 58.7719 193.431 58.9578C193.645 59.1511 193.816 59.3741 193.934 59.6342C194.053 59.8944 194.112 60.1695 194.112 60.4594C194.112 61.0466 193.89 61.5373 193.438 61.9312C192.994 62.3252 192.372 62.5259 191.587 62.5259H190.417V63.8045C190.417 63.9681 190.431 64.0647 190.454 64.1093C190.483 64.1688 190.528 64.2208 190.587 64.2431C190.646 64.2729 190.75 64.2877 190.89 64.2877H191.239V65.2318H187.914V64.2877H188.143C188.343 64.2877 188.484 64.2729 188.543 64.2431C188.61 64.2134 188.654 64.1688 188.684 64.1019C188.713 64.035 188.728 63.9086 188.728 63.7079V59.9465C188.728 59.7383 188.713 59.5971 188.691 59.5302C188.661 59.4633 188.624 59.4112 188.565 59.3815C188.506 59.3518 188.402 59.3369 188.239 59.3369H187.914V58.3928H187.906ZM190.417 59.5153V61.4555H191.002C191.357 61.4555 191.616 61.4183 191.787 61.344C191.949 61.2697 192.083 61.1581 192.186 61.002C192.29 60.8534 192.335 60.6675 192.335 60.4594C192.335 60.1472 192.216 59.8944 191.972 59.716C191.794 59.5822 191.527 59.5079 191.172 59.5079H190.417V59.5153Z" fill="white"/>
<path d="M196.771 58.3928H198.304L200.348 63.6782C200.459 63.9606 200.555 64.1316 200.644 64.1985C200.733 64.2654 200.888 64.2951 201.118 64.2951V65.2392H197.897V64.2951L198.089 64.2877C198.267 64.2877 198.393 64.2654 198.467 64.2134C198.541 64.1613 198.578 64.1093 198.578 64.0424C198.578 63.9829 198.548 63.864 198.482 63.6782L198.282 63.0537H196.208L195.949 63.7451C195.897 63.8937 195.867 63.9904 195.867 64.035C195.867 64.087 195.89 64.1316 195.927 64.1762C195.964 64.2208 196.023 64.2505 196.112 64.2728C196.164 64.2877 196.319 64.2951 196.571 64.2951V65.2392H193.935V64.2951C194.105 64.2951 194.231 64.2803 194.305 64.2505C194.379 64.2208 194.446 64.1762 194.497 64.1167C194.549 64.0573 194.601 63.9458 194.668 63.7897L196.771 58.3928ZM196.564 62.0799H197.919L197.26 60.1992L196.564 62.0799Z" fill="white"/>
<path d="M202.184 58.1626H202.828L202.895 58.393H206.738L206.82 58.1626H207.471L208.315 60.5637L207.405 60.8833C207.205 60.4819 207.057 60.2217 206.968 60.1028C206.797 59.8649 206.597 59.6791 206.368 59.5378C206.198 59.4338 206.027 59.3817 205.864 59.3817C205.783 59.3817 205.731 59.404 205.701 59.4412C205.672 59.4784 205.657 59.5676 205.657 59.7014V63.6338C205.657 63.8642 205.664 64.0129 205.679 64.0723C205.694 64.1318 205.724 64.1764 205.761 64.2136C205.798 64.2508 205.857 64.2731 205.924 64.2805C205.99 64.2879 206.175 64.2954 206.472 64.2954V65.2394H203.146V64.2954H203.346C203.569 64.2954 203.709 64.2805 203.776 64.2508C203.835 64.221 203.887 64.1764 203.917 64.1021C203.946 64.0352 203.968 63.8865 203.968 63.6635V59.6419C203.968 59.5304 203.954 59.4561 203.931 59.4263C203.902 59.3966 203.85 59.3817 203.769 59.3817C203.598 59.3817 203.413 59.4486 203.198 59.575C202.984 59.7014 202.806 59.8798 202.643 60.1177C202.576 60.2069 202.443 60.467 202.228 60.8907L201.332 60.5711L202.184 58.1626Z" fill="white"/>
<path d="M208.886 58.3928H212.219V59.3369H211.908C211.693 59.3369 211.552 59.3666 211.486 59.4335C211.419 59.5004 211.389 59.6714 211.389 59.9465V62.2212L213.87 59.887C213.87 59.6119 213.833 59.4558 213.759 59.4038C213.685 59.3592 213.537 59.3369 213.3 59.3369H213.041V58.3928H216.373V59.3369H216.092C215.855 59.3369 215.707 59.3741 215.64 59.441C215.581 59.5079 215.544 59.6788 215.544 59.9539V63.6633C215.544 63.9458 215.581 64.1242 215.647 64.1911C215.714 64.258 215.892 64.2951 216.173 64.2951H216.366V65.2392H213.033V64.2951H213.255C213.529 64.2951 213.7 64.258 213.766 64.1836C213.833 64.1093 213.863 63.9383 213.863 63.6633V61.3589L211.382 63.6633C211.382 63.8937 211.397 64.0424 211.419 64.1019C211.441 64.1613 211.486 64.2134 211.552 64.2431C211.619 64.2729 211.767 64.2877 211.982 64.2877H212.211V65.2318H208.879V64.2877H209.108C209.375 64.2877 209.545 64.2505 209.605 64.1762C209.671 64.1019 209.701 63.9458 209.701 63.7153V59.9985C209.701 59.7086 209.671 59.5227 209.605 59.4484C209.538 59.3741 209.397 59.3369 209.182 59.3369H208.879V58.3928H208.886Z" fill="white"/>
<path d="M217.291 58.3928H220.616V59.3369H220.312C220.142 59.3369 220.031 59.3518 219.964 59.3889C219.905 59.4261 219.861 59.4707 219.831 59.5376C219.802 59.6045 219.794 59.7383 219.794 59.9539V61.1433H222.275V59.8647C222.275 59.7086 222.268 59.6045 222.245 59.545C222.216 59.4633 222.179 59.4112 222.112 59.3815C222.053 59.3518 221.912 59.3369 221.705 59.3369H221.446V58.3928H224.785V59.3369H224.504C224.311 59.3369 224.193 59.3518 224.126 59.3815C224.067 59.4112 224.023 59.4558 224 59.5153C223.978 59.5748 223.963 59.716 223.963 59.9465V63.6559C223.963 63.8863 223.978 64.035 224.008 64.1019C224.037 64.1688 224.089 64.2134 224.149 64.2431C224.215 64.2729 224.356 64.2877 224.585 64.2877H224.778V65.2318H221.438V64.2877H221.66C221.868 64.2877 222.008 64.2729 222.075 64.2357C222.149 64.2059 222.201 64.1539 222.223 64.0944C222.253 64.035 222.268 63.8863 222.268 63.6559V62.2063H219.787V63.6559C219.787 63.8863 219.794 64.0275 219.816 64.0796C219.846 64.1613 219.898 64.2134 219.964 64.2431C220.031 64.2729 220.172 64.2803 220.379 64.2803H220.609V65.2244H217.284V64.2803H217.513C217.706 64.2803 217.839 64.2654 217.913 64.2283C217.987 64.1985 218.039 64.1465 218.069 64.0944C218.098 64.035 218.113 63.9086 218.113 63.7079V59.9911C218.113 59.7606 218.098 59.6045 218.069 59.5376C218.039 59.4707 217.995 59.4187 217.935 59.3815C217.876 59.3518 217.765 59.3295 217.595 59.3295H217.291V58.3928Z" fill="white"/>
<path d="M229.376 58.2744C230.458 58.2744 231.331 58.6015 232.005 59.2631C232.679 59.9247 233.012 60.7721 233.012 61.8054C233.012 62.5042 232.857 63.1212 232.553 63.6564C232.25 64.199 231.828 64.6153 231.287 64.9052C230.746 65.1952 230.095 65.3438 229.332 65.3438C228.325 65.3438 227.503 65.0688 226.859 64.5113C226.081 63.8422 225.696 62.9428 225.696 61.8203C225.696 60.7796 226.036 59.9247 226.718 59.2631C227.392 58.6089 228.28 58.2744 229.376 58.2744ZM229.399 59.3672C228.88 59.3672 228.465 59.5604 228.162 59.9544C227.777 60.445 227.584 61.0769 227.584 61.85C227.584 62.6231 227.762 63.2401 228.125 63.6861C228.436 64.0727 228.843 64.2659 229.354 64.2659C229.865 64.2659 230.272 64.0727 230.583 63.6861C230.946 63.2252 231.124 62.6082 231.124 61.8351C231.124 61.2925 231.05 60.839 230.894 60.4673C230.739 60.0957 230.532 59.8206 230.265 59.6348C229.991 59.4564 229.702 59.3672 229.399 59.3672Z" fill="white"/>
<path d="M233.939 59.3369V58.3928H237.812C238.404 58.3928 238.871 58.4597 239.211 58.601C239.552 58.7422 239.811 58.9429 239.989 59.1957C240.174 59.4558 240.263 59.7383 240.263 60.0505C240.263 60.2735 240.211 60.4891 240.115 60.6898C240.019 60.8905 239.878 61.0689 239.7 61.2251C239.522 61.3812 239.278 61.5075 238.982 61.6116C239.3 61.6934 239.545 61.7826 239.715 61.8792C239.959 62.013 240.152 62.2063 240.293 62.459C240.433 62.7044 240.507 62.9794 240.507 63.2842C240.507 63.6484 240.396 63.9829 240.181 64.2877C239.967 64.5925 239.656 64.823 239.256 64.9865C238.856 65.15 238.271 65.2244 237.508 65.2244H233.939V64.2803H234.205C234.383 64.2803 234.509 64.2654 234.568 64.2357C234.635 64.206 234.679 64.1614 234.701 64.1019C234.731 64.0424 234.738 63.916 234.738 63.7153V59.9019C234.738 59.7011 234.724 59.5673 234.701 59.5153C234.672 59.4633 234.627 59.4187 234.568 59.3815C234.502 59.3518 234.383 59.3295 234.205 59.3295H233.939V59.3369ZM236.427 61.1656H237.175C237.567 61.1656 237.856 61.1359 238.041 61.0689C238.226 61.002 238.367 60.9054 238.463 60.7716C238.56 60.6378 238.604 60.4891 238.604 60.3107C238.604 60.1323 238.56 59.9762 238.471 59.8498C238.382 59.7234 238.249 59.6342 238.086 59.5748C237.915 59.5227 237.612 59.493 237.175 59.493H236.427V61.1656ZM236.427 62.1691V63.6484C236.427 63.8566 236.442 63.9829 236.449 64.0127C236.464 64.0573 236.494 64.087 236.531 64.1093C236.568 64.1242 236.671 64.1391 236.834 64.1391H237.33C237.619 64.1391 237.856 64.1093 238.049 64.0573C238.241 64.0053 238.404 63.8937 238.537 63.7228C238.671 63.5518 238.737 63.3511 238.737 63.1132C238.737 62.9125 238.693 62.7415 238.597 62.6003C238.5 62.459 238.36 62.355 238.175 62.2806C237.989 62.2063 237.701 62.1691 237.308 62.1691H236.427Z" fill="white"/>
<path d="M243.803 58.3928H245.336L247.38 63.6782C247.491 63.9606 247.587 64.1316 247.676 64.1985C247.765 64.2654 247.92 64.2951 248.15 64.2951V65.2392H244.921V64.2951L245.114 64.2877C245.291 64.2877 245.417 64.2654 245.491 64.2134C245.565 64.1613 245.602 64.1093 245.602 64.0424C245.602 63.9829 245.573 63.864 245.506 63.6782L245.306 63.0537H243.233L242.973 63.7451C242.922 63.8937 242.892 63.9904 242.892 64.035C242.892 64.087 242.914 64.1316 242.951 64.1762C242.988 64.2208 243.047 64.2505 243.136 64.2728C243.188 64.2877 243.344 64.2951 243.595 64.2951V65.2392H240.959V64.2951C241.129 64.2951 241.255 64.2803 241.329 64.2505C241.403 64.2208 241.47 64.1762 241.522 64.1167C241.574 64.0573 241.626 63.9458 241.692 63.7897L243.803 58.3928ZM243.603 62.0799H244.958L244.299 60.1992L243.603 62.0799Z" fill="white"/>
<path d="M178.236 54.1185C178.228 54.1928 178.206 54.2672 178.206 54.3415C178.176 55.018 178.088 55.687 177.976 56.356C177.843 57.1588 177.658 57.9543 177.436 58.7348C177.28 59.27 177.132 59.8052 176.962 60.3405C176.784 60.898 176.592 61.4555 176.384 62.0056C176.273 62.3029 176.14 62.5854 176.007 62.8679C175.807 63.2916 175.614 63.7228 175.392 64.1316C175.148 64.5999 174.888 65.0608 174.607 65.5068C174.244 66.0792 173.874 66.6442 173.481 67.1943C173.081 67.7518 172.659 68.2945 172.222 68.8297C171.556 69.6548 170.83 70.4354 170.075 71.1787C168.905 72.3309 167.653 73.3791 166.224 74.2042C166.172 74.234 166.12 74.2637 166.061 74.2934C165.461 73.4311 164.869 72.5762 164.269 71.7214C164.321 71.6916 164.365 71.6619 164.41 71.6322C165.565 70.9631 166.683 70.2421 167.742 69.4244C168.246 69.0378 168.72 68.6215 169.201 68.2053C169.638 67.8187 170.067 67.4322 170.475 67.0233C170.815 66.6814 171.119 66.3097 171.423 65.938C171.8 65.4845 172.185 65.0311 172.541 64.5553C172.867 64.1167 173.178 63.6707 173.474 63.2098C173.741 62.7936 173.992 62.3698 174.229 61.9387C174.511 61.4258 174.777 60.898 175.036 60.3702C175.192 60.0505 175.34 59.7235 175.473 59.3964C175.799 58.5935 176.118 57.7833 176.34 56.9433C176.532 56.2148 176.673 55.4714 176.851 54.7429C177.058 53.8657 177.154 52.9737 177.228 52.0817C177.34 50.8625 177.325 49.636 177.251 48.4094C177.191 47.4208 177.073 46.447 176.88 45.4806C176.636 44.254 176.281 43.0572 175.844 41.8901C175.659 41.3921 175.414 40.9163 175.192 40.4257C175.118 40.2547 175.044 40.0912 174.962 39.9276C174.903 39.8087 174.881 39.6972 174.933 39.5708C174.955 39.5188 174.97 39.4593 174.999 39.3701C175.073 39.5039 175.133 39.608 175.192 39.7195C175.984 41.2434 176.614 42.8416 177.125 44.4845C177.443 45.5029 177.688 46.5362 177.865 47.5843C177.991 48.3128 178.08 49.0562 178.184 49.7921C178.206 49.9333 178.191 50.0746 178.199 50.2233C178.199 50.2902 178.213 50.3496 178.228 50.4165C178.236 51.6505 178.236 52.8845 178.236 54.1185Z" fill="white"/>
<path d="M164.016 84.2398C164.001 84.2101 163.994 84.1878 163.979 84.158C163.898 83.9945 163.876 83.8235 163.942 83.6451C164.187 82.9315 164.238 82.1955 164.046 81.467C163.876 80.798 163.513 80.233 163.002 79.7573C162.609 79.393 162.165 79.1254 161.713 78.8504C161.528 78.7389 161.335 78.6274 161.158 78.501C160.558 78.0698 160.276 77.4603 160.202 76.7467C160.195 76.6723 160.225 76.5831 160.254 76.5088C160.491 76.0107 160.854 75.6539 161.335 75.3937C161.595 75.2525 161.846 75.2302 162.12 75.312C162.202 75.3343 162.276 75.3566 162.357 75.3937C162.594 75.4978 162.831 75.6167 163.068 75.7208C163.298 75.8249 163.453 75.9959 163.527 76.2337C163.579 76.427 163.69 76.5757 163.839 76.6946C163.957 76.7913 164.083 76.8879 164.201 76.9771C164.335 77.0737 164.424 77.2001 164.49 77.3562C164.586 77.6015 164.631 77.8543 164.668 78.1145C164.712 78.449 164.794 78.7761 164.89 79.1031C165.001 79.4748 165.06 79.8539 165.053 80.2405C165.046 80.7757 165.046 81.3109 165.031 81.8461C165.016 82.307 164.942 82.7605 164.809 83.1991C164.757 83.37 164.683 83.5336 164.609 83.6897C164.505 83.9053 164.372 84.0911 164.142 84.1803C164.127 84.1877 164.113 84.2175 164.098 84.2324C164.068 84.2398 164.046 84.2398 164.016 84.2398Z" fill="white"/>
<path d="M149.028 26.4505C148.569 26.5397 148.139 26.6215 147.717 26.7107C146.043 27.0601 144.436 27.5953 142.918 28.3758C142.259 28.7103 141.6 29.0523 140.956 29.4091C140.623 29.5949 140.326 29.8328 140.008 30.041C139.778 30.1971 139.527 30.3309 139.304 30.4944C138.542 31.0519 137.801 31.6541 137.105 32.2934C136.735 32.6279 136.365 32.9624 136.016 33.3118C135.75 33.5794 135.513 33.8842 135.269 34.1666C134.935 34.5606 134.595 34.9546 134.276 35.356C133.81 35.9359 133.373 36.5454 132.988 37.1921C132.662 37.7274 132.343 38.2775 132.04 38.8275C131.603 39.6155 131.225 40.4258 130.929 41.2732C130.714 41.8828 130.507 42.4923 130.299 43.1093C130.018 43.9716 129.766 44.8488 129.603 45.7408C129.507 46.2686 129.463 46.8038 129.396 47.3316C129.366 47.5621 129.344 47.7925 129.322 48.023C129.218 49.0042 129.233 49.9929 129.255 50.9816C129.27 51.5985 129.307 52.2155 129.359 52.8325C129.396 53.2265 129.47 53.6205 129.529 54.0145C129.611 54.52 129.685 55.0255 129.781 55.5235C129.959 56.4899 130.218 57.434 130.566 58.3483C130.803 58.9802 131.099 59.5897 131.381 60.2067C131.692 60.8906 132.077 61.5448 132.44 62.2064C132.84 62.9423 133.313 63.6336 133.787 64.3175C134.247 64.9717 134.772 65.5589 135.291 66.1685C136.246 67.2835 137.327 68.2722 138.468 69.194C138.927 69.5657 139.43 69.8853 139.919 70.2273C141.593 71.4092 143.437 72.2567 145.347 72.9629C146.184 73.2751 147.051 73.5055 147.932 73.6765C148.347 73.7583 148.761 73.8252 149.169 73.8995C149.265 73.9144 149.309 73.9738 149.368 74.0333C149.976 74.7395 150.59 75.4457 151.198 76.1519C151.797 76.8432 152.397 77.5345 152.99 78.2259C153.027 78.2705 153.064 78.3151 153.123 78.382C153.042 78.3894 152.99 78.3969 152.938 78.3969C151.968 78.4192 150.998 78.382 150.028 78.2928C148.147 78.1144 146.303 77.765 144.496 77.2149C142.63 76.6425 140.83 75.8917 139.156 74.8807C138.682 74.5908 138.186 74.3306 137.735 74.011C136.342 73.0372 135.024 71.9742 133.832 70.7625C133.01 69.9225 132.232 69.0453 131.514 68.1161C130.833 67.2389 130.211 66.3246 129.64 65.3657C129.226 64.6743 128.826 63.9681 128.493 63.2322C128.226 62.6524 127.974 62.0577 127.745 61.463C127.508 60.8534 127.3 60.2364 127.1 59.612C126.967 59.1957 126.886 58.7572 126.782 58.3334C126.597 57.5678 126.456 56.7872 126.33 56.0067C126.241 55.4715 126.167 54.9363 126.145 54.401C126.138 54.178 126.093 53.955 126.071 53.732C126.012 53.2042 125.989 52.6764 126.004 52.1486C126.019 51.777 126.027 51.4127 126.027 51.041C126.027 50.4389 126.086 49.8442 126.152 49.2495C126.226 48.6177 126.352 47.9932 126.486 47.3762C126.612 46.7592 126.737 46.1423 126.871 45.5253C126.923 45.2799 126.997 45.0421 127.071 44.8042C127.226 44.3061 127.382 43.8081 127.545 43.31C127.656 42.9755 127.789 42.6559 127.93 42.3362C128.196 41.7267 128.463 41.1171 128.752 40.5224C128.929 40.1507 129.129 39.779 129.337 39.4222C129.7 38.7904 130.07 38.1659 130.455 37.5415C130.722 37.1029 131.033 36.7015 131.358 36.3075C131.84 35.7351 132.321 35.1628 132.802 34.5978C133.306 34.0031 133.869 33.4679 134.447 32.9475C135.402 32.0778 136.402 31.275 137.453 30.539C138.275 29.9666 139.097 29.3868 140.001 28.9482C140.897 28.5096 141.8 28.0636 142.726 27.6919C143.992 27.1864 145.288 26.7702 146.628 26.5174C147.265 26.3985 147.902 26.3018 148.539 26.2201C148.583 26.2126 148.635 26.2201 148.672 26.2424C148.783 26.287 148.887 26.3613 149.028 26.4505Z" fill="white"/>
<path d="M161.477 23.9678C161.069 23.9901 160.669 23.9306 160.262 23.8786C160.136 23.8637 160.032 23.8116 159.958 23.715C159.87 23.5961 159.795 23.4697 159.707 23.3508C159.655 23.2839 159.603 23.217 159.536 23.1724C159.41 23.098 159.322 23.1203 159.27 23.2616C159.233 23.3656 159.218 23.4771 159.203 23.5886C159.196 23.663 159.203 23.7447 159.196 23.8191C159.173 24.0198 159.077 24.1164 158.87 24.1164C158.559 24.1239 158.24 24.1164 157.929 24.1239C157.633 24.1313 157.344 24.1908 157.07 24.3171C156.885 24.4063 156.737 24.5327 156.633 24.7186C156.53 24.9044 156.426 24.9267 156.241 24.8226C156.1 24.7409 155.952 24.6517 155.819 24.5624C155.663 24.4584 155.552 24.3097 155.486 24.1313C155.441 23.9975 155.449 23.886 155.545 23.7819C155.73 23.5886 155.915 23.4028 156.108 23.217C156.219 23.1129 156.337 23.0162 156.463 22.9196C156.752 22.704 156.796 22.1911 156.611 21.9161C156.559 21.8343 156.5 21.7451 156.456 21.6559C156.367 21.47 156.441 21.3437 156.641 21.3437C156.967 21.3362 157.292 21.3362 157.603 21.4552C157.729 21.5072 157.885 21.4923 158.026 21.4923C158.137 21.4923 158.181 21.4403 158.189 21.3214C158.196 21.2247 158.189 21.1281 158.181 21.0389C158.166 20.7564 158.255 20.6152 158.529 20.5408C158.885 20.4516 159.247 20.4293 159.603 20.526C160.225 20.6969 160.795 20.578 161.336 20.2584C161.484 20.1766 161.639 20.1023 161.802 20.0428C162.039 19.961 162.276 19.9982 162.484 20.1394C162.891 20.4219 163.135 20.7862 163.069 21.3139C163.009 21.7451 163.15 22.0945 163.506 22.3547C163.55 22.3918 163.602 22.429 163.646 22.4662C163.898 22.6966 163.92 22.9047 163.817 23.2244C163.802 23.269 163.78 23.3136 163.743 23.3433C163.432 23.6109 163.098 23.8414 162.684 23.8934C162.358 23.938 162.025 23.9455 161.691 23.9678C161.625 23.9752 161.551 23.9678 161.477 23.9678Z" fill="white"/>
<path d="M164.49 32.2416C163.824 32.2788 163.216 32.0484 162.602 31.8625C162.313 31.7808 162.143 31.5726 162.12 31.2678C162.12 31.2307 162.113 31.1935 162.106 31.1638C162.083 31.0523 162.024 30.9853 161.906 30.963C161.787 30.9407 161.691 30.9779 161.632 31.082C161.587 31.1563 161.55 31.2381 161.513 31.3199C161.461 31.4388 161.409 31.5577 161.358 31.6767C161.291 31.8179 161.217 31.87 161.061 31.8551C160.795 31.8328 160.528 31.7956 160.269 31.7733C159.995 31.751 159.714 31.7064 159.44 31.751C159.232 31.7808 159.04 31.8402 158.862 31.9592C158.832 31.9815 158.803 31.9963 158.773 32.0186C158.47 32.2045 158.203 32.1673 157.973 31.8848C157.84 31.7213 157.781 31.528 157.773 31.3273C157.766 31.2158 157.81 31.1266 157.892 31.0597C157.966 31.0002 158.047 30.9482 158.129 30.9036C158.477 30.7029 158.825 30.5022 159.173 30.294C159.284 30.2271 159.388 30.1453 159.477 30.0487C159.647 29.8703 159.706 29.6473 159.662 29.402C159.654 29.3351 159.64 29.2756 159.64 29.2087C159.632 29.0452 159.721 28.9411 159.884 28.9411C160.025 28.9411 160.165 28.956 160.306 28.9931C160.528 29.0526 160.743 29.1344 160.965 29.2013C161.039 29.2236 161.106 29.2607 161.18 29.2756C161.35 29.3202 161.454 29.2682 161.513 29.1046C161.543 29.0303 161.55 28.956 161.572 28.8816C161.646 28.6066 161.839 28.443 162.12 28.4282C162.276 28.4207 162.439 28.4505 162.594 28.4728C162.676 28.4876 162.757 28.5174 162.831 28.5471C163.239 28.6958 163.676 28.7329 164.105 28.7775C164.312 28.7998 164.505 28.7255 164.698 28.666C165.001 28.5694 165.297 28.4876 165.616 28.4951C165.668 28.4951 165.719 28.4951 165.771 28.5099C166.156 28.5843 166.497 28.8296 166.438 29.3797C166.416 29.5878 166.356 29.7885 166.223 29.9595C166.179 30.019 166.134 30.0859 166.09 30.1528C165.993 30.3089 166.001 30.4724 166.105 30.6211C166.156 30.6954 166.223 30.7698 166.29 30.8367C166.512 31.0969 166.519 31.3793 166.304 31.6469C166.045 31.974 165.682 32.1227 165.29 32.1747C165.023 32.2119 164.757 32.2193 164.49 32.2416Z" fill="white"/>
<path d="M164.276 36.4414C164.128 36.4191 163.98 36.4042 163.824 36.3671C163.291 36.2407 162.773 36.0846 162.284 35.8393C162.069 35.7352 162.01 35.646 162.025 35.4081C162.032 35.2818 162.017 35.1628 161.943 35.0513C161.877 34.9473 161.81 34.925 161.706 34.9844C161.647 35.0142 161.588 35.0662 161.551 35.1182C161.44 35.2818 161.343 35.4453 161.247 35.6237C161.173 35.765 161.077 35.817 160.921 35.7947C160.588 35.7501 160.255 35.7055 159.914 35.6832C159.596 35.6683 159.277 35.6832 158.959 35.6981C158.87 35.7055 158.781 35.7501 158.692 35.7873C158.64 35.8096 158.589 35.8393 158.529 35.8616C158.24 35.988 158.115 35.9508 157.944 35.6981C157.87 35.5865 157.796 35.4825 157.744 35.3635C157.655 35.1777 157.678 35.0588 157.826 34.9175C157.996 34.7614 158.181 34.6425 158.403 34.5533C158.789 34.3972 159.151 34.1965 159.507 33.9883C159.729 33.8619 159.796 33.6241 159.803 33.3713C159.803 33.297 159.803 33.2152 159.818 33.1409C159.862 32.8881 160.055 32.7543 160.307 32.8064C160.388 32.8212 160.47 32.851 160.544 32.8881C160.766 32.9922 160.988 33.1037 161.217 33.2152C161.499 33.349 161.632 33.3193 161.795 33.0517C161.832 32.9922 161.862 32.9253 161.891 32.8584C162.01 32.6057 162.195 32.4718 162.476 32.4867C162.736 32.5016 162.98 32.5462 163.217 32.6503C163.491 32.7692 163.772 32.851 164.069 32.8956C164.424 32.9476 164.765 32.8733 165.105 32.8064C165.246 32.7766 165.379 32.7469 165.52 32.7172C165.727 32.6726 165.935 32.6874 166.135 32.7618C166.394 32.851 166.535 33.0294 166.579 33.2895C166.616 33.4903 166.586 33.6835 166.483 33.8619C166.386 34.0255 166.283 34.189 166.164 34.3303C166.009 34.5161 165.994 34.6945 166.12 34.9027C166.179 34.9993 166.224 35.1034 166.261 35.2074C166.357 35.4899 166.283 35.7575 166.038 35.9434C165.779 36.1366 165.483 36.263 165.165 36.315C164.957 36.3448 164.742 36.3819 164.535 36.4117C164.454 36.4265 164.372 36.434 164.276 36.4414Z" fill="white"/>
<path d="M159.952 27.997C159.693 27.997 159.433 27.9821 159.174 27.997C158.856 28.0193 158.56 28.1159 158.323 28.3464C158.16 28.5025 157.96 28.5248 157.767 28.4133C157.641 28.3464 157.53 28.2572 157.427 28.1605C157.219 27.9672 157.212 27.5584 157.449 27.38C157.678 27.209 157.901 27.038 158.13 26.8671C158.263 26.7704 158.404 26.6812 158.53 26.5697C158.826 26.3021 158.908 25.975 158.76 25.6033C158.737 25.5439 158.715 25.4844 158.7 25.4175C158.678 25.2986 158.715 25.2317 158.848 25.2242C159.026 25.2168 159.204 25.2094 159.382 25.2317C159.589 25.2614 159.789 25.3357 159.996 25.3878C160.093 25.4101 160.189 25.4398 160.293 25.4472C160.455 25.4547 160.515 25.4026 160.552 25.2391C160.589 25.0756 160.618 24.912 160.663 24.7559C160.707 24.5849 160.737 24.5626 160.907 24.5626C161.092 24.5552 161.277 24.5478 161.455 24.5552C161.648 24.5626 161.84 24.5924 162.033 24.6221C162.477 24.6964 162.921 24.7633 163.373 24.6667C163.558 24.6295 163.729 24.5403 163.906 24.4809C164.077 24.4288 164.247 24.3694 164.417 24.3396C164.773 24.2727 165.047 24.414 165.239 24.7039C165.454 25.0235 165.491 25.3803 165.358 25.7446C165.336 25.8115 165.299 25.8784 165.284 25.9453C165.239 26.146 165.276 26.3318 165.417 26.4954C165.506 26.5995 165.602 26.6961 165.684 26.8076C165.861 27.0529 165.854 27.2611 165.676 27.4915C165.454 27.7888 165.173 27.9821 164.795 28.0342C164.306 28.1011 163.818 28.1457 163.329 28.1382C162.833 28.1308 162.359 28.0267 161.892 27.8409C161.774 27.7963 161.692 27.7145 161.64 27.603C161.588 27.4989 161.544 27.3874 161.492 27.2759C161.47 27.2313 161.455 27.1867 161.433 27.1495C161.389 27.0752 161.322 27.0232 161.226 27.0306C161.137 27.038 161.1 27.1124 161.078 27.1941C161.04 27.3354 161.011 27.4841 160.974 27.6253C160.9 27.9152 160.818 27.9821 160.515 27.9821C160.315 27.997 160.137 27.997 159.952 27.997Z" fill="white"/>
<path d="M163.662 40.5223C163.217 40.5966 162.81 40.4554 162.403 40.2844C162.099 40.158 161.795 40.0391 161.492 39.9276C161.351 39.8755 161.285 39.7863 161.277 39.6377C161.27 39.489 161.255 39.3403 161.24 39.1916C161.225 39.0876 161.218 38.9612 161.099 38.9315C160.981 38.9017 160.885 38.9686 160.811 39.0653C160.707 39.2065 160.603 39.3403 160.507 39.4815C160.425 39.6079 160.314 39.6674 160.166 39.66C159.937 39.6525 159.707 39.6525 159.478 39.6377C159.404 39.6302 159.322 39.6079 159.263 39.5708C159.144 39.4964 159.018 39.4592 158.878 39.4444C158.47 39.3998 158.078 39.3998 157.708 39.6228C157.56 39.712 157.434 39.6897 157.323 39.5633C157.189 39.4146 157.093 39.2511 157.041 39.0504C156.989 38.8497 157.049 38.6861 157.204 38.5523C157.278 38.4854 157.367 38.426 157.463 38.3962C157.715 38.2996 157.974 38.203 158.233 38.1435C158.589 38.0543 158.893 37.8982 159.137 37.6157C159.285 37.4522 159.374 37.2663 159.404 37.0433C159.448 36.7311 159.485 36.7088 159.789 36.7237C160.018 36.7311 160.248 36.7757 160.448 36.9095C160.514 36.9541 160.603 36.969 160.677 36.9987C160.774 37.0359 160.862 37.0656 160.951 37.1102C161.107 37.1845 161.233 37.1622 161.344 37.021C161.403 36.9467 161.447 36.8575 161.499 36.7831C161.707 36.4932 161.995 36.4114 162.329 36.5527C162.603 36.6716 162.869 36.7906 163.143 36.9021C163.373 36.9987 163.617 37.0359 163.869 37.0284C164.417 37.021 164.972 37.0284 165.52 37.021C165.831 37.0136 166.002 37.1697 166.031 37.4893C166.054 37.7941 165.965 38.0691 165.772 38.2996C165.683 38.4111 165.572 38.5003 165.469 38.6044C165.246 38.8274 165.202 39.0207 165.335 39.2957C165.483 39.5931 165.446 39.987 165.069 40.2249C164.728 40.4405 164.365 40.5594 163.958 40.5446C163.862 40.5297 163.758 40.5223 163.662 40.5223Z" fill="white"/>
<path d="M162.551 44.5887C162.018 44.5441 161.514 44.5144 161.033 44.336C160.825 44.2617 160.625 44.1501 160.425 44.0386C160.277 43.9494 160.129 43.8602 159.959 43.8379C159.848 43.8231 159.811 43.7785 159.811 43.6521C159.803 43.496 159.811 43.3399 159.803 43.1912C159.803 43.102 159.796 43.0128 159.781 42.9236C159.759 42.8195 159.7 42.7898 159.596 42.827C159.544 42.8493 159.485 42.879 159.448 42.9162C159.359 43.0054 159.263 43.102 159.189 43.2061C159.026 43.4514 158.804 43.5109 158.522 43.4365C158.226 43.3622 157.922 43.2878 157.619 43.2581C157.278 43.2284 156.93 43.2432 156.589 43.2358C156.515 43.2358 156.449 43.2432 156.375 43.2284C156.145 43.1912 155.99 43.05 155.938 42.8195C155.886 42.5668 155.945 42.4107 156.16 42.2694C156.419 42.0985 156.686 41.9647 156.997 41.8977C157.3 41.8308 157.597 41.7119 157.885 41.593C158.152 41.4815 158.307 41.251 158.382 40.976C158.396 40.9165 158.411 40.8496 158.433 40.7901C158.5 40.6117 158.648 40.5523 158.818 40.634C158.863 40.6563 158.907 40.6935 158.952 40.7158C159.174 40.8496 159.396 40.9834 159.626 41.1023C159.848 41.2139 160.018 41.1693 160.181 40.9908C160.226 40.9388 160.255 40.8868 160.3 40.8347C160.499 40.5597 160.759 40.4705 161.077 40.5969C161.292 40.6786 161.492 40.7976 161.692 40.9165C161.914 41.0429 162.144 41.1618 162.395 41.1916C162.521 41.2064 162.654 41.2064 162.788 41.2064C163.121 41.2213 163.462 41.2213 163.795 41.2436C163.899 41.251 164.002 41.2882 164.106 41.3031C164.387 41.3551 164.498 41.6376 164.439 41.8606C164.417 41.9572 164.373 42.0539 164.313 42.1356C164.165 42.3289 164.01 42.5147 163.847 42.7006C163.795 42.7601 163.728 42.8195 163.669 42.8716C163.551 42.9831 163.528 43.1094 163.573 43.2581C163.595 43.3324 163.617 43.4068 163.639 43.4811C163.691 43.6818 163.654 43.8751 163.521 44.0386C163.291 44.3955 162.936 44.559 162.551 44.5887Z" fill="white"/>
<path d="M160.284 48.1123C159.862 48.1346 159.455 48.038 159.077 47.8596C158.751 47.7035 158.44 47.5251 158.129 47.3392C157.944 47.2352 157.914 47.1088 157.951 46.8784C157.966 46.7892 157.966 46.6925 157.959 46.5959C157.951 46.5141 157.892 46.4769 157.811 46.4769C157.714 46.4769 157.625 46.5141 157.559 46.5884C157.485 46.6702 157.418 46.752 157.351 46.8338C157.137 47.1088 157.018 47.1385 156.692 47.0345C156.367 46.9378 156.041 46.8486 155.722 46.7594C155.507 46.7 155.3 46.7297 155.093 46.7817C154.974 46.8115 154.863 46.8412 154.745 46.8561C154.56 46.8858 154.434 46.8189 154.36 46.6479C154.315 46.5513 154.278 46.4472 154.256 46.3431C154.204 46.083 154.278 45.9194 154.523 45.8079C154.685 45.7336 154.856 45.6741 155.019 45.6295C155.211 45.57 155.411 45.5329 155.604 45.4883C155.693 45.466 155.774 45.4362 155.856 45.4065C156.241 45.2727 156.522 45.0348 156.663 44.6408C156.67 44.6185 156.685 44.5962 156.692 44.5739C156.826 44.2989 156.981 44.2468 157.255 44.3881C157.388 44.455 157.507 44.5442 157.633 44.626C157.677 44.6557 157.714 44.6929 157.759 44.7226C158.055 44.9307 158.225 44.8936 158.418 44.5962C158.618 44.2914 158.995 44.1874 159.321 44.3509C159.462 44.4252 159.603 44.4996 159.736 44.5888C160.114 44.8341 160.528 44.9605 160.98 44.953C161.321 44.953 161.669 44.9456 162.009 44.953C162.372 44.9605 162.543 45.1984 162.454 45.5477C162.358 45.9045 162.15 46.187 161.861 46.41C161.802 46.4546 161.735 46.4992 161.676 46.5513C161.565 46.6405 161.528 46.7594 161.565 46.9007C161.58 46.9527 161.595 47.0047 161.61 47.0568C161.698 47.3244 161.639 47.5474 161.432 47.7332C161.18 47.9637 160.884 48.1049 160.536 48.1123C160.454 48.1123 160.373 48.1123 160.284 48.1123Z" fill="white"/>
<path d="M156.122 50.2457C155.922 50.2011 155.767 50.2606 155.648 50.4242C155.611 50.4762 155.574 50.5282 155.537 50.5803C155.389 50.7735 155.196 50.8553 154.959 50.8181C154.782 50.7884 154.604 50.7289 154.426 50.6843C154.063 50.5803 153.7 50.5282 153.323 50.6323C153.241 50.6546 153.167 50.6843 153.086 50.7141C152.819 50.8107 152.597 50.6992 152.516 50.4316C152.508 50.4093 152.501 50.387 152.501 50.3647C152.405 49.9261 152.486 49.77 152.916 49.6213C153.286 49.4949 153.656 49.376 154.026 49.2422C154.115 49.2125 154.204 49.1679 154.286 49.1233C154.463 49.0266 154.597 48.8928 154.678 48.707C154.715 48.6252 154.745 48.5434 154.782 48.4617C154.908 48.1866 155.13 48.1049 155.389 48.2461C155.559 48.3353 155.715 48.4394 155.878 48.5434C155.93 48.5732 155.974 48.6103 156.026 48.6401C156.181 48.7218 156.285 48.707 156.403 48.5657C156.448 48.5137 156.485 48.4468 156.529 48.3948C156.596 48.313 156.67 48.2312 156.752 48.1643C156.9 48.0379 157.077 48.0008 157.27 48.0677C157.366 48.1048 157.455 48.142 157.544 48.1941C158.018 48.484 158.536 48.5955 159.092 48.5732C159.38 48.5657 159.669 48.5657 159.958 48.5583C160.425 48.5509 160.647 48.9151 160.417 49.3537C160.306 49.5767 160.143 49.7551 159.965 49.9187C159.936 49.941 159.914 49.9633 159.884 49.993C159.58 50.2532 159.58 50.3349 159.721 50.6472C159.803 50.833 159.773 51.004 159.64 51.1601C159.255 51.5987 158.773 51.7771 158.196 51.673C157.936 51.6284 157.685 51.5689 157.433 51.5169C157.018 51.4277 156.648 51.2344 156.292 51.004C156.159 50.9222 156.115 50.8033 156.152 50.6546C156.181 50.5059 156.174 50.3721 156.122 50.2457Z" fill="white"/>
<path d="M155.471 58.9281C154.982 58.9281 154.508 58.8314 154.041 58.6753C153.916 58.6307 153.856 58.5564 153.827 58.4375C153.804 58.3557 153.797 58.2739 153.775 58.1922C153.716 58.0063 153.56 57.9543 153.405 58.0732C153.353 58.1104 153.316 58.1699 153.279 58.2219C153.219 58.326 153.153 58.4375 153.108 58.5564C153.042 58.7199 152.923 58.7794 152.76 58.772C152.457 58.772 152.153 58.7868 151.857 58.772C151.568 58.7571 151.309 58.8166 151.05 58.9429C150.946 58.995 150.835 59.047 150.731 59.0916C150.361 59.2329 150.013 58.9876 150.005 58.5936C150.005 58.4077 150.102 58.2814 150.25 58.1922C150.576 57.9989 150.902 57.8056 151.227 57.6123C151.309 57.5603 151.39 57.5157 151.464 57.4562C151.709 57.2704 151.857 57.0325 151.872 56.7203C151.872 56.6757 151.879 56.6385 151.886 56.5939C151.916 56.4229 151.998 56.3337 152.175 56.3486C152.442 56.3783 152.716 56.4304 152.982 56.4675C153.079 56.4824 153.168 56.4973 153.264 56.5047C153.382 56.5121 153.471 56.4601 153.53 56.3635C153.575 56.2891 153.612 56.2148 153.649 56.1479C153.849 55.7985 154.086 55.6796 154.478 55.7688C154.952 55.8803 155.426 55.8952 155.908 55.8877C156.063 55.8877 156.211 55.858 156.352 55.7911C156.626 55.6721 156.907 55.5978 157.211 55.6052C157.27 55.6052 157.329 55.6127 157.389 55.6275C157.67 55.6944 157.803 55.9398 157.707 56.2148C157.685 56.2668 157.663 56.3263 157.633 56.3783C157.522 56.6014 157.411 56.8244 157.292 57.0474C157.196 57.2332 157.196 57.4116 157.315 57.5826C157.47 57.8056 157.44 58.0286 157.292 58.2442C157.1 58.5192 156.833 58.6902 156.522 58.7794C156.182 58.8909 155.826 58.9281 155.471 58.9281Z" fill="white"/>
<path d="M156.33 55.241C155.967 55.2261 155.56 55.1741 155.167 55.0552C154.93 54.9808 154.715 54.8842 154.515 54.743C154.397 54.6612 154.338 54.5571 154.352 54.4159C154.36 54.3267 154.36 54.2375 154.352 54.1483C154.352 54.0665 154.33 53.9922 154.249 53.955C154.16 53.9178 154.078 53.9476 154.019 54.007C153.938 54.0962 153.849 54.1929 153.797 54.2969C153.708 54.4753 153.56 54.5794 153.39 54.6463C153.353 54.6612 153.293 54.6612 153.249 54.6538C152.908 54.5869 152.568 54.5199 152.22 54.4605C152.012 54.4233 151.805 54.4753 151.605 54.5423C151.494 54.5794 151.383 54.624 151.272 54.6538C151.072 54.7132 150.939 54.6761 150.82 54.5125C150.687 54.3192 150.657 54.1037 150.746 53.8881C150.79 53.7766 150.879 53.7022 150.983 53.6651C151.25 53.561 151.516 53.4569 151.775 53.3529C151.938 53.286 152.109 53.2191 152.264 53.1373C152.546 52.996 152.738 52.7656 152.827 52.4608C152.842 52.4014 152.864 52.3345 152.886 52.275C152.945 52.1263 153.019 52.0743 153.175 52.1189C153.412 52.1858 153.649 52.2676 153.886 52.3493C153.967 52.3791 154.049 52.4162 154.138 52.4311C154.345 52.4757 154.493 52.3865 154.575 52.1932C154.597 52.1337 154.619 52.0668 154.656 52.0148C154.797 51.8141 155.019 51.7472 155.293 51.829C155.419 51.8661 155.545 51.9256 155.671 51.9851C156.1 52.2006 156.559 52.3122 157.041 52.275C157.211 52.2601 157.381 52.2155 157.544 52.1858C157.759 52.1486 157.981 52.1263 158.196 52.2007C158.448 52.2899 158.529 52.4237 158.492 52.6913C158.455 52.9514 158.344 53.1745 158.144 53.3306C157.877 53.5536 157.789 53.8212 157.855 54.1557C157.87 54.2077 157.87 54.2598 157.877 54.3118C157.922 54.624 157.848 54.8024 157.574 54.9511C157.204 55.1444 156.804 55.2782 156.33 55.241Z" fill="white"/>
<path d="M154.789 62.6676C154.619 62.6379 154.397 62.6082 154.175 62.571C154.078 62.5561 153.989 62.5413 153.901 62.5115C153.819 62.4818 153.73 62.4446 153.678 62.3852C153.508 62.2068 153.301 62.2514 153.093 62.2811C153.049 62.2885 152.997 62.348 152.967 62.4C152.782 62.6676 152.523 62.7717 152.205 62.7717C152.042 62.7717 151.886 62.7643 151.723 62.7717C151.472 62.7792 151.235 62.8461 151.02 62.9799C150.916 63.0468 150.805 63.1062 150.709 63.188C150.568 63.3069 150.42 63.3144 150.264 63.2475C150.087 63.1731 149.931 63.0616 149.879 62.8609C149.835 62.6751 149.887 62.5041 150.05 62.3852C150.272 62.2216 150.494 62.073 150.716 61.9094C150.879 61.783 151.049 61.6641 151.205 61.5229C151.434 61.3073 151.538 61.0471 151.486 60.72C151.449 60.497 151.553 60.3707 151.783 60.3855C152.042 60.4004 152.301 60.4376 152.56 60.4673C152.649 60.4747 152.738 60.4896 152.827 60.4896C152.975 60.4896 153.034 60.445 153.086 60.2963C153.101 60.2443 153.116 60.1923 153.123 60.1402C153.16 59.9246 153.286 59.7834 153.478 59.7091C153.641 59.6496 153.804 59.6273 153.982 59.6496C154.234 59.6868 154.486 59.7239 154.737 59.7314C155.071 59.7462 155.382 59.6645 155.685 59.5455C155.944 59.4489 156.211 59.3671 156.478 59.2854C156.537 59.263 156.603 59.2556 156.67 59.2556C156.937 59.2407 157.114 59.3969 157.137 59.657C157.151 59.8057 157.107 59.9395 157.055 60.0733C156.981 60.2443 156.907 60.4078 156.84 60.5788C156.766 60.7646 156.803 60.943 156.929 61.0992C157.137 61.3668 157.144 61.6715 156.929 61.9317C156.84 62.0358 156.722 62.125 156.603 62.1993C156.196 62.4372 155.744 62.5561 155.278 62.623C155.115 62.6305 154.982 62.6453 154.789 62.6676Z" fill="white"/>
<path d="M158.018 66.7483C158.003 66.949 157.988 67.1498 157.966 67.3505C157.943 67.5214 158.003 67.6627 158.129 67.7816C158.425 68.0641 158.447 68.3689 158.195 68.696C157.936 69.0379 157.588 69.2461 157.181 69.3427C156.781 69.4393 156.374 69.5211 155.966 69.6029C155.9 69.6177 155.826 69.6103 155.759 69.5954C155.611 69.5657 155.463 69.5137 155.315 69.4839C155.189 69.4542 155.122 69.3873 155.085 69.2684C155.07 69.2163 155.055 69.1643 155.033 69.1197C154.989 69.0379 154.892 68.9859 154.811 69.0007C154.722 69.0156 154.685 69.0899 154.67 69.1643C154.648 69.3055 154.641 69.4468 154.633 69.588C154.618 69.7813 154.596 69.811 154.418 69.8556C154.041 69.9597 153.663 70.0563 153.293 70.1678C152.997 70.257 152.745 70.4131 152.589 70.6956C152.523 70.822 152.456 70.8294 152.323 70.7774C152.219 70.7328 152.115 70.6956 152.012 70.651C151.716 70.5172 151.634 70.2496 151.834 69.9969C152.041 69.7292 152.271 69.4839 152.493 69.2312C152.575 69.1346 152.663 69.0453 152.745 68.9561C152.96 68.7406 152.974 68.5027 152.863 68.2351C152.834 68.1607 152.797 68.079 152.782 67.9972C152.76 67.8485 152.812 67.7445 152.96 67.7147C153.093 67.685 153.226 67.685 153.36 67.685C153.537 67.6924 153.715 67.7296 153.885 67.7445C154.033 67.7593 154.063 67.7445 154.115 67.6032C154.159 67.4843 154.196 67.3653 154.226 67.2464C154.3 66.9342 154.448 66.8004 154.759 66.7706C154.944 66.7558 155.122 66.7409 155.307 66.7409C155.84 66.7483 156.322 66.6071 156.759 66.2875C156.988 66.1165 157.247 65.9975 157.544 66.005C157.84 66.0198 157.988 66.1536 158.003 66.4584C158.018 66.5699 158.01 66.6591 158.018 66.7483Z" fill="white"/>
<path d="M154.841 66.1091C154.782 66.1091 154.722 66.1016 154.663 66.1091C154.382 66.1314 154.197 66.005 154.093 65.7523C154.049 65.6408 153.967 65.5887 153.871 65.5293C153.797 65.4921 153.745 65.4995 153.708 65.5739C153.663 65.6705 153.619 65.7671 153.589 65.8712C153.486 66.2429 153.345 66.3618 152.953 66.399C152.827 66.4064 152.708 66.4213 152.582 66.4436C152.249 66.4882 151.945 66.6294 151.694 66.8524C151.605 66.9268 151.516 67.0085 151.412 67.0754C151.16 67.2539 150.716 67.1052 150.612 66.8078C150.575 66.7112 150.583 66.5997 150.635 66.5179C150.709 66.4064 150.783 66.2875 150.879 66.1983C151.123 65.9604 151.39 65.7374 151.642 65.4995C151.738 65.4103 151.819 65.3137 151.901 65.2096C152.027 65.0386 152.042 64.8528 151.931 64.6595C151.908 64.6224 151.894 64.5852 151.879 64.548C151.827 64.4068 151.886 64.2804 152.027 64.2358C152.101 64.2135 152.175 64.1986 152.256 64.1986C152.427 64.1986 152.597 64.2061 152.767 64.2135C152.841 64.2135 152.908 64.2284 152.982 64.2284C153.204 64.2284 153.308 64.1392 153.352 63.9236C153.367 63.8567 153.375 63.7972 153.389 63.7303C153.449 63.5296 153.575 63.3958 153.782 63.3735C153.974 63.3512 154.174 63.3289 154.367 63.3363C154.937 63.3661 155.456 63.2174 155.952 62.9572C156.152 62.8531 156.366 62.7862 156.566 62.6822C156.87 62.5335 157.277 62.8754 157.211 63.2248C157.196 63.3066 157.166 63.3884 157.144 63.4627C157.1 63.6114 157.055 63.7601 157.018 63.9087C156.974 64.0871 157.011 64.2432 157.144 64.3845C157.218 64.4588 157.277 64.5555 157.314 64.6521C157.411 64.8751 157.381 65.0981 157.233 65.2914C157.159 65.3806 157.07 65.4624 156.974 65.5293C156.515 65.8563 155.989 66.005 155.433 66.0719C155.233 66.0942 155.033 66.1016 154.833 66.1165C154.848 66.1165 154.841 66.1165 154.841 66.1091Z" fill="white"/>
<path d="M154.938 74.1672C154.76 74.1672 154.582 74.1821 154.404 74.1672C154.175 74.1449 154.086 74.0409 154.064 73.8104C154.041 73.58 154.101 73.3793 154.241 73.1934C154.397 72.9927 154.545 72.7995 154.686 72.5913C154.752 72.4947 154.797 72.3832 154.834 72.2717C154.871 72.1527 154.849 72.1081 154.715 72.0635C154.634 72.0338 154.604 71.9818 154.604 71.9C154.604 71.7736 154.597 71.6472 154.597 71.5283C154.597 71.3202 154.693 71.2012 154.893 71.1715C155.012 71.1492 155.137 71.1566 155.263 71.1492C155.397 71.1417 155.523 71.1492 155.656 71.1417C155.774 71.1343 155.819 71.0748 155.834 70.9559C155.841 70.9039 155.841 70.8518 155.834 70.7924C155.811 70.5768 155.878 70.3835 155.952 70.1902C155.982 70.1085 156.026 70.0713 156.122 70.0639C156.389 70.0341 156.648 69.997 156.915 69.9672C157.241 69.9301 157.537 69.826 157.796 69.6253C158.055 69.432 158.329 69.2462 158.581 69.0455C158.707 68.9488 158.825 68.9414 158.959 68.9934C159.166 69.0752 159.322 69.1941 159.344 69.432C159.373 69.6848 159.41 69.9375 159.418 70.1902C159.425 70.3612 159.477 70.4876 159.618 70.5768C159.67 70.614 159.721 70.6586 159.766 70.7032C160.025 70.9708 160.047 71.3276 159.818 71.6249C159.766 71.6918 159.707 71.7513 159.64 71.8033C159.255 72.1007 158.848 72.346 158.374 72.4724C158.188 72.5244 157.996 72.5839 157.811 72.6433C157.492 72.74 157.241 72.6582 157.048 72.3906C157.026 72.3609 157.011 72.3237 156.981 72.3014C156.907 72.2419 156.811 72.175 156.722 72.2196C156.67 72.2494 156.641 72.346 156.626 72.4129C156.604 72.5541 156.604 72.6954 156.596 72.8366C156.589 72.9927 156.515 73.0894 156.359 73.134C156.285 73.1563 156.211 73.1711 156.137 73.2009C155.989 73.2529 155.834 73.2975 155.685 73.3644C155.389 73.4982 155.145 73.6841 155.004 73.9888C155.012 74.0557 154.975 74.1078 154.938 74.1672Z" fill="white"/>
<path d="M158.048 73.7506C158.033 73.3938 158.196 73.2005 158.552 73.141C158.803 73.0964 159.055 73.0593 159.3 72.9998C159.611 72.9255 159.877 72.7619 160.107 72.5389C160.248 72.4051 160.41 72.2936 160.573 72.1895C160.744 72.078 160.966 72.1301 161.077 72.301C161.24 72.5538 161.366 72.8214 161.314 73.141C161.277 73.3938 161.366 73.5796 161.595 73.6986C162.032 73.929 161.995 74.375 161.758 74.6649C161.714 74.717 161.669 74.7616 161.618 74.8062C161.136 75.1853 160.61 75.4678 159.996 75.557C159.855 75.5793 159.7 75.557 159.559 75.5347C159.433 75.5198 159.329 75.4455 159.248 75.3488C159.218 75.3191 159.196 75.2819 159.166 75.2522C159.04 75.1481 158.944 75.1779 158.9 75.334C158.885 75.3934 158.885 75.4529 158.885 75.5124C158.878 75.5942 158.878 75.6759 158.87 75.7577C158.855 75.8692 158.796 75.9435 158.7 75.9881C158.626 76.0253 158.544 76.0476 158.463 76.0699C158.292 76.1294 158.115 76.1888 157.944 76.2557C157.7 76.3598 157.522 76.5308 157.411 76.7761C157.285 77.066 157.1 77.118 156.826 76.9619C156.774 76.9322 156.73 76.895 156.678 76.8579C156.463 76.672 156.419 76.4788 156.552 76.226C156.604 76.1294 156.671 76.0327 156.73 75.9361C156.848 75.7503 156.982 75.5718 157.1 75.386C157.271 75.1258 157.241 74.8285 157.034 74.598C157.019 74.5832 157.004 74.5757 156.997 74.5609C156.856 74.4048 156.871 74.2933 157.056 74.1892C157.145 74.1372 157.248 74.0926 157.345 74.0554C157.463 74.0108 157.574 74.0182 157.693 74.0628C157.944 74.1595 158.048 74.0851 158.041 73.8175C158.048 73.7952 158.048 73.7729 158.048 73.7506Z" fill="white"/>
<defs>
<filter id="filter0_i_188_2885" x="0" y="-1" width="375" height="105" filterUnits="userSpaceOnUse" color-interpolation-filters="sRGB">
<feFlood flood-opacity="0" result="BackgroundImageFix"/>
<feBlend mode="normal" in="SourceGraphic" in2="BackgroundImageFix" result="shape"/>
<feColorMatrix in="SourceAlpha" type="matrix" values="0 0 0 0 0 0 0 0 0 0 0 0 0 0 0 0 0 0 127 0" result="hardAlpha"/>
<feOffset dy="-1"/>
<feGaussianBlur stdDeviation="2"/>
<feComposite in2="hardAlpha" operator="arithmetic" k2="-1" k3="1"/>
<feColorMatrix type="matrix" values="0 0 0 0 0 0 0 0 0 0 0 0 0 0 0 0 0 0 0.25 0"/>
<feBlend mode="normal" in2="shape" result="effect1_innerShadow_188_2885"/>
</filter>
</defs>
</svg>
