<svg width="61" height="74" viewBox="0 0 61 74" fill="none" xmlns="http://www.w3.org/2000/svg">
<path d="M60.2375 39.205C60.2291 39.2898 60.2037 39.3747 60.2037 39.4595C60.1699 40.2317 60.0685 40.9955 59.9417 41.7592C59.7895 42.6756 59.5782 43.5836 59.3245 44.4746C59.147 45.0856 58.978 45.6966 58.7835 46.3075C58.5806 46.944 58.3608 47.5804 58.1241 48.2083C57.9973 48.5478 57.8452 48.8702 57.693 49.1927C57.4648 49.6764 57.245 50.1685 56.9914 50.6353C56.7124 51.1699 56.4165 51.696 56.0953 52.2051C55.6811 52.8585 55.2584 53.5034 54.8104 54.1314C54.3539 54.7678 53.872 55.3873 53.3733 55.9982C52.6124 56.9402 51.784 57.8312 50.9217 58.6797C49.5861 59.995 48.1574 61.1915 46.5259 62.1334C46.4667 62.1674 46.4076 62.2013 46.3399 62.2352C45.6552 61.2509 44.9789 60.275 44.2942 59.2992C44.3534 59.2652 44.4041 59.2313 44.4548 59.1974C45.7736 58.4336 47.05 57.6105 48.2589 56.6771C48.8337 56.2358 49.3748 55.7606 49.9242 55.2854C50.423 54.8442 50.9133 54.4029 51.3782 53.9362C51.7671 53.5459 52.1137 53.1216 52.4603 52.6973C52.8914 52.1797 53.331 51.662 53.7368 51.1189C54.1087 50.6183 54.4638 50.1091 54.8019 49.583C55.1062 49.1078 55.3937 48.6241 55.6642 48.132C55.9854 47.5464 56.2897 46.944 56.5856 46.3415C56.7631 45.9766 56.9322 45.6032 57.0844 45.2298C57.4563 44.3134 57.8198 43.3884 58.0734 42.4295C58.2932 41.5979 58.4538 40.7494 58.6567 39.9178C58.8934 38.9164 59.0033 37.8982 59.0878 36.8799C59.2147 35.4882 59.1977 34.0881 59.1132 32.6879C59.0456 31.5593 58.9103 30.4477 58.6905 29.3445C58.4116 27.9444 58.0058 26.5782 57.507 25.2459C57.2957 24.6774 57.0167 24.1343 56.7631 23.5742C56.6786 23.3791 56.5941 23.1924 56.5011 23.0057C56.4334 22.8699 56.4081 22.7426 56.4673 22.5984C56.4926 22.539 56.5095 22.4711 56.5433 22.3693C56.6279 22.522 56.6955 22.6408 56.7631 22.7681C57.6677 24.5077 58.3862 26.3321 58.9695 28.2074C59.333 29.37 59.612 30.5495 59.8148 31.746C59.9586 32.5776 60.06 33.4262 60.1783 34.2663C60.2037 34.4275 60.1868 34.5887 60.1953 34.7584C60.1953 34.8348 60.2122 34.9027 60.2291 34.9791C60.2375 36.3877 60.2375 37.7963 60.2375 39.205Z" fill="#0097DB"/>
<path d="M44.0067 73.5893C43.9898 73.5553 43.9814 73.5299 43.9645 73.4959C43.8715 73.3092 43.8461 73.1141 43.9222 72.9104C44.2012 72.0958 44.2603 71.2557 44.0406 70.4241C43.8461 69.6604 43.4319 69.0154 42.8486 68.4724C42.4006 68.0566 41.8934 67.7511 41.3777 67.4371C41.1664 67.3098 40.9466 67.1825 40.7437 67.0383C40.0589 66.5461 39.7377 65.8503 39.6532 65.0356C39.6447 64.9508 39.6785 64.849 39.7123 64.7641C39.9829 64.1956 40.3971 63.7882 40.9466 63.4912C41.2424 63.33 41.5299 63.3045 41.8426 63.3979C41.9356 63.4233 42.0202 63.4488 42.1131 63.4912C42.3837 63.61 42.6542 63.7458 42.9247 63.8646C43.1867 63.9834 43.3643 64.1786 43.4488 64.4501C43.508 64.6708 43.6348 64.8405 43.8038 64.9762C43.9391 65.0866 44.0828 65.1969 44.2181 65.2987C44.3702 65.409 44.4717 65.5533 44.5478 65.7315C44.6577 66.0115 44.7084 66.3 44.7506 66.597C44.8014 66.9789 44.8944 67.3522 45.0043 67.7256C45.1311 68.1499 45.1987 68.5827 45.1902 69.0239C45.1818 69.6349 45.1818 70.2459 45.1649 70.8568C45.148 71.383 45.0634 71.9006 44.9113 72.4013C44.8521 72.5964 44.7676 72.7831 44.683 72.9613C44.5647 73.2074 44.4125 73.4195 44.1504 73.5214C44.1335 73.5299 44.1166 73.5638 44.0997 73.5808C44.0659 73.5893 44.0405 73.5893 44.0067 73.5893Z" fill="#3344BB"/>
<path d="M26.8967 7.6211C26.3726 7.72293 25.8823 7.81627 25.4004 7.9181C23.4899 8.31693 21.6555 8.9279 19.9226 9.8189C19.1702 10.2008 18.4178 10.5911 17.6824 10.9984C17.302 11.2106 16.9638 11.4821 16.6003 11.7197C16.3383 11.8979 16.0508 12.0506 15.7972 12.2373C14.9265 12.8738 14.0812 13.5611 13.2865 14.2909C12.8639 14.6727 12.4412 15.0546 12.0439 15.4534C11.7395 15.7589 11.469 16.1068 11.1901 16.4293C10.8096 16.879 10.4208 17.3288 10.0573 17.787C9.52471 18.4489 9.02595 19.1447 8.58637 19.883C8.21441 20.4939 7.85091 21.1219 7.50432 21.7498C7.00556 22.6493 6.57443 23.5743 6.23629 24.5416C5.99114 25.2375 5.75444 25.9333 5.51774 26.6376C5.19651 27.622 4.90908 28.6233 4.72311 29.6416C4.61321 30.2441 4.56249 30.855 4.48641 31.4575C4.45259 31.7206 4.42723 31.9836 4.40187 32.2467C4.28352 33.3668 4.30043 34.4954 4.32579 35.624C4.3427 36.3283 4.38497 37.0326 4.44414 37.737C4.48641 38.1867 4.57094 38.6364 4.63857 39.0862C4.73156 39.6632 4.8161 40.2402 4.92599 40.8088C5.12888 41.9119 5.42475 42.9896 5.82206 44.0334C6.09258 44.7547 6.43072 45.4505 6.75195 46.1548C7.107 46.9355 7.54659 47.6822 7.96081 48.4375C8.4173 49.2775 8.95832 50.0667 9.49935 50.8474C10.0235 51.5942 10.6237 52.2645 11.2154 52.9604C12.3059 54.2332 13.5401 55.3618 14.842 56.414C15.3661 56.8383 15.9409 57.2032 16.4989 57.5936C18.4094 58.9428 20.5143 59.9102 22.6953 60.7163C23.6506 61.0727 24.6396 61.3358 25.6456 61.5309C26.119 61.6243 26.5924 61.7007 27.0573 61.7855C27.1672 61.8025 27.218 61.8704 27.2856 61.9383C27.9788 62.7444 28.6804 63.5505 29.3736 64.3567C30.0583 65.1459 30.7431 65.935 31.4194 66.7242C31.4616 66.7751 31.5039 66.826 31.5715 66.9024C31.4785 66.9109 31.4194 66.9194 31.3602 66.9194C30.2528 66.9448 29.1454 66.9024 28.0379 66.8006C25.8907 66.5969 23.7858 66.1981 21.7232 65.5702C19.5929 64.9168 17.5387 64.0597 15.6282 62.9056C15.0871 62.5747 14.5207 62.2777 14.0051 61.9128C12.4158 60.8012 10.9111 59.5877 9.55007 58.2045C8.61173 57.2456 7.72411 56.2443 6.90412 55.1836C6.12639 54.1823 5.4163 53.1386 4.76537 52.0439C4.29198 51.2547 3.83549 50.4486 3.45508 49.6085C3.15075 48.9466 2.86333 48.2677 2.60127 47.5889C2.33076 46.8931 2.09406 46.1887 1.86581 45.4759C1.71365 45.0007 1.62066 44.5001 1.50231 44.0164C1.29097 43.1424 1.13036 42.2514 0.986647 41.3604C0.885205 40.7494 0.80067 40.1384 0.775309 39.5274C0.766855 39.2729 0.716134 39.0183 0.690774 38.7637C0.623145 38.1612 0.597784 37.5588 0.614691 36.9563C0.631598 36.532 0.640052 36.1162 0.640052 35.6919C0.640052 35.0045 0.70768 34.3257 0.783762 33.6468C0.868297 32.9255 1.01201 32.2127 1.16417 31.5084C1.30788 30.8041 1.45159 30.0998 1.60375 29.3955C1.66293 29.1155 1.74746 28.8439 1.832 28.5724C2.00952 28.0038 2.18705 27.4353 2.37303 26.8667C2.49983 26.4849 2.65199 26.12 2.81261 25.7551C3.11694 25.0593 3.42126 24.3634 3.75095 23.6846C3.95383 23.2603 4.18208 22.836 4.41878 22.4287C4.833 21.7074 5.25568 20.9946 5.69526 20.2818C5.99959 19.7811 6.35464 19.3229 6.72659 18.8732C7.27607 18.2198 7.82555 17.5664 8.37503 16.9215C8.94987 16.2426 9.59234 15.6316 10.2517 15.0376C11.3422 14.0448 12.4834 13.1283 13.6838 12.2882C14.6222 11.6348 15.5605 10.973 16.5919 10.4723C17.6147 9.97165 18.6461 9.4625 19.7028 9.03822C21.1483 8.46119 22.6277 7.98598 24.1578 7.69747C24.8848 7.5617 25.6118 7.45138 26.3388 7.35804C26.3895 7.34955 26.4487 7.35804 26.4909 7.3835C26.6177 7.43441 26.7361 7.51927 26.8967 7.6211Z" fill="#0097DB"/>
<path d="M41.1071 4.78688C40.6421 4.81234 40.1856 4.74445 39.7207 4.68505C39.577 4.66808 39.4586 4.60868 39.3741 4.49836C39.2726 4.36259 39.1881 4.21833 39.0867 4.08256C39.0275 4.00619 38.9683 3.92982 38.8922 3.8789C38.7485 3.79405 38.6471 3.8195 38.5879 3.98073C38.5456 4.09953 38.5287 4.22682 38.5118 4.35411C38.5034 4.43896 38.5118 4.53231 38.5034 4.61716C38.478 4.84628 38.3681 4.95659 38.1314 4.95659C37.7764 4.96508 37.4129 4.95659 37.0578 4.96508C36.7197 4.97357 36.39 5.04145 36.0772 5.18571C35.8659 5.28754 35.6968 5.43179 35.5784 5.64394C35.4601 5.85608 35.3417 5.88154 35.1304 5.76274C34.9698 5.66939 34.8007 5.56757 34.6486 5.46574C34.471 5.34694 34.3442 5.17722 34.2682 4.97356C34.2174 4.82082 34.2259 4.69354 34.3358 4.57474C34.5471 4.35411 34.7585 4.14196 34.9782 3.92982C35.1051 3.81102 35.2403 3.7007 35.384 3.59039C35.7137 3.3443 35.7644 2.75879 35.5531 2.44482C35.4939 2.35147 35.4263 2.24964 35.3756 2.14781C35.2741 1.93567 35.3587 1.79141 35.5869 1.79141C35.9589 1.78293 36.3308 1.78293 36.6859 1.9187C36.8296 1.9781 37.0071 1.96113 37.1677 1.96113C37.2945 1.96113 37.3452 1.90173 37.3537 1.76596C37.3621 1.65564 37.3537 1.54533 37.3452 1.4435C37.3283 1.12104 37.4298 0.959812 37.7426 0.874955C38.1483 0.773126 38.5625 0.747669 38.9683 0.857984C39.6784 1.05316 40.3293 0.917383 40.9464 0.552497C41.1155 0.459154 41.293 0.374297 41.479 0.306411C41.7495 0.213068 42.02 0.255497 42.2567 0.416726C42.7217 0.739184 43.0006 1.15498 42.9246 1.75747C42.8569 2.24964 43.0175 2.64847 43.4233 2.94547C43.474 2.9879 43.5332 3.03033 43.5839 3.07276C43.8714 3.33582 43.8967 3.57342 43.7784 3.93831C43.7615 3.98922 43.7361 4.04013 43.6938 4.07408C43.3388 4.37956 42.9584 4.64262 42.485 4.70202C42.113 4.75294 41.7326 4.76142 41.3522 4.78688C41.2761 4.79536 41.1916 4.78688 41.1071 4.78688Z" fill="#3344BB"/>
<path d="M44.5477 14.2315C43.7868 14.2739 43.0937 14.0108 42.392 13.7987C42.0623 13.7054 41.8679 13.4678 41.8425 13.1198C41.8425 13.0774 41.8341 13.035 41.8256 13.001C41.8003 12.8738 41.7326 12.7974 41.5974 12.7719C41.4621 12.7465 41.3522 12.7889 41.2846 12.9077C41.2339 12.9926 41.1916 13.0859 41.1493 13.1792C41.0902 13.315 41.031 13.4508 40.9718 13.5866C40.8957 13.7478 40.8112 13.8072 40.6337 13.7902C40.3293 13.7648 40.025 13.7223 39.7291 13.6969C39.4164 13.6714 39.0951 13.6205 38.7824 13.6714C38.5457 13.7054 38.3259 13.7732 38.123 13.909C38.0892 13.9345 38.0553 13.9514 38.0215 13.9769C37.6749 14.189 37.3706 14.1466 37.1086 13.8242C36.9564 13.6375 36.8888 13.4168 36.8803 13.1877C36.8719 13.0604 36.9226 12.9586 37.0156 12.8822C37.1001 12.8144 37.1931 12.755 37.2861 12.704C37.6834 12.4749 38.0807 12.2458 38.478 12.0082C38.6048 11.9318 38.7232 11.8385 38.8246 11.7282C39.0191 11.5245 39.0867 11.2699 39.036 10.9899C39.0275 10.9135 39.0106 10.8457 39.0106 10.7693C39.0021 10.5826 39.1036 10.4638 39.2896 10.4638C39.4502 10.4638 39.6108 10.4808 39.7714 10.5232C40.025 10.5911 40.2702 10.6844 40.5238 10.7608C40.6083 10.7863 40.6844 10.8287 40.7689 10.8457C40.9634 10.8966 41.0817 10.8372 41.1493 10.6505C41.1832 10.5656 41.1916 10.4808 41.217 10.3959C41.3015 10.0819 41.5213 9.89525 41.8425 9.87828C42.0201 9.8698 42.206 9.90374 42.3836 9.9292C42.4765 9.94617 42.5695 9.98011 42.6541 10.0141C43.119 10.1838 43.6178 10.2262 44.1081 10.2771C44.3448 10.3026 44.5646 10.2177 44.7844 10.1498C45.131 10.0395 45.4691 9.94617 45.8326 9.95465C45.8918 9.95465 45.9509 9.95465 46.0101 9.97163C46.4497 10.0565 46.8386 10.3365 46.7709 10.9645C46.7456 11.2021 46.678 11.4312 46.5258 11.6263C46.4751 11.6942 46.4243 11.7706 46.3736 11.847C46.2637 12.0252 46.2722 12.2119 46.3905 12.3816C46.4497 12.4664 46.5258 12.5513 46.6019 12.6277C46.8555 12.9247 46.8639 13.2471 46.6188 13.5526C46.3229 13.926 45.9087 14.0957 45.4606 14.1551C45.1563 14.1975 44.852 14.206 44.5477 14.2315Z" fill="#3344BB"/>
<path d="M44.3025 19.0259C44.1334 19.0005 43.9643 18.9835 43.7868 18.9411C43.1781 18.7968 42.5864 18.6186 42.0285 18.3386C41.7833 18.2198 41.7157 18.118 41.7326 17.8464C41.741 17.7022 41.7241 17.5664 41.6396 17.4391C41.5635 17.3203 41.4874 17.2948 41.3691 17.3627C41.3015 17.3967 41.2338 17.4561 41.1916 17.5155C41.0648 17.7022 40.9549 17.8889 40.845 18.0925C40.7604 18.2537 40.6505 18.3131 40.473 18.2877C40.0926 18.2368 39.7122 18.1859 39.3233 18.1604C38.9598 18.1434 38.5963 18.1604 38.2328 18.1774C38.1314 18.1859 38.0299 18.2368 37.9285 18.2792C37.8693 18.3047 37.8102 18.3386 37.7425 18.3641C37.4128 18.5083 37.2691 18.4659 37.0747 18.1774C36.9902 18.0501 36.9056 17.9313 36.8464 17.7955C36.745 17.5834 36.7704 17.4476 36.9394 17.2864C37.1339 17.1082 37.3452 16.9724 37.5988 16.8706C38.0384 16.6924 38.4526 16.4632 38.8584 16.2256C39.112 16.0814 39.1881 15.8098 39.1965 15.5213C39.1965 15.4365 39.1965 15.3431 39.2134 15.2583C39.2642 14.9698 39.484 14.817 39.7714 14.8764C39.8644 14.8934 39.9573 14.9273 40.0419 14.9698C40.2955 15.0886 40.5491 15.2158 40.8112 15.3431C41.1324 15.4959 41.2846 15.4619 41.4705 15.1564C41.5128 15.0886 41.5466 15.0122 41.5804 14.9358C41.7157 14.6473 41.927 14.4946 42.2483 14.5115C42.5441 14.5285 42.8231 14.5794 43.0936 14.6982C43.4064 14.834 43.7276 14.9273 44.0658 14.9782C44.4715 15.0376 44.8604 14.9528 45.2493 14.8764C45.4099 14.8425 45.562 14.8085 45.7227 14.7746C45.9594 14.7237 46.1961 14.7406 46.4243 14.8255C46.7202 14.9273 46.8808 15.131 46.9315 15.428C46.9738 15.6571 46.94 15.8777 46.8216 16.0814C46.7117 16.2681 46.5934 16.4548 46.4581 16.616C46.2806 16.8281 46.2637 17.0318 46.4074 17.2694C46.475 17.3797 46.5257 17.4985 46.568 17.6173C46.6779 17.9398 46.5934 18.2453 46.3144 18.4574C46.0185 18.678 45.6804 18.8223 45.3169 18.8817C45.0802 18.9156 44.835 18.9581 44.5983 18.992C44.5054 19.009 44.4124 19.0175 44.3025 19.0259Z" fill="#3344BB"/>
<path d="M39.3657 9.38619C39.0698 9.38619 38.7739 9.36922 38.478 9.38619C38.1145 9.41165 37.7764 9.52196 37.5059 9.78502C37.3199 9.96322 37.0917 9.98868 36.8719 9.86139C36.7281 9.78502 36.6013 9.68319 36.483 9.57288C36.2463 9.35225 36.2378 8.88553 36.5084 8.68187C36.7704 8.4867 37.024 8.29153 37.2861 8.09636C37.4382 7.98604 37.5989 7.88421 37.7426 7.75693C38.0807 7.45144 38.1737 7.07807 38.0046 6.65378C37.9793 6.5859 37.9539 6.51801 37.937 6.44164C37.9116 6.30587 37.9539 6.2295 38.1061 6.22101C38.309 6.21252 38.5119 6.20404 38.7147 6.2295C38.9514 6.26344 39.1797 6.3483 39.4164 6.4077C39.5263 6.43315 39.6362 6.4671 39.7545 6.47558C39.9405 6.48407 40.0081 6.42467 40.0504 6.23798C40.0927 6.0513 40.1265 5.86461 40.1772 5.68641C40.2279 5.49124 40.2617 5.46578 40.4562 5.46578C40.6675 5.45729 40.8788 5.44881 41.0817 5.45729C41.3015 5.46578 41.5213 5.49972 41.7411 5.53366C42.2483 5.61852 42.7555 5.69489 43.2712 5.58458C43.4825 5.54215 43.677 5.44032 43.8798 5.37244C44.0743 5.31304 44.2687 5.24515 44.4631 5.21121C44.8689 5.13484 45.1817 5.29606 45.4015 5.62701C45.6466 5.9919 45.6889 6.39921 45.5367 6.81501C45.5114 6.89138 45.4691 6.96776 45.4522 7.04413C45.4015 7.27324 45.4438 7.48539 45.6044 7.67207C45.7058 7.79087 45.8157 7.90118 45.9087 8.02847C46.1116 8.3085 46.1031 8.5461 45.9002 8.80916C45.6466 9.14859 45.3254 9.36922 44.8943 9.42862C44.3363 9.50499 43.7784 9.55591 43.2205 9.54742C42.6541 9.53893 42.1131 9.42013 41.5805 9.20799C41.4452 9.15708 41.3522 9.06373 41.2931 8.93645C41.2339 8.81765 41.1832 8.69036 41.124 8.56307C41.0986 8.51216 41.0817 8.46124 41.0564 8.41882C41.0056 8.33396 40.9296 8.27456 40.8197 8.28304C40.7182 8.29153 40.676 8.37639 40.6506 8.46973C40.6083 8.63096 40.5745 8.80067 40.5322 8.9619C40.4477 9.29285 40.3547 9.36922 40.0081 9.36922C39.7799 9.38619 39.577 9.38619 39.3657 9.38619Z" fill="#3344BB"/>
<path d="M43.6009 23.6846C43.0937 23.7694 42.6287 23.6082 42.1638 23.413C41.8172 23.2688 41.4706 23.133 41.124 23.0057C40.9634 22.9463 40.8873 22.8445 40.8788 22.6748C40.8704 22.5051 40.8535 22.3353 40.8366 22.1656C40.8196 22.0468 40.8112 21.9026 40.6759 21.8686C40.5407 21.8347 40.4308 21.9111 40.3463 22.0214C40.2279 22.1826 40.1095 22.3353 39.9997 22.4966C39.9067 22.6408 39.7799 22.7087 39.6108 22.7002C39.3487 22.6918 39.0867 22.6918 38.8246 22.6748C38.7401 22.6663 38.6471 22.6408 38.5795 22.5984C38.4442 22.5135 38.3005 22.4711 38.1399 22.4541C37.6749 22.4032 37.2269 22.4032 36.8042 22.6578C36.6351 22.7596 36.4914 22.7342 36.3646 22.5899C36.2125 22.4202 36.1026 22.2335 36.0434 22.0044C35.9842 21.7753 36.0518 21.5886 36.2294 21.4359C36.3139 21.3595 36.4153 21.2916 36.5252 21.2577C36.8127 21.1473 37.1085 21.037 37.4044 20.9691C37.8102 20.8673 38.1568 20.6891 38.4357 20.3666C38.6048 20.18 38.7063 19.9678 38.7401 19.7132C38.7908 19.3568 38.8331 19.3314 39.1797 19.3484C39.4417 19.3568 39.7038 19.4078 39.932 19.5605C40.0081 19.6114 40.1096 19.6284 40.1941 19.6623C40.304 19.7048 40.4054 19.7387 40.5069 19.7896C40.6844 19.8745 40.8281 19.849 40.9549 19.6878C41.0225 19.6029 41.0733 19.5011 41.1324 19.4162C41.3691 19.0853 41.6988 18.992 42.0792 19.1532C42.392 19.289 42.6963 19.4247 43.0091 19.552C43.2712 19.6623 43.5501 19.7048 43.8376 19.6963C44.4631 19.6878 45.0971 19.6963 45.7227 19.6878C46.0778 19.6793 46.2722 19.8575 46.306 20.2224C46.3314 20.5703 46.2299 20.8843 46.0101 21.1473C45.9087 21.2746 45.7819 21.3765 45.6635 21.4953C45.4099 21.7498 45.3592 21.9705 45.5114 22.2844C45.6804 22.6239 45.6382 23.0736 45.207 23.3452C44.8182 23.5912 44.404 23.727 43.939 23.71C43.8291 23.6931 43.7108 23.6846 43.6009 23.6846Z" fill="#3344BB"/>
<path d="M42.3328 28.3263C41.7241 28.2754 41.1493 28.2415 40.5998 28.0378C40.3631 27.953 40.1349 27.8257 39.9066 27.6984C39.7375 27.5966 39.5685 27.4947 39.374 27.4693C39.2472 27.4523 39.205 27.4014 39.205 27.2571C39.1965 27.0789 39.205 26.9007 39.1965 26.731C39.1965 26.6292 39.1881 26.5274 39.1712 26.4255C39.1458 26.3067 39.0782 26.2728 38.9598 26.3152C38.9006 26.3407 38.833 26.3746 38.7907 26.4171C38.6893 26.5189 38.5794 26.6292 38.4949 26.748C38.3089 27.028 38.0553 27.0959 37.7341 27.0111C37.3959 26.9262 37.0493 26.8413 36.7027 26.8074C36.3139 26.7735 35.9166 26.7904 35.5277 26.7819C35.4432 26.7819 35.3671 26.7904 35.2825 26.7735C35.0205 26.731 34.843 26.5698 34.7838 26.3067C34.7246 26.0182 34.7922 25.84 35.0374 25.6788C35.3333 25.4836 35.6376 25.3309 35.9926 25.2545C36.3392 25.1781 36.6774 25.0424 37.0071 24.9066C37.3114 24.7793 37.4889 24.5163 37.5734 24.2023C37.5904 24.1344 37.6073 24.058 37.6326 23.9901C37.7087 23.7865 37.8778 23.7186 38.0722 23.8119C38.1229 23.8374 38.1736 23.8798 38.2244 23.9053C38.478 24.058 38.7316 24.2108 38.9936 24.3465C39.2472 24.4738 39.4417 24.4229 39.6277 24.2192C39.6784 24.1598 39.7122 24.1005 39.7629 24.041C39.9912 23.7271 40.287 23.6252 40.6505 23.7695C40.8957 23.8628 41.1239 23.9986 41.3522 24.1344C41.6058 24.2786 41.8678 24.4144 42.1553 24.4484C42.299 24.4653 42.4511 24.4653 42.6033 24.4653C42.9837 24.4823 43.3726 24.4823 43.753 24.5078C43.8713 24.5163 43.9897 24.5587 44.108 24.5757C44.4293 24.6351 44.5561 24.9575 44.4884 25.2121C44.4631 25.3224 44.4123 25.4327 44.3447 25.5261C44.1756 25.7467 43.9981 25.9588 43.8121 26.171C43.753 26.2389 43.6769 26.3067 43.6093 26.3661C43.474 26.4934 43.4486 26.6377 43.4994 26.8074C43.5247 26.8923 43.5501 26.9771 43.5755 27.062C43.6346 27.2911 43.5924 27.5117 43.4402 27.6984C43.1781 28.1057 42.7724 28.2924 42.3328 28.3263Z" fill="#3344BB"/>
<path d="M39.7462 32.3486C39.2644 32.374 38.7994 32.2637 38.3683 32.0601C37.9963 31.8819 37.6413 31.6782 37.2862 31.4661C37.0749 31.3473 37.0411 31.203 37.0833 30.94C37.1002 30.8381 37.1003 30.7278 37.0918 30.6175C37.0833 30.5242 37.0157 30.4817 36.9227 30.4817C36.8128 30.4817 36.7114 30.5242 36.6353 30.609C36.5508 30.7024 36.4747 30.7957 36.3986 30.889C36.1535 31.203 36.0182 31.237 35.6462 31.1182C35.2743 31.0078 34.9023 30.906 34.5388 30.8042C34.2937 30.7363 34.057 30.7702 33.8203 30.8296C33.685 30.8636 33.5582 30.8975 33.423 30.9145C33.2116 30.9484 33.0679 30.8721 32.9834 30.6769C32.9326 30.5666 32.8904 30.4478 32.865 30.329C32.8058 30.032 32.8904 29.8453 33.1693 29.718C33.3553 29.6332 33.5498 29.5653 33.7357 29.5143C33.9555 29.4465 34.1838 29.404 34.4036 29.3531C34.505 29.3277 34.598 29.2937 34.691 29.2598C35.1306 29.107 35.4518 28.8355 35.6124 28.3857C35.6209 28.3603 35.6378 28.3348 35.6462 28.3094C35.7984 27.9954 35.9759 27.936 36.2887 28.0972C36.4409 28.1736 36.5761 28.2754 36.7198 28.3688C36.7706 28.4027 36.8128 28.4451 36.8636 28.4791C37.2017 28.7167 37.3961 28.6743 37.6159 28.3348C37.8442 27.9869 38.2753 27.8681 38.6472 28.0548C38.8079 28.1397 38.9685 28.2245 39.1206 28.3263C39.5518 28.6064 40.0252 28.7506 40.5408 28.7421C40.9297 28.7421 41.327 28.7337 41.7159 28.7421C42.1301 28.7506 42.3245 29.0222 42.2231 29.421C42.1132 29.8283 41.8765 30.1508 41.5468 30.4054C41.4792 30.4563 41.4031 30.5072 41.3355 30.5666C41.2087 30.6684 41.1664 30.8042 41.2087 30.9654C41.2256 31.0248 41.2425 31.0842 41.2594 31.1436C41.3608 31.4491 41.2932 31.7037 41.0565 31.9158C40.7691 32.1789 40.4309 32.3401 40.0336 32.3486C39.9406 32.3486 39.8477 32.3486 39.7462 32.3486Z" fill="#3344BB"/>
<path d="M34.9952 34.784C34.767 34.7331 34.5895 34.801 34.4542 34.9876C34.4119 35.047 34.3697 35.1064 34.3274 35.1658C34.1583 35.3865 33.9385 35.4798 33.668 35.4374C33.4651 35.4034 33.2622 35.3356 33.0594 35.2846C32.6451 35.1658 32.2309 35.1064 31.7998 35.2252C31.7068 35.2507 31.6223 35.2846 31.5293 35.3186C31.225 35.4289 30.9713 35.3016 30.8784 34.9961C30.8699 34.9707 30.8615 34.9452 30.8615 34.9198C30.7516 34.4191 30.8445 34.2409 31.3348 34.0712C31.7575 33.9269 32.1802 33.7912 32.6029 33.6384C32.7043 33.6045 32.8058 33.5536 32.8987 33.5026C33.1016 33.3923 33.2538 33.2396 33.3468 33.0274C33.3891 32.9341 33.4229 32.8407 33.4651 32.7474C33.6088 32.4334 33.8624 32.3401 34.1583 32.5013C34.3528 32.6031 34.5303 32.7219 34.7163 32.8408C34.7754 32.8747 34.8261 32.9171 34.8853 32.9511C35.0628 33.0444 35.1812 33.0274 35.3165 32.8662C35.3672 32.8068 35.4094 32.7304 35.4602 32.671C35.5362 32.5777 35.6208 32.4843 35.7138 32.408C35.8828 32.2637 36.0857 32.2213 36.3055 32.2977C36.4154 32.3401 36.5168 32.3825 36.6183 32.4419C37.1593 32.7729 37.7511 32.9001 38.3851 32.8747C38.7148 32.8662 39.0445 32.8662 39.3741 32.8577C39.9067 32.8492 40.1603 33.265 39.8983 33.7657C39.7715 34.0203 39.5855 34.2239 39.3826 34.4106C39.3488 34.4361 39.3234 34.4615 39.2896 34.4955C38.943 34.7925 38.943 34.8858 39.1036 35.2422C39.1966 35.4544 39.1628 35.6495 39.0106 35.8277C38.5711 36.3284 38.0216 36.532 37.3622 36.4132C37.0663 36.3623 36.7789 36.2944 36.4915 36.235C36.0181 36.1332 35.5954 35.9126 35.1897 35.6495C35.0375 35.5562 34.9868 35.4204 35.029 35.2507C35.0628 35.081 35.0544 34.9282 34.9952 34.784Z" fill="#3344BB"/>
<path d="M34.2514 44.6953C33.6935 44.6953 33.1524 44.585 32.6199 44.4068C32.4761 44.3559 32.4085 44.271 32.3747 44.1353C32.3493 44.0419 32.3409 43.9486 32.3155 43.8552C32.2479 43.6431 32.0704 43.5837 31.8929 43.7195C31.8337 43.7619 31.7914 43.8298 31.7491 43.8892C31.6815 44.008 31.6054 44.1353 31.5547 44.271C31.4786 44.4577 31.3434 44.5256 31.1574 44.5171C30.8108 44.5171 30.4642 44.5341 30.1261 44.5171C29.7964 44.5001 29.5005 44.568 29.2046 44.7123C29.0863 44.7717 28.9595 44.8311 28.8411 44.882C28.4185 45.0432 28.0211 44.7632 28.0127 44.3135C28.0127 44.1013 28.1226 43.9571 28.2917 43.8552C28.6636 43.6346 29.0356 43.414 29.4075 43.1933C29.5005 43.1339 29.5935 43.083 29.678 43.0151C29.957 42.803 30.1261 42.5315 30.143 42.1751C30.143 42.1241 30.1514 42.0817 30.1599 42.0308C30.1937 41.8356 30.2867 41.7338 30.4896 41.7508C30.7939 41.7847 31.1067 41.8441 31.411 41.8865C31.5209 41.9035 31.6223 41.9205 31.7322 41.929C31.8675 41.9374 31.9689 41.8781 32.0366 41.7677C32.0873 41.6829 32.1296 41.598 32.1718 41.5217C32.4001 41.1228 32.6706 40.9871 33.1186 41.0889C33.6596 41.2162 34.2007 41.2331 34.7501 41.2247C34.9277 41.2247 35.0967 41.1907 35.2574 41.1143C35.5701 40.9786 35.8914 40.8937 36.238 40.9022C36.3056 40.9022 36.3732 40.9107 36.4408 40.9277C36.7621 41.004 36.9142 41.2841 36.8043 41.598C36.779 41.6574 36.7536 41.7253 36.7198 41.7847C36.593 42.0393 36.4662 42.2938 36.331 42.5484C36.2211 42.7606 36.2211 42.9642 36.3563 43.1594C36.5338 43.414 36.5 43.6685 36.331 43.9146C36.1112 44.2286 35.8068 44.4238 35.4518 44.5256C35.0629 44.6529 34.6572 44.6953 34.2514 44.6953Z" fill="#3344BB"/>
<path d="M35.232 40.4863C34.8178 40.4693 34.3528 40.4099 33.9048 40.2742C33.6343 40.1893 33.3891 40.079 33.1609 39.9178C33.0256 39.8244 32.958 39.7056 32.9749 39.5444C32.9834 39.4426 32.9834 39.3407 32.9749 39.2389C32.9749 39.1456 32.9495 39.0607 32.8565 39.0183C32.7551 38.9758 32.6621 39.0098 32.5945 39.0777C32.5015 39.1795 32.4001 39.2898 32.3409 39.4086C32.2394 39.6123 32.0704 39.7311 31.8759 39.8074C31.8337 39.8244 31.766 39.8244 31.7153 39.8159C31.3265 39.7396 30.9376 39.6632 30.5403 39.5953C30.3036 39.5529 30.0669 39.6123 29.8386 39.6886C29.7118 39.7311 29.585 39.782 29.4582 39.8159C29.23 39.8838 29.0778 39.8414 28.9426 39.6547C28.7904 39.4341 28.7566 39.188 28.858 38.9419C28.9088 38.8146 29.0102 38.7298 29.1285 38.6873C29.4329 38.5685 29.7372 38.4497 30.0331 38.3309C30.2191 38.2546 30.4135 38.1782 30.591 38.0848C30.9122 37.9236 31.132 37.6606 31.2335 37.3126C31.2504 37.2448 31.2757 37.1684 31.3011 37.1005C31.3687 36.9308 31.4533 36.8714 31.6308 36.9223C31.9013 36.9987 32.1718 37.092 32.4423 37.1854C32.5353 37.2193 32.6283 37.2617 32.7297 37.2787C32.9664 37.3296 33.1355 37.2278 33.2285 37.0072C33.2539 36.9393 33.2792 36.8629 33.3215 36.8035C33.4821 36.5744 33.7357 36.498 34.0485 36.5914C34.1922 36.6338 34.3359 36.7017 34.4796 36.7696C34.9699 37.0156 35.494 37.1429 36.0435 37.1005C36.238 37.0835 36.4324 37.0326 36.6184 36.9987C36.8635 36.9562 37.1171 36.9308 37.3623 37.0156C37.6497 37.1175 37.7427 37.2702 37.7004 37.5757C37.6582 37.8727 37.5314 38.1273 37.3031 38.3055C36.9988 38.56 36.8973 38.8655 36.9734 39.2474C36.9903 39.3068 36.9903 39.3662 36.9988 39.4256C37.0495 39.782 36.965 39.9856 36.6522 40.1554C36.2295 40.376 35.773 40.5287 35.232 40.4863Z" fill="#3344BB"/>
<path d="M33.4736 48.9637C33.2792 48.9297 33.0256 48.8958 32.772 48.8534C32.6621 48.8364 32.5606 48.8194 32.4592 48.7855C32.3662 48.7515 32.2648 48.7091 32.2056 48.6412C32.0111 48.4376 31.7744 48.4885 31.5377 48.5224C31.487 48.5309 31.4278 48.5988 31.394 48.6582C31.1827 48.9637 30.8868 49.0825 30.5233 49.0825C30.3373 49.0825 30.1598 49.074 29.9738 49.0825C29.6864 49.091 29.4159 49.1673 29.1708 49.3201C29.0524 49.3965 28.9256 49.4643 28.8157 49.5577C28.6551 49.6934 28.486 49.7019 28.3085 49.6256C28.1056 49.5407 27.9281 49.4134 27.8689 49.1843C27.8182 48.9722 27.8774 48.777 28.0634 48.6412C28.317 48.4545 28.5706 48.2848 28.8242 48.0981C29.0101 47.9539 29.2046 47.8181 29.3821 47.6569C29.6442 47.4108 29.7625 47.1138 29.7033 46.7404C29.6611 46.4859 29.7794 46.3416 30.0415 46.3586C30.3373 46.3755 30.6332 46.418 30.9291 46.4519C31.0305 46.4604 31.132 46.4774 31.2334 46.4774C31.4025 46.4774 31.4701 46.4265 31.5293 46.2567C31.5462 46.1973 31.5631 46.1379 31.5716 46.0785C31.6138 45.8325 31.7575 45.6712 31.9773 45.5864C32.1633 45.5185 32.3493 45.493 32.5522 45.5185C32.8396 45.5609 33.127 45.6033 33.4144 45.6118C33.7948 45.6288 34.1499 45.5355 34.4965 45.3997C34.7924 45.2894 35.0967 45.196 35.401 45.1027C35.4686 45.0772 35.5447 45.0687 35.6208 45.0687C35.9251 45.0518 36.128 45.23 36.1534 45.527C36.1703 45.6967 36.1196 45.8494 36.0604 46.0022C35.9758 46.1973 35.8913 46.384 35.8152 46.5792C35.7307 46.7913 35.773 46.995 35.9167 47.1732C36.1534 47.4787 36.1618 47.8266 35.9167 48.1236C35.8152 48.2424 35.68 48.3442 35.5447 48.4291C35.0798 48.7006 34.5641 48.8364 34.0315 48.9128C33.8456 48.9212 33.6934 48.9382 33.4736 48.9637Z" fill="#3344BB"/>
<path d="M37.1593 53.6223C37.1424 53.8514 37.1255 54.0805 37.1001 54.3096C37.0747 54.5048 37.1424 54.666 37.2861 54.8018C37.6242 55.1243 37.6496 55.4722 37.3622 55.8455C37.0663 56.2359 36.669 56.4735 36.204 56.5838C35.7476 56.6941 35.2826 56.7875 34.8177 56.8808C34.7416 56.8978 34.6571 56.8893 34.581 56.8723C34.4119 56.8384 34.2428 56.779 34.0738 56.745C33.9301 56.7111 33.854 56.6347 33.8117 56.4989C33.7948 56.4395 33.7779 56.3801 33.7525 56.3292C33.7018 56.2359 33.5919 56.1765 33.4989 56.1935C33.3975 56.2104 33.3552 56.2953 33.3383 56.3801C33.3129 56.5414 33.3045 56.7026 33.296 56.8638C33.2791 57.0845 33.2538 57.1184 33.0509 57.1693C32.6198 57.2881 32.1886 57.3984 31.766 57.5257C31.4278 57.6276 31.1404 57.8058 30.9629 58.1282C30.8868 58.2725 30.8107 58.281 30.6585 58.2216C30.5402 58.1706 30.4219 58.1282 30.3035 58.0773C29.9654 57.9246 29.8724 57.6191 30.1006 57.3306C30.3373 57.0251 30.5994 56.745 30.853 56.4565C30.946 56.3462 31.0474 56.2444 31.1404 56.1425C31.3855 55.8965 31.4025 55.6249 31.2757 55.3194C31.2418 55.2346 31.1996 55.1412 31.1827 55.0479C31.1573 54.8782 31.2165 54.7594 31.3856 54.7254C31.5377 54.6915 31.6899 54.6915 31.842 54.6915C32.0449 54.7 32.2478 54.7424 32.4422 54.7594C32.6113 54.7763 32.6451 54.7594 32.7043 54.5981C32.755 54.4624 32.7973 54.3266 32.8311 54.1908C32.9156 53.8344 33.0847 53.6817 33.4397 53.6477C33.6511 53.6308 33.854 53.6138 34.0653 53.6138C34.674 53.6223 35.2234 53.461 35.7222 53.0962C35.9843 52.901 36.2801 52.7652 36.6183 52.7737C36.9564 52.7907 37.1255 52.9434 37.1424 53.2913C37.1593 53.4186 37.1508 53.5204 37.1593 53.6223Z" fill="#3344BB"/>
<path d="M33.5328 52.8925C33.4652 52.8925 33.3976 52.884 33.3299 52.8925C33.0087 52.9179 32.7974 52.7737 32.679 52.4852C32.6283 52.3579 32.5353 52.2985 32.4254 52.2306C32.3409 52.1882 32.2817 52.1966 32.2394 52.2815C32.1887 52.3918 32.138 52.5021 32.1042 52.6209C31.9858 53.0452 31.8252 53.181 31.3772 53.2234C31.2335 53.2319 31.0982 53.2489 30.9545 53.2743C30.5741 53.3252 30.2275 53.4865 29.9401 53.741C29.8386 53.8259 29.7372 53.9192 29.6188 53.9956C29.3314 54.1993 28.8242 54.0296 28.7059 53.6901C28.6636 53.5798 28.672 53.4525 28.7312 53.3592C28.8158 53.2319 28.9003 53.0961 29.0102 52.9943C29.2892 52.7228 29.5935 52.4682 29.8809 52.1966C29.9908 52.0948 30.0838 51.9845 30.1768 51.8657C30.3205 51.6705 30.3374 51.4584 30.2106 51.2378C30.1852 51.1953 30.1683 51.1529 30.1514 51.1105C30.0922 50.9492 30.1599 50.805 30.3205 50.7541C30.405 50.7286 30.4896 50.7116 30.5825 50.7116C30.777 50.7116 30.9714 50.7201 31.1658 50.7286C31.2504 50.7286 31.3265 50.7456 31.411 50.7456C31.6646 50.7456 31.7829 50.6438 31.8337 50.3977C31.8506 50.3213 31.859 50.2534 31.8759 50.177C31.9436 49.9479 32.0873 49.7952 32.324 49.7697C32.5438 49.7443 32.772 49.7188 32.9918 49.7273C33.6427 49.7612 34.2345 49.5915 34.8009 49.2945C35.0291 49.1757 35.2743 49.0994 35.5025 48.9806C35.8491 48.8108 36.314 49.2012 36.2379 49.6C36.221 49.6934 36.1872 49.7867 36.1619 49.8716C36.1112 50.0413 36.0604 50.211 36.0182 50.3807C35.9674 50.5844 36.0097 50.7626 36.1619 50.9238C36.2464 51.0086 36.314 51.119 36.3563 51.2293C36.4662 51.4838 36.4324 51.7384 36.2633 51.959C36.1788 52.0609 36.0773 52.1542 35.9674 52.2306C35.4433 52.604 34.8431 52.7737 34.2091 52.85C33.9809 52.8755 33.7526 52.884 33.5244 52.901C33.5413 52.901 33.5328 52.901 33.5328 52.8925Z" fill="#3344BB"/>
<path d="M33.6426 62.091C33.4397 62.091 33.2368 62.108 33.0339 62.091C32.7719 62.0656 32.6704 61.9468 32.6451 61.6837C32.6197 61.4207 32.6873 61.1915 32.848 60.9794C33.0255 60.7503 33.1946 60.5297 33.3552 60.2921C33.4313 60.1817 33.482 60.0545 33.5242 59.9272C33.5665 59.7914 33.5412 59.7405 33.389 59.6896C33.296 59.6556 33.2622 59.5962 33.2622 59.5029C33.2622 59.3586 33.2537 59.2144 33.2537 59.0786C33.2537 58.841 33.3636 58.7052 33.5919 58.6713C33.7271 58.6458 33.8708 58.6543 34.0146 58.6458C34.1667 58.6373 34.3104 58.6458 34.4626 58.6373C34.5978 58.6289 34.6486 58.561 34.6655 58.4252C34.6739 58.3658 34.6739 58.3064 34.6655 58.2385C34.6401 57.9924 34.7162 57.7718 34.8007 57.5512C34.8345 57.4578 34.8853 57.4154 34.9952 57.4069C35.2995 57.373 35.5954 57.3305 35.8997 57.2966C36.2716 57.2542 36.6098 57.1354 36.9057 56.9062C37.2015 56.6856 37.5143 56.4735 37.8017 56.2444C37.9454 56.134 38.0807 56.1256 38.2329 56.185C38.4696 56.2783 38.6471 56.4141 38.6724 56.6856C38.7063 56.9741 38.7485 57.2627 38.757 57.5512C38.7654 57.7463 38.8246 57.8906 38.9852 57.9924C39.0444 58.0349 39.1036 58.0858 39.1543 58.1367C39.4502 58.4422 39.4755 58.8495 39.2135 59.1889C39.1543 59.2653 39.0867 59.3332 39.0106 59.3926C38.571 59.732 38.1061 60.012 37.565 60.1563C37.3537 60.2157 37.1339 60.2836 36.9226 60.3515C36.5591 60.4618 36.2716 60.3684 36.0519 60.0629C36.0265 60.029 36.0096 59.9866 35.9758 59.9611C35.8912 59.8932 35.7813 59.8169 35.6799 59.8678C35.6207 59.9017 35.5869 60.012 35.57 60.0884C35.5446 60.2496 35.5446 60.4109 35.5362 60.5721C35.5277 60.7503 35.4432 60.8606 35.2657 60.9115C35.1811 60.937 35.0966 60.9539 35.0121 60.9879C34.843 61.0473 34.6655 61.0982 34.4964 61.1746C34.1583 61.3273 33.8793 61.5395 33.7187 61.8874C33.7271 61.9637 33.6849 62.0232 33.6426 62.091Z" fill="#3344BB"/>
<path d="M37.1931 61.6159C37.1762 61.2086 37.3621 60.9879 37.7679 60.92C38.0553 60.8691 38.3428 60.8267 38.6217 60.7588C38.9768 60.674 39.2811 60.4873 39.5432 60.2327C39.7038 60.08 39.8898 59.9527 40.0757 59.8339C40.2702 59.7066 40.5238 59.766 40.6506 59.9611C40.8365 60.2497 40.9803 60.5551 40.9211 60.92C40.8788 61.2086 40.9803 61.4207 41.2423 61.5565C41.7411 61.8195 41.6988 62.3287 41.4283 62.6596C41.3776 62.719 41.3268 62.7699 41.2677 62.8208C40.7182 63.2536 40.118 63.5761 39.4164 63.6779C39.2557 63.7034 39.0782 63.6779 38.9176 63.6524C38.7739 63.6355 38.6555 63.5506 38.5625 63.4403C38.5287 63.4064 38.5034 63.3639 38.4696 63.33C38.3258 63.2112 38.216 63.2451 38.1652 63.4233C38.1483 63.4912 38.1483 63.5591 38.1483 63.627C38.1399 63.7203 38.1399 63.8137 38.1314 63.907C38.1145 64.0343 38.0469 64.1192 37.937 64.1701C37.8524 64.2125 37.7595 64.238 37.6665 64.2634C37.472 64.3313 37.2692 64.3992 37.0747 64.4756C36.7958 64.5944 36.5929 64.7895 36.4661 65.0696C36.3224 65.4005 36.111 65.4599 35.7982 65.2817C35.7391 65.2478 35.6883 65.2053 35.6292 65.1629C35.384 64.9508 35.3333 64.7301 35.4855 64.4416C35.5446 64.3313 35.6207 64.221 35.6883 64.1107C35.8236 63.8985 35.9758 63.6949 36.111 63.4827C36.3054 63.1857 36.2716 62.8463 36.0349 62.5832C36.018 62.5663 36.0011 62.5578 35.9927 62.5408C35.8321 62.3626 35.849 62.2353 36.0603 62.1165C36.1617 62.0571 36.2801 62.0062 36.39 61.9638C36.5252 61.9129 36.652 61.9214 36.7873 61.9723C37.0747 62.0826 37.1931 61.9977 37.1846 61.6922C37.1931 61.6668 37.1931 61.6413 37.1931 61.6159Z" fill="#3344BB"/>
</svg>
