<svg width="71" height="32" viewBox="0 0 71 32" fill="none" xmlns="http://www.w3.org/2000/svg">
<path d="M1.24395 0.783813H5.03959V1.8615H4.78598C4.54083 1.8615 4.39713 1.87847 4.33795 1.90393C4.24496 1.94636 4.18578 2.00576 4.14352 2.07365C4.10125 2.14153 4.08434 2.28579 4.08434 2.49793V4.57693L6.5105 2.31973C6.6204 2.2179 6.67958 2.15002 6.70494 2.11607C6.7303 2.08213 6.73874 2.04819 6.73874 2.02273C6.73874 1.97182 6.71339 1.92939 6.67112 1.90393C6.62885 1.87847 6.51895 1.8615 6.34143 1.8615H6.02865V0.783813H9.54532V1.8615H9.42697C9.26635 1.8615 9.148 1.86999 9.08882 1.88696C9.02965 1.90393 8.94512 1.93787 8.86058 1.99727C8.7676 2.05667 8.64924 2.14153 8.50553 2.26882L6.62885 3.90656L8.86904 6.94446C9.06347 7.20751 9.20718 7.36026 9.29171 7.41117C9.41006 7.47906 9.57913 7.513 9.80737 7.513H9.95954V8.59069H6.02865V7.513H6.18081C6.46823 7.513 6.63731 7.49603 6.70494 7.47057C6.76411 7.44512 6.79792 7.41117 6.79792 7.36874C6.79792 7.32631 6.73875 7.216 6.62885 7.04629L5.25938 5.08608L4.07588 6.11286V6.90203C4.07588 7.0972 4.0928 7.23297 4.13506 7.30086C4.16888 7.37723 4.22805 7.42814 4.29568 7.46208C4.36331 7.49603 4.50701 7.513 4.7099 7.513H5.03113V8.59069H1.2355V7.513H1.52292C1.74272 7.513 1.89487 7.49603 1.9625 7.46208C2.03858 7.42814 2.08931 7.36874 2.12312 7.29237C2.15694 7.23297 2.16539 7.07174 2.16539 6.83414V2.56582C2.16539 2.33671 2.14848 2.17547 2.11467 2.0991C2.08086 2.02273 2.03013 1.96333 1.95405 1.9209C1.87797 1.87847 1.74272 1.8615 1.54829 1.8615H1.22705V0.783813H1.24395Z" fill="#3344BB"/>
<path d="M14.4652 2.8373L12.9689 6.89348C12.9098 7.05471 12.876 7.16502 12.876 7.22442C12.876 7.33473 12.9267 7.41111 13.0281 7.45354C13.1296 7.49597 13.3409 7.52142 13.6621 7.52142V8.59911H10.6611V7.52142C10.9147 7.52142 11.1007 7.48748 11.2022 7.41111C11.3036 7.34322 11.405 7.18199 11.498 6.94439L13.8988 0.792236H15.6403L17.9903 6.82559C18.1002 7.10562 18.2017 7.28382 18.2947 7.38565C18.3877 7.47899 18.5821 7.52991 18.8695 7.52991V8.60759H15.1838V7.52991L15.4036 7.52142C15.7755 7.51294 15.953 7.41959 15.953 7.24139C15.953 7.16502 15.9192 7.02925 15.8431 6.82559L14.4652 2.8373Z" fill="#3344BB"/>
<path d="M19.5119 0.783813H23.316V1.8615H22.9609C22.7158 1.8615 22.5552 1.89544 22.4791 1.97182C22.403 2.04819 22.3692 2.24336 22.3692 2.55733V5.16245L25.2011 2.49793C25.2011 2.18396 25.1588 1.99727 25.0743 1.94636C24.9898 1.89544 24.8207 1.86999 24.5502 1.86999H24.2543V0.7923H28.0584V1.86999H27.7372C27.4667 1.86999 27.2976 1.91242 27.2215 1.98879C27.1539 2.06516 27.1116 2.26033 27.1116 2.5743V6.80868C27.1116 7.13114 27.1539 7.3348 27.23 7.41117C27.306 7.48754 27.5089 7.52997 27.8302 7.52997H28.05V8.60765H24.2459V7.52997H24.4995C24.8123 7.52997 25.0067 7.48754 25.0828 7.40268C25.1588 7.31783 25.1927 7.12266 25.1927 6.80868V4.17811L22.3607 6.80868C22.3607 7.07174 22.3776 7.24145 22.403 7.30934C22.4284 7.37722 22.4791 7.43663 22.5552 7.47057C22.6312 7.50451 22.8003 7.52148 23.0455 7.52148H23.3075V8.59917H19.5034V7.52148H19.7655C20.0698 7.52148 20.2642 7.47905 20.3319 7.3942C20.408 7.30934 20.4418 7.13114 20.4418 6.86808V2.62522C20.4418 2.29427 20.408 2.08213 20.3319 1.99727C20.2558 1.91242 20.0952 1.86999 19.85 1.86999H19.5034V0.783813H19.5119Z" fill="#3344BB"/>
<path d="M29.1069 0.783813H32.9025V1.8615H32.5559C32.3615 1.8615 32.2347 1.87847 32.1586 1.9209C32.0909 1.96333 32.0402 2.01424 32.0064 2.09062C31.9726 2.16699 31.9641 2.31973 31.9641 2.56582V3.92354H34.7961V2.46399C34.7961 2.28579 34.7876 2.16699 34.7623 2.0991C34.7284 2.00576 34.6862 1.94636 34.6101 1.91242C34.5425 1.87847 34.3819 1.8615 34.1452 1.8615H33.8493V0.783813H37.6618V1.8615H37.3406C37.1208 1.8615 36.9855 1.87847 36.9095 1.91242C36.8418 1.94636 36.7911 1.99727 36.7657 2.06516C36.7404 2.13305 36.7235 2.29427 36.7235 2.55733V6.79171C36.7235 7.05477 36.7404 7.22449 36.7742 7.30086C36.808 7.37723 36.8672 7.42814 36.9348 7.46208C37.0109 7.49603 37.1715 7.513 37.4336 7.513H37.6534V8.59069H33.8408V7.513H34.0944C34.3311 7.513 34.4917 7.49603 34.5678 7.4536C34.6524 7.41966 34.7115 7.36025 34.7369 7.29237C34.7707 7.22448 34.7876 7.05477 34.7876 6.79171V5.137H31.9557V6.79171C31.9557 7.05477 31.9641 7.216 31.9895 7.2754C32.0233 7.36874 32.0825 7.42814 32.1586 7.46208C32.2347 7.49603 32.3953 7.50451 32.632 7.50451H32.894V8.5822H29.0984V7.50451H29.3605C29.5802 7.50451 29.7324 7.48755 29.8169 7.44512C29.9015 7.41117 29.9607 7.35177 29.9945 7.29237C30.0283 7.22448 30.0452 7.08023 30.0452 6.85112V2.60825C30.0452 2.34519 30.0283 2.16699 29.9945 2.09062C29.9607 2.01424 29.9099 1.95485 29.8423 1.91242C29.7747 1.87847 29.6479 1.85302 29.4534 1.85302H29.1069V0.783813Z" fill="#3344BB"/>
<path d="M38.7016 0.783813H42.5057V1.8615H42.1506C41.9055 1.8615 41.7448 1.89544 41.6688 1.97182C41.5927 2.04819 41.5589 2.24336 41.5589 2.55733V5.16245L44.3908 2.49793C44.3908 2.18396 44.3485 1.99727 44.264 1.94636C44.1795 1.89544 44.0104 1.86999 43.7399 1.86999H43.444V0.7923H47.2481V1.86999H46.9269C46.6563 1.86999 46.4873 1.91242 46.4112 1.98879C46.3436 2.06516 46.3013 2.26033 46.3013 2.5743V6.80868C46.3013 7.13114 46.3436 7.3348 46.4196 7.41117C46.4957 7.48754 46.6986 7.52997 47.0198 7.52997H47.2396V8.60765H43.4356V7.52997H43.6892C44.0019 7.52997 44.1964 7.48754 44.2724 7.40268C44.3485 7.31783 44.3823 7.12266 44.3823 6.80868V4.17811L41.5504 6.80868C41.5504 7.07174 41.5673 7.24145 41.5927 7.30934C41.618 7.37722 41.6688 7.43663 41.7448 7.47057C41.8209 7.50451 41.99 7.52148 42.2351 7.52148H42.4972V8.59917H38.6931V7.52148H38.9552C39.2595 7.52148 39.4539 7.47905 39.5216 7.3942C39.5976 7.30934 39.6315 7.13114 39.6315 6.86808V2.62522C39.6315 2.29427 39.5976 2.08213 39.5216 1.99727C39.4455 1.91242 39.2849 1.86999 39.0397 1.86999H38.6931V0.783813H38.7016Z" fill="#3344BB"/>
<path d="M48.313 0.783813H52.1087V1.8615H51.8551C51.6099 1.8615 51.4662 1.87847 51.407 1.90393C51.314 1.94636 51.2549 2.00576 51.2126 2.07365C51.1703 2.14153 51.1534 2.28579 51.1534 2.49793V4.57693L53.5796 2.31973C53.6895 2.2179 53.7487 2.15002 53.774 2.11607C53.7994 2.08213 53.8078 2.04819 53.8078 2.02273C53.8078 1.97182 53.7825 1.92939 53.7402 1.90393C53.6979 1.87847 53.5881 1.8615 53.4105 1.8615H53.0977V0.783813H56.6144V1.8615H56.4961C56.3355 1.8615 56.2171 1.86999 56.1579 1.88696C56.0988 1.90393 56.0142 1.93787 55.9297 1.99727C55.8367 2.05667 55.7183 2.14153 55.5746 2.26882L53.6979 3.90656L55.9381 6.94446C56.1326 7.20751 56.2763 7.36026 56.3608 7.41117C56.4792 7.47906 56.6482 7.513 56.8765 7.513H57.0286V8.59069H53.0977V7.513H53.2499C53.5373 7.513 53.7064 7.49603 53.774 7.47057C53.8332 7.44512 53.867 7.41117 53.867 7.36874C53.867 7.32631 53.8078 7.216 53.6979 7.04629L52.3285 5.08608L51.145 6.11286V6.90203C51.145 7.0972 51.1619 7.23297 51.2042 7.30086C51.238 7.37723 51.2971 7.42814 51.3648 7.46208C51.4324 7.49603 51.5761 7.513 51.779 7.513H52.1002V8.59069H48.3046V7.513H48.592C48.8118 7.513 48.964 7.49603 49.0316 7.46208C49.1077 7.42814 49.1584 7.36874 49.1922 7.29237C49.226 7.23297 49.2345 7.07174 49.2345 6.83414V2.56582C49.2345 2.33671 49.2176 2.17547 49.1838 2.0991C49.1499 2.02273 49.0992 1.96333 49.0231 1.9209C48.9471 1.87847 48.8118 1.8615 48.6174 1.8615H48.2961V0.783813H48.313Z" fill="#3344BB"/>
<path d="M60.9681 0.783813H62.7179L65.0511 6.81717C65.1779 7.13963 65.2878 7.3348 65.3893 7.41117C65.4907 7.48754 65.6682 7.52149 65.9303 7.52149V8.59917H62.2446V7.52149L62.4643 7.513C62.6672 7.513 62.8109 7.48754 62.8955 7.42814C62.98 7.37723 63.0223 7.30935 63.0223 7.23297C63.0223 7.16509 62.9885 7.02931 62.9124 6.81717L62.6841 6.10437H60.3171L60.0213 6.89354C59.9621 7.06326 59.9283 7.17357 59.9283 7.22448C59.9283 7.28389 59.9536 7.3348 59.9959 7.38572C60.0382 7.43663 60.1058 7.47057 60.2072 7.49603C60.2664 7.513 60.444 7.52149 60.7314 7.52149V8.59917H57.7219V7.52149C57.9164 7.52149 58.0601 7.50452 58.1446 7.47057C58.2291 7.43663 58.3052 7.38572 58.3644 7.31783C58.4236 7.24995 58.4827 7.12266 58.5588 6.94446L60.9681 0.783813ZM60.7314 4.99274H62.2784L61.526 2.84585L60.7314 4.99274Z" fill="#3344BB"/>
<path d="M2.75709 13.0118V11.9341H9.7228V13.0118H9.41002C9.13951 13.0118 8.96198 13.0542 8.89435 13.1306C8.82672 13.2069 8.78446 13.4021 8.78446 13.7161V17.9505C8.78446 18.2729 8.82673 18.4766 8.90281 18.553C8.97889 18.6293 9.17332 18.6718 9.49456 18.6718H9.71435L10.5428 20.9714L9.52836 21.3363C9.35084 20.8865 9.10569 20.5132 8.77601 20.2077C8.44632 19.9022 7.92219 19.7495 7.20364 19.7495H3.83069C3.11214 19.7495 2.58802 19.9022 2.26679 20.1992C1.94556 20.4962 1.6835 20.8781 1.50597 21.3278L0.5 20.9629L1.32844 18.6633H1.61586C1.98782 18.6633 2.23298 18.4681 2.35132 18.0862L3.72079 13.7585C3.75461 13.6397 3.77996 13.5549 3.77996 13.4785C3.77996 13.1645 3.56018 13.0118 3.11214 13.0118H2.75709ZM6.85705 18.5275V13.156H5.16634L3.74616 18.0184C3.7208 18.1032 3.70389 18.1796 3.70389 18.239C3.70389 18.4342 3.88141 18.5275 4.24491 18.5275H6.85705Z" fill="#3344BB"/>
<path d="M15.2851 11.7983C16.5194 11.7983 17.5169 12.1717 18.2862 12.9269C19.047 13.6822 19.4358 14.6495 19.4358 15.8291C19.4358 16.6267 19.2583 17.331 18.9117 17.942C18.5651 18.5615 18.0833 19.0367 17.4662 19.3676C16.849 19.6986 16.1051 19.8683 15.2344 19.8683C14.0847 19.8683 13.1464 19.5543 12.411 18.9179C11.5233 18.1542 11.0837 17.1274 11.0837 15.846C11.0837 14.658 11.4726 13.6822 12.2503 12.9269C13.0196 12.1802 14.034 11.7983 15.2851 11.7983ZM15.3105 13.0457C14.7188 13.0457 14.2454 13.2664 13.8988 13.7161C13.4592 14.2762 13.2394 14.9975 13.2394 15.88C13.2394 16.7625 13.4423 17.4668 13.8565 17.976C14.2115 18.4172 14.6765 18.6378 15.2598 18.6378C15.8431 18.6378 16.308 18.4172 16.6631 17.976C17.0773 17.4498 17.2802 16.7455 17.2802 15.863C17.2802 15.2435 17.1956 14.7259 17.0181 14.3016C16.8406 13.8773 16.6039 13.5634 16.2996 13.3512C15.9868 13.1476 15.6656 13.0457 15.3105 13.0457Z" fill="#3344BB"/>
<path d="M20.4673 11.9341H24.263V13.0118H24.0094C23.7642 13.0118 23.6205 13.0287 23.5613 13.0542C23.4683 13.0966 23.4092 13.156 23.3669 13.2239C23.3246 13.2918 23.3077 13.4361 23.3077 13.6482V15.7272L25.7339 13.47C25.8438 13.3682 25.903 13.3003 25.9283 13.2663C25.9537 13.2324 25.9621 13.1985 25.9621 13.173C25.9621 13.1221 25.9368 13.0797 25.8945 13.0542C25.8523 13.0287 25.7424 13.0118 25.5648 13.0118H25.252V11.9341H28.7687V13.0118H28.6504C28.4898 13.0118 28.3714 13.0203 28.3122 13.0372C28.2531 13.0542 28.1685 13.0881 28.084 13.1475C27.991 13.2069 27.8726 13.2918 27.7289 13.4191L25.8523 15.0568L28.0924 18.0947C28.2869 18.3578 28.4306 18.5105 28.5151 18.5614C28.6335 18.6293 28.8025 18.6633 29.0308 18.6633H29.1829V19.741H25.252V18.6633H25.4042C25.6916 18.6633 25.8607 18.6463 25.9283 18.6208C25.9875 18.5954 26.0213 18.5614 26.0213 18.519C26.0213 18.4766 25.9621 18.3663 25.8523 18.1966L24.4828 16.2364L23.2993 17.2631V18.0523C23.2993 18.2475 23.3162 18.3832 23.3585 18.4511C23.3923 18.5275 23.4514 18.5784 23.5191 18.6124C23.5867 18.6463 23.7304 18.6633 23.9333 18.6633H24.2545V19.741H20.4589V18.6633H20.7463C20.9661 18.6633 21.1183 18.6463 21.1859 18.6124C21.262 18.5784 21.3127 18.519 21.3465 18.4426C21.3803 18.3832 21.3888 18.222 21.3888 17.9844V13.7161C21.3888 13.487 21.3719 13.3257 21.3381 13.2494C21.3042 13.173 21.2535 13.1136 21.1774 13.0712C21.1014 13.0287 20.9661 13.0118 20.7717 13.0118H20.4504V11.9341H20.4673Z" fill="#3344BB"/>
<path d="M30.3916 11.671H31.127L31.2031 11.9341H35.5905L35.6835 11.671H36.4274L37.3911 14.4119L36.3513 14.7768C36.1231 14.3186 35.954 14.0216 35.8526 13.8858C35.6581 13.6143 35.4299 13.4021 35.1678 13.2409C34.9734 13.1221 34.779 13.0627 34.593 13.0627C34.5 13.0627 34.4408 13.0881 34.407 13.1306C34.3732 13.173 34.3563 13.2748 34.3563 13.4276V17.9165C34.3563 18.1796 34.3647 18.3493 34.3817 18.4172C34.3986 18.4851 34.4324 18.536 34.4747 18.5784C34.5169 18.6208 34.5845 18.6463 34.6606 18.6548C34.7367 18.6633 34.948 18.6718 35.2862 18.6718V19.7494H31.4905V18.6718H31.7188C31.9724 18.6718 32.133 18.6548 32.2091 18.6208C32.2767 18.5869 32.3359 18.536 32.3697 18.4511C32.4035 18.3747 32.4289 18.205 32.4289 17.9505V13.3597C32.4289 13.2324 32.412 13.1475 32.3866 13.1136C32.3528 13.0797 32.2936 13.0627 32.2006 13.0627C32.0062 13.0627 31.7949 13.1391 31.5497 13.2833C31.3046 13.4276 31.1017 13.6312 30.9157 13.9028C30.8396 14.0046 30.6875 14.3016 30.4423 14.7853L29.4194 14.4204L30.3916 11.671Z" fill="#3344BB"/>
<path d="M42.2434 11.7983C43.4776 11.7983 44.4751 12.1717 45.2444 12.9269C46.0052 13.6822 46.3941 14.6495 46.3941 15.8291C46.3941 16.6267 46.2165 17.331 45.8699 17.942C45.5234 18.5615 45.0415 19.0367 44.4244 19.3676C43.8073 19.6986 43.0634 19.8683 42.1927 19.8683C41.043 19.8683 40.1046 19.5543 39.3692 18.9179C38.4816 18.1542 38.042 17.1274 38.042 15.846C38.042 14.658 38.4309 13.6822 39.2086 12.9269C39.9779 12.1802 40.9923 11.7983 42.2434 11.7983ZM42.2688 13.0457C41.677 13.0457 41.2036 13.2664 40.857 13.7161C40.4174 14.2762 40.1976 14.9975 40.1976 15.88C40.1976 16.7625 40.4005 17.4668 40.8148 17.976C41.1698 18.4172 41.6347 18.6378 42.218 18.6378C42.8013 18.6378 43.2663 18.4172 43.6213 17.976C44.0355 17.4498 44.2384 16.7455 44.2384 15.863C44.2384 15.2435 44.1539 14.7259 43.9764 14.3016C43.7988 13.8773 43.5621 13.5634 43.2578 13.3512C42.945 13.1476 42.6238 13.0457 42.2688 13.0457Z" fill="#3344BB"/>
<path d="M47.4595 11.9341H51.5763C52.1005 11.9341 52.5316 11.985 52.8782 12.0953C53.2248 12.2056 53.5207 12.3669 53.7658 12.579C54.011 12.7996 54.2054 13.0542 54.3407 13.3512C54.4759 13.6482 54.5435 13.9622 54.5435 14.2931C54.5435 14.9635 54.2899 15.5236 53.7743 15.9733C53.2671 16.423 52.557 16.6522 51.6609 16.6522H50.3337V18.1117C50.3337 18.2984 50.3506 18.4087 50.3759 18.4596C50.4098 18.5275 50.4605 18.5869 50.5281 18.6124C50.5957 18.6463 50.7141 18.6633 50.8747 18.6633H51.272V19.741H47.4764V18.6633H47.7384C47.9667 18.6633 48.1273 18.6463 48.1949 18.6124C48.271 18.5784 48.3217 18.5275 48.3555 18.4511C48.3894 18.3748 48.4063 18.2305 48.4063 18.0014V13.7076C48.4063 13.47 48.3894 13.3088 48.364 13.2324C48.3302 13.156 48.2879 13.0966 48.2203 13.0627C48.1527 13.0287 48.0343 13.0118 47.8483 13.0118H47.4764V11.9341H47.4595ZM50.3252 13.2154V15.4302H50.993C51.3988 15.4302 51.6947 15.3878 51.8891 15.3029C52.0751 15.2181 52.2273 15.0908 52.3456 14.9126C52.464 14.7429 52.5147 14.5307 52.5147 14.2931C52.5147 13.9367 52.3794 13.6482 52.1005 13.4445C51.8976 13.2918 51.5933 13.2069 51.1875 13.2069H50.3252V13.2154Z" fill="#3344BB"/>
<path d="M57.5782 11.9341H59.3281L61.6612 17.9674C61.788 18.2899 61.8979 18.4851 61.9994 18.5614C62.1008 18.6378 62.2783 18.6718 62.5404 18.6718V19.7495H58.8547V18.6718L59.0745 18.6633C59.2773 18.6633 59.4211 18.6378 59.5056 18.5784C59.5901 18.519 59.6324 18.4596 59.6324 18.3832C59.6324 18.3154 59.5986 18.1796 59.5225 17.9674L59.2943 17.2546H56.9273L56.6314 18.0438C56.5722 18.2135 56.5384 18.3238 56.5384 18.3748C56.5384 18.4342 56.5638 18.4851 56.606 18.536C56.6483 18.5869 56.7159 18.6208 56.8174 18.6463C56.8765 18.6633 57.0541 18.6718 57.3415 18.6718V19.7495H54.332V18.6718C54.5265 18.6718 54.6702 18.6548 54.7547 18.6208C54.8392 18.5869 54.9153 18.536 54.9745 18.4681C55.0337 18.4002 55.0928 18.2729 55.1689 18.0947L57.5782 11.9341ZM57.3415 16.143H58.8885L58.1361 13.9961L57.3415 16.143Z" fill="#3344BB"/>
<path d="M1.27783 23.0844H5.39471C5.91883 23.0844 6.34995 23.1353 6.69654 23.2456C7.04314 23.3559 7.33901 23.5171 7.58416 23.7293C7.82931 23.9499 8.02375 24.2045 8.15901 24.5015C8.29426 24.7985 8.36189 25.1124 8.36189 25.4434C8.36189 26.1138 8.10829 26.6738 7.59262 27.1236C7.08541 27.5733 6.37532 27.8024 5.47924 27.8024H4.14358V29.262C4.14358 29.4487 4.16049 29.559 4.18585 29.6099C4.21966 29.6778 4.27039 29.7372 4.33802 29.7626C4.40564 29.7966 4.52399 29.8136 4.68461 29.8136H5.08192V30.8912H1.28628V29.8136H1.54835C1.7766 29.8136 1.93721 29.7966 2.00483 29.7626C2.08092 29.7287 2.13164 29.6778 2.16545 29.6014C2.19927 29.525 2.21617 29.3808 2.21617 29.1517V24.8579C2.21617 24.6203 2.19926 24.459 2.1739 24.3827C2.14009 24.3063 2.09783 24.2469 2.0302 24.213C1.96257 24.179 1.84422 24.162 1.65824 24.162H1.28628V23.0844H1.27783ZM4.14358 24.3657V26.5805H4.81141C5.21718 26.5805 5.51305 26.5381 5.70748 26.4532C5.89346 26.3683 6.04563 26.241 6.16398 26.0628C6.28232 25.8931 6.33305 25.681 6.33305 25.4434C6.33305 25.087 6.19779 24.7985 5.91882 24.5948C5.71594 24.4421 5.4116 24.3572 5.00584 24.3572H4.14358V24.3657Z" fill="#3344BB"/>
<path d="M11.3966 23.0844H13.1465L15.4797 29.1177C15.6065 29.4402 15.7164 29.6353 15.8178 29.7117C15.9193 29.7881 16.0968 29.822 16.3589 29.822V30.8997H12.6816V29.822L12.9014 29.8135C13.1042 29.8135 13.248 29.7881 13.3325 29.7287C13.417 29.6693 13.4593 29.6099 13.4593 29.5335C13.4593 29.4656 13.4255 29.3299 13.3494 29.1177L13.1212 28.4049H10.7542L10.4583 29.1941C10.3991 29.3638 10.3653 29.4741 10.3653 29.525C10.3653 29.5844 10.3907 29.6353 10.4329 29.6863C10.4752 29.7372 10.5428 29.7711 10.6443 29.7966C10.7034 29.8135 10.881 29.822 11.1684 29.822V30.8997H8.15894V29.822C8.35337 29.822 8.49708 29.8051 8.58161 29.7711C8.66615 29.7372 8.74223 29.6863 8.8014 29.6184C8.86058 29.5505 8.91975 29.4232 8.99584 29.245L11.3966 23.0844ZM11.1599 27.2933H12.7069L11.9546 25.1464L11.1599 27.2933Z" fill="#3344BB"/>
<path d="M17.5762 22.8213H18.3116L18.3877 23.0843H22.7751L22.8681 22.8213H23.612L24.5757 25.5622L23.5359 25.9271C23.3076 25.4688 23.1386 25.1718 23.0371 25.0361C22.8427 24.7645 22.6145 24.5524 22.3524 24.3911C22.158 24.2723 21.9635 24.213 21.7776 24.213C21.6846 24.213 21.6254 24.2384 21.5916 24.2808C21.5578 24.3233 21.5409 24.4251 21.5409 24.5778V29.0668C21.5409 29.3298 21.5493 29.4996 21.5662 29.5674C21.5831 29.6353 21.6169 29.6862 21.6592 29.7287C21.7015 29.7711 21.7691 29.7966 21.8452 29.805C21.9213 29.8135 22.1326 29.822 22.4707 29.822V30.8997H18.6751V29.822H18.9034C19.157 29.822 19.3176 29.805 19.3937 29.7711C19.4613 29.7372 19.5205 29.6862 19.5543 29.6014C19.5881 29.525 19.6135 29.3553 19.6135 29.1007V24.51C19.6135 24.3827 19.5965 24.2978 19.5712 24.2639C19.5374 24.2299 19.4782 24.213 19.3852 24.213C19.1908 24.213 18.9794 24.2893 18.7343 24.4336C18.4891 24.5778 18.2863 24.7815 18.1003 25.053C18.0242 25.1549 17.872 25.4519 17.6269 25.9356L16.604 25.5707L17.5762 22.8213Z" fill="#3344BB"/>
<path d="M25.2265 23.0844H29.0306V24.162H28.6755C28.4304 24.162 28.2697 24.196 28.1937 24.2724C28.1176 24.3487 28.0838 24.5439 28.0838 24.8579V27.4545L30.9157 24.79C30.9157 24.476 30.8734 24.2978 30.7889 24.2384C30.7044 24.1875 30.5353 24.162 30.2648 24.162H29.9689V23.0844H33.773V24.162H33.4518C33.1813 24.162 33.0122 24.2045 32.9361 24.2808C32.8685 24.3572 32.8262 24.5524 32.8262 24.8664V29.1007C32.8262 29.4232 32.8685 29.6269 32.9446 29.7032C33.0206 29.7796 33.2235 29.822 33.5448 29.822H33.7646V30.8997H29.9605V29.822H30.2141C30.5268 29.822 30.7213 29.7796 30.7974 29.6947C30.8734 29.6099 30.9072 29.4147 30.9072 29.1007V26.4702L28.0753 29.1007C28.0753 29.3638 28.0922 29.5335 28.1176 29.6014C28.1429 29.6693 28.1937 29.7287 28.2697 29.7626C28.3458 29.7966 28.5149 29.8135 28.76 29.8135H29.0221V30.8912H25.218V29.8135H25.4801C25.7844 29.8135 25.9788 29.7711 26.0465 29.6863C26.1225 29.6014 26.1564 29.4232 26.1564 29.1601V24.9173C26.1564 24.5863 26.1225 24.3742 26.0465 24.2893C25.9704 24.2045 25.8098 24.162 25.5646 24.162H25.218V23.0844H25.2265Z" fill="#3344BB"/>
<path d="M34.8214 23.0844H38.6171V24.162H38.2705C38.076 24.162 37.9492 24.179 37.8732 24.2214C37.8055 24.2639 37.7548 24.3148 37.721 24.3912C37.6872 24.4675 37.6787 24.6203 37.6787 24.8664V26.2241H40.5107V24.7645C40.5107 24.5863 40.5022 24.4675 40.4769 24.3996C40.443 24.3063 40.4008 24.2469 40.3247 24.213C40.2571 24.179 40.0964 24.162 39.8597 24.162H39.5639V23.0844H43.3764V24.162H43.0552C42.8354 24.162 42.7001 24.179 42.624 24.213C42.5564 24.2469 42.5057 24.2978 42.4803 24.3657C42.455 24.4336 42.4381 24.5948 42.4381 24.8579V29.0923C42.4381 29.3553 42.455 29.525 42.4888 29.6014C42.5226 29.6778 42.5818 29.7287 42.6494 29.7626C42.7255 29.7966 42.8861 29.8136 43.1482 29.8136H43.368V30.8912H39.5554V29.8136H39.809C40.0457 29.8136 40.2063 29.7966 40.2824 29.7541C40.367 29.7202 40.4261 29.6608 40.4515 29.5929C40.4853 29.525 40.5022 29.3553 40.5022 29.0923V27.4375H37.6703V29.0923C37.6703 29.3553 37.6787 29.5166 37.7041 29.576C37.7379 29.6693 37.7971 29.7287 37.8732 29.7626C37.9492 29.7966 38.1099 29.8051 38.3466 29.8051H38.6086V30.8828H34.813V29.8051H35.075C35.2948 29.8051 35.447 29.7881 35.5315 29.7457C35.6161 29.7117 35.6752 29.6523 35.7091 29.5929C35.7429 29.525 35.7598 29.3808 35.7598 29.1517V24.9088C35.7598 24.6457 35.7429 24.4675 35.7091 24.3912C35.6752 24.3148 35.6245 24.2554 35.5569 24.213C35.4893 24.179 35.3625 24.1536 35.168 24.1536H34.8214V23.0844Z" fill="#3344BB"/>
<path d="M48.6174 22.9486C49.8516 22.9486 50.8492 23.322 51.6184 24.0772C52.3877 24.8324 52.7681 25.7998 52.7681 26.9793C52.7681 27.777 52.5906 28.4813 52.244 29.0923C51.8974 29.7117 51.4156 30.1869 50.7984 30.5179C50.1813 30.8488 49.4374 31.0186 48.5667 31.0186C47.417 31.0186 46.4787 30.7046 45.7432 30.0681C44.8556 29.3044 44.416 28.2777 44.416 26.9963C44.416 25.8083 44.8049 24.8324 45.5826 24.0772C46.3519 23.3305 47.3663 22.9486 48.6174 22.9486ZM48.6428 24.196C48.051 24.196 47.5776 24.4166 47.231 24.8664C46.7915 25.4264 46.5717 26.1477 46.5717 27.0303C46.5717 27.9128 46.7745 28.6171 47.1888 29.1262C47.5438 29.5675 48.0088 29.7881 48.5921 29.7881C49.1754 29.7881 49.6403 29.5675 49.9954 29.1262C50.4096 28.6001 50.6125 27.8958 50.6125 27.0133C50.6125 26.3938 50.5279 25.8762 50.3504 25.4519C50.1729 25.0276 49.9362 24.7136 49.6318 24.5015C49.3191 24.2978 48.9894 24.196 48.6428 24.196Z" fill="#3344BB"/>
<path d="M53.825 24.162V23.0844H58.2462C58.9224 23.0844 59.455 23.1607 59.8439 23.322C60.2327 23.4832 60.5286 23.7123 60.7315 24.0008C60.9428 24.2978 61.0443 24.6203 61.0443 24.9767C61.0443 25.2312 60.9851 25.4773 60.8752 25.7064C60.7653 25.9356 60.6047 26.1392 60.4018 26.3174C60.1989 26.4956 59.92 26.6399 59.5818 26.7587C59.9453 26.852 60.2243 26.9539 60.4187 27.0642C60.6977 27.2169 60.9175 27.4375 61.0781 27.7261C61.2387 28.0061 61.3232 28.3201 61.3232 28.668C61.3232 29.0838 61.1964 29.4656 60.9513 29.8136C60.7061 30.1615 60.3511 30.4245 59.8946 30.6112C59.4381 30.7979 58.7703 30.8828 57.8996 30.8828H53.825V29.8051H54.1293C54.3322 29.8051 54.4759 29.7881 54.5435 29.7542C54.6196 29.7202 54.6703 29.6693 54.6957 29.6014C54.7295 29.5335 54.7379 29.3893 54.7379 29.1602V24.807C54.7379 24.5778 54.721 24.4251 54.6957 24.3657C54.6619 24.3063 54.6111 24.2554 54.5435 24.213C54.4674 24.179 54.3322 24.1536 54.1293 24.1536H53.825V24.162ZM56.6653 26.2495H57.5192C57.9672 26.2495 58.2969 26.2156 58.5082 26.1392C58.7195 26.0629 58.8802 25.9525 58.9901 25.7998C59.1 25.6471 59.1507 25.4773 59.1507 25.2737C59.1507 25.07 59.1 24.8918 58.9985 24.7476C58.8971 24.6033 58.7449 24.5015 58.5589 24.4336C58.3645 24.3742 58.0179 24.3402 57.5192 24.3402H56.6653V26.2495ZM56.6653 27.3951V29.0838C56.6653 29.3214 56.6822 29.4656 56.6907 29.4996C56.7076 29.5505 56.7414 29.5844 56.7837 29.6099C56.826 29.6269 56.9443 29.6438 57.1303 29.6438H57.6967C58.0264 29.6438 58.2969 29.6099 58.5167 29.5505C58.7365 29.4911 58.9224 29.3638 59.0746 29.1686C59.2268 28.9735 59.3028 28.7444 59.3028 28.4728C59.3028 28.2437 59.2521 28.0485 59.1422 27.8873C59.0323 27.7261 58.8717 27.6073 58.6604 27.5224C58.449 27.4375 58.1193 27.3951 57.6713 27.3951H56.6653Z" fill="#3344BB"/>
<path d="M65.085 23.0844H66.8349L69.1681 29.1177C69.2949 29.4402 69.4048 29.6353 69.5062 29.7117C69.6077 29.7881 69.7852 29.822 70.0473 29.822V30.8997H66.3615V29.822L66.5813 29.8135C66.7842 29.8135 66.9279 29.7881 67.0124 29.7287C67.097 29.6693 67.1392 29.6099 67.1392 29.5335C67.1392 29.4656 67.1054 29.3299 67.0294 29.1177L66.8011 28.4049H64.4341L64.1382 29.1941C64.0791 29.3638 64.0452 29.4741 64.0452 29.525C64.0452 29.5844 64.0706 29.6353 64.1129 29.6863C64.1551 29.7372 64.2228 29.7711 64.3242 29.7966C64.3834 29.8135 64.5609 29.822 64.8483 29.822V30.8997H61.8389V29.822C62.0333 29.822 62.177 29.8051 62.2615 29.7711C62.3461 29.7372 62.4222 29.6863 62.4813 29.6184C62.5405 29.5505 62.5997 29.4232 62.6758 29.245L65.085 23.0844ZM64.8568 27.2933H66.4038L65.6514 25.1464L64.8568 27.2933Z" fill="#3344BB"/>
</svg>
