<svg width="123" height="65" viewBox="0 0 123 65" fill="none" xmlns="http://www.w3.org/2000/svg">
<path d="M61.8764 18.8574H65.2015V19.8015H64.9793C64.7646 19.8015 64.6387 19.8164 64.5868 19.8387C64.5054 19.8758 64.4535 19.9279 64.4165 19.9873C64.3795 20.0468 64.3647 20.1732 64.3647 20.359V22.1803L66.49 20.2029C66.5863 20.1137 66.6381 20.0542 66.6604 20.0245C66.6826 19.9948 66.69 19.965 66.69 19.9427C66.69 19.8981 66.6678 19.861 66.6307 19.8387C66.5937 19.8164 66.4974 19.8015 66.3419 19.8015H66.0679V18.8574H69.1486V19.8015H69.0449C68.9042 19.8015 68.8005 19.8089 68.7487 19.8238C68.6968 19.8387 68.6228 19.8684 68.5487 19.9204C68.4673 19.9725 68.3636 20.0468 68.2377 20.1583L66.5937 21.593L68.5561 24.2543C68.7265 24.4847 68.8524 24.6185 68.9264 24.6631C69.0301 24.7226 69.1782 24.7523 69.3781 24.7523H69.5114V25.6964H66.0679V24.7523H66.2012C66.453 24.7523 66.6011 24.7374 66.6604 24.7151C66.7122 24.6928 66.7418 24.6631 66.7418 24.6259C66.7418 24.5888 66.69 24.4921 66.5937 24.3435L65.394 22.6263L64.3573 23.5258V24.2171C64.3573 24.3881 64.3721 24.507 64.4091 24.5665C64.4387 24.6334 64.4906 24.678 64.5498 24.7077C64.6091 24.7374 64.7349 24.7523 64.9127 24.7523H65.1941V25.6964H61.869V24.7523H62.1208C62.3134 24.7523 62.4467 24.7374 62.5059 24.7077C62.5726 24.678 62.617 24.6259 62.6466 24.559C62.6762 24.507 62.6836 24.3658 62.6836 24.1576V20.4185C62.6836 20.2178 62.6688 20.0765 62.6392 20.0096C62.6096 19.9427 62.5651 19.8907 62.4985 19.8535C62.4318 19.8164 62.3134 19.8015 62.143 19.8015H61.8616V18.8574H61.8764Z" fill="white"/>
<path d="M73.4585 20.6565L72.1478 24.2098C72.0959 24.351 72.0663 24.4477 72.0663 24.4997C72.0663 24.5963 72.1108 24.6632 72.1996 24.7004C72.2885 24.7376 72.4736 24.7599 72.755 24.7599V25.7039H70.1261V24.7599C70.3483 24.7599 70.5112 24.7301 70.6 24.6632C70.6889 24.6038 70.7778 24.4625 70.8592 24.2544L72.9624 18.865H74.4879L76.5466 24.1503C76.6429 24.3956 76.7317 24.5517 76.8132 24.6409C76.8947 24.7227 77.065 24.7673 77.3168 24.7673V25.7114H74.088V24.7673L74.2805 24.7599C74.6064 24.7524 74.7619 24.6707 74.7619 24.5146C74.7619 24.4477 74.7323 24.3287 74.6656 24.1503L73.4585 20.6565Z" fill="white"/>
<path d="M77.8803 18.8574H81.2127V19.8015H80.9017C80.6869 19.8015 80.5462 19.8312 80.4796 19.8981C80.4129 19.965 80.3833 20.136 80.3833 20.4111V22.6932L82.8641 20.359C82.8641 20.084 82.8271 19.9204 82.7531 19.8758C82.679 19.8312 82.5309 19.8089 82.2939 19.8089H82.0347V18.8649H85.3672V19.8089H85.0858C84.8488 19.8089 84.7007 19.8461 84.6341 19.913C84.5748 19.9799 84.5378 20.1509 84.5378 20.4259V24.1353C84.5378 24.4178 84.5748 24.5962 84.6415 24.6631C84.7081 24.73 84.8858 24.7672 85.1672 24.7672H85.3598V25.7112H82.0273V24.7672H82.2495C82.5235 24.7672 82.6938 24.73 82.7605 24.6557C82.8271 24.5813 82.8567 24.4104 82.8567 24.1353V21.8309L80.3759 24.1353C80.3759 24.3658 80.3907 24.5144 80.4129 24.5739C80.4352 24.6334 80.4796 24.6854 80.5462 24.7151C80.6129 24.7449 80.761 24.7597 80.9758 24.7597H81.2053V25.7038H77.8729V24.7597H78.1024C78.369 24.7597 78.5394 24.7226 78.5986 24.6482C78.6653 24.5739 78.6949 24.4178 78.6949 24.1873V20.4705C78.6949 20.1806 78.6653 19.9948 78.5986 19.9204C78.532 19.8461 78.3913 19.8089 78.1765 19.8089H77.8729V18.8574H77.8803Z" fill="white"/>
<path d="M86.2857 18.8574H89.6108V19.8015H89.3072C89.1368 19.8015 89.0258 19.8164 88.9591 19.8535C88.8999 19.8907 88.8554 19.9353 88.8258 20.0022C88.7962 20.0691 88.7888 20.2029 88.7888 20.4185V21.6079H91.2696V20.3293C91.2696 20.1732 91.2622 20.0691 91.24 20.0096C91.2104 19.9279 91.1733 19.8758 91.1067 19.8461C91.0474 19.8164 90.9067 19.8015 90.6994 19.8015H90.4402V18.8574H93.7801V19.8015H93.4986C93.3061 19.8015 93.1876 19.8164 93.121 19.8461C93.0617 19.8758 93.0173 19.9204 92.9951 19.9799C92.9729 20.0394 92.958 20.1806 92.958 20.4111V24.1204C92.958 24.3509 92.9729 24.4996 93.0025 24.5665C93.0321 24.6334 93.0839 24.678 93.1432 24.7077C93.2098 24.7374 93.3505 24.7523 93.5801 24.7523H93.7726V25.6964H90.4328V24.7523H90.655C90.8623 24.7523 91.003 24.7374 91.0697 24.7003C91.1437 24.6705 91.1956 24.6185 91.2178 24.559C91.2474 24.4996 91.2622 24.3509 91.2622 24.1204V22.6709H88.7814V24.1204C88.7814 24.3509 88.7888 24.4921 88.811 24.5442C88.8406 24.6259 88.8925 24.678 88.9591 24.7077C89.0258 24.7374 89.1665 24.7449 89.3738 24.7449H89.6034V25.6889H86.2783V24.7449H86.5079C86.7005 24.7449 86.8337 24.73 86.9078 24.6928C86.9819 24.6631 87.0337 24.6111 87.0633 24.559C87.0929 24.4996 87.1078 24.3732 87.1078 24.1725V20.4557C87.1078 20.2252 87.0929 20.0691 87.0633 20.0022C87.0337 19.9353 86.9893 19.8833 86.93 19.8461C86.8708 19.8164 86.7597 19.7941 86.5894 19.7941H86.2857V18.8574Z" fill="white"/>
<path d="M94.6906 18.8574H98.0231V19.8015H97.712C97.4973 19.8015 97.3566 19.8312 97.2899 19.8981C97.2233 19.965 97.1937 20.136 97.1937 20.4111V22.6932L99.6745 20.359C99.6745 20.084 99.6374 19.9204 99.5634 19.8758C99.4893 19.8312 99.3412 19.8089 99.1043 19.8089H98.8451V18.8649H102.178V19.8089H101.896C101.659 19.8089 101.511 19.8461 101.444 19.913C101.385 19.9799 101.348 20.1509 101.348 20.4259V24.1353C101.348 24.4178 101.385 24.5962 101.452 24.6631C101.518 24.73 101.696 24.7672 101.978 24.7672H102.17V25.7112H98.8377V24.7672H99.0598C99.3338 24.7672 99.5041 24.73 99.5708 24.6557C99.6374 24.5813 99.6671 24.4104 99.6671 24.1353V21.8309L97.1862 24.1353C97.1862 24.3658 97.2011 24.5144 97.2233 24.5739C97.2455 24.6334 97.2899 24.6854 97.3566 24.7151C97.4232 24.7449 97.5713 24.7597 97.7861 24.7597H98.0157V25.7038H94.6832V24.7597H94.9128C95.1794 24.7597 95.3497 24.7226 95.4089 24.6482C95.4756 24.5739 95.5052 24.4178 95.5052 24.1873V20.4705C95.5052 20.1806 95.4756 19.9948 95.4089 19.9204C95.3423 19.8461 95.2016 19.8089 94.9868 19.8089H94.6832V18.8574H94.6906Z" fill="white"/>
<path d="M103.11 18.8574H106.435V19.8015H106.213C105.998 19.8015 105.872 19.8164 105.821 19.8387C105.739 19.8758 105.687 19.9279 105.65 19.9873C105.613 20.0468 105.598 20.1732 105.598 20.359V22.1803L107.724 20.2029C107.82 20.1137 107.872 20.0542 107.894 20.0245C107.916 19.9948 107.924 19.965 107.924 19.9427C107.924 19.8981 107.902 19.861 107.864 19.8387C107.827 19.8164 107.731 19.8015 107.576 19.8015H107.302V18.8574H110.382V19.8015H110.279C110.138 19.8015 110.034 19.8089 109.982 19.8238C109.931 19.8387 109.857 19.8684 109.782 19.9204C109.701 19.9725 109.597 20.0468 109.471 20.1583L107.827 21.593L109.79 24.2543C109.96 24.4847 110.086 24.6185 110.16 24.6631C110.264 24.7226 110.412 24.7523 110.612 24.7523H110.745V25.6964H107.302V24.7523H107.435C107.687 24.7523 107.835 24.7374 107.894 24.7151C107.946 24.6928 107.976 24.6631 107.976 24.6259C107.976 24.5888 107.924 24.4921 107.827 24.3435L106.628 22.6263L105.591 23.5258V24.2171C105.591 24.3881 105.606 24.507 105.643 24.5665C105.672 24.6334 105.724 24.678 105.784 24.7077C105.843 24.7374 105.969 24.7523 106.146 24.7523H106.428V25.6964H103.103V24.7523H103.355C103.547 24.7523 103.68 24.7374 103.74 24.7077C103.806 24.678 103.851 24.6259 103.88 24.559C103.91 24.507 103.917 24.3658 103.917 24.1576V20.4185C103.917 20.2178 103.903 20.0765 103.873 20.0096C103.843 19.9427 103.799 19.8907 103.732 19.8535C103.666 19.8164 103.547 19.8015 103.377 19.8015H103.095V18.8574H103.11Z" fill="white"/>
<path d="M114.196 18.8574H115.729L117.773 24.1427C117.884 24.4252 117.98 24.5962 118.069 24.6631C118.158 24.73 118.313 24.7597 118.543 24.7597V25.7038H115.314V24.7597L115.507 24.7523C115.684 24.7523 115.81 24.73 115.884 24.678C115.958 24.6334 115.995 24.5739 115.995 24.507C115.995 24.4475 115.966 24.3286 115.899 24.1427L115.699 23.5183H113.626L113.367 24.2097C113.315 24.3583 113.285 24.455 113.285 24.4996C113.285 24.5516 113.307 24.5962 113.344 24.6408C113.381 24.6854 113.441 24.7151 113.529 24.7374C113.581 24.7523 113.737 24.7597 113.989 24.7597V25.7038H111.352V24.7597C111.523 24.7597 111.648 24.7449 111.723 24.7151C111.797 24.6854 111.863 24.6408 111.915 24.5813C111.967 24.5219 112.019 24.4104 112.085 24.2543L114.196 18.8574ZM113.989 22.5445H115.344L114.685 20.6638L113.989 22.5445Z" fill="white"/>
<path d="M63.2024 29.5693V28.6252H69.3045V29.5693H69.0305C68.7935 29.5693 68.638 29.6065 68.5788 29.6734C68.5195 29.7403 68.4825 29.9113 68.4825 30.1863V33.8957C68.4825 34.1782 68.5195 34.3566 68.5862 34.4235C68.6528 34.4904 68.8231 34.5276 69.1045 34.5276H69.2971L70.0228 36.5421L69.1342 36.8617C68.9786 36.4678 68.7639 36.1407 68.4751 35.8731C68.1863 35.6054 67.7271 35.4716 67.0977 35.4716H64.1429C63.5134 35.4716 63.0543 35.6055 62.7729 35.8656C62.4915 36.1258 62.2619 36.4603 62.1064 36.8543L61.2252 36.5347L61.9509 34.5201H62.2027C62.5285 34.5201 62.7433 34.3492 62.847 34.0146L64.0466 30.2235C64.0763 30.1194 64.0985 30.0451 64.0985 29.9782C64.0985 29.7031 63.9059 29.5693 63.5134 29.5693H63.2024ZM66.794 34.4012V29.6957H65.313L64.0688 33.9552C64.0466 34.0295 64.0318 34.0964 64.0318 34.1485C64.0318 34.3194 64.1873 34.4012 64.5058 34.4012H66.794Z" fill="white"/>
<path d="M74.1778 28.5063C75.259 28.5063 76.1329 28.8334 76.8068 29.495C77.4733 30.1566 77.8139 31.0041 77.8139 32.0373C77.8139 32.7361 77.6584 33.3531 77.3548 33.8883C77.0511 34.431 76.629 34.8473 76.0884 35.1372C75.5478 35.4271 74.8962 35.5757 74.1334 35.5757C73.1263 35.5757 72.3043 35.3007 71.66 34.7432C70.8824 34.0742 70.4973 33.1747 70.4973 32.0522C70.4973 31.0115 70.838 30.1566 71.5193 29.495C72.1932 28.8409 73.0818 28.5063 74.1778 28.5063ZM74.2 29.5991C73.6817 29.5991 73.267 29.7924 72.9633 30.1864C72.5783 30.677 72.3857 31.3088 72.3857 32.0819C72.3857 32.855 72.5635 33.472 72.9263 33.918C73.2373 34.3046 73.6446 34.4979 74.1556 34.4979C74.6666 34.4979 75.0739 34.3046 75.3849 33.918C75.7478 33.4572 75.9255 32.8402 75.9255 32.0671C75.9255 31.5244 75.8515 31.071 75.696 30.6993C75.5404 30.3276 75.3331 30.0525 75.0665 29.8667C74.7925 29.6883 74.5111 29.5991 74.2 29.5991Z" fill="white"/>
<path d="M78.7172 28.6252H82.0423V29.5693H81.8201C81.6054 29.5693 81.4795 29.5842 81.4276 29.6065C81.3462 29.6437 81.2943 29.6957 81.2573 29.7552C81.2203 29.8146 81.2055 29.941 81.2055 30.1268V31.9481L83.3308 29.9707C83.4271 29.8815 83.4789 29.8221 83.5011 29.7923C83.5234 29.7626 83.5308 29.7329 83.5308 29.7106C83.5308 29.666 83.5086 29.6288 83.4715 29.6065C83.4345 29.5842 83.3382 29.5693 83.1827 29.5693H82.9087V28.6252H85.9894V29.5693H85.8857C85.745 29.5693 85.6413 29.5768 85.5895 29.5916C85.5377 29.6065 85.4636 29.6362 85.3895 29.6883C85.3081 29.7403 85.2044 29.8146 85.0785 29.9261L83.4345 31.3608L85.3969 34.0221C85.5673 34.2525 85.6932 34.3863 85.7672 34.4309C85.8709 34.4904 86.019 34.5201 86.219 34.5201H86.3522V35.4642H82.9087V34.5201H83.042C83.2938 34.5201 83.4419 34.5053 83.5011 34.483C83.553 34.4607 83.5826 34.4309 83.5826 34.3938C83.5826 34.3566 83.5308 34.26 83.4345 34.1113L82.2348 32.3941L81.1981 33.2936V33.9849C81.1981 34.1559 81.2129 34.2748 81.2499 34.3343C81.2795 34.4012 81.3314 34.4458 81.3906 34.4755C81.4498 34.5053 81.5757 34.5201 81.7535 34.5201H82.0349V35.4642H78.7098V34.5201H78.9616C79.1542 34.5201 79.2874 34.5053 79.3467 34.4755C79.4133 34.4458 79.4578 34.3938 79.4874 34.3269C79.517 34.2748 79.5244 34.1336 79.5244 33.9254V30.1863C79.5244 29.9856 79.5096 29.8444 79.48 29.7775C79.4504 29.7106 79.4059 29.6585 79.3393 29.6214C79.2726 29.5842 79.1541 29.5693 78.9838 29.5693H78.7024V28.6252H78.7172Z" fill="white"/>
<path d="M87.4104 28.3945H88.0547L88.1214 28.625H91.9648L92.0463 28.3945H92.6979L93.5422 30.7956L92.6313 31.1152C92.4313 30.7138 92.2832 30.4537 92.1944 30.3347C92.024 30.0968 91.8241 29.911 91.5945 29.7698C91.4242 29.6657 91.2539 29.6136 91.091 29.6136C91.0095 29.6136 90.9577 29.636 90.928 29.6731C90.8984 29.7103 90.8836 29.7995 90.8836 29.9333V33.8657C90.8836 34.0961 90.891 34.2448 90.9058 34.3043C90.9206 34.3638 90.9503 34.4084 90.9873 34.4455C91.0243 34.4827 91.0835 34.505 91.1502 34.5124C91.2168 34.5199 91.402 34.5273 91.6982 34.5273V35.4714H88.3732V34.5273H88.5731C88.7953 34.5273 88.936 34.5124 89.0026 34.4827C89.0619 34.453 89.1137 34.4084 89.1433 34.334C89.1729 34.2671 89.1952 34.1184 89.1952 33.8954V29.8738C89.1952 29.7623 89.1803 29.688 89.1581 29.6583C89.1285 29.6285 89.0767 29.6136 88.9952 29.6136C88.8249 29.6136 88.6397 29.6806 88.425 29.8069C88.2102 29.9333 88.0325 30.1117 87.8696 30.3496C87.8029 30.4388 87.6696 30.699 87.4549 31.1227L86.5588 30.803L87.4104 28.3945Z" fill="white"/>
<path d="M97.793 28.5063C98.8742 28.5063 99.748 28.8334 100.422 29.495C101.088 30.1566 101.429 31.0041 101.429 32.0373C101.429 32.7361 101.274 33.3531 100.97 33.8883C100.666 34.431 100.244 34.8473 99.7036 35.1372C99.163 35.4271 98.5113 35.5757 97.7486 35.5757C96.7414 35.5757 95.9194 35.3007 95.2752 34.7432C94.4976 34.0742 94.1125 33.1747 94.1125 32.0522C94.1125 31.0115 94.4532 30.1566 95.1345 29.495C95.8084 28.8409 96.697 28.5063 97.793 28.5063ZM97.8152 29.5991C97.2968 29.5991 96.8821 29.7924 96.5785 30.1864C96.1934 30.677 96.0009 31.3088 96.0009 32.0819C96.0009 32.855 96.1786 33.472 96.5415 33.918C96.8525 34.3046 97.2598 34.4979 97.7708 34.4979C98.2818 34.4979 98.6891 34.3046 99.0001 33.918C99.363 33.4572 99.5407 32.8402 99.5407 32.0671C99.5407 31.5244 99.4666 31.071 99.3111 30.6993C99.1556 30.3276 98.9482 30.0525 98.6817 29.8667C98.4077 29.6883 98.1262 29.5991 97.8152 29.5991Z" fill="white"/>
<path d="M102.362 28.6252H105.969C106.428 28.6252 106.805 28.6698 107.109 28.7665C107.413 28.8631 107.672 29.0044 107.887 29.1902C108.101 29.3835 108.272 29.6065 108.39 29.8667C108.509 30.1268 108.568 30.4019 108.568 30.6918C108.568 31.2791 108.346 31.7697 107.894 32.1637C107.45 32.5577 106.828 32.7584 106.043 32.7584H104.88V34.0369C104.88 34.2005 104.895 34.2971 104.917 34.3417C104.947 34.4012 104.991 34.4532 105.05 34.4755C105.109 34.5053 105.213 34.5201 105.354 34.5201H105.702V35.4642H102.377V34.5201H102.606C102.806 34.5201 102.947 34.5053 103.006 34.4755C103.073 34.4458 103.117 34.4012 103.147 34.3343C103.177 34.2674 103.191 34.141 103.191 33.9403V30.1789C103.191 29.9707 103.177 29.8295 103.154 29.7626C103.125 29.6957 103.088 29.6437 103.029 29.6139C102.969 29.5842 102.866 29.5693 102.703 29.5693H102.377V28.6252H102.362ZM104.873 29.7477V31.6879H105.458C105.813 31.6879 106.072 31.6507 106.243 31.5764C106.405 31.5021 106.539 31.3906 106.642 31.2345C106.746 31.0858 106.791 30.8999 106.791 30.6918C106.791 30.3796 106.672 30.1268 106.428 29.9484C106.25 29.8146 105.983 29.7403 105.628 29.7403H104.873V29.7477Z" fill="white"/>
<path d="M111.227 28.6252H112.76L114.804 33.9106C114.915 34.1931 115.011 34.364 115.1 34.4309C115.189 34.4978 115.344 34.5276 115.574 34.5276V35.4716H112.345V34.5276L112.537 34.5201C112.715 34.5201 112.841 34.4978 112.915 34.4458C112.989 34.3938 113.026 34.3417 113.026 34.2748C113.026 34.2154 112.997 34.0964 112.93 33.9106L112.73 33.2861H110.656L110.397 33.9775C110.345 34.1262 110.316 34.2228 110.316 34.2674C110.316 34.3194 110.338 34.364 110.375 34.4086C110.412 34.4532 110.471 34.483 110.56 34.5053C110.612 34.5201 110.768 34.5276 111.019 34.5276V35.4716H108.383V34.5276C108.553 34.5276 108.679 34.5127 108.753 34.483C108.827 34.4532 108.894 34.4086 108.946 34.3492C108.998 34.2897 109.05 34.1782 109.116 34.0221L111.227 28.6252ZM111.019 32.3123H112.375L111.715 30.4316L111.019 32.3123Z" fill="white"/>
<path d="M61.9061 38.3928H65.5126C65.9717 38.3928 66.3494 38.4374 66.653 38.5341C66.9566 38.6307 67.2158 38.7719 67.4306 38.9578C67.6453 39.1511 67.8156 39.3741 67.9341 39.6342C68.0526 39.8944 68.1119 40.1695 68.1119 40.4594C68.1119 41.0466 67.8897 41.5373 67.438 41.9312C66.9936 42.3252 66.3716 42.5259 65.5866 42.5259H64.4165V43.8045C64.4165 43.9681 64.4314 44.0647 64.4536 44.1093C64.4832 44.1688 64.5276 44.2208 64.5869 44.2431C64.6461 44.2729 64.7498 44.2877 64.8905 44.2877H65.2385V45.2318H61.9135V44.2877H62.1431C62.343 44.2877 62.4837 44.2729 62.543 44.2431C62.6096 44.2134 62.654 44.1688 62.6837 44.1019C62.7133 44.035 62.7281 43.9086 62.7281 43.7079V39.9465C62.7281 39.7383 62.7133 39.5971 62.6911 39.5302C62.6615 39.4633 62.6244 39.4112 62.5652 39.3815C62.5059 39.3518 62.4023 39.3369 62.2393 39.3369H61.9135V38.3928H61.9061ZM64.4165 39.5153V41.4555H65.0016C65.357 41.4555 65.6162 41.4183 65.7865 41.344C65.9495 41.2697 66.0828 41.1581 66.1864 41.002C66.2901 40.8534 66.3346 40.6675 66.3346 40.4594C66.3346 40.1472 66.2161 39.8944 65.9717 39.716C65.794 39.5822 65.5274 39.5079 65.1719 39.5079H64.4165V39.5153Z" fill="white"/>
<path d="M70.771 38.3928H72.3039L74.3478 43.6782C74.4589 43.9606 74.5551 44.1316 74.644 44.1985C74.7329 44.2654 74.8884 44.2951 75.118 44.2951V45.2392H71.8966V44.2951L72.0891 44.2877C72.2669 44.2877 72.3927 44.2654 72.4668 44.2134C72.5409 44.1613 72.5779 44.1093 72.5779 44.0424C72.5779 43.9829 72.5483 43.864 72.4816 43.6782L72.2817 43.0537H70.2081L69.949 43.7451C69.8971 43.8937 69.8675 43.9904 69.8675 44.035C69.8675 44.087 69.8897 44.1316 69.9267 44.1762C69.9638 44.2208 70.023 44.2505 70.1119 44.2728C70.1637 44.2877 70.3192 44.2951 70.571 44.2951V45.2392H67.9347V44.2951C68.105 44.2951 68.2309 44.2803 68.3049 44.2505C68.379 44.2208 68.4457 44.1762 68.4975 44.1167C68.5493 44.0573 68.6012 43.9458 68.6678 43.7897L70.771 38.3928ZM70.5636 42.0799H71.9188L71.2597 40.1992L70.5636 42.0799Z" fill="white"/>
<path d="M76.1838 38.1626H76.828L76.8947 38.393H80.7381L80.8196 38.1626H81.4712L82.3155 40.5637L81.4046 40.8833C81.2046 40.4819 81.0565 40.2217 80.9677 40.1028C80.7973 39.8649 80.5974 39.6791 80.3678 39.5378C80.1975 39.4338 80.0272 39.3817 79.8643 39.3817C79.7828 39.3817 79.731 39.404 79.7013 39.4412C79.6717 39.4784 79.6569 39.5676 79.6569 39.7014V43.6338C79.6569 43.8642 79.6643 44.0129 79.6791 44.0723C79.6939 44.1318 79.7236 44.1764 79.7606 44.2136C79.7976 44.2508 79.8569 44.2731 79.9235 44.2805C79.9902 44.2879 80.1753 44.2954 80.4715 44.2954V45.2394H77.1465V44.2954H77.3464C77.5686 44.2954 77.7093 44.2805 77.7759 44.2508C77.8352 44.221 77.887 44.1764 77.9166 44.1021C77.9463 44.0352 77.9685 43.8865 77.9685 43.6635V39.6419C77.9685 39.5304 77.9537 39.4561 77.9314 39.4263C77.9018 39.3966 77.85 39.3817 77.7685 39.3817C77.5982 39.3817 77.4131 39.4486 77.1983 39.575C76.9835 39.7014 76.8058 39.8798 76.6429 40.1177C76.5762 40.2069 76.443 40.467 76.2282 40.8907L75.3321 40.5711L76.1838 38.1626Z" fill="white"/>
<path d="M82.8862 38.3928H86.2187V39.3369H85.9076C85.6929 39.3369 85.5522 39.3666 85.4855 39.4335C85.4189 39.5004 85.3893 39.6714 85.3893 39.9465V42.2212L87.8701 39.887C87.8701 39.6119 87.8331 39.4558 87.759 39.4038C87.6849 39.3592 87.5368 39.3369 87.2999 39.3369H87.0407V38.3928H90.3731V39.3369H90.0917C89.8547 39.3369 89.7066 39.3741 89.64 39.441C89.5807 39.5079 89.5437 39.6788 89.5437 39.9539V43.6633C89.5437 43.9458 89.5807 44.1242 89.6474 44.1911C89.714 44.258 89.8918 44.2951 90.1732 44.2951H90.3657V45.2392H87.0333V44.2951H87.2554C87.5294 44.2951 87.6998 44.258 87.7664 44.1836C87.8331 44.1093 87.8627 43.9383 87.8627 43.6633V41.3589L85.3819 43.6633C85.3819 43.8937 85.3967 44.0424 85.4189 44.1019C85.4411 44.1613 85.4855 44.2134 85.5522 44.2431C85.6188 44.2729 85.7669 44.2877 85.9817 44.2877H86.2113V45.2318H82.8788V44.2877H83.1084C83.375 44.2877 83.5453 44.2505 83.6045 44.1762C83.6712 44.1019 83.7008 43.9458 83.7008 43.7153V39.9985C83.7008 39.7086 83.6712 39.5227 83.6045 39.4484C83.5379 39.3741 83.3972 39.3369 83.1824 39.3369H82.8788V38.3928H82.8862Z" fill="white"/>
<path d="M91.2911 38.3928H94.6161V39.3369H94.3125C94.1422 39.3369 94.0311 39.3518 93.9644 39.3889C93.9052 39.4261 93.8608 39.4707 93.8311 39.5376C93.8015 39.6045 93.7941 39.7383 93.7941 39.9539V41.1433H96.2749V39.8647C96.2749 39.7086 96.2675 39.6045 96.2453 39.545C96.2157 39.4633 96.1787 39.4112 96.112 39.3815C96.0528 39.3518 95.9121 39.3369 95.7047 39.3369H95.4455V38.3928H98.7854V39.3369H98.504C98.3114 39.3369 98.1929 39.3518 98.1263 39.3815C98.0671 39.4112 98.0226 39.4558 98.0004 39.5153C97.9782 39.5748 97.9634 39.716 97.9634 39.9465V43.6559C97.9634 43.8863 97.9782 44.035 98.0078 44.1019C98.0374 44.1688 98.0893 44.2134 98.1485 44.2431C98.2152 44.2729 98.3559 44.2877 98.5854 44.2877H98.778V45.2318H95.4381V44.2877H95.6603C95.8676 44.2877 96.0083 44.2729 96.075 44.2357C96.149 44.2059 96.2009 44.1539 96.2231 44.0944C96.2527 44.035 96.2675 43.8863 96.2675 43.6559V42.2063H93.7867V43.6559C93.7867 43.8863 93.7941 44.0275 93.8163 44.0796C93.846 44.1613 93.8978 44.2134 93.9644 44.2431C94.0311 44.2729 94.1718 44.2803 94.3791 44.2803H94.6087V45.2244H91.2837V44.2803H91.5132C91.7058 44.2803 91.8391 44.2654 91.9131 44.2283C91.9872 44.1985 92.039 44.1465 92.0687 44.0944C92.0983 44.035 92.1131 43.9086 92.1131 43.7079V39.9911C92.1131 39.7606 92.0983 39.6045 92.0687 39.5376C92.039 39.4707 91.9946 39.4187 91.9353 39.3815C91.8761 39.3518 91.765 39.3295 91.5947 39.3295H91.2911V38.3928Z" fill="white"/>
<path d="M103.376 38.2744C104.458 38.2744 105.331 38.6015 106.005 39.2631C106.679 39.9247 107.012 40.7721 107.012 41.8054C107.012 42.5042 106.857 43.1212 106.553 43.6564C106.25 44.199 105.828 44.6153 105.287 44.9052C104.746 45.1952 104.095 45.3438 103.332 45.3438C102.325 45.3438 101.503 45.0688 100.859 44.5113C100.081 43.8422 99.6959 42.9428 99.6959 41.8203C99.6959 40.7796 100.036 39.9247 100.718 39.2631C101.392 38.6089 102.28 38.2744 103.376 38.2744ZM103.399 39.3672C102.88 39.3672 102.465 39.5604 102.162 39.9544C101.777 40.445 101.584 41.0769 101.584 41.85C101.584 42.6231 101.762 43.2401 102.125 43.6861C102.436 44.0727 102.843 44.2659 103.354 44.2659C103.865 44.2659 104.272 44.0727 104.583 43.6861C104.946 43.2252 105.124 42.6082 105.124 41.8351C105.124 41.2925 105.05 40.839 104.894 40.4673C104.739 40.0957 104.532 39.8206 104.265 39.6348C103.991 39.4564 103.702 39.3672 103.399 39.3672Z" fill="white"/>
<path d="M107.939 39.3369V38.3928H111.812C112.404 38.3928 112.871 38.4597 113.211 38.601C113.552 38.7422 113.811 38.9429 113.989 39.1957C114.174 39.4558 114.263 39.7383 114.263 40.0505C114.263 40.2735 114.211 40.4891 114.115 40.6898C114.019 40.8905 113.878 41.0689 113.7 41.2251C113.522 41.3812 113.278 41.5075 112.982 41.6116C113.3 41.6934 113.545 41.7826 113.715 41.8792C113.959 42.013 114.152 42.2063 114.293 42.459C114.433 42.7044 114.507 42.9794 114.507 43.2842C114.507 43.6484 114.396 43.9829 114.181 44.2877C113.967 44.5925 113.656 44.823 113.256 44.9865C112.856 45.15 112.271 45.2244 111.508 45.2244H107.939V44.2803H108.205C108.383 44.2803 108.509 44.2654 108.568 44.2357C108.635 44.206 108.679 44.1614 108.701 44.1019C108.731 44.0424 108.738 43.916 108.738 43.7153V39.9019C108.738 39.7011 108.724 39.5673 108.701 39.5153C108.672 39.4633 108.627 39.4187 108.568 39.3815C108.502 39.3518 108.383 39.3295 108.205 39.3295H107.939V39.3369ZM110.427 41.1656H111.175C111.567 41.1656 111.856 41.1359 112.041 41.0689C112.226 41.002 112.367 40.9054 112.463 40.7716C112.56 40.6378 112.604 40.4891 112.604 40.3107C112.604 40.1323 112.56 39.9762 112.471 39.8498C112.382 39.7234 112.249 39.6342 112.086 39.5748C111.915 39.5227 111.612 39.493 111.175 39.493H110.427V41.1656V41.1656ZM110.427 42.1691V43.6484C110.427 43.8566 110.442 43.9829 110.449 44.0127C110.464 44.0573 110.494 44.087 110.531 44.1093C110.568 44.1242 110.671 44.1391 110.834 44.1391H111.33C111.619 44.1391 111.856 44.1093 112.049 44.0573C112.241 44.0053 112.404 43.8937 112.537 43.7228C112.671 43.5518 112.737 43.3511 112.737 43.1132C112.737 42.9125 112.693 42.7415 112.597 42.6003C112.5 42.459 112.36 42.355 112.175 42.2806C111.989 42.2063 111.701 42.1691 111.308 42.1691H110.427V42.1691Z" fill="white"/>
<path d="M117.803 38.3928H119.336L121.38 43.6782C121.491 43.9606 121.587 44.1316 121.676 44.1985C121.765 44.2654 121.92 44.2951 122.15 44.2951V45.2392H118.921V44.2951L119.114 44.2877C119.291 44.2877 119.417 44.2654 119.491 44.2134C119.565 44.1613 119.602 44.1093 119.602 44.0424C119.602 43.9829 119.573 43.864 119.506 43.6782L119.306 43.0537H117.233L116.973 43.7451C116.922 43.8937 116.892 43.9904 116.892 44.035C116.892 44.087 116.914 44.1316 116.951 44.1762C116.988 44.2208 117.047 44.2505 117.136 44.2728C117.188 44.2877 117.344 44.2951 117.595 44.2951V45.2392H114.959V44.2951C115.129 44.2951 115.255 44.2803 115.329 44.2505C115.403 44.2208 115.47 44.1762 115.522 44.1167C115.574 44.0573 115.626 43.9458 115.692 43.7897L117.803 38.3928ZM117.603 42.0799H118.958L118.299 40.1992L117.603 42.0799Z" fill="white"/>
<path d="M52.2356 34.1185C52.2282 34.1928 52.206 34.2672 52.206 34.3415C52.1764 35.018 52.0875 35.687 51.9764 36.356C51.8431 37.1589 51.658 37.9543 51.4358 38.7348C51.2803 39.27 51.1322 39.8052 50.9619 40.3405C50.7841 40.898 50.5916 41.4555 50.3843 42.0056C50.2732 42.3029 50.1399 42.5854 50.0066 42.8679C49.8066 43.2916 49.6141 43.7228 49.3919 44.1316C49.1475 44.5999 48.8884 45.0608 48.6069 45.5068C48.2441 46.0792 47.8738 46.6442 47.4813 47.1943C47.0814 47.7518 46.6593 48.2945 46.2224 48.8297C45.5559 49.6548 44.8302 50.4354 44.0748 51.1787C42.9048 52.3309 41.6532 53.3791 40.224 54.2042C40.1722 54.234 40.1203 54.2637 40.0611 54.2934C39.4612 53.4311 38.8688 52.5762 38.269 51.7214C38.3208 51.6916 38.3652 51.6619 38.4097 51.6322C39.5649 50.9631 40.6831 50.2421 41.7421 49.4244C42.2457 49.0378 42.7196 48.6215 43.201 48.2053C43.6379 47.8187 44.0674 47.4322 44.4747 47.0233C44.8154 46.6814 45.119 46.3097 45.4226 45.938C45.8003 45.4845 46.1854 45.0311 46.5408 44.5553C46.8667 44.1167 47.1777 43.6707 47.4739 43.2098C47.7405 42.7936 47.9923 42.3698 48.2293 41.9387C48.5107 41.4258 48.7773 40.898 49.0365 40.3702C49.192 40.0505 49.3401 39.7235 49.4734 39.3964C49.7992 38.5935 50.1177 37.7833 50.3398 36.9433C50.5324 36.2148 50.6731 35.4714 50.8508 34.7429C51.0581 33.8657 51.1544 32.9737 51.2285 32.0817C51.3396 30.8625 51.3247 29.636 51.2507 28.4094C51.1914 27.4208 51.073 26.447 50.8804 25.4806C50.636 24.254 50.2806 23.0572 49.8437 21.8901C49.6585 21.3921 49.4141 20.9163 49.192 20.4257C49.1179 20.2547 49.0439 20.0912 48.9624 19.9276C48.9032 19.8087 48.881 19.6972 48.9328 19.5708C48.955 19.5188 48.9698 19.4593 48.9994 19.3701C49.0735 19.5039 49.1327 19.608 49.192 19.7195C49.9844 21.2434 50.6138 22.8416 51.1248 24.4845C51.4432 25.5029 51.6876 26.5362 51.8653 27.5843C51.9912 28.3128 52.0801 29.0562 52.1838 29.7921C52.206 29.9333 52.1912 30.0746 52.1986 30.2233C52.1986 30.2902 52.2134 30.3496 52.2282 30.4165C52.2356 31.6505 52.2356 32.8845 52.2356 34.1185Z" fill="white"/>
<path d="M38.0162 64.2398C38.0014 64.2101 37.994 64.1878 37.9792 64.158C37.8978 63.9945 37.8755 63.8235 37.9422 63.6451C38.1866 62.9315 38.2384 62.1955 38.0459 61.467C37.8755 60.798 37.5127 60.233 37.0017 59.7573C36.6092 59.393 36.1649 59.1254 35.7132 58.8504C35.528 58.7389 35.3355 58.6274 35.1577 58.501C34.5579 58.0698 34.2765 57.4603 34.2024 56.7467C34.195 56.6723 34.2247 56.5831 34.2543 56.5088C34.4913 56.0107 34.8541 55.6539 35.3355 55.3937C35.5947 55.2525 35.8465 55.2302 36.1205 55.312C36.2019 55.3343 36.276 55.3566 36.3574 55.3937C36.5944 55.4978 36.8314 55.6167 37.0684 55.7208C37.2979 55.8249 37.4534 55.9959 37.5275 56.2337C37.5793 56.427 37.6904 56.5757 37.8385 56.6946C37.957 56.7913 38.0829 56.8879 38.2014 56.9771C38.3347 57.0737 38.4235 57.2001 38.4902 57.3562C38.5865 57.6015 38.6309 57.8543 38.6679 58.1145C38.7124 58.449 38.7938 58.7761 38.8901 59.1031C39.0012 59.4748 39.0604 59.8539 39.053 60.2405C39.0456 60.7757 39.0456 61.3109 39.0308 61.8461C39.016 62.307 38.9419 62.7605 38.8086 63.1991C38.7568 63.37 38.6827 63.5336 38.6087 63.6897C38.505 63.9053 38.3717 64.0911 38.1421 64.1803C38.1273 64.1877 38.1125 64.2175 38.0977 64.2324C38.0681 64.2398 38.0459 64.2398 38.0162 64.2398Z" fill="white"/>
<path d="M23.0278 6.45052C22.5687 6.53972 22.1392 6.62149 21.7171 6.71069C20.0434 7.06008 18.4364 7.5953 16.9183 8.37583C16.2592 8.71034 15.6002 9.05229 14.9559 9.40911C14.6226 9.59495 14.3264 9.83283 14.008 10.041C13.7784 10.1971 13.5266 10.3309 13.3045 10.4944C12.5417 11.0519 11.8012 11.6541 11.1051 12.2934C10.7348 12.6279 10.3645 12.9624 10.0165 13.3118C9.74986 13.5794 9.51289 13.8842 9.26851 14.1666C8.93527 14.5606 8.59462 14.9546 8.27618 15.356C7.80964 15.9359 7.37272 16.5454 6.98764 17.1921C6.6618 17.7274 6.34336 18.2775 6.03974 18.8275C5.60282 19.6155 5.22514 20.4258 4.92892 21.2732C4.71417 21.8828 4.50681 22.4923 4.29946 23.1093C4.01806 23.9716 3.76627 24.8488 3.60335 25.7408C3.50708 26.2686 3.46265 26.8038 3.396 27.3316C3.36638 27.5621 3.34416 27.7925 3.32194 28.023C3.21827 29.0042 3.23308 29.9929 3.25529 30.9816C3.27011 31.5985 3.30713 32.2155 3.35897 32.8325C3.396 33.2265 3.47005 33.6205 3.52929 34.0145C3.61075 34.52 3.68481 35.0255 3.78108 35.5235C3.95881 36.4899 4.218 37.434 4.56606 38.3483C4.80303 38.9802 5.09925 39.5897 5.38065 40.2067C5.69168 40.8906 6.07677 41.5448 6.43963 42.2064C6.83953 42.9423 7.31347 43.6336 7.78742 44.3175C8.24656 44.9717 8.77235 45.5589 9.29073 46.1685C10.246 47.2835 11.3272 48.2722 12.4677 49.194C12.9268 49.5657 13.4304 49.8853 13.9191 50.2273C15.5928 51.4092 17.4367 52.2567 19.3473 52.9629C20.1841 53.2751 21.0506 53.5055 21.9318 53.6765C22.3465 53.7583 22.7612 53.8252 23.1685 53.8995C23.2648 53.9144 23.3092 53.9738 23.3685 54.0333C23.9757 54.7395 24.5904 55.4457 25.1976 56.1519C25.7975 56.8432 26.3973 57.5345 26.9897 58.2259C27.0268 58.2705 27.0638 58.3151 27.123 58.382C27.0416 58.3894 26.9897 58.3969 26.9379 58.3969C25.9678 58.4192 24.9977 58.382 24.0276 58.2928C22.1466 58.1144 20.3026 57.765 18.4957 57.2149C16.6295 56.6425 14.83 55.8917 13.1564 54.8807C12.6824 54.5908 12.1863 54.3306 11.7345 54.011C10.3423 53.0372 9.02413 51.9742 7.83186 50.7625C7.00985 49.9225 6.23228 49.0453 5.51395 48.1161C4.83265 47.2389 4.21059 46.3246 3.64038 45.3657C3.22567 44.6743 2.82578 43.9681 2.49253 43.2322C2.22594 42.6524 1.97415 42.0577 1.74458 41.463C1.50761 40.8534 1.30026 40.2364 1.10031 39.612C0.967013 39.1957 0.885553 38.7572 0.781877 38.3334C0.596741 37.5678 0.456038 36.7872 0.330146 36.0067C0.241281 35.4715 0.167226 34.9363 0.14501 34.401C0.137604 34.178 0.0931718 33.955 0.0709555 33.732C0.011712 33.2042 -0.010505 32.6764 0.00430586 32.1486C0.0191167 31.777 0.0265224 31.4127 0.0265224 31.041C0.0265224 30.4389 0.0857657 29.8442 0.152415 29.2495C0.226469 28.6177 0.352362 27.9932 0.485659 27.3762C0.611552 26.7592 0.737444 26.1422 0.870742 25.5253C0.92258 25.2799 0.996636 25.0421 1.07069 24.8042C1.2262 24.3061 1.38172 23.8081 1.54464 23.31C1.65572 22.9755 1.78902 22.6559 1.92972 22.3362C2.19632 21.7267 2.46291 21.1171 2.75172 20.5224C2.92945 20.1507 3.1294 19.779 3.33675 19.4222C3.69962 18.7904 4.06989 18.1659 4.45497 17.5415C4.72157 17.1029 5.0326 16.7015 5.35844 16.3075C5.83979 15.7351 6.32115 15.1628 6.8025 14.5978C7.30607 14.0031 7.86888 13.4679 8.44651 12.9475C9.40181 12.0778 10.4015 11.275 11.4531 10.539C12.2751 9.96663 13.0971 9.38681 14.0006 8.94822C14.8966 8.50964 15.8001 8.06362 16.7258 7.69194C17.9921 7.18645 19.2881 6.77016 20.6285 6.51742C21.2653 6.39848 21.9022 6.30184 22.5391 6.22007C22.5835 6.21264 22.6353 6.22007 22.6724 6.24237C22.7834 6.28698 22.8871 6.36131 23.0278 6.45052Z" fill="white"/>
<path d="M35.4765 3.96776C35.0692 3.99006 34.6693 3.93059 34.262 3.87855C34.1361 3.86368 34.0325 3.81165 33.9584 3.71501C33.8696 3.59607 33.7955 3.4697 33.7066 3.35076C33.6548 3.28386 33.603 3.21696 33.5363 3.17235C33.4104 3.09802 33.3215 3.12032 33.2697 3.26156C33.2327 3.36563 33.2179 3.47713 33.2031 3.58864C33.1957 3.66298 33.2031 3.74475 33.1957 3.81908C33.1734 4.01979 33.0772 4.11643 32.8698 4.11643C32.5588 4.12386 32.2404 4.11643 31.9293 4.12386C31.6331 4.1313 31.3443 4.19076 31.0703 4.31714C30.8852 4.40634 30.7371 4.53271 30.6334 4.71856C30.5297 4.9044 30.426 4.9267 30.2409 4.82263C30.1002 4.74086 29.9521 4.65165 29.8188 4.56245C29.6633 4.45838 29.5522 4.3097 29.4855 4.13129C29.4411 3.99749 29.4485 3.88599 29.5448 3.78191C29.7299 3.58864 29.915 3.4028 30.1076 3.21696C30.2187 3.11289 30.3372 3.01625 30.4631 2.91961C30.7519 2.70403 30.7963 2.19111 30.6112 1.91607C30.5593 1.8343 30.5001 1.74509 30.4556 1.65589C30.3668 1.47005 30.4408 1.34368 30.6408 1.34368C30.9666 1.33624 31.2925 1.33624 31.6035 1.45518C31.7294 1.50722 31.8849 1.49235 32.0256 1.49235C32.1367 1.49235 32.1811 1.44031 32.1885 1.32138C32.1959 1.22474 32.1885 1.1281 32.1811 1.0389C32.1663 0.756417 32.2552 0.615178 32.5292 0.540841C32.8846 0.451638 33.2475 0.429337 33.603 0.525974C34.225 0.696948 34.7952 0.578009 35.3358 0.258362C35.4839 0.176592 35.6394 0.102256 35.8024 0.0427869C36.0393 -0.0389833 36.2763 -0.00181477 36.4837 0.139425C36.891 0.421903 37.1353 0.786152 37.0687 1.31394C37.0095 1.74509 37.1502 2.09447 37.5056 2.35465C37.55 2.39182 37.6019 2.42899 37.6463 2.46616C37.8981 2.6966 37.9203 2.90474 37.8166 3.22439C37.8018 3.26899 37.7796 3.31359 37.7426 3.34333C37.4316 3.61094 37.0983 3.84138 36.6836 3.89342C36.3578 3.93802 36.0245 3.94545 35.6913 3.96776C35.6246 3.97519 35.5506 3.96776 35.4765 3.96776Z" fill="white"/>
<path d="M38.4902 12.2416C37.8237 12.2788 37.2164 12.0484 36.6018 11.8625C36.313 11.7808 36.1426 11.5726 36.1204 11.2678C36.1204 11.2307 36.113 11.1935 36.1056 11.1638C36.0834 11.0523 36.0241 10.9854 35.9057 10.963C35.7872 10.9407 35.6909 10.9779 35.6316 11.082C35.5872 11.1563 35.5502 11.2381 35.5132 11.3199C35.4613 11.4388 35.4095 11.5577 35.3576 11.6767C35.291 11.8179 35.2169 11.87 35.0614 11.8551C34.7948 11.8328 34.5282 11.7956 34.269 11.7733C33.995 11.751 33.7136 11.7064 33.4396 11.751C33.2323 11.7808 33.0397 11.8402 32.862 11.9592C32.8324 11.9815 32.8028 11.9963 32.7731 12.0186C32.4695 12.2045 32.2029 12.1673 31.9734 11.8848C31.8401 11.7213 31.7808 11.528 31.7734 11.3273C31.766 11.2158 31.8104 11.1266 31.8919 11.0597C31.966 11.0002 32.0474 10.9482 32.1289 10.9036C32.4769 10.7029 32.825 10.5022 33.173 10.294C33.2841 10.2271 33.3878 10.1453 33.4767 10.0487C33.647 9.8703 33.7062 9.64729 33.6618 9.40198C33.6544 9.33507 33.6396 9.2756 33.6396 9.2087C33.6322 9.04516 33.721 8.94109 33.884 8.94109C34.0247 8.94109 34.1654 8.95596 34.3061 8.99313C34.5282 9.0526 34.743 9.13436 34.9652 9.20127C35.0392 9.22357 35.1059 9.26074 35.1799 9.2756C35.3502 9.32021 35.4539 9.26817 35.5132 9.10463C35.5428 9.03029 35.5502 8.95596 35.5724 8.88162C35.6465 8.60657 35.839 8.44303 36.1204 8.42817C36.2759 8.42073 36.4388 8.45047 36.5944 8.47277C36.6758 8.48764 36.7573 8.51737 36.8313 8.54711C37.2386 8.69578 37.6756 8.73295 38.1051 8.77755C38.3124 8.79985 38.505 8.72551 38.6975 8.66604C39.0011 8.5694 39.2973 8.48764 39.6158 8.49507C39.6676 8.49507 39.7195 8.49507 39.7713 8.50994C40.1564 8.58427 40.497 8.82958 40.4378 9.37968C40.4156 9.58782 40.3563 9.78853 40.223 9.9595C40.1786 10.019 40.1342 10.0859 40.0897 10.1528C39.9935 10.3089 40.0009 10.4724 40.1045 10.6211C40.1564 10.6954 40.223 10.7698 40.2897 10.8367C40.5118 11.0969 40.5192 11.3793 40.3045 11.6469C40.0453 11.974 39.6824 12.1227 39.2899 12.1747C39.0233 12.2119 38.7567 12.2193 38.4902 12.2416Z" fill="white"/>
<path d="M38.2759 16.4414C38.1278 16.4191 37.9797 16.4042 37.8242 16.3671C37.291 16.2407 36.7726 16.0846 36.2839 15.8393C36.0691 15.7352 36.0099 15.646 36.0247 15.4081C36.0321 15.2818 36.0173 15.1628 35.9432 15.0513C35.8766 14.9473 35.8099 14.925 35.7062 14.9844C35.647 15.0142 35.5878 15.0662 35.5507 15.1182C35.4397 15.2818 35.3434 15.4453 35.2471 15.6237C35.1731 15.765 35.0768 15.817 34.9213 15.7947C34.588 15.7501 34.2548 15.7055 33.9141 15.6832C33.5957 15.6683 33.2773 15.6832 32.9588 15.6981C32.87 15.7055 32.7811 15.7501 32.6922 15.7873C32.6404 15.8096 32.5886 15.8393 32.5293 15.8616C32.2405 15.988 32.1146 15.9508 31.9443 15.6981C31.8702 15.5865 31.7962 15.4825 31.7443 15.3635C31.6555 15.1777 31.6777 15.0588 31.8258 14.9175C31.9961 14.7614 32.1813 14.6425 32.4034 14.5533C32.7885 14.3972 33.1514 14.1965 33.5068 13.9883C33.729 13.8619 33.7956 13.6241 33.803 13.3713C33.803 13.297 33.803 13.2152 33.8179 13.1409C33.8623 12.8881 34.0548 12.7543 34.3066 12.8064C34.3881 12.8212 34.4695 12.851 34.5436 12.8881C34.7658 12.9922 34.9879 13.1037 35.2175 13.2152C35.4989 13.349 35.6322 13.3193 35.7951 13.0517C35.8321 12.9922 35.8618 12.9253 35.8914 12.8584C36.0099 12.6057 36.195 12.4718 36.4764 12.4867C36.7356 12.5016 36.98 12.5462 37.217 12.6503C37.491 12.7692 37.7724 12.851 38.0686 12.8956C38.424 12.9476 38.7647 12.8733 39.1054 12.8064C39.2461 12.7766 39.3794 12.7469 39.5201 12.7172C39.7274 12.6726 39.9348 12.6874 40.1347 12.7618C40.3939 12.851 40.5346 13.0294 40.579 13.2895C40.6161 13.4903 40.5864 13.6835 40.4828 13.8619C40.3865 14.0255 40.2828 14.189 40.1643 14.3303C40.0088 14.5161 39.994 14.6945 40.1199 14.9027C40.1791 14.9993 40.2236 15.1034 40.2606 15.2074C40.3569 15.4899 40.2828 15.7575 40.0384 15.9434C39.7792 16.1366 39.483 16.263 39.1646 16.315C38.9572 16.3448 38.7425 16.3819 38.5351 16.4117C38.4537 16.4265 38.3722 16.434 38.2759 16.4414Z" fill="white"/>
<path d="M33.9519 7.99698C33.6927 7.99698 33.4335 7.98212 33.1743 7.99698C32.8559 8.01928 32.5597 8.11592 32.3227 8.34637C32.1598 8.50247 31.9598 8.52477 31.7673 8.41327C31.6414 8.34637 31.5303 8.25716 31.4266 8.16052C31.2193 7.96725 31.2119 7.5584 31.4488 7.37999C31.6784 7.20902 31.9006 7.03804 32.1301 6.86707C32.2634 6.77043 32.4041 6.68123 32.53 6.56972C32.8263 6.30211 32.9077 5.97503 32.7596 5.60335C32.7374 5.54388 32.7152 5.48441 32.7004 5.41751C32.6781 5.29857 32.7152 5.23166 32.8485 5.22423C33.0262 5.2168 33.2039 5.20936 33.3817 5.23166C33.589 5.2614 33.789 5.33574 33.9963 5.38777C34.0926 5.41007 34.1889 5.43981 34.2925 5.44724C34.4554 5.45467 34.5147 5.40264 34.5517 5.2391C34.5887 5.07556 34.6184 4.91202 34.6628 4.75591C34.7072 4.58494 34.7369 4.56264 34.9072 4.56264C35.0923 4.5552 35.2775 4.54777 35.4552 4.5552C35.6477 4.56264 35.8403 4.59237 36.0328 4.6221C36.4771 4.69644 36.9215 4.76334 37.3732 4.66671C37.5583 4.62954 37.7287 4.54033 37.9064 4.48087C38.0767 4.42883 38.247 4.36936 38.4174 4.33963C38.7728 4.27272 39.0468 4.41396 39.2394 4.70388C39.4541 5.02352 39.4912 5.38034 39.3579 5.74459C39.3356 5.81149 39.2986 5.87839 39.2838 5.9453C39.2394 6.14601 39.2764 6.33185 39.4171 6.49539C39.506 6.59946 39.6022 6.69609 39.6837 6.8076C39.8614 7.05291 39.854 7.26105 39.6763 7.4915C39.4541 7.78884 39.1727 7.98212 38.795 8.03415C38.3063 8.10105 37.8175 8.14566 37.3288 8.13822C36.8326 8.13079 36.3586 8.02672 35.8921 7.84088C35.7736 7.79628 35.6922 7.71451 35.6403 7.603C35.5885 7.49893 35.5441 7.38742 35.4922 7.27592C35.47 7.23132 35.4552 7.18672 35.433 7.14955C35.3885 7.07521 35.3219 7.02317 35.2256 7.03061C35.1367 7.03804 35.0997 7.11238 35.0775 7.19415C35.0405 7.33539 35.0109 7.48406 34.9738 7.6253C34.8998 7.91521 34.8183 7.98212 34.5147 7.98212C34.3147 7.99698 34.137 7.99698 33.9519 7.99698Z" fill="white"/>
<path d="M37.6617 20.5223C37.2173 20.5966 36.81 20.4554 36.4027 20.2844C36.0991 20.158 35.7955 20.0391 35.4919 19.9276C35.3512 19.8755 35.2845 19.7863 35.2771 19.6377C35.2697 19.489 35.2549 19.3403 35.2401 19.1916C35.2253 19.0876 35.2179 18.9612 35.0994 18.9315C34.9809 18.9017 34.8846 18.9686 34.8106 19.0653C34.7069 19.2065 34.6032 19.3403 34.5069 19.4815C34.4255 19.6079 34.3144 19.6674 34.1663 19.66C33.9367 19.6525 33.7072 19.6525 33.4776 19.6377C33.4035 19.6302 33.3221 19.6079 33.2628 19.5708C33.1443 19.4964 33.0184 19.4592 32.8777 19.4444C32.4704 19.3998 32.078 19.3998 31.7077 19.6228C31.5596 19.712 31.4337 19.6897 31.3226 19.5633C31.1893 19.4146 31.093 19.2511 31.0412 19.0504C30.9894 18.8497 31.0486 18.6861 31.2041 18.5523C31.2782 18.4854 31.367 18.426 31.4633 18.3962C31.7151 18.2996 31.9743 18.203 32.2335 18.1435C32.5889 18.0543 32.8926 17.8982 33.1369 17.6157C33.285 17.4522 33.3739 17.2663 33.4035 17.0433C33.448 16.7311 33.485 16.7088 33.7886 16.7237C34.0182 16.7311 34.2478 16.7757 34.4477 16.9095C34.5144 16.9541 34.6032 16.969 34.6773 16.9987C34.7735 17.0359 34.8624 17.0656 34.9513 17.1102C35.1068 17.1845 35.2327 17.1622 35.3438 17.021C35.403 16.9467 35.4474 16.8575 35.4993 16.7831C35.7066 16.4932 35.9954 16.4114 36.3287 16.5527C36.6027 16.6716 36.8693 16.7906 37.1433 16.9021C37.3729 16.9987 37.6172 17.0359 37.869 17.0284C38.417 17.021 38.9724 17.0284 39.5204 17.021C39.8315 17.0136 40.0018 17.1697 40.0314 17.4893C40.0536 17.7941 39.9648 18.0691 39.7722 18.2996C39.6834 18.4111 39.5723 18.5003 39.4686 18.6044C39.2464 18.8274 39.202 19.0207 39.3353 19.2957C39.4834 19.5931 39.4464 19.987 39.0687 20.2249C38.7281 20.4405 38.3652 20.5594 37.9579 20.5446C37.8616 20.5297 37.7579 20.5223 37.6617 20.5223Z" fill="white"/>
<path d="M36.5508 24.5887C36.0176 24.5441 35.514 24.5144 35.0327 24.336C34.8253 24.2617 34.6254 24.1501 34.4254 24.0386C34.2773 23.9494 34.1292 23.8602 33.9589 23.8379C33.8478 23.8231 33.8108 23.7785 33.8108 23.6521C33.8034 23.496 33.8108 23.3399 33.8034 23.1912C33.8034 23.102 33.796 23.0128 33.7812 22.9236C33.759 22.8195 33.6997 22.7898 33.596 22.827C33.5442 22.8493 33.485 22.879 33.4479 22.9162C33.3591 23.0054 33.2628 23.102 33.1887 23.2061C33.0258 23.4514 32.8037 23.5109 32.5222 23.4365C32.226 23.3622 31.9224 23.2878 31.6188 23.2581C31.2781 23.2284 30.9301 23.2432 30.5894 23.2358C30.5154 23.2358 30.4487 23.2432 30.3747 23.2284C30.1451 23.1912 29.9896 23.05 29.9378 22.8195C29.8859 22.5668 29.9452 22.4107 30.1599 22.2694C30.4191 22.0985 30.6857 21.9647 30.9967 21.8977C31.3004 21.8308 31.5966 21.7119 31.8854 21.593C32.152 21.4815 32.3075 21.251 32.3815 20.976C32.3964 20.9165 32.4112 20.8496 32.4334 20.7901C32.5 20.6117 32.6481 20.5523 32.8185 20.634C32.8629 20.6563 32.9073 20.6935 32.9518 20.7158C33.1739 20.8496 33.3961 20.9834 33.6257 21.1023C33.8478 21.2139 34.0181 21.1693 34.1811 20.9908C34.2255 20.9388 34.2551 20.8868 34.2996 20.8347C34.4995 20.5597 34.7587 20.4705 35.0771 20.5969C35.2919 20.6786 35.4918 20.7976 35.6918 20.9165C35.9139 21.0429 36.1435 21.1618 36.3953 21.1916C36.5212 21.2064 36.6545 21.2064 36.7878 21.2064C37.121 21.2213 37.4617 21.2213 37.7949 21.2436C37.8986 21.251 38.0023 21.2882 38.106 21.3031C38.3874 21.3551 38.4984 21.6376 38.4392 21.8606C38.417 21.9572 38.3725 22.0539 38.3133 22.1356C38.1652 22.3289 38.0097 22.5147 37.8468 22.7006C37.7949 22.7601 37.7283 22.8195 37.669 22.8716C37.5505 22.9831 37.5283 23.1094 37.5728 23.2581C37.595 23.3324 37.6172 23.4068 37.6394 23.4811C37.6912 23.6818 37.6542 23.8751 37.5209 24.0386C37.2914 24.3955 36.9359 24.559 36.5508 24.5887Z" fill="white"/>
<path d="M34.284 28.1123C33.8619 28.1346 33.4546 28.038 33.0769 27.8596C32.7511 27.7035 32.44 27.5251 32.129 27.3392C31.9439 27.2352 31.9142 27.1088 31.9513 26.8784C31.9661 26.7892 31.9661 26.6925 31.9587 26.5959C31.9513 26.5141 31.892 26.4769 31.8106 26.4769C31.7143 26.4769 31.6254 26.5141 31.5588 26.5884C31.4847 26.6702 31.4181 26.752 31.3514 26.8338C31.1367 27.1088 31.0182 27.1385 30.6923 27.0345C30.3665 26.9378 30.0407 26.8486 29.7222 26.7594C29.5075 26.7 29.3001 26.7297 29.0928 26.7817C28.9743 26.8115 28.8632 26.8412 28.7447 26.8561C28.5596 26.8858 28.4337 26.8189 28.3596 26.6479C28.3152 26.5513 28.2782 26.4472 28.256 26.3431C28.2041 26.083 28.2782 25.9194 28.5225 25.8079C28.6855 25.7336 28.8558 25.6741 29.0187 25.6295C29.2113 25.57 29.4112 25.5329 29.6037 25.4883C29.6926 25.466 29.7741 25.4362 29.8555 25.4065C30.2406 25.2727 30.522 25.0348 30.6627 24.6408C30.6701 24.6185 30.6849 24.5962 30.6923 24.5739C30.8256 24.2989 30.9812 24.2468 31.2552 24.3881C31.3885 24.455 31.5069 24.5442 31.6328 24.626C31.6773 24.6557 31.7143 24.6929 31.7587 24.7226C32.055 24.9307 32.2253 24.8936 32.4178 24.5962C32.6178 24.2914 32.9954 24.1874 33.3213 24.3509C33.462 24.4252 33.6027 24.4996 33.736 24.5888C34.1137 24.8341 34.5284 24.9605 34.9801 24.953C35.3208 24.953 35.6688 24.9456 36.0095 24.953C36.3723 24.9605 36.5427 25.1984 36.4538 25.5477C36.3575 25.9045 36.1502 26.187 35.8614 26.41C35.8021 26.4546 35.7355 26.4992 35.6762 26.5513C35.5651 26.6405 35.5281 26.7594 35.5651 26.9007C35.58 26.9527 35.5948 27.0047 35.6096 27.0568C35.6984 27.3244 35.6392 27.5474 35.4318 27.7332C35.1801 27.9637 34.8838 28.1049 34.5358 28.1123C34.4543 28.1123 34.3729 28.1123 34.284 28.1123Z" fill="white"/>
<path d="M30.1221 30.2457C29.9221 30.2011 29.7666 30.2606 29.6481 30.4242C29.6111 30.4762 29.5741 30.5282 29.537 30.5803C29.3889 30.7735 29.1964 30.8553 28.9594 30.8181C28.7817 30.7884 28.604 30.7289 28.4262 30.6843C28.0634 30.5803 27.7005 30.5282 27.3228 30.6323C27.2414 30.6546 27.1673 30.6843 27.0859 30.7141C26.8193 30.8107 26.5971 30.6992 26.5156 30.4316C26.5082 30.4093 26.5008 30.387 26.5008 30.3647C26.4046 29.9261 26.486 29.77 26.9155 29.6213C27.2858 29.4949 27.6561 29.376 28.0263 29.2422C28.1152 29.2125 28.2041 29.1679 28.2855 29.1233C28.4633 29.0266 28.5966 28.8928 28.678 28.707C28.715 28.6252 28.7447 28.5434 28.7817 28.4617C28.9076 28.1866 29.1297 28.1049 29.3889 28.2461C29.5593 28.3353 29.7148 28.4394 29.8777 28.5434C29.9295 28.5732 29.974 28.6103 30.0258 28.6401C30.1813 28.7218 30.285 28.707 30.4035 28.5657C30.4479 28.5137 30.4849 28.4468 30.5294 28.3948C30.596 28.313 30.6701 28.2312 30.7515 28.1643C30.8996 28.0379 31.0774 28.0008 31.2699 28.0677C31.3662 28.1048 31.4551 28.142 31.5439 28.1941C32.0179 28.484 32.5362 28.5955 33.0917 28.5732C33.3805 28.5657 33.6693 28.5657 33.9581 28.5583C34.4246 28.5509 34.6468 28.9151 34.4172 29.3537C34.3061 29.5767 34.1432 29.7551 33.9655 29.9187C33.9359 29.941 33.9137 29.9633 33.884 29.993C33.5804 30.2532 33.5804 30.3349 33.7211 30.6472C33.8026 30.833 33.773 31.004 33.6397 31.1601C33.2546 31.5987 32.7732 31.7771 32.1956 31.673C31.9364 31.6284 31.6846 31.5689 31.4328 31.5169C31.0181 31.4277 30.6479 31.2344 30.2924 31.004C30.1591 30.9222 30.1147 30.8033 30.1517 30.6546C30.1813 30.5059 30.1739 30.3721 30.1221 30.2457Z" fill="white"/>
<path d="M29.4707 38.9281C28.9819 38.9281 28.5079 38.8314 28.0414 38.6753C27.9155 38.6307 27.8563 38.5564 27.8266 38.4375C27.8044 38.3557 27.797 38.2739 27.7748 38.1922C27.7156 38.0063 27.5601 37.9543 27.4045 38.0732C27.3527 38.1104 27.3157 38.1699 27.2786 38.2219C27.2194 38.326 27.1528 38.4375 27.1083 38.5564C27.0417 38.7199 26.9232 38.7794 26.7603 38.772C26.4566 38.772 26.153 38.7868 25.8568 38.772C25.568 38.7571 25.3088 38.8166 25.0496 38.9429C24.9459 38.995 24.8349 39.047 24.7312 39.0916C24.3609 39.2329 24.0129 38.9876 24.0054 38.5936C24.0054 38.4077 24.1017 38.2814 24.2498 38.1922C24.5757 37.9989 24.9015 37.8056 25.2273 37.6123C25.3088 37.5603 25.3903 37.5157 25.4643 37.4562C25.7087 37.2704 25.8568 37.0325 25.8716 36.7203C25.8716 36.6757 25.879 36.6385 25.8864 36.5939C25.916 36.4229 25.9975 36.3337 26.1752 36.3486C26.4418 36.3783 26.7158 36.4304 26.9824 36.4675C27.0787 36.4824 27.1676 36.4973 27.2638 36.5047C27.3823 36.5121 27.4712 36.4601 27.5304 36.3635C27.5749 36.2891 27.6119 36.2148 27.6489 36.1479C27.8489 35.7985 28.0858 35.6796 28.4783 35.7688C28.9523 35.8803 29.4262 35.8952 29.9076 35.8877C30.0631 35.8877 30.2112 35.858 30.3519 35.7911C30.6259 35.6721 30.9073 35.5978 31.2109 35.6052C31.2702 35.6052 31.3294 35.6127 31.3887 35.6275C31.6701 35.6944 31.8034 35.9398 31.7071 36.2148C31.6849 36.2668 31.6627 36.3263 31.633 36.3783C31.522 36.6014 31.4109 36.8244 31.2924 37.0474C31.1961 37.2332 31.1961 37.4116 31.3146 37.5826C31.4701 37.8056 31.4405 38.0286 31.2924 38.2442C31.0998 38.5192 30.8332 38.6902 30.5222 38.7794C30.1816 38.8909 29.8261 38.9281 29.4707 38.9281Z" fill="white"/>
<path d="M30.3297 35.241C29.9669 35.2261 29.5596 35.1741 29.1671 35.0552C28.9301 34.9808 28.7153 34.8842 28.5154 34.743C28.3969 34.6612 28.3377 34.5571 28.3525 34.4159C28.3599 34.3267 28.3599 34.2375 28.3525 34.1483C28.3525 34.0665 28.3302 33.9922 28.2488 33.955C28.1599 33.9178 28.0785 33.9476 28.0192 34.007C27.9378 34.0962 27.8489 34.1929 27.7971 34.2969C27.7082 34.4753 27.5601 34.5794 27.3898 34.6463C27.3527 34.6612 27.2935 34.6612 27.2491 34.6538C26.9084 34.5869 26.5678 34.5199 26.2197 34.4605C26.0123 34.4233 25.805 34.4753 25.6051 34.5423C25.494 34.5794 25.3829 34.624 25.2718 34.6538C25.0719 34.7132 24.9386 34.6761 24.8201 34.5125C24.6868 34.3192 24.6572 34.1037 24.746 33.8881C24.7905 33.7766 24.8793 33.7022 24.983 33.6651C25.2496 33.561 25.5162 33.4569 25.7754 33.3529C25.9383 33.286 26.1086 33.2191 26.2641 33.1373C26.5455 32.996 26.7381 32.7656 26.8269 32.4608C26.8418 32.4014 26.864 32.3345 26.8862 32.275C26.9454 32.1263 27.0195 32.0743 27.175 32.1189C27.412 32.1858 27.6489 32.2676 27.8859 32.3493C27.9674 32.3791 28.0488 32.4162 28.1377 32.4311C28.3451 32.4757 28.4932 32.3865 28.5746 32.1932C28.5968 32.1337 28.6191 32.0668 28.6561 32.0148C28.7968 31.8141 29.019 31.7472 29.293 31.829C29.4188 31.8661 29.5447 31.9256 29.6706 31.9851C30.1001 32.2006 30.5593 32.3122 31.0406 32.275C31.211 32.2601 31.3813 32.2155 31.5442 32.1858C31.759 32.1486 31.9811 32.1263 32.1959 32.2007C32.4477 32.2899 32.5291 32.4237 32.4921 32.6913C32.4551 32.9514 32.344 33.1745 32.144 33.3306C31.8775 33.5536 31.7886 33.8212 31.8552 34.1557C31.87 34.2077 31.87 34.2598 31.8775 34.3118C31.9219 34.624 31.8478 34.8024 31.5738 34.9511C31.2036 35.1444 30.8037 35.2782 30.3297 35.241Z" fill="white"/>
<path d="M28.7892 42.6676C28.6188 42.6379 28.3967 42.6082 28.1745 42.571C28.0782 42.5561 27.9894 42.5413 27.9005 42.5115C27.819 42.4818 27.7302 42.4446 27.6783 42.3852C27.508 42.2068 27.3007 42.2514 27.0933 42.2811C27.0489 42.2885 26.997 42.348 26.9674 42.4C26.7823 42.6676 26.5231 42.7717 26.2047 42.7717C26.0417 42.7717 25.8862 42.7643 25.7233 42.7717C25.4715 42.7792 25.2345 42.8461 25.0198 42.9799C24.9161 43.0468 24.805 43.1062 24.7088 43.188C24.5681 43.3069 24.42 43.3144 24.2644 43.2475C24.0867 43.1731 23.9312 43.0616 23.8794 42.8609C23.8349 42.6751 23.8868 42.5041 24.0497 42.3852C24.2718 42.2216 24.494 42.073 24.7162 41.9094C24.8791 41.783 25.0494 41.6641 25.2049 41.5229C25.4345 41.3073 25.5382 41.0471 25.4863 40.72C25.4493 40.497 25.553 40.3707 25.7826 40.3855C26.0417 40.4004 26.3009 40.4376 26.5601 40.4673C26.649 40.4747 26.7379 40.4896 26.8267 40.4896C26.9748 40.4896 27.0341 40.445 27.0859 40.2963C27.1007 40.2443 27.1155 40.1923 27.1229 40.1402C27.16 39.9246 27.2859 39.7834 27.4784 39.7091C27.6413 39.6496 27.8042 39.6273 27.982 39.6496C28.2338 39.6868 28.4855 39.7239 28.7373 39.7314C29.0706 39.7462 29.3816 39.6645 29.6852 39.5455C29.9444 39.4489 30.211 39.3671 30.4776 39.2854C30.5368 39.263 30.6035 39.2556 30.6701 39.2556C30.9367 39.2407 31.1145 39.3969 31.1367 39.657C31.1515 39.8057 31.1071 39.9395 31.0552 40.0733C30.9812 40.2443 30.9071 40.4078 30.8405 40.5788C30.7664 40.7646 30.8034 40.943 30.9293 41.0992C31.1367 41.3668 31.1441 41.6715 30.9293 41.9317C30.8405 42.0358 30.722 42.125 30.6035 42.1993C30.1962 42.4372 29.7445 42.5561 29.2779 42.623C29.115 42.6305 28.9817 42.6453 28.7892 42.6676Z" fill="white"/>
<path d="M32.0175 46.7483C32.0027 46.949 31.9879 47.1498 31.9657 47.3505C31.9434 47.5214 32.0027 47.6627 32.1286 47.7816C32.4248 48.0641 32.447 48.3689 32.1952 48.696C31.936 49.0379 31.588 49.2461 31.1807 49.3427C30.7808 49.4393 30.3735 49.5211 29.9662 49.6029C29.8996 49.6177 29.8255 49.6103 29.7589 49.5954C29.6107 49.5657 29.4626 49.5137 29.3145 49.4839C29.1886 49.4542 29.122 49.3873 29.085 49.2684C29.0702 49.2163 29.0553 49.1643 29.0331 49.1197C28.9887 49.0379 28.8924 48.9859 28.811 49.0007C28.7221 49.0156 28.6851 49.0899 28.6703 49.1643C28.648 49.3055 28.6406 49.4468 28.6332 49.588C28.6184 49.7813 28.5962 49.811 28.4185 49.8556C28.0408 49.9597 27.6631 50.0563 27.2929 50.1678C26.9966 50.257 26.7449 50.4131 26.5893 50.6956C26.5227 50.822 26.456 50.8294 26.3227 50.7774C26.2191 50.7328 26.1154 50.6956 26.0117 50.651C25.7155 50.5172 25.634 50.2496 25.834 49.9969C26.0413 49.7292 26.2709 49.4839 26.4931 49.2312C26.5745 49.1346 26.6634 49.0453 26.7449 48.9561C26.9596 48.7406 26.9744 48.5027 26.8633 48.2351C26.8337 48.1607 26.7967 48.079 26.7819 47.9972C26.7597 47.8485 26.8115 47.7445 26.9596 47.7147C27.0929 47.685 27.2262 47.685 27.3595 47.685C27.5372 47.6924 27.715 47.7296 27.8853 47.7445C28.0334 47.7593 28.063 47.7445 28.1149 47.6032C28.1593 47.4843 28.1963 47.3653 28.2259 47.2464C28.3 46.9342 28.4481 46.8004 28.7591 46.7706C28.9443 46.7558 29.122 46.7409 29.3071 46.7409C29.8403 46.7483 30.3217 46.6071 30.7586 46.2875C30.9882 46.1165 31.2473 45.9975 31.5436 46.005C31.8398 46.0198 31.9879 46.1536 32.0027 46.4584C32.0175 46.5699 32.0101 46.6591 32.0175 46.7483Z" fill="white"/>
<path d="M28.8409 46.1091C28.7817 46.1091 28.7224 46.1016 28.6632 46.1091C28.3818 46.1314 28.1966 46.005 28.0929 45.7523C28.0485 45.6408 27.9671 45.5887 27.8708 45.5293C27.7967 45.4921 27.7449 45.4995 27.7079 45.5739C27.6634 45.6705 27.619 45.7671 27.5894 45.8712C27.4857 46.2429 27.345 46.3618 26.9525 46.399C26.8266 46.4064 26.7081 46.4213 26.5822 46.4436C26.249 46.4882 25.9454 46.6294 25.6936 46.8524C25.6047 46.9268 25.5159 47.0085 25.4122 47.0754C25.1604 47.2539 24.7161 47.1052 24.6124 46.8078C24.5754 46.7112 24.5828 46.5997 24.6346 46.5179C24.7087 46.4064 24.7827 46.2875 24.879 46.1983C25.1234 45.9604 25.39 45.7374 25.6417 45.4995C25.738 45.4103 25.8195 45.3137 25.9009 45.2096C26.0268 45.0386 26.0416 44.8528 25.9306 44.6595C25.9083 44.6224 25.8935 44.5852 25.8787 44.548C25.8269 44.4068 25.8861 44.2804 26.0268 44.2358C26.1009 44.2135 26.1749 44.1986 26.2564 44.1986C26.4267 44.1986 26.597 44.2061 26.7674 44.2135C26.8414 44.2135 26.9081 44.2284 26.9821 44.2284C27.2043 44.2284 27.308 44.1392 27.3524 43.9236C27.3672 43.8567 27.3746 43.7972 27.3894 43.7303C27.4487 43.5296 27.5746 43.3958 27.7819 43.3735C27.9745 43.3512 28.1744 43.3289 28.3669 43.3363C28.9372 43.3661 29.4555 43.2174 29.9517 42.9572C30.1517 42.8531 30.3664 42.7862 30.5664 42.6822C30.87 42.5335 31.2773 42.8754 31.2106 43.2248C31.1958 43.3066 31.1662 43.3884 31.144 43.4627C31.0996 43.6114 31.0551 43.7601 31.0181 43.9087C30.9737 44.0871 31.0107 44.2432 31.144 44.3845C31.218 44.4588 31.2773 44.5555 31.3143 44.6521C31.4106 44.8751 31.381 45.0981 31.2329 45.2914C31.1588 45.3806 31.0699 45.4624 30.9737 45.5293C30.5145 45.8563 29.9887 46.005 29.4333 46.0719C29.2334 46.0942 29.0334 46.1016 28.8335 46.1165C28.8483 46.1165 28.8409 46.1165 28.8409 46.1091Z" fill="white"/>
<path d="M28.9375 54.1672C28.7598 54.1672 28.582 54.1821 28.4043 54.1672C28.1747 54.1449 28.0859 54.0409 28.0637 53.8104C28.0414 53.58 28.1007 53.3793 28.2414 53.1934C28.3969 52.9927 28.545 52.7995 28.6857 52.5913C28.7524 52.4947 28.7968 52.3832 28.8338 52.2717C28.8709 52.1527 28.8486 52.1081 28.7153 52.0635C28.6339 52.0338 28.6043 51.9818 28.6043 51.9C28.6043 51.7736 28.5968 51.6472 28.5968 51.5283C28.5968 51.3202 28.6931 51.2012 28.8931 51.1715C29.0116 51.1492 29.1374 51.1566 29.2633 51.1492C29.3966 51.1417 29.5225 51.1492 29.6558 51.1417C29.7743 51.1343 29.8187 51.0748 29.8336 50.9559C29.841 50.9039 29.841 50.8518 29.8336 50.7924C29.8113 50.5768 29.878 50.3835 29.952 50.1902C29.9817 50.1085 30.0261 50.0713 30.1224 50.0639C30.389 50.0341 30.6482 49.997 30.9147 49.9672C31.2406 49.9301 31.5368 49.826 31.796 49.6253C32.0552 49.432 32.3292 49.2462 32.581 49.0455C32.7069 48.9488 32.8254 48.9414 32.9587 48.9934C33.166 49.0752 33.3215 49.1941 33.3437 49.432C33.3734 49.6848 33.4104 49.9375 33.4178 50.1902C33.4252 50.3612 33.477 50.4876 33.6177 50.5768C33.6696 50.614 33.7214 50.6586 33.7658 50.7032C34.025 50.9708 34.0472 51.3276 33.8177 51.6249C33.7658 51.6918 33.7066 51.7513 33.64 51.8033C33.2549 52.1007 32.8476 52.346 32.3736 52.4724C32.1885 52.5244 31.9959 52.5839 31.8108 52.6433C31.4924 52.74 31.2406 52.6582 31.0481 52.3906C31.0258 52.3609 31.011 52.3237 30.9814 52.3014C30.9073 52.2419 30.8111 52.175 30.7222 52.2196C30.6704 52.2494 30.6408 52.346 30.6259 52.4129C30.6037 52.5541 30.6037 52.6954 30.5963 52.8366C30.5889 52.9927 30.5149 53.0894 30.3593 53.134C30.2853 53.1563 30.2112 53.1711 30.1372 53.2009C29.9891 53.2529 29.8336 53.2975 29.6854 53.3644C29.3892 53.4982 29.1449 53.6841 29.0041 53.9888C29.0116 54.0557 28.9745 54.1078 28.9375 54.1672Z" fill="white"/>
<path d="M32.0481 53.7506C32.0333 53.3938 32.1962 53.2005 32.5517 53.141C32.8035 53.0964 33.0552 53.0593 33.2996 52.9998C33.6106 52.9255 33.8772 52.7619 34.1068 52.5389C34.2475 52.4051 34.4104 52.2936 34.5734 52.1895C34.7437 52.078 34.9658 52.1301 35.0769 52.301C35.2398 52.5538 35.3657 52.8214 35.3139 53.141C35.2769 53.3938 35.3657 53.5796 35.5953 53.6986C36.0322 53.929 35.9952 54.375 35.7582 54.6649C35.7138 54.717 35.6694 54.7616 35.6175 54.8062C35.1362 55.1853 34.6104 55.4678 33.9957 55.557C33.855 55.5793 33.6995 55.557 33.5588 55.5347C33.4329 55.5198 33.3292 55.4455 33.2478 55.3488C33.2182 55.3191 33.1959 55.2819 33.1663 55.2522C33.0404 55.1481 32.9442 55.1779 32.8997 55.334C32.8849 55.3934 32.8849 55.4529 32.8849 55.5124C32.8775 55.5942 32.8775 55.6759 32.8701 55.7577C32.8553 55.8692 32.796 55.9435 32.6998 55.9881C32.6257 56.0253 32.5443 56.0476 32.4628 56.0699C32.2925 56.1294 32.1147 56.1888 31.9444 56.2557C31.7 56.3598 31.5223 56.5308 31.4112 56.7761C31.2853 57.066 31.1002 57.118 30.8262 56.9619C30.7744 56.9322 30.7299 56.895 30.6781 56.8579C30.4633 56.672 30.4189 56.4788 30.5522 56.226C30.604 56.1294 30.6707 56.0327 30.7299 55.9361C30.8484 55.7503 30.9817 55.5718 31.1002 55.386C31.2705 55.1258 31.2409 54.8285 31.0336 54.598C31.0187 54.5832 31.0039 54.5757 30.9965 54.5609C30.8558 54.4048 30.8706 54.2933 31.0558 54.1892C31.1446 54.1372 31.2483 54.0926 31.3446 54.0554C31.4631 54.0108 31.5741 54.0182 31.6926 54.0628C31.9444 54.1595 32.0481 54.0851 32.0407 53.8175C32.0481 53.7952 32.0481 53.7729 32.0481 53.7506Z" fill="white"/>
</svg>
