<svg width="11" height="20" viewBox="0 0 11 20" fill="none" xmlns="http://www.w3.org/2000/svg">
<path d="M0.542874 1.67006L8.66287 10.0001L0.542875 18.3301C0.397504 18.4789 0.31612 18.6787 0.31612 18.8867C0.31612 19.0948 0.397504 19.2946 0.542875 19.4434C0.613482 19.5155 0.697758 19.5727 0.790768 19.6118C0.883778 19.6509 0.983653 19.671 1.08454 19.671C1.18543 19.671 1.2853 19.6509 1.37831 19.6118C1.47132 19.5727 1.5556 19.5155 1.62621 19.4434L10.2662 10.5817C10.4179 10.4261 10.5028 10.2174 10.5028 10.0001C10.5028 9.78275 10.4179 9.57402 10.2662 9.4184L1.62787 0.556724C1.55721 0.484152 1.47273 0.42647 1.37941 0.387083C1.28609 0.347698 1.18583 0.327408 1.08454 0.327408C0.983251 0.327408 0.882987 0.347698 0.789668 0.387083C0.696349 0.42647 0.611867 0.484152 0.541207 0.556725C0.395836 0.705553 0.314452 0.905346 0.314452 1.11339C0.314452 1.32144 0.395836 1.52123 0.541207 1.67006L0.542874 1.67006Z" fill="#0097DB"/>
</svg>
