<svg width="232" height="122" viewBox="0 0 232 122" fill="none" xmlns="http://www.w3.org/2000/svg">
<path d="M123.837 35.8128V37.6057H123.416C123.008 37.6057 122.769 37.634 122.67 37.6763C122.515 37.7469 122.417 37.8457 122.347 37.9587C122.276 38.0716 122.248 38.3116 122.248 38.6645V42.1233L126.285 38.3681C126.468 38.1987 126.566 38.0857 126.608 38.0292C126.651 37.9728 126.665 37.9163 126.665 37.874C126.665 37.7892 126.622 37.7187 126.552 37.6763C126.482 37.634 126.299 37.6057 126.004 37.6057H125.483V35.8128H131.334V37.6057H131.137C130.87 37.6057 130.673 37.6198 130.575 37.6481C130.476 37.6763 130.336 37.7328 130.195 37.8316C130.04 37.9304 129.843 38.0716 129.604 38.2834L126.482 41.008L130.209 46.0621C130.533 46.4997 130.772 46.7539 130.912 46.8386C131.109 46.9515 131.39 47.008 131.77 47.008H132.023V48.8009H125.483V47.008H125.736C126.215 47.008 126.496 46.9797 126.608 46.9374C126.707 46.895 126.763 46.8386 126.763 46.768C126.763 46.6974 126.665 46.5139 126.482 46.2315L124.203 42.9704L122.234 44.6786V45.9915C122.234 46.3162 122.262 46.5421 122.333 46.655C122.389 46.7821 122.487 46.8668 122.6 46.9233C122.712 46.9797 122.951 47.008 123.289 47.008H123.823V48.8009H117.508V47.008H117.986C118.352 47.008 118.605 46.9797 118.718 46.9233C118.844 46.8668 118.929 46.768 118.985 46.6409C119.041 46.5421 119.055 46.2739 119.055 45.8786V38.7775C119.055 38.3963 119.027 38.1281 118.971 38.001C118.915 37.874 118.83 37.7751 118.704 37.7045C118.577 37.634 118.352 37.6057 118.029 37.6057H117.494V35.8128H123.837Z" fill="#3344BB"/>
<path d="M139.52 39.2295L137.031 45.9776C136.932 46.2459 136.876 46.4294 136.876 46.5282C136.876 46.7117 136.96 46.8388 137.129 46.9094C137.298 46.98 137.65 47.0223 138.184 47.0223V48.8152H133.191V47.0223C133.613 47.0223 133.922 46.9658 134.091 46.8388C134.26 46.7258 134.429 46.4576 134.583 46.0623L138.578 35.8271H141.475L145.385 45.8647C145.568 46.3305 145.737 46.627 145.892 46.7964C146.046 46.9517 146.37 47.0364 146.848 47.0364V48.8293H140.716V47.0364L141.081 47.0223C141.7 47.0082 141.996 46.8529 141.996 46.5564C141.996 46.4294 141.939 46.2035 141.813 45.8647L139.52 39.2295Z" fill="#3344BB"/>
<path d="M154.247 35.8128V37.6057H153.657C153.249 37.6057 152.982 37.6622 152.855 37.7892C152.728 37.9163 152.672 38.241 152.672 38.7634V43.0974L157.384 38.6645C157.384 38.1422 157.314 37.8316 157.173 37.7469C157.032 37.6622 156.751 37.6198 156.301 37.6198H155.809V35.8269H162.138V37.6198H161.604C161.153 37.6198 160.872 37.6904 160.746 37.8175C160.633 37.9445 160.563 38.2692 160.563 38.7916V45.8362C160.563 46.3727 160.633 46.7115 160.76 46.8386C160.886 46.9656 161.224 47.0362 161.758 47.0362H162.124V48.8291H155.795V47.0362H156.217C156.737 47.0362 157.06 46.9656 157.187 46.8244C157.314 46.6833 157.37 46.3586 157.37 45.8362V41.4598L152.658 45.8362C152.658 46.2739 152.686 46.5562 152.728 46.6691C152.771 46.7821 152.855 46.8809 152.982 46.9374C153.108 46.9938 153.389 47.0221 153.797 47.0221H154.233V48.815H147.904V47.0221H148.34C148.846 47.0221 149.17 46.9515 149.282 46.8103C149.409 46.6691 149.465 46.3727 149.465 45.935V38.8763C149.465 38.3257 149.409 37.9728 149.282 37.8316C149.156 37.6904 148.889 37.6198 148.481 37.6198H147.904V35.8128H154.247Z" fill="#3344BB"/>
<path d="M163.883 35.8128H170.199V37.6057H169.622C169.298 37.6057 169.087 37.634 168.961 37.7045C168.848 37.7751 168.764 37.8598 168.708 37.9869C168.651 38.114 168.637 38.3681 168.637 38.7775V41.0363H173.349V38.6081C173.349 38.3116 173.335 38.114 173.293 38.001C173.237 37.8457 173.166 37.7469 173.04 37.6904C172.927 37.634 172.66 37.6057 172.266 37.6057H171.774V35.8128H178.117V37.6057H177.583C177.217 37.6057 176.992 37.634 176.865 37.6904C176.753 37.7469 176.669 37.8316 176.626 37.9445C176.584 38.0575 176.556 38.3257 176.556 38.7634V45.808C176.556 46.2456 176.584 46.528 176.64 46.655C176.697 46.7821 176.795 46.8668 176.908 46.9233C177.034 46.9797 177.301 47.008 177.737 47.008H178.103V48.8009H171.76V47.008H172.182C172.576 47.008 172.843 46.9797 172.969 46.9091C173.11 46.8527 173.208 46.7538 173.251 46.6409C173.307 46.528 173.335 46.2456 173.335 45.808V43.0551H168.623V45.808C168.623 46.2456 168.637 46.5139 168.679 46.6127C168.736 46.768 168.834 46.8668 168.961 46.9233C169.087 46.9797 169.355 46.9938 169.748 46.9938H170.184V48.7868H163.869V46.9938H164.305C164.671 46.9938 164.924 46.9656 165.065 46.895C165.205 46.8386 165.304 46.7397 165.36 46.6409C165.416 46.528 165.444 46.288 165.444 45.9068V38.8481C165.444 38.4104 165.416 38.114 165.36 37.9869C165.304 37.8598 165.219 37.761 165.107 37.6904C164.994 37.634 164.783 37.5916 164.46 37.5916H163.883V35.8128Z" fill="#3344BB"/>
<path d="M186.176 35.8128V37.6057H185.585C185.177 37.6057 184.91 37.6622 184.783 37.7892C184.657 37.9163 184.6 38.241 184.6 38.7634V43.0974L189.312 38.6645C189.312 38.1422 189.242 37.8316 189.101 37.7469C188.961 37.6622 188.679 37.6198 188.229 37.6198H187.737V35.8269H194.066V37.6198H193.532C193.082 37.6198 192.8 37.6904 192.674 37.8175C192.561 37.9445 192.491 38.2692 192.491 38.7916V45.8362C192.491 46.3727 192.561 46.7115 192.688 46.8386C192.815 46.9656 193.152 47.0362 193.687 47.0362H194.052V48.8291H187.723V47.0362H188.145C188.665 47.0362 188.989 46.9656 189.115 46.8244C189.242 46.6833 189.298 46.3586 189.298 45.8362V41.4598L184.586 45.8362C184.586 46.2739 184.614 46.5562 184.657 46.6691C184.699 46.7821 184.783 46.8809 184.91 46.9374C185.036 46.9938 185.318 47.0221 185.726 47.0221H186.162V48.815H179.832V47.0221H180.268C180.775 47.0221 181.098 46.9515 181.211 46.8103C181.337 46.6691 181.394 46.3727 181.394 45.935V38.8763C181.394 38.3257 181.337 37.9728 181.211 37.8316C181.084 37.6904 180.817 37.6198 180.409 37.6198H179.832V35.8128H186.176Z" fill="#3344BB"/>
<path d="M202.153 35.8128V37.6057H201.731C201.323 37.6057 201.084 37.634 200.986 37.6763C200.831 37.7469 200.733 37.8457 200.662 37.9587C200.592 38.0716 200.564 38.3116 200.564 38.6645V42.1233L204.601 38.3681C204.783 38.1987 204.882 38.0857 204.924 38.0292C204.966 37.9728 204.98 37.9163 204.98 37.874C204.98 37.7892 204.938 37.7187 204.868 37.6763C204.797 37.634 204.615 37.6057 204.319 37.6057H203.799V35.8128H209.65V37.6057H209.453C209.186 37.6057 208.989 37.6198 208.89 37.6481C208.792 37.6763 208.651 37.7328 208.511 37.8316C208.356 37.9304 208.159 38.0716 207.92 38.2834L204.797 41.008L208.525 46.0621C208.848 46.4997 209.087 46.7539 209.228 46.8386C209.425 46.9515 209.706 47.008 210.086 47.008H210.339V48.8009H203.799V47.008H204.052C204.53 47.008 204.812 46.9797 204.924 46.9374C205.023 46.895 205.079 46.8386 205.079 46.768C205.079 46.6974 204.98 46.5139 204.797 46.2315L202.519 42.9704L200.55 44.6786V45.9915C200.55 46.3162 200.578 46.5421 200.648 46.655C200.704 46.7821 200.803 46.8668 200.915 46.9233C201.028 46.9797 201.267 47.008 201.605 47.008H202.139V48.8009H195.824V47.008H196.302C196.668 47.008 196.921 46.9797 197.033 46.9233C197.16 46.8668 197.244 46.768 197.301 46.6409C197.357 46.5421 197.371 46.2739 197.371 45.8786V38.7775C197.371 38.3963 197.343 38.1281 197.287 38.001C197.23 37.874 197.146 37.7751 197.019 37.7045C196.893 37.634 196.668 37.6057 196.344 37.6057H195.81V35.8128H202.153Z" fill="#3344BB"/>
<path d="M216.893 35.8128H219.805L223.687 45.8503C223.898 46.3868 224.081 46.7115 224.249 46.8386C224.418 46.9656 224.713 47.0221 225.15 47.0221V48.815H219.017V47.0221L219.383 47.008C219.72 47.008 219.959 46.9656 220.1 46.8668C220.241 46.7821 220.311 46.6692 220.311 46.5421C220.311 46.4292 220.255 46.2033 220.128 45.8503L219.748 44.6645H215.81L215.318 45.9774C215.219 46.2597 215.163 46.4433 215.163 46.528C215.163 46.6268 215.205 46.7115 215.276 46.7962C215.346 46.8809 215.459 46.9374 215.627 46.9797C215.726 47.008 216.021 47.0221 216.499 47.0221V48.815H211.492V47.0221C211.816 47.0221 212.055 46.9939 212.195 46.9374C212.336 46.8809 212.463 46.7962 212.561 46.6833C212.66 46.5703 212.758 46.3586 212.885 46.0621L216.893 35.8128ZM216.499 42.8151H219.073L217.822 39.2434L216.499 42.8151Z" fill="#3344BB"/>
<path d="M120.04 56.1563V54.3634H131.63V56.1563H131.11C130.66 56.1563 130.364 56.2269 130.252 56.3539C130.139 56.481 130.069 56.8057 130.069 57.328V64.3727C130.069 64.9091 130.139 65.2479 130.266 65.375C130.392 65.5021 130.716 65.5726 131.25 65.5726H131.616L132.995 69.3985L131.307 70.0055C131.011 69.2573 130.603 68.6361 130.055 68.1279C129.506 67.6197 128.634 67.3656 127.439 67.3656H121.827C120.631 67.3656 119.759 67.6197 119.225 68.1138C118.69 68.6079 118.254 69.2432 117.959 69.9914L116.285 69.3844L117.663 65.5585H118.142C118.761 65.5585 119.168 65.2338 119.365 64.5985L121.644 57.3986C121.7 57.201 121.742 57.0598 121.742 56.9327C121.742 56.4104 121.377 56.1563 120.631 56.1563H120.04ZM126.862 65.3326V56.3963H124.049L121.686 64.4856C121.644 64.6268 121.616 64.7538 121.616 64.8527C121.616 65.1774 121.911 65.3326 122.516 65.3326H126.862Z" fill="#3344BB"/>
<path d="M140.886 54.1375C142.94 54.1375 144.599 54.7586 145.879 56.0151C147.145 57.2715 147.792 58.8809 147.792 60.8433C147.792 62.1703 147.497 63.342 146.92 64.3585C146.343 65.3891 145.542 66.1797 144.515 66.7303C143.488 67.2808 142.25 67.5632 140.802 67.5632C138.889 67.5632 137.328 67.0408 136.104 65.982C134.627 64.7114 133.896 63.0032 133.896 60.8715C133.896 58.895 134.543 57.2715 135.837 56.0151C137.117 54.7727 138.805 54.1375 140.886 54.1375ZM140.928 56.2127C139.944 56.2127 139.156 56.5798 138.579 57.328C137.848 58.2598 137.482 59.4597 137.482 60.928C137.482 62.3962 137.82 63.5679 138.509 64.415C139.1 65.1491 139.873 65.5161 140.844 65.5161C141.814 65.5161 142.588 65.1491 143.179 64.415C143.868 63.5397 144.206 62.3679 144.206 60.8997C144.206 59.8691 144.065 59.008 143.77 58.3021C143.474 57.5962 143.08 57.0739 142.574 56.7209C142.054 56.3821 141.519 56.2127 140.928 56.2127Z" fill="#3344BB"/>
<path d="M155.823 54.3628V56.1558H155.401C154.993 56.1558 154.754 56.184 154.656 56.2264C154.501 56.2969 154.403 56.3958 154.332 56.5087C154.262 56.6216 154.234 56.8616 154.234 57.2146V60.6734L158.271 56.9181C158.453 56.7487 158.552 56.6358 158.594 56.5793C158.636 56.5228 158.65 56.4664 158.65 56.424C158.65 56.3393 158.608 56.2687 158.538 56.2264C158.467 56.184 158.285 56.1558 157.989 56.1558H157.469V54.3628H163.32V56.1558H163.123C162.856 56.1558 162.659 56.1699 162.56 56.1981C162.462 56.2263 162.321 56.2828 162.181 56.3816C162.026 56.4805 161.829 56.6216 161.59 56.8334L158.467 59.5581L162.195 64.6121C162.518 65.0498 162.757 65.3039 162.898 65.3886C163.095 65.5016 163.376 65.558 163.756 65.558H164.009V67.3509H157.469V65.558H157.722C158.2 65.558 158.482 65.5298 158.594 65.4874C158.693 65.4451 158.749 65.3886 158.749 65.318C158.749 65.2474 158.65 65.0639 158.467 64.7816L156.189 61.5204L154.22 63.2286V64.5416C154.22 64.8663 154.248 65.0921 154.318 65.2051C154.374 65.3321 154.473 65.4168 154.585 65.4733C154.698 65.5298 154.937 65.558 155.275 65.558H155.809V67.3509H149.494V65.558H149.972C150.338 65.558 150.591 65.5298 150.703 65.4733C150.83 65.4168 150.914 65.318 150.971 65.191C151.027 65.0921 151.041 64.8239 151.041 64.4286V57.3275C151.041 56.9463 151.013 56.6781 150.957 56.5511C150.9 56.424 150.816 56.3252 150.689 56.2546C150.563 56.184 150.338 56.1558 150.014 56.1558H149.48V54.3628H155.823Z" fill="#3344BB"/>
<path d="M166.019 53.9254H167.243L167.37 54.363H174.67L174.824 53.9254H176.062L177.665 58.4853L175.935 59.0924C175.556 58.33 175.274 57.8359 175.106 57.61C174.782 57.1583 174.402 56.8053 173.966 56.5371C173.643 56.3395 173.319 56.2406 173.01 56.2406C172.855 56.2406 172.757 56.283 172.7 56.3536C172.644 56.4242 172.616 56.5936 172.616 56.8477V64.3158C172.616 64.7535 172.63 65.0358 172.658 65.1488C172.686 65.2617 172.743 65.3464 172.813 65.417C172.883 65.4876 172.996 65.53 173.122 65.5441C173.249 65.5582 173.601 65.5723 174.163 65.5723V67.3652H167.848V65.5723H168.228C168.65 65.5723 168.917 65.5441 169.043 65.4876C169.156 65.4311 169.254 65.3464 169.311 65.2052C169.367 65.0782 169.409 64.7958 169.409 64.3723V56.7348C169.409 56.523 169.381 56.3818 169.339 56.3254C169.283 56.2689 169.184 56.2406 169.029 56.2406C168.706 56.2406 168.354 56.3677 167.946 56.6077C167.538 56.8477 167.201 57.1865 166.891 57.6383C166.765 57.8077 166.512 58.3018 166.104 59.1065L164.402 58.4994L166.019 53.9254Z" fill="#3344BB"/>
<path d="M185.739 54.1375C187.792 54.1375 189.452 54.7586 190.732 56.0151C191.998 57.2715 192.645 58.8809 192.645 60.8433C192.645 62.1703 192.349 63.342 191.773 64.3585C191.196 65.3891 190.394 66.1797 189.368 66.7303C188.341 67.2808 187.103 67.5632 185.654 67.5632C183.741 67.5632 182.18 67.0408 180.957 65.982C179.48 64.7114 178.748 63.0032 178.748 60.8715C178.748 58.895 179.395 57.2715 180.689 56.0151C181.969 54.7727 183.657 54.1375 185.739 54.1375ZM185.781 56.2127C184.796 56.2127 184.009 56.5798 183.432 57.328C182.701 58.2598 182.335 59.4597 182.335 60.928C182.335 62.3962 182.672 63.5679 183.362 64.415C183.952 65.1491 184.726 65.5161 185.697 65.5161C186.667 65.5161 187.441 65.1491 188.031 64.415C188.721 63.5397 189.058 62.3679 189.058 60.8997C189.058 59.8691 188.917 59.008 188.622 58.3021C188.327 57.5962 187.933 57.0739 187.427 56.7209C186.906 56.3821 186.372 56.2127 185.781 56.2127Z" fill="#3344BB"/>
<path d="M194.416 54.3634H201.266C202.138 54.3634 202.855 54.4481 203.432 54.6316C204.009 54.8151 204.501 55.0834 204.909 55.4363C205.317 55.8033 205.64 56.2269 205.865 56.721C206.091 57.2151 206.203 57.7374 206.203 58.288C206.203 59.4033 205.781 60.3351 204.923 61.0833C204.079 61.8315 202.898 62.2127 201.407 62.2127H199.199V64.6409C199.199 64.9515 199.227 65.135 199.269 65.2197C199.325 65.3326 199.409 65.4315 199.522 65.4738C199.635 65.5303 199.831 65.5585 200.099 65.5585H200.76V67.3515H194.444V65.5585H194.88C195.26 65.5585 195.527 65.5303 195.64 65.4738C195.767 65.4174 195.851 65.3326 195.907 65.2056C195.964 65.0785 195.992 64.8385 195.992 64.4574V57.3139C195.992 56.9186 195.964 56.6504 195.921 56.5233C195.865 56.3963 195.795 56.2974 195.682 56.241C195.57 56.1845 195.373 56.1563 195.063 56.1563H194.444V54.3634H194.416ZM199.184 60.1798H200.296C200.971 60.1798 201.463 60.1092 201.787 59.968C202.096 59.8268 202.349 59.6151 202.546 59.3186C202.743 59.0362 202.827 58.6833 202.827 58.288C202.827 57.6951 202.602 57.2151 202.138 56.8763C201.801 56.6221 201.294 56.481 200.619 56.481H199.184V60.1798Z" fill="#3344BB"/>
<path d="M211.254 54.3634H214.165L218.047 64.4009C218.258 64.9374 218.441 65.2621 218.61 65.3891C218.779 65.5162 219.074 65.5726 219.51 65.5726V67.3656H213.378V65.5726L213.743 65.5585C214.081 65.5585 214.32 65.5162 214.461 65.4173C214.601 65.3185 214.672 65.2197 214.672 65.0926C214.672 64.9797 214.615 64.7538 214.489 64.4009L214.109 63.215H210.171L209.679 64.528C209.58 64.8103 209.524 64.9938 209.524 65.0785C209.524 65.1774 209.566 65.2621 209.636 65.3468C209.707 65.4315 209.819 65.4879 209.988 65.5303C210.086 65.5585 210.382 65.5726 210.86 65.5726V67.3656H205.853V65.5726C206.176 65.5726 206.415 65.5444 206.556 65.4879C206.697 65.4315 206.823 65.3468 206.922 65.2338C207.02 65.1209 207.119 64.9091 207.245 64.6127L211.254 54.3634ZM210.86 61.3656H213.434L212.182 57.7939L210.86 61.3656Z" fill="#3344BB"/>
<path d="M117.578 72.9134H124.428C125.3 72.9134 126.017 72.9981 126.594 73.1816C127.171 73.3651 127.663 73.6334 128.071 73.9863C128.479 74.3534 128.802 74.7769 129.027 75.271C129.252 75.7651 129.365 76.2875 129.365 76.8381C129.365 77.9533 128.943 78.8851 128.085 79.6333C127.241 80.3816 126.059 80.7627 124.569 80.7627H122.346V83.1909C122.346 83.5015 122.374 83.6851 122.417 83.7698C122.473 83.8827 122.557 83.9815 122.67 84.0239C122.782 84.0803 122.979 84.1086 123.246 84.1086H123.907V85.9015H117.592V84.1086H118.028C118.408 84.1086 118.675 84.0803 118.788 84.0239C118.914 83.9674 118.999 83.8827 119.055 83.7556C119.111 83.6286 119.139 83.3886 119.139 83.0074V75.8639C119.139 75.4687 119.111 75.2004 119.069 75.0734C119.013 74.9463 118.942 74.8475 118.83 74.791C118.717 74.7346 118.52 74.7063 118.211 74.7063H117.592V72.9134H117.578ZM122.346 78.7298H123.457C124.132 78.7298 124.625 78.6592 124.948 78.518C125.258 78.3769 125.511 78.1651 125.708 77.8686C125.905 77.5863 125.989 77.2334 125.989 76.8381C125.989 76.2451 125.764 75.7651 125.3 75.4263C124.962 75.1722 124.456 75.031 123.781 75.031H122.346V78.7298Z" fill="#3344BB"/>
<path d="M134.416 72.9134H137.327L141.209 82.9509C141.42 83.4874 141.603 83.8121 141.772 83.9392C141.941 84.0662 142.236 84.1227 142.672 84.1227V85.9156H136.554V84.1227L136.92 84.1086C137.257 84.1086 137.496 84.0662 137.637 83.9674C137.777 83.8686 137.848 83.7698 137.848 83.6427C137.848 83.5298 137.792 83.3039 137.665 82.9509L137.285 81.7651H133.347L132.855 83.078C132.756 83.3603 132.7 83.5439 132.7 83.6286C132.7 83.7274 132.742 83.8121 132.812 83.8968C132.883 83.9815 132.995 84.038 133.164 84.0803C133.263 84.1086 133.558 84.1227 134.036 84.1227V85.9156H129.029V84.1227C129.352 84.1227 129.592 84.0945 129.732 84.038C129.873 83.9815 129.999 83.8968 130.098 83.7839C130.196 83.6709 130.295 83.4592 130.421 83.1627L134.416 72.9134ZM134.022 79.9157H136.596L135.344 76.3439L134.022 79.9157Z" fill="#3344BB"/>
<path d="M144.696 72.4759H145.919L146.046 72.9136H153.346L153.5 72.4759H154.738L156.342 77.0359L154.612 77.6429C154.232 76.8806 153.951 76.3865 153.782 76.1606C153.458 75.7088 153.079 75.3559 152.642 75.0877C152.319 74.89 151.995 74.7912 151.686 74.7912C151.531 74.7912 151.433 74.8336 151.377 74.9041C151.32 74.9747 151.292 75.1441 151.292 75.3983V82.8664C151.292 83.304 151.306 83.5864 151.334 83.6993C151.363 83.8123 151.419 83.897 151.489 83.9676C151.559 84.0381 151.672 84.0805 151.799 84.0946C151.925 84.1087 152.277 84.1229 152.839 84.1229V85.9158H146.524V84.1229H146.904C147.326 84.1229 147.593 84.0946 147.72 84.0381C147.832 83.9817 147.931 83.897 147.987 83.7558C148.043 83.6287 148.085 83.3464 148.085 82.9229V75.2853C148.085 75.0736 148.057 74.9324 148.015 74.8759C147.959 74.8194 147.86 74.7912 147.706 74.7912C147.382 74.7912 147.03 74.9183 146.623 75.1583C146.215 75.3983 145.877 75.7371 145.568 76.1888C145.441 76.3582 145.188 76.8524 144.78 77.657L143.078 77.05L144.696 72.4759Z" fill="#3344BB"/>
<path d="M163.756 72.9134V74.7063H163.165C162.757 74.7063 162.49 74.7628 162.363 74.8898C162.237 75.0169 162.18 75.3416 162.18 75.8639V80.1839L166.892 75.751C166.892 75.2287 166.822 74.9322 166.681 74.8334C166.541 74.7487 166.259 74.7063 165.809 74.7063H165.317V72.9134H171.646V74.7063H171.112C170.662 74.7063 170.38 74.7769 170.254 74.904C170.141 75.031 170.071 75.3557 170.071 75.8781V82.9227C170.071 83.4592 170.141 83.798 170.268 83.925C170.394 84.0521 170.732 84.1227 171.266 84.1227H171.632V85.9156H165.303V84.1227H165.725C166.245 84.1227 166.569 84.0521 166.695 83.9109C166.822 83.7698 166.878 83.445 166.878 82.9227V78.5463L162.166 82.9227C162.166 83.3603 162.194 83.6427 162.237 83.7556C162.279 83.8686 162.363 83.9674 162.49 84.0239C162.616 84.0803 162.898 84.1086 163.306 84.1086H163.742V85.9015H157.412V84.1086H157.848C158.355 84.1086 158.678 84.038 158.791 83.8968C158.917 83.7556 158.973 83.4592 158.973 83.0215V75.9628C158.973 75.4122 158.917 75.0593 158.791 74.9181C158.664 74.7769 158.397 74.7063 157.989 74.7063H157.412V72.9134H163.756Z" fill="#3344BB"/>
<path d="M173.389 72.9134H179.705V74.7063H179.128C178.804 74.7063 178.594 74.7345 178.467 74.8051C178.354 74.8757 178.27 74.9604 178.214 75.0875C178.157 75.2145 178.143 75.4687 178.143 75.8781V78.1369H182.855V75.7087C182.855 75.4122 182.841 75.2145 182.799 75.1016C182.743 74.9463 182.672 74.8475 182.546 74.791C182.433 74.7346 182.166 74.7063 181.772 74.7063H181.28V72.9134H187.623V74.7063H187.089C186.723 74.7063 186.498 74.7346 186.372 74.791C186.259 74.8475 186.175 74.9322 186.132 75.0451C186.09 75.1581 186.062 75.4263 186.062 75.8639V82.9086C186.062 83.3462 186.09 83.6286 186.147 83.7556C186.203 83.8827 186.301 83.9674 186.414 84.0239C186.54 84.0803 186.808 84.1086 187.244 84.1086H187.609V85.9015H181.266V84.1086H181.688C182.082 84.1086 182.349 84.0803 182.476 84.0098C182.616 83.9533 182.715 83.8545 182.757 83.7415C182.813 83.6286 182.841 83.3462 182.841 82.9086V80.1557H178.129V82.9086C178.129 83.3462 178.143 83.6145 178.186 83.7133C178.242 83.8686 178.34 83.9674 178.467 84.0239C178.594 84.0803 178.861 84.0945 179.255 84.0945H179.691V85.8874H173.375V84.0945H173.811C174.177 84.0945 174.43 84.0662 174.571 83.9956C174.712 83.9392 174.81 83.8404 174.866 83.7415C174.922 83.6286 174.951 83.3886 174.951 83.0074V75.9487C174.951 75.511 174.922 75.2145 174.866 75.0875C174.81 74.9604 174.726 74.8616 174.613 74.791C174.501 74.7346 174.29 74.6922 173.966 74.6922H173.389V72.9134Z" fill="#3344BB"/>
<path d="M196.343 72.688C198.397 72.688 200.056 73.3092 201.336 74.5656C202.616 75.8221 203.249 77.4315 203.249 79.3938C203.249 80.7209 202.954 81.8926 202.377 82.9091C201.801 83.9397 200.999 84.7302 199.972 85.2808C198.945 85.8314 197.708 86.1138 196.259 86.1138C194.346 86.1138 192.785 85.5914 191.561 84.5326C190.084 83.262 189.353 81.5538 189.353 79.422C189.353 77.4456 190 75.8221 191.294 74.5656C192.574 73.3233 194.262 72.688 196.343 72.688ZM196.385 74.7633C195.401 74.7633 194.613 75.1303 194.037 75.8786C193.305 76.8103 192.939 78.0103 192.939 79.4785C192.939 80.9467 193.277 82.1185 193.966 82.9655C194.557 83.6997 195.331 84.0667 196.301 84.0667C197.272 84.0667 198.045 83.6997 198.636 82.9655C199.325 82.0903 199.663 80.9185 199.663 79.4503C199.663 78.4197 199.522 77.5585 199.227 76.8527C198.931 76.1468 198.537 75.6244 198.031 75.2715C197.511 74.9327 196.962 74.7633 196.385 74.7633Z" fill="#3344BB"/>
<path d="M205.009 74.7063V72.9134H212.365C213.49 72.9134 214.376 73.0404 215.023 73.3087C215.67 73.5769 216.162 73.9581 216.5 74.4381C216.852 74.9322 217.02 75.4687 217.02 76.0616C217.02 76.4851 216.922 76.8945 216.739 77.2757C216.556 77.6569 216.289 77.9957 215.951 78.2922C215.614 78.5886 215.15 78.8286 214.587 79.0263C215.192 79.1816 215.656 79.351 215.979 79.5345C216.444 79.7886 216.809 80.1557 217.077 80.6357C217.344 81.1016 217.484 81.6239 217.484 82.2027C217.484 82.8945 217.273 83.5298 216.866 84.1086C216.458 84.6874 215.867 85.1251 215.107 85.4357C214.348 85.7462 213.237 85.8874 211.788 85.8874H205.009V84.0945H205.515C205.853 84.0945 206.092 84.0662 206.204 84.0098C206.331 83.9533 206.415 83.8686 206.457 83.7557C206.514 83.6427 206.528 83.4027 206.528 83.0216V75.7793C206.528 75.3981 206.5 75.144 206.457 75.0451C206.401 74.9463 206.317 74.8616 206.204 74.791C206.078 74.7346 205.853 74.6922 205.515 74.6922H205.009V74.7063ZM209.735 78.1792H211.155C211.901 78.1792 212.449 78.1228 212.801 77.9957C213.152 77.8687 213.42 77.6851 213.602 77.431C213.785 77.1769 213.87 76.8945 213.87 76.5557C213.87 76.2169 213.785 75.9204 213.617 75.6804C213.448 75.4404 213.195 75.271 212.885 75.1581C212.562 75.0593 211.985 75.0028 211.155 75.0028H209.735V78.1792ZM209.735 80.0851V82.8945C209.735 83.2898 209.763 83.5298 209.777 83.5862C209.805 83.671 209.861 83.7274 209.931 83.7698C210.002 83.798 210.199 83.8263 210.508 83.8263H211.45C211.999 83.8263 212.449 83.7698 212.815 83.671C213.18 83.5721 213.49 83.3604 213.743 83.0357C213.996 82.711 214.123 82.3298 214.123 81.878C214.123 81.4969 214.038 81.1722 213.856 80.9039C213.673 80.6357 213.406 80.438 213.054 80.2969C212.702 80.1557 212.154 80.0851 211.408 80.0851H209.735Z" fill="#3344BB"/>
<path d="M223.744 72.9134H226.655L230.537 82.9509C230.748 83.4874 230.931 83.8121 231.1 83.9392C231.269 84.0662 231.564 84.1227 232 84.1227V85.9156H225.868V84.1227L226.233 84.1086C226.571 84.1086 226.81 84.0662 226.951 83.9674C227.091 83.8686 227.162 83.7698 227.162 83.6427C227.162 83.5298 227.105 83.3039 226.979 82.9509L226.599 81.7651H222.661L222.168 83.078C222.07 83.3603 222.014 83.5439 222.014 83.6286C222.014 83.7274 222.056 83.8121 222.126 83.8968C222.197 83.9815 222.309 84.038 222.478 84.0803C222.576 84.1086 222.872 84.1227 223.35 84.1227V85.9156H218.343V84.1227C218.666 84.1227 218.905 84.0945 219.046 84.038C219.187 83.9815 219.313 83.8968 219.412 83.7839C219.51 83.6709 219.609 83.4592 219.735 83.1627L223.744 72.9134ZM223.364 79.9157H225.938L224.686 76.3439L223.364 79.9157Z" fill="#3344BB"/>
<path d="M99.2115 64.7957C99.1975 64.9369 99.1553 65.078 99.1553 65.2192C99.099 66.5039 98.9302 67.7745 98.7193 69.0451C98.4661 70.5697 98.1145 72.0803 97.6925 73.5627C97.3971 74.5791 97.1158 75.5956 96.7923 76.612C96.4548 77.6708 96.0891 78.7297 95.6952 79.7743C95.4843 80.339 95.2311 80.8755 94.9779 81.412C94.5982 82.2167 94.2325 83.0355 93.8105 83.8119C93.3463 84.7014 92.8541 85.5766 92.3196 86.4237C91.6304 87.5107 90.9271 88.5837 90.1817 89.6284C89.4222 90.6872 88.6204 91.7177 87.7906 92.7342C86.5247 94.3012 85.1463 95.7836 83.7117 97.1953C81.4894 99.3835 79.1124 101.374 76.3978 102.941C76.2993 102.998 76.2009 103.054 76.0883 103.111C74.9491 101.473 73.8238 99.8494 72.6846 98.2259C72.783 98.1694 72.8674 98.113 72.9518 98.0565C75.146 96.7859 77.2698 95.4165 79.2811 93.8636C80.2376 93.1295 81.1378 92.3389 82.052 91.5483C82.8818 90.8142 83.6976 90.0801 84.4712 89.3036C85.1182 88.6542 85.6949 87.9484 86.2716 87.2425C86.9889 86.3813 87.7203 85.5202 88.3954 84.6166C89.0143 83.7837 89.605 82.9367 90.1676 82.0614C90.674 81.2708 91.1522 80.4661 91.6023 79.6473C92.1367 78.6732 92.6431 77.6708 93.1354 76.6685C93.4307 76.0614 93.7121 75.4403 93.9652 74.8191C94.5841 73.2944 95.1889 71.7556 95.6109 70.1603C95.9766 68.7768 96.2438 67.3651 96.5813 65.9816C96.9752 64.3157 97.158 62.6216 97.2987 60.9275C97.5097 58.6122 97.4815 56.2828 97.3409 53.9535C97.2284 52.0758 97.0033 50.2264 96.6376 48.3912C96.1735 46.0618 95.4983 43.7889 94.6685 41.5724C94.3169 40.6265 93.8527 39.723 93.4308 38.7913C93.2901 38.4666 93.1494 38.156 92.9947 37.8454C92.8822 37.6195 92.84 37.4078 92.9385 37.1678C92.9807 37.0689 93.0088 36.956 93.065 36.7866C93.2057 37.0407 93.3182 37.2383 93.4308 37.4501C94.9357 40.3442 96.1313 43.3794 97.1018 46.4994C97.7066 48.4335 98.1707 50.3958 98.5083 52.3864C98.7474 53.7699 98.9162 55.1817 99.1131 56.5793C99.1553 56.8475 99.1272 57.1158 99.1412 57.3981C99.1412 57.5252 99.1694 57.6381 99.1975 57.7652C99.2115 60.1087 99.2115 62.4522 99.2115 64.7957Z" fill="#0097DB"/>
<path d="M72.2049 122C72.1768 121.944 72.1627 121.901 72.1346 121.845C71.9799 121.534 71.9377 121.209 72.0643 120.871C72.5284 119.515 72.6269 118.118 72.2612 116.734C71.9377 115.464 71.2485 114.391 70.278 113.487C69.5325 112.795 68.6886 112.287 67.8306 111.765C67.479 111.553 67.1133 111.341 66.7757 111.101C65.6365 110.282 65.102 109.125 64.9613 107.77C64.9473 107.628 65.0035 107.459 65.0598 107.318C65.5099 106.372 66.1991 105.694 67.1133 105.2C67.6056 104.932 68.0838 104.89 68.6042 105.045C68.7589 105.087 68.8996 105.13 69.0543 105.2C69.5044 105.398 69.9545 105.624 70.4046 105.821C70.8406 106.019 71.136 106.344 71.2766 106.795C71.3751 107.163 71.586 107.445 71.8673 107.671C72.0924 107.854 72.3315 108.038 72.5565 108.207C72.8097 108.391 72.9785 108.631 73.1051 108.927C73.2879 109.393 73.3723 109.873 73.4426 110.367C73.527 111.002 73.6818 111.624 73.8646 112.245C74.0756 112.951 74.1881 113.671 74.174 114.405C74.16 115.421 74.16 116.438 74.1318 117.454C74.1037 118.329 73.9631 119.191 73.7099 120.024C73.6114 120.348 73.4708 120.659 73.3301 120.955C73.1332 121.365 72.88 121.718 72.444 121.887C72.4159 121.901 72.3878 121.958 72.3596 121.986C72.3034 122 72.2612 122 72.2049 122Z" fill="#3344BB"/>
<path d="M43.7372 12.2503C42.8652 12.4197 42.0494 12.575 41.2477 12.7444C38.0689 13.4079 35.0168 14.4243 32.1334 15.9067C30.8816 16.542 29.6298 17.1914 28.4061 17.869C27.7732 18.2219 27.2106 18.6737 26.6058 19.069C26.1698 19.3655 25.6915 19.6196 25.2696 19.9302C23.8209 20.989 22.4143 22.1325 21.0922 23.3466C20.389 23.9819 19.6857 24.6172 19.0246 25.2807C18.5183 25.7889 18.0682 26.3677 17.604 26.9042C16.9711 27.6524 16.3241 28.4007 15.7193 29.163C14.8332 30.2642 14.0033 31.4218 13.2719 32.65C12.6531 33.6665 12.0483 34.7112 11.4716 35.7559C10.6418 37.2523 9.92443 38.7911 9.36182 40.4005C8.95393 41.5581 8.5601 42.7158 8.16627 43.8875C7.63179 45.5252 7.15357 47.191 6.84414 48.8851C6.66129 49.8875 6.5769 50.9039 6.45031 51.9063C6.39405 52.3439 6.35186 52.7815 6.30966 53.2192C6.11275 55.0827 6.14088 56.9603 6.18307 58.8379C6.2112 60.0097 6.28153 61.1814 6.37999 62.3532C6.45031 63.1014 6.59096 63.8496 6.70349 64.5979C6.8582 65.5579 6.99886 66.5178 7.18171 67.4637C7.51927 69.299 8.01155 71.0919 8.67262 72.8284C9.1227 74.0284 9.68531 75.186 10.2198 76.3577C10.8105 77.6565 11.5419 78.8989 12.2311 80.1553C12.9906 81.553 13.8908 82.8659 14.791 84.1647C15.663 85.407 16.6617 86.5223 17.6462 87.68C19.4606 89.7976 21.5142 91.6752 23.6802 93.4258C24.5523 94.1316 25.5087 94.7387 26.437 95.3881C29.6157 97.6328 33.118 99.2422 36.7468 100.583C38.3362 101.176 39.9818 101.614 41.6556 101.939C42.4432 102.094 43.2309 102.221 44.0045 102.362C44.1873 102.39 44.2717 102.503 44.3842 102.616C45.5376 103.957 46.705 105.299 47.8583 106.64C48.9976 107.953 50.1369 109.266 51.2621 110.579C51.3324 110.663 51.4028 110.748 51.5153 110.875C51.3606 110.889 51.2621 110.903 51.1637 110.903C49.3211 110.946 47.4786 110.875 45.636 110.706C42.0635 110.367 38.5612 109.703 35.1293 108.659C31.5849 107.571 28.167 106.146 24.9883 104.226C24.0881 103.675 23.1457 103.181 22.2878 102.574C19.6435 100.725 17.1399 98.7057 14.8754 96.4046C13.3141 94.8093 11.8373 93.1434 10.473 91.3787C9.17897 89.7129 7.99749 87.9764 6.91446 86.1553C6.12681 84.8423 5.36729 83.5012 4.73436 82.1035C4.22801 81.0024 3.74979 79.873 3.31377 78.7436C2.86368 77.586 2.46985 76.4142 2.09009 75.2283C1.83692 74.4378 1.6822 73.6048 1.48529 72.8001C1.13366 71.346 0.866419 69.8637 0.62731 68.3814C0.458528 67.3649 0.317875 66.3484 0.27568 65.332C0.261614 64.9085 0.177223 64.4849 0.135027 64.0614C0.0225055 63.0591 -0.0196915 62.0567 0.008439 61.0544C0.0365695 60.3485 0.0506351 59.6568 0.0506351 58.9509C0.0506351 57.8074 0.163156 56.678 0.289744 55.5486C0.430396 54.3486 0.669505 53.1627 0.922679 51.991C1.16179 50.8192 1.4009 49.6475 1.65407 48.4757C1.75253 48.0098 1.89318 47.5581 2.03383 47.1063C2.3292 46.1604 2.62457 45.2146 2.93401 44.2687C3.14498 43.6334 3.39816 43.0264 3.6654 42.4193C4.17175 41.2617 4.67809 40.104 5.22664 38.9746C5.5642 38.2688 5.94397 37.5629 6.33779 36.8853C7.02699 35.6853 7.73025 34.4994 8.46164 33.3135C8.96799 32.4806 9.55873 31.7183 10.1776 30.97C11.0918 29.883 12.0061 28.7959 12.9203 27.723C13.8768 26.5936 14.9457 25.5772 16.0428 24.5889C17.8572 22.9372 19.756 21.4125 21.7533 20.0149C23.3145 18.9278 24.8758 17.8267 26.5917 16.9937C28.2936 16.1608 30.0096 15.3137 31.7677 14.6079C34.1729 13.6479 36.6343 12.8573 39.1801 12.3773C40.3897 12.1514 41.5993 11.9679 42.8089 11.8126C42.8933 11.7985 42.9918 11.8126 43.0621 11.855C43.2731 11.9397 43.47 12.0808 43.7372 12.2503Z" fill="#0097DB"/>
<path d="M67.3814 7.53529C66.6078 7.57764 65.8483 7.4647 65.0747 7.36588C64.8356 7.33765 64.6387 7.23883 64.4981 7.0553C64.3293 6.82942 64.1886 6.58942 64.0198 6.36354C63.9214 6.23648 63.8229 6.10942 63.6963 6.02472C63.4572 5.88354 63.2885 5.9259 63.19 6.19413C63.1197 6.39178 63.0915 6.60354 63.0634 6.8153C63.0493 6.95647 63.0634 7.11177 63.0494 7.25294C63.0072 7.63411 62.8243 7.81764 62.4305 7.81764C61.8397 7.83176 61.2349 7.81764 60.6442 7.83176C60.0816 7.84588 59.533 7.95881 59.0126 8.19881C58.661 8.36822 58.3797 8.60822 58.1828 8.96116C57.9859 9.3141 57.789 9.35645 57.4373 9.1588C57.1701 9.00351 56.8888 8.8341 56.6356 8.66469C56.3402 8.46705 56.1293 8.18469 56.0027 7.84587C55.9183 7.59176 55.9323 7.38 56.1152 7.18236C56.4668 6.8153 56.8185 6.46236 57.1842 6.10943C57.3951 5.91178 57.6202 5.72825 57.8593 5.54473C58.4078 5.13532 58.4922 4.16121 58.1406 3.63886C58.0421 3.48357 57.9296 3.31416 57.8452 3.14475C57.6764 2.79182 57.8171 2.55182 58.1969 2.55182C58.8157 2.5377 59.4346 2.5377 60.0253 2.76358C60.2644 2.8624 60.5598 2.83417 60.827 2.83417C61.038 2.83417 61.1224 2.73535 61.1365 2.50947C61.1505 2.32594 61.1365 2.14241 61.1224 1.973C61.0943 1.43654 61.2631 1.1683 61.7835 1.02713C62.4586 0.857719 63.1478 0.815367 63.8229 0.998895C65.0044 1.3236 66.0874 1.09772 67.1142 0.490664C67.3955 0.335372 67.6909 0.194198 68.0003 0.081258C68.4504 -0.0740344 68.9005 -0.00344648 69.2943 0.264786C70.0679 0.80125 70.532 1.49301 70.4055 2.49535C70.2929 3.31416 70.5602 3.97768 71.2353 4.4718C71.3197 4.54238 71.4181 4.61297 71.5025 4.68356C71.9808 5.1212 72.0229 5.51649 71.826 6.12354C71.7979 6.20825 71.7557 6.29295 71.6854 6.34942C71.0946 6.85765 70.4617 7.2953 69.6741 7.39412C69.0552 7.47882 68.4223 7.49294 67.7893 7.53529C67.6627 7.54941 67.5221 7.53529 67.3814 7.53529Z" fill="#3344BB"/>
<path d="M73.1051 23.2482C71.8392 23.3187 70.6859 22.8811 69.5185 22.5282C68.9699 22.3729 68.6464 21.9776 68.6042 21.3988C68.6042 21.3282 68.5902 21.2576 68.5761 21.2011C68.5339 20.9894 68.4214 20.8623 68.1963 20.8199C67.9713 20.7776 67.7884 20.8482 67.6759 21.0458C67.5915 21.187 67.5212 21.3423 67.4509 21.4976C67.3524 21.7235 67.254 21.9493 67.1555 22.1752C67.0289 22.4435 66.8883 22.5423 66.5929 22.514C66.0866 22.4717 65.5802 22.4011 65.0879 22.3588C64.5675 22.3164 64.033 22.2317 63.5126 22.3164C63.1188 22.3729 62.7531 22.4858 62.4155 22.7117C62.3593 22.754 62.303 22.7823 62.2468 22.8246C61.6701 23.1776 61.1637 23.107 60.7277 22.5705C60.4745 22.2599 60.362 21.8929 60.3479 21.5117C60.3339 21.2999 60.4183 21.1305 60.573 21.0035C60.7136 20.8905 60.8684 20.7917 61.0231 20.707C61.6841 20.3258 62.3452 19.9447 63.0063 19.5494C63.2172 19.4223 63.4142 19.267 63.5829 19.0835C63.9064 18.7447 64.019 18.3211 63.9346 17.8553C63.9205 17.7282 63.8924 17.6153 63.8924 17.4882C63.8783 17.1776 64.0471 16.98 64.3565 16.98C64.6238 16.98 64.891 17.0082 65.1583 17.0788C65.5802 17.1917 65.9881 17.347 66.4101 17.4741C66.5507 17.5164 66.6773 17.587 66.818 17.6153C67.1415 17.7 67.3384 17.6011 67.4509 17.2906C67.5072 17.1494 67.5212 17.0082 67.5634 16.867C67.7041 16.3447 68.0698 16.0341 68.6042 16.0059C68.8996 15.9917 69.209 16.0482 69.5044 16.0906C69.6591 16.1188 69.8138 16.1753 69.9545 16.2317C70.7281 16.5141 71.5579 16.5847 72.3737 16.6694C72.7675 16.7117 73.1332 16.5706 73.4989 16.4576C74.0756 16.2741 74.6382 16.1188 75.243 16.1329C75.3415 16.1329 75.4399 16.1329 75.5384 16.1612C76.2698 16.3023 76.9168 16.7682 76.8043 17.8129C76.7621 18.2082 76.6495 18.5894 76.3964 18.9141C76.312 19.027 76.2276 19.1541 76.1432 19.2811C75.9604 19.5776 75.9744 19.8882 76.1713 20.1705C76.2698 20.3117 76.3964 20.4529 76.523 20.5799C76.9449 21.0741 76.959 21.6105 76.5511 22.1188C76.0588 22.7399 75.3696 23.0223 74.6242 23.1211C74.1178 23.1917 73.6115 23.2058 73.1051 23.2482Z" fill="#3344BB"/>
<path d="M72.6978 31.2246C72.4165 31.1822 72.1352 31.154 71.8398 31.0834C70.8271 30.8434 69.8426 30.5469 68.9143 30.0811C68.5064 29.8834 68.3938 29.714 68.422 29.2623C68.436 29.0223 68.4079 28.7964 68.2673 28.5846C68.1407 28.387 68.0141 28.3446 67.8172 28.4576C67.7047 28.514 67.5921 28.6129 67.5218 28.7117C67.3108 29.0223 67.128 29.3328 66.9451 29.6717C66.8045 29.9399 66.6216 30.0387 66.3263 29.9964C65.6933 29.9117 65.0604 29.827 64.4134 29.7846C63.8086 29.7564 63.2038 29.7846 62.599 29.8128C62.4302 29.827 62.2614 29.9117 62.0926 29.9823C61.9942 30.0246 61.8957 30.0811 61.7832 30.1234C61.2346 30.3634 60.9955 30.2928 60.672 29.8128C60.5314 29.6011 60.3907 29.4034 60.2923 29.1776C60.1235 28.8246 60.1657 28.5987 60.447 28.3305C60.7705 28.034 61.1221 27.8082 61.5441 27.6387C62.2755 27.3423 62.9647 26.9611 63.6398 26.5658C64.0618 26.3258 64.1883 25.8741 64.2024 25.3941C64.2024 25.2529 64.2024 25.0976 64.2305 24.9564C64.3149 24.4764 64.6806 24.2223 65.1588 24.3211C65.3136 24.3494 65.4683 24.4058 65.6089 24.4764C66.0309 24.6741 66.4529 24.8858 66.8889 25.0976C67.4234 25.3517 67.6765 25.2952 67.986 24.787C68.0563 24.6741 68.1125 24.547 68.1688 24.42C68.3939 23.94 68.7455 23.6859 69.28 23.7141C69.7722 23.7423 70.2364 23.827 70.6865 24.0247C71.2069 24.2506 71.7414 24.4058 72.304 24.4906C72.9791 24.5894 73.6261 24.4482 74.2731 24.3211C74.5404 24.2647 74.7935 24.2082 75.0608 24.1517C75.4546 24.067 75.8484 24.0953 76.2282 24.2364C76.7205 24.4058 76.9877 24.7447 77.0721 25.2388C77.1424 25.6199 77.0862 25.987 76.8893 26.3258C76.7064 26.6364 76.5095 26.947 76.2845 27.2152C75.9891 27.5682 75.961 27.907 76.2001 28.3023C76.3126 28.4858 76.397 28.6834 76.4673 28.8811C76.6501 29.4175 76.5095 29.9258 76.0453 30.2787C75.5531 30.6458 74.9905 30.8858 74.3856 30.9846C73.9918 31.0411 73.5839 31.1117 73.1901 31.1681C73.0354 31.1964 72.8807 31.2105 72.6978 31.2246Z" fill="#3344BB"/>
<path d="M64.4853 15.1872C63.993 15.1872 63.5007 15.159 63.0084 15.1872C62.4036 15.2296 61.841 15.4131 61.3909 15.8508C61.0815 16.1472 60.7017 16.1896 60.336 15.9778C60.0969 15.8508 59.8859 15.6813 59.689 15.4978C59.2952 15.1308 59.2811 14.3543 59.7312 14.0155C60.1672 13.6908 60.5892 13.3661 61.0252 13.0414C61.2784 12.8578 61.5456 12.6884 61.7847 12.4767C62.3473 11.9684 62.5021 11.3473 62.2208 10.6414C62.1786 10.5285 62.1364 10.4155 62.1082 10.2885C62.066 10.0626 62.1364 9.93553 62.3895 9.92141C62.7271 9.90729 63.0647 9.89317 63.4022 9.93553C63.7961 9.992 64.1758 10.1332 64.5697 10.232C64.7525 10.2743 64.9354 10.3308 65.1323 10.3449C65.4417 10.3591 65.5542 10.2602 65.6246 9.94965C65.6949 9.63906 65.7511 9.32848 65.8355 9.03201C65.9199 8.70731 65.9762 8.66495 66.2997 8.66495C66.6513 8.65083 67.0029 8.63672 67.3405 8.65083C67.7062 8.66495 68.0719 8.72142 68.4376 8.77789C69.2815 8.91907 70.1254 9.04612 70.9834 8.8626C71.335 8.79201 71.6585 8.6226 71.9961 8.50966C72.3196 8.41084 72.6431 8.2979 72.9666 8.24143C73.6417 8.11437 74.1622 8.3826 74.5279 8.93318C74.9357 9.54024 75.0061 10.2179 74.7529 10.9096C74.7107 11.0367 74.6404 11.1637 74.6122 11.2908C74.5278 11.672 74.5982 12.0249 74.8654 12.3355C75.0342 12.5331 75.217 12.7167 75.3718 12.9284C75.7093 13.3943 75.6953 13.7896 75.3577 14.2272C74.9357 14.7919 74.4013 15.159 73.6839 15.2578C72.7556 15.3849 71.8273 15.4696 70.899 15.4555C69.9566 15.4413 69.0565 15.2437 68.1704 14.8908C67.9453 14.8061 67.7906 14.6508 67.6921 14.439C67.5937 14.2414 67.5093 14.0296 67.4108 13.8178C67.3686 13.7331 67.3405 13.6484 67.2983 13.5778C67.2139 13.4367 67.0873 13.3378 66.9045 13.352C66.7357 13.3661 66.6654 13.5073 66.6232 13.6625C66.5529 13.9308 66.4966 14.2131 66.4263 14.4814C66.2856 15.0319 66.1309 15.159 65.5542 15.159C65.1745 15.1872 64.8369 15.1872 64.4853 15.1872Z" fill="#3344BB"/>
<path d="M71.5314 38.9747C70.6875 39.1159 69.9139 38.8476 69.1403 38.5229C68.5636 38.2829 67.987 38.057 67.4103 37.8453C67.1431 37.7464 67.0165 37.577 67.0024 37.2947C66.9883 37.0123 66.9602 36.73 66.9321 36.4476C66.9039 36.25 66.8899 36.01 66.6648 35.9535C66.4398 35.897 66.2569 36.0241 66.1163 36.2076C65.9194 36.4759 65.7225 36.73 65.5396 36.9982C65.3849 37.2382 65.1739 37.3512 64.8926 37.337C64.4566 37.3229 64.0206 37.3229 63.5845 37.2947C63.4439 37.2806 63.2892 37.2382 63.1766 37.1676C62.9516 37.0265 62.7125 36.9559 62.4452 36.9276C61.6717 36.8429 60.9262 36.8429 60.2229 37.2665C59.9416 37.4359 59.7025 37.3935 59.4915 37.1535C59.2384 36.8712 59.0555 36.5606 58.9571 36.1794C58.8586 35.7982 58.9711 35.4876 59.2665 35.2335C59.4072 35.1065 59.5759 34.9935 59.7588 34.9371C60.237 34.7535 60.7293 34.57 61.2216 34.4571C61.8967 34.2876 62.4734 33.9912 62.9375 33.4547C63.2188 33.1441 63.3876 32.7912 63.4439 32.3677C63.5283 31.7747 63.5986 31.7324 64.1753 31.7606C64.6113 31.7747 65.0473 31.8594 65.4271 32.1135C65.5537 32.1983 65.7225 32.2265 65.8631 32.283C66.046 32.3535 66.2147 32.41 66.3835 32.4947C66.6789 32.6359 66.918 32.5935 67.129 32.3253C67.2415 32.1841 67.3259 32.0147 67.4244 31.8735C67.8182 31.323 68.3667 31.1677 68.9997 31.4359C69.5201 31.6618 70.0264 31.8877 70.5468 32.0994C70.9829 32.283 71.447 32.3535 71.9252 32.3394C72.9661 32.3253 74.021 32.3394 75.0618 32.3253C75.6525 32.3112 75.976 32.6077 76.0323 33.2147C76.0745 33.7935 75.9057 34.3159 75.54 34.7535C75.3712 34.9653 75.1602 35.1347 74.9633 35.3323C74.5414 35.7559 74.457 36.1229 74.7102 36.6453C74.9915 37.21 74.9211 37.9582 74.2038 38.41C73.5568 38.8194 72.8676 39.0453 72.094 39.017C71.9112 38.9888 71.7143 38.9747 71.5314 38.9747Z" fill="#3344BB"/>
<path d="M69.4217 46.6973C68.409 46.6126 67.4525 46.5561 66.5383 46.2173C66.1445 46.0761 65.7647 45.8644 65.385 45.6526C65.1037 45.4832 64.8223 45.3138 64.4988 45.2714C64.2879 45.2432 64.2175 45.1585 64.2175 44.9185C64.2035 44.622 64.2175 44.3256 64.2035 44.0432C64.2035 43.8738 64.1894 43.7044 64.1613 43.535C64.1191 43.3373 64.0066 43.2809 63.8096 43.3515C63.7112 43.3938 63.5987 43.4503 63.5283 43.5209C63.3596 43.6903 63.1767 43.8738 63.0361 44.0715C62.7266 44.5373 62.3047 44.6503 61.7702 44.5091C61.2076 44.3679 60.6309 44.2267 60.0542 44.1703C59.4072 44.1138 58.7462 44.142 58.0992 44.1279C57.9585 44.1279 57.8319 44.142 57.6913 44.1138C57.2553 44.0432 56.9599 43.775 56.8614 43.3373C56.763 42.8573 56.8755 42.5609 57.2834 42.2926C57.7757 41.9679 58.282 41.7138 58.8728 41.5868C59.4494 41.4597 60.012 41.2338 60.5606 41.008C61.0669 40.7962 61.3623 40.3586 61.503 39.8362C61.5311 39.7233 61.5592 39.5962 61.6014 39.4833C61.728 39.1444 62.0093 39.0315 62.3328 39.1868C62.4172 39.2292 62.5016 39.2997 62.586 39.3421C63.0079 39.5962 63.4299 39.8503 63.8659 40.0762C64.2879 40.288 64.6114 40.2033 64.9208 39.8644C65.0052 39.7656 65.0615 39.6668 65.1458 39.568C65.5256 39.0456 66.0179 38.8762 66.6227 39.1162C67.0306 39.2715 67.4103 39.4974 67.7901 39.7233C68.2121 39.9633 68.6481 40.1891 69.1263 40.2456C69.3654 40.2738 69.6186 40.2738 69.8718 40.2738C70.5047 40.3021 71.1517 40.3021 71.7846 40.3444C71.9815 40.3586 72.1785 40.4291 72.3754 40.4574C72.9099 40.5562 73.1208 41.0927 73.0083 41.5162C72.9661 41.6997 72.8817 41.8832 72.7692 42.0385C72.4879 42.4056 72.1925 42.7585 71.8831 43.1115C71.7846 43.2244 71.658 43.3373 71.5455 43.4362C71.3205 43.6479 71.2783 43.8879 71.3627 44.1703C71.4049 44.3114 71.4471 44.4526 71.4893 44.5938C71.5877 44.975 71.5174 45.342 71.2642 45.6526C70.8282 46.3302 70.1531 46.6408 69.4217 46.6973Z" fill="#3344BB"/>
<path d="M65.1162 53.3889C64.3145 53.4313 63.5409 53.2477 62.8236 52.9089C62.2047 52.6125 61.614 52.2736 61.0232 51.9207C60.6716 51.7231 60.6153 51.4831 60.6857 51.0454C60.7138 50.876 60.7138 50.6925 60.6997 50.5089C60.6857 50.3537 60.5731 50.2831 60.4184 50.2831C60.2356 50.2831 60.0668 50.3537 59.9402 50.4948C59.7996 50.6501 59.673 50.8054 59.5464 50.9607C59.1385 51.4831 58.9134 51.5395 58.2946 51.3419C57.6757 51.1584 57.0568 50.9889 56.452 50.8195C56.0441 50.7066 55.6503 50.7631 55.2565 50.8619C55.0314 50.9184 54.8204 50.9748 54.5954 51.0031C54.2438 51.0595 54.0047 50.9325 53.864 50.6078C53.7796 50.4242 53.7093 50.2266 53.6671 50.0289C53.5686 49.5348 53.7093 49.2243 54.1734 49.0125C54.4829 48.8713 54.8064 48.7584 55.1158 48.6737C55.4815 48.5607 55.8613 48.4901 56.227 48.4054C56.3958 48.3631 56.5505 48.3066 56.7052 48.2501C57.4366 47.996 57.9711 47.5443 58.2383 46.796C58.2524 46.7537 58.2805 46.7113 58.2946 46.669C58.5477 46.1466 58.8431 46.0478 59.3635 46.316C59.6167 46.4431 59.8417 46.6125 60.0809 46.7678C60.1653 46.8243 60.2356 46.8949 60.32 46.9513C60.8826 47.3466 61.2061 47.276 61.5718 46.7113C61.9515 46.1325 62.6689 45.9349 63.2877 46.2455C63.555 46.3866 63.8222 46.5278 64.0754 46.6972C64.7927 47.1631 65.5804 47.4031 66.4384 47.389C67.0854 47.389 67.7464 47.3749 68.3934 47.389C69.0826 47.4031 69.4061 47.8549 69.2373 48.5184C69.0545 49.196 68.6607 49.7325 68.1121 50.156C67.9996 50.2407 67.873 50.3254 67.7605 50.4242C67.5495 50.5937 67.4792 50.8195 67.5495 51.0878C67.5776 51.1866 67.6058 51.2854 67.6339 51.3842C67.8027 51.8925 67.6902 52.316 67.2963 52.6689C66.8181 53.1066 66.2555 53.3748 65.5944 53.3889C65.4397 53.3889 65.285 53.3889 65.1162 53.3889Z" fill="#3344BB"/>
<path d="M57.2112 57.4407C56.8314 57.356 56.536 57.4689 56.311 57.7795C56.2407 57.8783 56.1704 57.9772 56.1 58.076C55.8187 58.443 55.453 58.5983 55.0029 58.5278C54.6654 58.4713 54.3278 58.3583 53.9902 58.2736C53.3011 58.076 52.6119 57.9772 51.8945 58.1748C51.7398 58.2172 51.5992 58.2736 51.4444 58.3301C50.9381 58.5136 50.5161 58.3019 50.3614 57.7936C50.3474 57.7513 50.3333 57.7089 50.3333 57.6666C50.1504 56.8337 50.3052 56.5372 51.1209 56.2548C51.8242 56.0148 52.5275 55.789 53.2307 55.5348C53.3995 55.4784 53.5683 55.3937 53.723 55.309C54.0606 55.1254 54.3138 54.8713 54.4685 54.5184C54.5388 54.3631 54.595 54.2078 54.6654 54.0525C54.9045 53.5301 55.3264 53.3749 55.8187 53.6431C56.1422 53.8125 56.4376 54.0102 56.747 54.2078C56.8455 54.2643 56.9299 54.3349 57.0283 54.3913C57.3237 54.5466 57.5206 54.5184 57.7457 54.2501C57.83 54.1513 57.9004 54.0243 57.9848 53.9254C58.1114 53.7702 58.252 53.6149 58.4067 53.4878C58.688 53.2478 59.0256 53.1772 59.3913 53.3043C59.5741 53.3749 59.7429 53.4454 59.9117 53.5443C60.8119 54.0949 61.7964 54.3066 62.8513 54.2643C63.3999 54.2501 63.9484 54.2502 64.497 54.236C65.3831 54.2219 65.805 54.9137 65.369 55.7466C65.158 56.1701 64.8486 56.509 64.511 56.8195C64.4548 56.8619 64.4126 56.9042 64.3563 56.9607C63.7796 57.4548 63.7796 57.6101 64.0469 58.2031C64.2016 58.556 64.1453 58.8807 63.8921 59.1772C63.1608 60.0101 62.2465 60.3489 61.1494 60.1513C60.6572 60.0666 60.1789 59.9536 59.7007 59.8548C58.9131 59.6854 58.2098 59.3183 57.5347 58.8807C57.2815 58.7254 57.1971 58.4995 57.2674 58.2172C57.3237 57.9348 57.3096 57.6807 57.2112 57.4407Z" fill="#3344BB"/>
<path d="M55.9745 73.9298C55.0462 73.9298 54.146 73.7462 53.2599 73.4498C53.0208 73.3651 52.9083 73.2239 52.852 72.998C52.8098 72.8427 52.7957 72.6874 52.7535 72.5321C52.641 72.1792 52.3456 72.0804 52.0503 72.3062C51.9518 72.3768 51.8815 72.4898 51.8112 72.5886C51.6986 72.7862 51.5721 72.998 51.4877 73.2239C51.3611 73.5345 51.136 73.6474 50.8266 73.6333C50.2499 73.6333 49.6733 73.6615 49.1106 73.6333C48.5621 73.6051 48.0698 73.718 47.5775 73.958C47.3806 74.0568 47.1696 74.1556 46.9727 74.2403C46.2695 74.5086 45.6084 74.0427 45.5943 73.2945C45.5943 72.9415 45.7772 72.7015 46.0585 72.5321C46.6774 72.1651 47.2962 71.798 47.9151 71.431C48.0698 71.3321 48.2245 71.2474 48.3652 71.1345C48.8293 70.7816 49.1106 70.3298 49.1388 69.7369C49.1388 69.6522 49.1528 69.5816 49.1669 69.4969C49.2232 69.1722 49.3779 69.0028 49.7154 69.031C50.2218 69.0875 50.7422 69.1863 51.2486 69.2569C51.4314 69.2851 51.6002 69.3133 51.783 69.3275C52.0081 69.3416 52.1769 69.2428 52.2894 69.0592C52.3738 68.9181 52.4441 68.7769 52.5144 68.6498C52.8942 67.9863 53.3443 67.7604 54.0897 67.9298C54.9899 68.1416 55.8901 68.1698 56.8043 68.1557C57.0997 68.1557 57.381 68.0992 57.6482 67.9722C58.1686 67.7463 58.7031 67.6051 59.2798 67.6193C59.3923 67.6193 59.5048 67.6334 59.6174 67.6616C60.1518 67.7887 60.405 68.2545 60.2222 68.7769C60.18 68.8757 60.1378 68.9886 60.0815 69.0875C59.8705 69.511 59.6595 69.9345 59.4345 70.358C59.2517 70.711 59.2517 71.0498 59.4767 71.3745C59.7721 71.798 59.7158 72.2215 59.4345 72.631C59.0688 73.1533 58.5625 73.478 57.9717 73.6474C57.3247 73.8592 56.6496 73.9298 55.9745 73.9298Z" fill="#3344BB"/>
<path d="M57.6054 66.9274C56.9162 66.8991 56.1426 66.8003 55.3972 66.5744C54.9471 66.4332 54.5392 66.2497 54.1595 65.9815C53.9344 65.8262 53.8219 65.6285 53.85 65.3603C53.8641 65.1909 53.8641 65.0215 53.85 64.8521C53.85 64.6968 53.8078 64.5556 53.6531 64.485C53.4843 64.4144 53.3296 64.4709 53.2171 64.5839C53.0624 64.7533 52.8936 64.9368 52.7951 65.1344C52.6263 65.4733 52.345 65.6709 52.0215 65.798C51.9512 65.8262 51.8387 65.8262 51.7543 65.8121C51.1073 65.685 50.4603 65.558 49.7992 65.445C49.4054 65.3744 49.0116 65.4733 48.6318 65.6003C48.4208 65.6709 48.2099 65.7556 47.9989 65.8121C47.6191 65.925 47.3659 65.8544 47.1409 65.5438C46.8877 65.1768 46.8315 64.7674 47.0003 64.358C47.0846 64.1462 47.2534 64.005 47.4503 63.9344C47.9567 63.7368 48.463 63.5392 48.9553 63.3415C49.2648 63.2145 49.5883 63.0874 49.8836 62.9321C50.4181 62.6639 50.7838 62.2262 50.9526 61.6474C50.9807 61.5345 51.0229 61.4074 51.0651 61.2945C51.1776 61.0121 51.3183 60.9133 51.6136 60.998C52.0637 61.1251 52.5138 61.2804 52.9639 61.4357C53.1186 61.4921 53.2733 61.5627 53.4421 61.5909C53.8359 61.6757 54.1173 61.5062 54.272 61.1392C54.3142 61.0262 54.3564 60.8992 54.4267 60.8004C54.6939 60.4192 55.1159 60.2921 55.6363 60.4474C55.8754 60.518 56.1145 60.631 56.3536 60.7439C57.1694 61.1533 58.0414 61.3651 58.9557 61.2945C59.2792 61.2662 59.6027 61.1815 59.9121 61.1251C60.32 61.0545 60.742 61.0121 61.1499 61.1533C61.6281 61.3227 61.7828 61.5768 61.7125 62.0851C61.6421 62.5792 61.4312 63.0027 61.0514 63.2992C60.5451 63.7227 60.3763 64.2309 60.5029 64.8662C60.531 64.965 60.531 65.0638 60.5451 65.1627C60.6294 65.7556 60.4888 66.0944 59.9684 66.3768C59.2651 66.7438 58.5056 66.9979 57.6054 66.9274Z" fill="#3344BB"/>
<path d="M54.68 81.0313C54.3565 80.9748 53.9346 80.9183 53.5126 80.8477C53.3298 80.8195 53.161 80.7913 52.9922 80.7348C52.8375 80.6783 52.6687 80.6077 52.5702 80.4948C52.2467 80.156 51.8529 80.2407 51.4591 80.2972C51.3747 80.3113 51.2762 80.4242 51.22 80.523C50.8683 81.0313 50.3761 81.2289 49.7713 81.2289C49.4618 81.2289 49.1665 81.2148 48.857 81.2289C48.3788 81.243 47.9287 81.3701 47.5208 81.6242C47.3239 81.7513 47.1129 81.8642 46.9301 82.0195C46.6628 82.2454 46.3815 82.2595 46.0862 82.1324C45.7486 81.9913 45.4532 81.7795 45.3548 81.3983C45.2704 81.0454 45.3688 80.7207 45.6783 80.4948C46.1002 80.1842 46.5222 79.9019 46.9442 79.5913C47.2536 79.3513 47.5771 79.1254 47.8725 78.8572C48.3085 78.4478 48.5054 77.9537 48.4069 77.3325C48.3366 76.909 48.5335 76.669 48.9695 76.6972C49.4618 76.7255 49.9541 76.796 50.4464 76.8525C50.6152 76.8666 50.784 76.8949 50.9527 76.8949C51.234 76.8949 51.3466 76.8102 51.445 76.5278C51.4732 76.429 51.5013 76.3302 51.5153 76.2313C51.5857 75.8219 51.8248 75.5537 52.1905 75.4125C52.4999 75.2996 52.8093 75.2572 53.1469 75.2996C53.6251 75.3702 54.1033 75.4408 54.5816 75.4549C55.2145 75.4831 55.8052 75.3278 56.3819 75.1019C56.8742 74.9184 57.3805 74.7631 57.8869 74.6078C57.9994 74.5655 58.126 74.5514 58.2526 74.5514C58.7589 74.5231 59.0965 74.8196 59.1387 75.3137C59.1668 75.5961 59.0824 75.8502 58.984 76.1043C58.8433 76.429 58.7027 76.7396 58.5761 77.0643C58.4354 77.4172 58.5058 77.756 58.7449 78.0525C59.1387 78.5607 59.1528 79.1395 58.7449 79.6336C58.5761 79.8313 58.351 80.0007 58.126 80.1419C57.3524 80.5936 56.4944 80.8195 55.6083 80.9466C55.2989 80.9607 55.0457 80.9889 54.68 81.0313Z" fill="#3344BB"/>
<path d="M60.8116 88.7814C60.7834 89.1626 60.7553 89.5438 60.7131 89.9249C60.6709 90.2496 60.7834 90.5179 61.0225 90.7438C61.5851 91.2802 61.6273 91.859 61.1491 92.4802C60.6568 93.1296 59.9958 93.5249 59.2222 93.7084C58.4627 93.892 57.6891 94.0473 56.9155 94.2026C56.7889 94.2308 56.6483 94.2167 56.5217 94.1884C56.2404 94.132 55.9591 94.0332 55.6778 93.9767C55.4387 93.9202 55.3121 93.7931 55.2418 93.5673C55.2136 93.4684 55.1855 93.3696 55.1433 93.2849C55.0589 93.1296 54.8761 93.0308 54.7213 93.059C54.5526 93.0873 54.4822 93.2284 54.4541 93.3696C54.4119 93.6379 54.3978 93.9061 54.3838 94.1743C54.3556 94.5414 54.3134 94.5979 53.9759 94.6826C53.2586 94.8802 52.5412 95.0637 51.838 95.2755C51.2754 95.4449 50.7972 95.7414 50.5018 96.2778C50.3752 96.5178 50.2486 96.5319 49.9954 96.4331C49.7985 96.3484 49.6016 96.2778 49.4047 96.1931C48.8421 95.939 48.6874 95.4308 49.0671 94.9508C49.461 94.4426 49.897 93.9767 50.3189 93.4967C50.4737 93.3132 50.6424 93.1437 50.7972 92.9743C51.205 92.5649 51.2332 92.1132 51.0222 91.6049C50.9659 91.4637 50.8956 91.3085 50.8675 91.1532C50.8253 90.8708 50.9237 90.6732 51.205 90.6167C51.4582 90.5602 51.7114 90.5602 51.9646 90.5602C52.3021 90.5743 52.6397 90.6449 52.9632 90.6732C53.2445 90.7014 53.3007 90.6732 53.3992 90.4049C53.4836 90.1791 53.5539 89.9532 53.6102 89.7273C53.7508 89.1344 54.0321 88.8802 54.6229 88.8238C54.9745 88.7955 55.3121 88.7673 55.6637 88.7673C56.6764 88.7814 57.5906 88.5132 58.4205 87.9061C58.8565 87.5814 59.3488 87.3555 59.9114 87.3697C60.474 87.3979 60.7553 87.652 60.7834 88.2308C60.8116 88.4426 60.7975 88.612 60.8116 88.7814Z" fill="#3344BB"/>
<path d="M54.7781 87.5675C54.6656 87.5675 54.5531 87.5533 54.4406 87.5675C53.9061 87.6098 53.5545 87.3698 53.3576 86.8898C53.2732 86.6781 53.1185 86.5792 52.9356 86.4663C52.795 86.3957 52.6965 86.4098 52.6262 86.551C52.5418 86.7345 52.4574 86.9181 52.4011 87.1157C52.2042 87.8216 51.937 88.0475 51.1915 88.1181C50.9524 88.1322 50.7274 88.1604 50.4883 88.2027C49.8553 88.2875 49.2786 88.5557 48.8004 88.9792C48.6316 89.1204 48.4629 89.2757 48.266 89.4027C47.7877 89.7415 46.9438 89.4592 46.7469 88.8945C46.6766 88.711 46.6906 88.4992 46.7891 88.3439C46.9298 88.1322 47.0704 87.9063 47.2533 87.7369C47.7174 87.2851 48.2238 86.8616 48.702 86.4098C48.8848 86.2404 49.0395 86.0569 49.1943 85.8593C49.4334 85.5346 49.4615 85.1816 49.2505 84.8146C49.2083 84.744 49.1802 84.6734 49.1521 84.6028C49.0536 84.3346 49.1661 84.0946 49.4334 84.0099C49.574 83.9675 49.7147 83.9393 49.8694 83.9393C50.1929 83.9393 50.5164 83.9534 50.8399 83.9675C50.9805 83.9675 51.1071 83.9958 51.2478 83.9958C51.6697 83.9958 51.8666 83.8263 51.951 83.4169C51.9792 83.2899 51.9932 83.1769 52.0214 83.0499C52.1339 82.6687 52.373 82.4146 52.7668 82.3722C53.1325 82.3299 53.5123 82.2875 53.878 82.3017C54.961 82.3581 55.9456 82.0758 56.8879 81.5817C57.2677 81.384 57.6756 81.257 58.0554 81.0593C58.632 80.777 59.4056 81.4264 59.279 82.0899C59.2509 82.2452 59.1946 82.4005 59.1524 82.5417C59.068 82.824 58.9837 83.1064 58.9133 83.3887C58.8289 83.7275 58.8993 84.024 59.1524 84.2922C59.2931 84.4334 59.4056 84.6169 59.4759 84.8005C59.6588 85.224 59.6025 85.6475 59.3212 86.0145C59.1806 86.184 59.0118 86.3393 58.8289 86.4663C57.9569 87.0875 56.9583 87.3698 55.9034 87.4969C55.5236 87.5392 55.1438 87.5533 54.7641 87.5816C54.7922 87.5816 54.7781 87.5816 54.7781 87.5675Z" fill="#3344BB"/>
<path d="M54.9615 102.871C54.6239 102.871 54.2863 102.899 53.9488 102.871C53.5127 102.828 53.344 102.631 53.3018 102.193C53.2596 101.756 53.3721 101.374 53.6393 101.021C53.9347 100.64 54.216 100.273 54.4832 99.8779C54.6098 99.6944 54.6942 99.4826 54.7646 99.2709C54.8349 99.045 54.7927 98.9603 54.5395 98.8756C54.3848 98.8191 54.3285 98.7203 54.3285 98.565C54.3285 98.325 54.3145 98.085 54.3145 97.8591C54.3145 97.4638 54.4973 97.238 54.8771 97.1815C55.1021 97.1391 55.3412 97.1532 55.5803 97.1391C55.8335 97.125 56.0726 97.1391 56.3258 97.125C56.5508 97.1109 56.6352 96.998 56.6634 96.7721C56.6774 96.6733 56.6774 96.5744 56.6634 96.4615C56.6212 96.0521 56.7477 95.685 56.8884 95.318C56.9447 95.1627 57.0291 95.0921 57.2119 95.078C57.7182 95.0215 58.2105 94.9509 58.7169 94.8945C59.3357 94.8239 59.8984 94.6262 60.3906 94.245C60.8829 93.878 61.4033 93.5251 61.8815 93.1439C62.1207 92.9604 62.3457 92.9462 62.5989 93.0451C62.9927 93.2004 63.2881 93.4262 63.3303 93.878C63.3865 94.358 63.4569 94.838 63.4709 95.318C63.485 95.6427 63.5834 95.8827 63.8507 96.0521C63.9491 96.1227 64.0476 96.2074 64.132 96.2921C64.6243 96.8003 64.6665 97.478 64.2304 98.0427C64.132 98.1697 64.0195 98.2826 63.8929 98.3815C63.1615 98.9462 62.3879 99.412 61.4877 99.652C61.1361 99.7509 60.7704 99.8638 60.4188 99.9768C59.814 100.16 59.3357 100.005 58.9701 99.4968C58.9279 99.4403 58.8997 99.3697 58.8435 99.3273C58.7028 99.2144 58.52 99.0873 58.3512 99.1721C58.2527 99.2285 58.1965 99.412 58.1683 99.5391C58.1261 99.8073 58.1261 100.076 58.1121 100.344C58.098 100.64 57.9574 100.824 57.662 100.909C57.5213 100.951 57.3807 100.979 57.24 101.036C56.9587 101.134 56.6634 101.219 56.382 101.346C55.8194 101.6 55.3553 101.953 55.088 102.532C55.1021 102.659 55.0318 102.758 54.9615 102.871Z" fill="#3344BB"/>
<path d="M60.8697 102.08C60.8416 101.402 61.151 101.035 61.8261 100.922C62.3044 100.837 62.7826 100.767 63.2467 100.654C63.8375 100.513 64.3438 100.202 64.7798 99.7786C65.0471 99.5245 65.3565 99.3128 65.6659 99.1151C65.9894 98.9034 66.4114 99.0022 66.6224 99.3269C66.9318 99.8069 67.1709 100.315 67.0725 100.922C67.0021 101.402 67.1709 101.755 67.6069 101.981C68.4368 102.419 68.3665 103.266 67.9164 103.816C67.832 103.915 67.7476 104 67.6491 104.084C66.7349 104.804 65.7363 105.341 64.5689 105.51C64.3016 105.553 64.0062 105.51 63.739 105.468C63.4999 105.44 63.303 105.299 63.1483 105.115C63.092 105.059 63.0498 104.988 62.9935 104.932C62.7544 104.734 62.5716 104.79 62.4872 105.087C62.4591 105.2 62.4591 105.313 62.4591 105.426C62.445 105.581 62.445 105.736 62.4309 105.892C62.4028 106.103 62.2903 106.244 62.1074 106.329C61.9668 106.4 61.8121 106.442 61.6573 106.484C61.3338 106.597 60.9963 106.71 60.6728 106.837C60.2086 107.035 59.8711 107.36 59.6601 107.826C59.421 108.376 59.0693 108.475 58.5489 108.179C58.4505 108.122 58.3661 108.051 58.2676 107.981C57.8597 107.628 57.7753 107.261 58.0285 106.781C58.127 106.597 58.2536 106.414 58.3661 106.23C58.5911 105.877 58.8443 105.539 59.0693 105.186C59.3928 104.692 59.3366 104.127 58.9428 103.689C58.9146 103.661 58.8865 103.647 58.8724 103.619C58.6052 103.322 58.6333 103.11 58.9849 102.913C59.1537 102.814 59.3507 102.729 59.5335 102.659C59.7585 102.574 59.9695 102.588 60.1946 102.673C60.6728 102.856 60.8697 102.715 60.8556 102.207C60.8697 102.164 60.8697 102.122 60.8697 102.08Z" fill="#3344BB"/>
</svg>
