<svg width="177" height="116" viewBox="0 0 177 116" fill="none" xmlns="http://www.w3.org/2000/svg">
<path d="M89.244 41.7838H93.0396V42.8615H92.786C92.5408 42.8615 92.3971 42.8785 92.338 42.9039C92.245 42.9464 92.1858 43.0058 92.1435 43.0736C92.1012 43.1415 92.0843 43.2858 92.0843 43.4979V45.5769L94.5105 43.3197C94.6204 43.2179 94.6796 43.15 94.7049 43.1161C94.7303 43.0821 94.7387 43.0482 94.7387 43.0227C94.7387 42.9718 94.7134 42.9294 94.6711 42.9039C94.6289 42.8785 94.519 42.8615 94.3414 42.8615H94.0287V41.7838H97.5453V42.8615H97.427C97.2663 42.8615 97.148 42.87 97.0888 42.887C97.0297 42.9039 96.9451 42.9379 96.8606 42.9973C96.7676 43.0567 96.6492 43.1415 96.5055 43.2688L94.6289 44.9066L96.869 47.9445C97.0635 48.2075 97.2072 48.3603 97.2917 48.4112C97.4101 48.4791 97.5791 48.513 97.8074 48.513H97.9595V49.5907H94.0287V48.513H94.1808C94.4682 48.513 94.6373 48.496 94.7049 48.4706C94.7641 48.4451 94.7979 48.4112 94.7979 48.3687C94.7979 48.3263 94.7387 48.216 94.6289 48.0463L93.2594 46.0861L92.0759 47.1129V47.902C92.0759 48.0972 92.0928 48.233 92.1351 48.3009C92.1689 48.3772 92.2281 48.4281 92.2957 48.4621C92.3633 48.496 92.507 48.513 92.7099 48.513H93.0311V49.5907H89.2355V48.513H89.5229C89.7427 48.513 89.8949 48.496 89.9625 48.4621C90.0386 48.4281 90.0893 48.3687 90.1231 48.2924C90.1569 48.233 90.1654 48.0717 90.1654 47.8341V43.5658C90.1654 43.3367 90.1485 43.1755 90.1147 43.0991C90.0809 43.0227 90.0301 42.9633 89.9541 42.9209C89.878 42.8785 89.7427 42.8615 89.5483 42.8615H89.2271V41.7838H89.244Z" fill="#3344BB"/>
<path d="M102.465 43.8373L100.969 47.8935C100.91 48.0547 100.876 48.165 100.876 48.2244C100.876 48.3347 100.927 48.4111 101.028 48.4535C101.13 48.496 101.341 48.5214 101.662 48.5214V49.5991H98.6611V48.5214C98.9147 48.5214 99.1007 48.4875 99.2022 48.4111C99.3036 48.3432 99.405 48.182 99.498 47.9444L101.899 41.7922H103.64L105.99 47.8256C106.1 48.1056 106.202 48.2838 106.295 48.3857C106.388 48.479 106.582 48.5299 106.869 48.5299V49.6076H103.184V48.5299L103.404 48.5214C103.776 48.5129 103.953 48.4196 103.953 48.2414C103.953 48.165 103.919 48.0292 103.843 47.8256L102.465 43.8373Z" fill="#3344BB"/>
<path d="M107.512 41.7838H111.316V42.8615H110.961C110.716 42.8615 110.555 42.8954 110.479 42.9718C110.403 43.0482 110.369 43.2434 110.369 43.5573V46.1625L113.201 43.4979C113.201 43.184 113.159 42.9973 113.074 42.9464C112.99 42.8954 112.821 42.87 112.55 42.87H112.254V41.7923H116.058V42.87H115.737C115.467 42.87 115.298 42.9124 115.222 42.9888C115.154 43.0652 115.112 43.2603 115.112 43.5743V47.8087C115.112 48.1311 115.154 48.3348 115.23 48.4112C115.306 48.4875 115.509 48.53 115.83 48.53H116.05V49.6077H112.246V48.53H112.499C112.812 48.53 113.007 48.4875 113.083 48.4027C113.159 48.3178 113.193 48.1227 113.193 47.8087V45.1781L110.361 47.8087C110.361 48.0717 110.378 48.2415 110.403 48.3093C110.428 48.3772 110.479 48.4366 110.555 48.4706C110.631 48.5045 110.8 48.5215 111.045 48.5215H111.308V49.5992H107.503V48.5215H107.765C108.07 48.5215 108.264 48.4791 108.332 48.3942C108.408 48.3093 108.442 48.1311 108.442 47.8681V43.6252C108.442 43.2943 108.408 43.0821 108.332 42.9973C108.256 42.9124 108.095 42.87 107.85 42.87H107.503V41.7838H107.512Z" fill="#3344BB"/>
<path d="M117.107 41.7838H120.902V42.8615H120.556C120.361 42.8615 120.235 42.8785 120.159 42.9209C120.091 42.9633 120.04 43.0142 120.006 43.0906C119.973 43.167 119.964 43.3197 119.964 43.5658V44.9235H122.796V43.464C122.796 43.2858 122.788 43.167 122.762 43.0991C122.728 43.0058 122.686 42.9464 122.61 42.9124C122.542 42.8785 122.382 42.8615 122.145 42.8615H121.849V41.7838H125.662V42.8615H125.341C125.121 42.8615 124.986 42.8785 124.909 42.9124C124.842 42.9464 124.791 42.9973 124.766 43.0652C124.74 43.133 124.723 43.2943 124.723 43.5573V47.7917C124.723 48.0548 124.74 48.2245 124.774 48.3009C124.808 48.3772 124.867 48.4281 124.935 48.4621C125.011 48.496 125.172 48.513 125.434 48.513H125.653V49.5907H121.841V48.513H122.094C122.331 48.513 122.492 48.496 122.568 48.4536C122.652 48.4197 122.712 48.3603 122.737 48.2924C122.771 48.2245 122.788 48.0548 122.788 47.7917V46.137H119.956V47.7917C119.956 48.0548 119.964 48.216 119.99 48.2754C120.023 48.3687 120.082 48.4281 120.159 48.4621C120.235 48.496 120.395 48.5045 120.632 48.5045H120.894V49.5822H117.098V48.5045H117.36C117.58 48.5045 117.732 48.4875 117.817 48.4451C117.901 48.4112 117.961 48.3518 117.994 48.2924C118.028 48.2245 118.045 48.0802 118.045 47.8511V43.6082C118.045 43.3452 118.028 43.167 117.994 43.0906C117.961 43.0142 117.91 42.9548 117.842 42.9124C117.775 42.8785 117.648 42.853 117.453 42.853H117.107V41.7838Z" fill="#3344BB"/>
<path d="M126.702 41.7838H130.506V42.8615H130.151C129.905 42.8615 129.745 42.8954 129.669 42.9718C129.593 43.0482 129.559 43.2434 129.559 43.5573V46.1625L132.391 43.4979C132.391 43.184 132.349 42.9973 132.264 42.9464C132.179 42.8954 132.01 42.87 131.74 42.87H131.444V41.7923H135.248V42.87H134.927C134.656 42.87 134.487 42.9124 134.411 42.9888C134.344 43.0652 134.301 43.2603 134.301 43.5743V47.8087C134.301 48.1311 134.344 48.3348 134.42 48.4112C134.496 48.4875 134.699 48.53 135.02 48.53H135.24V49.6077H131.436V48.53H131.689C132.002 48.53 132.196 48.4875 132.272 48.4027C132.349 48.3178 132.382 48.1227 132.382 47.8087V45.1781L129.55 47.8087C129.55 48.0717 129.567 48.2415 129.593 48.3093C129.618 48.3772 129.669 48.4366 129.745 48.4706C129.821 48.5045 129.99 48.5215 130.235 48.5215H130.497V49.5992H126.693V48.5215H126.955C127.26 48.5215 127.454 48.4791 127.522 48.3942C127.598 48.3093 127.631 48.1311 127.631 47.8681V43.6252C127.631 43.2943 127.598 43.0821 127.522 42.9973C127.445 42.9124 127.285 42.87 127.04 42.87H126.693V41.7838H126.702Z" fill="#3344BB"/>
<path d="M136.313 41.7838H140.109V42.8615H139.855C139.61 42.8615 139.466 42.8785 139.407 42.9039C139.314 42.9464 139.255 43.0058 139.213 43.0736C139.17 43.1415 139.153 43.2858 139.153 43.4979V45.5769L141.58 43.3197C141.689 43.2179 141.749 43.15 141.774 43.1161C141.799 43.0821 141.808 43.0482 141.808 43.0227C141.808 42.9718 141.782 42.9294 141.74 42.9039C141.698 42.8785 141.588 42.8615 141.411 42.8615H141.098V41.7838H144.614V42.8615H144.496C144.335 42.8615 144.217 42.87 144.158 42.887C144.099 42.9039 144.014 42.9379 143.93 42.9973C143.837 43.0567 143.718 43.1415 143.575 43.2688L141.698 44.9066L143.938 47.9445C144.133 48.2075 144.276 48.3603 144.361 48.4112C144.479 48.4791 144.648 48.513 144.876 48.513H145.029V49.5907H141.098V48.513H141.25C141.537 48.513 141.706 48.496 141.774 48.4706C141.833 48.4451 141.867 48.4112 141.867 48.3687C141.867 48.3263 141.808 48.216 141.698 48.0463L140.328 46.0861L139.145 47.1129V47.902C139.145 48.0972 139.162 48.233 139.204 48.3009C139.238 48.3772 139.297 48.4281 139.365 48.4621C139.432 48.496 139.576 48.513 139.779 48.513H140.1V49.5907H136.305V48.513H136.592C136.812 48.513 136.964 48.496 137.032 48.4621C137.108 48.4281 137.158 48.3687 137.192 48.2924C137.226 48.233 137.234 48.0717 137.234 47.8341V43.5658C137.234 43.3367 137.218 43.1755 137.184 43.0991C137.15 43.0227 137.099 42.9633 137.023 42.9209C136.947 42.8785 136.812 42.8615 136.617 42.8615H136.296V41.7838H136.313Z" fill="#3344BB"/>
<path d="M148.968 41.7838H150.718L153.051 47.8172C153.178 48.1396 153.288 48.3348 153.389 48.4112C153.491 48.4875 153.668 48.5215 153.93 48.5215V49.5992H150.245V48.5215L150.464 48.513C150.667 48.513 150.811 48.4875 150.895 48.4281C150.98 48.3772 151.022 48.3093 151.022 48.233C151.022 48.1651 150.988 48.0293 150.912 47.8172L150.684 47.1044H148.317L148.021 47.8935C147.962 48.0633 147.928 48.1736 147.928 48.2245C147.928 48.2839 147.954 48.3348 147.996 48.3857C148.038 48.4366 148.106 48.4706 148.207 48.496C148.266 48.513 148.444 48.5215 148.731 48.5215V49.5992H145.722V48.5215C145.916 48.5215 146.06 48.5045 146.145 48.4706C146.229 48.4366 146.305 48.3857 146.364 48.3178C146.424 48.2499 146.483 48.1227 146.559 47.9445L148.968 41.7838ZM148.731 45.9927H150.278L149.526 43.8458L148.731 45.9927Z" fill="#3344BB"/>
<path d="M90.7571 54.0118V52.9341H97.7228V54.0118H97.41C97.1395 54.0118 96.962 54.0542 96.8943 54.1306C96.8267 54.2069 96.7845 54.4021 96.7845 54.7161V58.9505C96.7845 59.2729 96.8267 59.4766 96.9028 59.553C96.9789 59.6293 97.1733 59.6718 97.4946 59.6718H97.7143L98.5428 61.9714L97.5284 62.3363C97.3508 61.8865 97.1057 61.5132 96.776 61.2077C96.4463 60.9022 95.9222 60.7495 95.2036 60.7495H91.8307C91.1121 60.7495 90.588 60.9022 90.2668 61.1992C89.9456 61.4962 89.6835 61.8781 89.506 62.3278L88.5 61.9629L89.3284 59.6633H89.6159C89.9878 59.6633 90.233 59.4681 90.3513 59.0862L91.7208 54.7585C91.7546 54.6397 91.78 54.5549 91.78 54.4785C91.78 54.1645 91.5602 54.0118 91.1121 54.0118H90.7571ZM94.857 59.5275V54.156H93.1663L91.7462 59.0184C91.7208 59.1032 91.7039 59.1796 91.7039 59.239C91.7039 59.4342 91.8814 59.5275 92.2449 59.5275H94.857Z" fill="#3344BB"/>
<path d="M103.285 52.7983C104.519 52.7983 105.517 53.1717 106.286 53.9269C107.047 54.6822 107.436 55.6495 107.436 56.8291C107.436 57.6267 107.258 58.331 106.912 58.942C106.565 59.5615 106.083 60.0367 105.466 60.3676C104.849 60.6986 104.105 60.8683 103.234 60.8683C102.085 60.8683 101.146 60.5543 100.411 59.9179C99.5233 59.1542 99.0837 58.1274 99.0837 56.846C99.0837 55.658 99.4726 54.6822 100.25 53.9269C101.02 53.1802 102.034 52.7983 103.285 52.7983ZM103.311 54.0457C102.719 54.0457 102.245 54.2664 101.899 54.7161C101.459 55.2762 101.239 55.9975 101.239 56.88C101.239 57.7625 101.442 58.4668 101.857 58.976C102.212 59.4172 102.676 59.6378 103.26 59.6378C103.843 59.6378 104.308 59.4172 104.663 58.976C105.077 58.4498 105.28 57.7455 105.28 56.863C105.28 56.2435 105.196 55.7259 105.018 55.3016C104.841 54.8773 104.604 54.5634 104.3 54.3512C103.987 54.1476 103.666 54.0457 103.311 54.0457Z" fill="#3344BB"/>
<path d="M108.467 52.9341H112.263V54.0118H112.009C111.764 54.0118 111.621 54.0287 111.561 54.0542C111.468 54.0966 111.409 54.156 111.367 54.2239C111.325 54.2918 111.308 54.4361 111.308 54.6482V56.7272L113.734 54.47C113.844 54.3682 113.903 54.3003 113.928 54.2663C113.954 54.2324 113.962 54.1985 113.962 54.173C113.962 54.1221 113.937 54.0797 113.895 54.0542C113.852 54.0287 113.742 54.0118 113.565 54.0118H113.252V52.9341H116.769V54.0118H116.65C116.49 54.0118 116.371 54.0203 116.312 54.0372C116.253 54.0542 116.169 54.0881 116.084 54.1475C115.991 54.2069 115.873 54.2918 115.729 54.4191L113.852 56.0568L116.092 59.0947C116.287 59.3578 116.431 59.5105 116.515 59.5614C116.633 59.6293 116.803 59.6633 117.031 59.6633H117.183V60.741H113.252V59.6633H113.404C113.692 59.6633 113.861 59.6463 113.928 59.6208C113.988 59.5954 114.021 59.5614 114.021 59.519C114.021 59.4766 113.962 59.3663 113.852 59.1966L112.483 57.2364L111.299 58.2631V59.0523C111.299 59.2475 111.316 59.3832 111.358 59.4511C111.392 59.5275 111.451 59.5784 111.519 59.6124C111.587 59.6463 111.73 59.6633 111.933 59.6633H112.255V60.741H108.459V59.6633H108.746C108.966 59.6633 109.118 59.6463 109.186 59.6124C109.262 59.5784 109.313 59.519 109.347 59.4426C109.38 59.3832 109.389 59.222 109.389 58.9844V54.7161C109.389 54.487 109.372 54.3257 109.338 54.2494C109.304 54.173 109.254 54.1136 109.177 54.0712C109.101 54.0287 108.966 54.0118 108.772 54.0118H108.45V52.9341H108.467Z" fill="#3344BB"/>
<path d="M118.392 52.671H119.127L119.203 52.9341H123.591L123.684 52.671H124.427L125.391 55.4119L124.351 55.7768C124.123 55.3186 123.954 55.0216 123.853 54.8858C123.658 54.6143 123.43 54.4021 123.168 54.2409C122.973 54.1221 122.779 54.0627 122.593 54.0627C122.5 54.0627 122.441 54.0881 122.407 54.1306C122.373 54.173 122.356 54.2748 122.356 54.4276V58.9165C122.356 59.1796 122.365 59.3493 122.382 59.4172C122.399 59.4851 122.432 59.536 122.475 59.5784C122.517 59.6208 122.585 59.6463 122.661 59.6548C122.737 59.6633 122.948 59.6718 123.286 59.6718V60.7494H119.491V59.6718H119.719C119.972 59.6718 120.133 59.6548 120.209 59.6208C120.277 59.5869 120.336 59.536 120.37 59.4511C120.404 59.3747 120.429 59.205 120.429 58.9505V54.3597C120.429 54.2324 120.412 54.1475 120.387 54.1136C120.353 54.0797 120.294 54.0627 120.201 54.0627C120.006 54.0627 119.795 54.1391 119.55 54.2833C119.305 54.4276 119.102 54.6312 118.916 54.9028C118.84 55.0046 118.687 55.3016 118.442 55.7853L117.419 55.4204L118.392 52.671Z" fill="#3344BB"/>
<path d="M130.243 52.7983C131.478 52.7983 132.475 53.1717 133.244 53.9269C134.005 54.6822 134.394 55.6495 134.394 56.8291C134.394 57.6267 134.217 58.331 133.87 58.942C133.523 59.5615 133.042 60.0367 132.424 60.3676C131.807 60.6986 131.063 60.8683 130.193 60.8683C129.043 60.8683 128.105 60.5543 127.369 59.9179C126.482 59.1542 126.042 58.1274 126.042 56.846C126.042 55.658 126.431 54.6822 127.209 53.9269C127.978 53.1802 128.992 52.7983 130.243 52.7983ZM130.269 54.0457C129.677 54.0457 129.204 54.2664 128.857 54.7161C128.417 55.2762 128.198 55.9975 128.198 56.88C128.198 57.7625 128.401 58.4668 128.815 58.976C129.17 59.4172 129.635 59.6378 130.218 59.6378C130.801 59.6378 131.266 59.4172 131.621 58.976C132.036 58.4498 132.238 57.7455 132.238 56.863C132.238 56.2435 132.154 55.7259 131.976 55.3016C131.799 54.8773 131.562 54.5634 131.258 54.3512C130.945 54.1476 130.624 54.0457 130.269 54.0457Z" fill="#3344BB"/>
<path d="M135.459 52.9341H139.576C140.1 52.9341 140.532 52.985 140.878 53.0953C141.225 53.2056 141.521 53.3669 141.766 53.579C142.011 53.7996 142.205 54.0542 142.341 54.3512C142.476 54.6482 142.544 54.9622 142.544 55.2931C142.544 55.9635 142.29 56.5236 141.774 56.9733C141.267 57.423 140.557 57.6522 139.661 57.6522H138.334V59.1117C138.334 59.2984 138.351 59.4087 138.376 59.4596C138.41 59.5275 138.46 59.5869 138.528 59.6124C138.596 59.6463 138.714 59.6633 138.875 59.6633H139.272V60.741H135.476V59.6633H135.738C135.967 59.6633 136.127 59.6463 136.195 59.6124C136.271 59.5784 136.322 59.5275 136.356 59.4511C136.389 59.3748 136.406 59.2305 136.406 59.0014V54.7076C136.406 54.47 136.389 54.3088 136.364 54.2324C136.33 54.156 136.288 54.0966 136.22 54.0627C136.153 54.0287 136.034 54.0118 135.848 54.0118H135.476V52.9341H135.459ZM138.325 54.2154V56.4302H138.993C139.399 56.4302 139.695 56.3878 139.889 56.3029C140.075 56.2181 140.227 56.0908 140.346 55.9126C140.464 55.7429 140.515 55.5307 140.515 55.2931C140.515 54.9367 140.379 54.6482 140.1 54.4445C139.898 54.2918 139.593 54.2069 139.187 54.2069H138.325V54.2154Z" fill="#3344BB"/>
<path d="M145.578 52.9341H147.328L149.661 58.9674C149.788 59.2899 149.898 59.4851 149.999 59.5614C150.101 59.6378 150.278 59.6718 150.54 59.6718V60.7495H146.855V59.6718L147.074 59.6633C147.277 59.6633 147.421 59.6378 147.506 59.5784C147.59 59.519 147.632 59.4596 147.632 59.3832C147.632 59.3154 147.599 59.1796 147.522 58.9674L147.294 58.2546H144.927L144.631 59.0438C144.572 59.2135 144.538 59.3238 144.538 59.3748C144.538 59.4342 144.564 59.4851 144.606 59.536C144.648 59.5869 144.716 59.6208 144.817 59.6463C144.877 59.6633 145.054 59.6718 145.341 59.6718V60.7495H142.332V59.6718C142.526 59.6718 142.67 59.6548 142.755 59.6208C142.839 59.5869 142.915 59.536 142.975 59.4681C143.034 59.4002 143.093 59.2729 143.169 59.0947L145.578 52.9341ZM145.341 57.143H146.888L146.136 54.9961L145.341 57.143Z" fill="#3344BB"/>
<path d="M89.2778 64.0844H93.3947C93.9188 64.0844 94.3499 64.1353 94.6965 64.2456C95.0431 64.3559 95.339 64.5171 95.5842 64.7293C95.8293 64.9499 96.0237 65.2045 96.159 65.5015C96.2943 65.7985 96.3619 66.1124 96.3619 66.4434C96.3619 67.1138 96.1083 67.6738 95.5926 68.1236C95.0854 68.5733 94.3753 68.8024 93.4792 68.8024H92.1436V70.262C92.1436 70.4487 92.1605 70.559 92.1858 70.6099C92.2197 70.6778 92.2704 70.7372 92.338 70.7626C92.4056 70.7966 92.524 70.8136 92.6846 70.8136H93.0819V71.8912H89.2863V70.8136H89.5484C89.7766 70.8136 89.9372 70.7966 90.0048 70.7626C90.0809 70.7287 90.1316 70.6778 90.1655 70.6014C90.1993 70.525 90.2162 70.3808 90.2162 70.1517V65.8579C90.2162 65.6203 90.1993 65.459 90.1739 65.3827C90.1401 65.3063 90.0978 65.2469 90.0302 65.213C89.9626 65.179 89.8442 65.162 89.6582 65.162H89.2863V64.0844H89.2778ZM92.1436 65.3657V67.5805H92.8114C93.2172 67.5805 93.5131 67.5381 93.7075 67.4532C93.8935 67.3683 94.0456 67.241 94.164 67.0628C94.2823 66.8931 94.333 66.681 94.333 66.4434C94.333 66.087 94.1978 65.7985 93.9188 65.5948C93.7159 65.4421 93.4116 65.3572 93.0058 65.3572H92.1436V65.3657Z" fill="#3344BB"/>
<path d="M99.3966 64.0844H101.147L103.48 70.1177C103.606 70.4402 103.716 70.6353 103.818 70.7117C103.919 70.7881 104.097 70.822 104.359 70.822V71.8997H100.682V70.822L100.901 70.8135C101.104 70.8135 101.248 70.7881 101.332 70.7287C101.417 70.6693 101.459 70.6099 101.459 70.5335C101.459 70.4656 101.425 70.3299 101.349 70.1177L101.121 69.4049H98.7542L98.4583 70.1941C98.3991 70.3638 98.3653 70.4741 98.3653 70.525C98.3653 70.5844 98.3907 70.6353 98.4329 70.6863C98.4752 70.7372 98.5428 70.7711 98.6443 70.7966C98.7034 70.8135 98.881 70.822 99.1684 70.822V71.8997H96.1589V70.822C96.3534 70.822 96.4971 70.8051 96.5816 70.7711C96.6661 70.7372 96.7422 70.6863 96.8014 70.6184C96.8606 70.5505 96.9198 70.4232 96.9958 70.245L99.3966 64.0844ZM99.1599 68.2933H100.707L99.9546 66.1464L99.1599 68.2933Z" fill="#3344BB"/>
<path d="M105.576 63.8213H106.312L106.388 64.0843H110.775L110.868 63.8213H111.612L112.576 66.5622L111.536 66.9271C111.308 66.4688 111.139 66.1718 111.037 66.0361C110.843 65.7645 110.614 65.5524 110.352 65.3911C110.158 65.2723 109.964 65.213 109.778 65.213C109.685 65.213 109.625 65.2384 109.592 65.2808C109.558 65.3233 109.541 65.4251 109.541 65.5778V70.0668C109.541 70.3298 109.549 70.4996 109.566 70.5674C109.583 70.6353 109.617 70.6862 109.659 70.7287C109.701 70.7711 109.769 70.7966 109.845 70.805C109.921 70.8135 110.133 70.822 110.471 70.822V71.8997H106.675V70.822H106.903C107.157 70.822 107.318 70.805 107.394 70.7711C107.461 70.7372 107.52 70.6862 107.554 70.6014C107.588 70.525 107.613 70.3553 107.613 70.1007V65.51C107.613 65.3827 107.597 65.2978 107.571 65.2639C107.537 65.2299 107.478 65.213 107.385 65.213C107.191 65.213 106.979 65.2893 106.734 65.4336C106.489 65.5778 106.286 65.7815 106.1 66.053C106.024 66.1549 105.872 66.4519 105.627 66.9356L104.604 66.5707L105.576 63.8213Z" fill="#3344BB"/>
<path d="M113.226 64.0844H117.031V65.162H116.676C116.43 65.162 116.27 65.196 116.194 65.2724C116.118 65.3487 116.084 65.5439 116.084 65.8579V68.4545L118.916 65.79C118.916 65.476 118.873 65.2978 118.789 65.2384C118.704 65.1875 118.535 65.162 118.265 65.162H117.969V64.0844H121.773V65.162H121.452C121.181 65.162 121.012 65.2045 120.936 65.2808C120.868 65.3572 120.826 65.5524 120.826 65.8664V70.1007C120.826 70.4232 120.868 70.6269 120.945 70.7032C121.021 70.7796 121.224 70.822 121.545 70.822H121.765V71.8997H117.96V70.822H118.214C118.527 70.822 118.721 70.7796 118.797 70.6947C118.873 70.6099 118.907 70.4147 118.907 70.1007V67.4702L116.075 70.1007C116.075 70.3638 116.092 70.5335 116.118 70.6014C116.143 70.6693 116.194 70.7287 116.27 70.7626C116.346 70.7966 116.515 70.8135 116.76 70.8135H117.022V71.8912H113.218V70.8135H113.48C113.784 70.8135 113.979 70.7711 114.046 70.6863C114.123 70.6014 114.156 70.4232 114.156 70.1601V65.9173C114.156 65.5863 114.123 65.3742 114.046 65.2893C113.97 65.2045 113.81 65.162 113.565 65.162H113.218V64.0844H113.226Z" fill="#3344BB"/>
<path d="M122.821 64.0844H126.617V65.162H126.27C126.076 65.162 125.949 65.179 125.873 65.2214C125.806 65.2639 125.755 65.3148 125.721 65.3912C125.687 65.4675 125.679 65.6203 125.679 65.8664V67.2241H128.511V65.7645C128.511 65.5863 128.502 65.4675 128.477 65.3996C128.443 65.3063 128.401 65.2469 128.325 65.213C128.257 65.179 128.096 65.162 127.86 65.162H127.564V64.0844H131.376V65.162H131.055C130.835 65.162 130.7 65.179 130.624 65.213C130.556 65.2469 130.506 65.2978 130.48 65.3657C130.455 65.4336 130.438 65.5948 130.438 65.8579V70.0923C130.438 70.3553 130.455 70.525 130.489 70.6014C130.523 70.6778 130.582 70.7287 130.649 70.7626C130.725 70.7966 130.886 70.8136 131.148 70.8136H131.368V71.8912H127.555V70.8136H127.809C128.046 70.8136 128.206 70.7966 128.282 70.7541C128.367 70.7202 128.426 70.6608 128.451 70.5929C128.485 70.525 128.502 70.3553 128.502 70.0923V68.4375H125.67V70.0923C125.67 70.3553 125.679 70.5166 125.704 70.576C125.738 70.6693 125.797 70.7287 125.873 70.7626C125.949 70.7966 126.11 70.8051 126.347 70.8051H126.609V71.8828H122.813V70.8051H123.075C123.295 70.8051 123.447 70.7881 123.532 70.7457C123.616 70.7117 123.675 70.6523 123.709 70.5929C123.743 70.525 123.76 70.3808 123.76 70.1517V65.9088C123.76 65.6457 123.743 65.4675 123.709 65.3912C123.675 65.3148 123.625 65.2554 123.557 65.213C123.489 65.179 123.362 65.1536 123.168 65.1536H122.821V64.0844Z" fill="#3344BB"/>
<path d="M136.617 63.9486C137.852 63.9486 138.849 64.322 139.618 65.0772C140.388 65.8324 140.768 66.7998 140.768 67.9793C140.768 68.777 140.591 69.4813 140.244 70.0923C139.897 70.7117 139.416 71.1869 138.798 71.5179C138.181 71.8488 137.437 72.0186 136.567 72.0186C135.417 72.0186 134.479 71.7046 133.743 71.0681C132.856 70.3044 132.416 69.2777 132.416 67.9963C132.416 66.8083 132.805 65.8324 133.583 65.0772C134.352 64.3305 135.366 63.9486 136.617 63.9486ZM136.643 65.196C136.051 65.196 135.578 65.4166 135.231 65.8664C134.791 66.4264 134.572 67.1477 134.572 68.0303C134.572 68.9128 134.775 69.6171 135.189 70.1262C135.544 70.5675 136.009 70.7881 136.592 70.7881C137.175 70.7881 137.64 70.5675 137.995 70.1262C138.41 69.6001 138.612 68.8958 138.612 68.0133C138.612 67.3938 138.528 66.8762 138.35 66.4519C138.173 66.0276 137.936 65.7136 137.632 65.5015C137.319 65.2978 136.989 65.196 136.643 65.196Z" fill="#3344BB"/>
<path d="M141.825 65.162V64.0844H146.246C146.922 64.0844 147.455 64.1607 147.844 64.322C148.233 64.4832 148.529 64.7123 148.731 65.0008C148.943 65.2978 149.044 65.6203 149.044 65.9767C149.044 66.2312 148.985 66.4773 148.875 66.7064C148.765 66.9356 148.605 67.1392 148.402 67.3174C148.199 67.4956 147.92 67.6399 147.582 67.7587C147.945 67.852 148.224 67.9539 148.419 68.0642C148.698 68.2169 148.917 68.4375 149.078 68.7261C149.239 69.0061 149.323 69.3201 149.323 69.668C149.323 70.0838 149.196 70.4656 148.951 70.8136C148.706 71.1615 148.351 71.4245 147.895 71.6112C147.438 71.7979 146.77 71.8828 145.9 71.8828H141.825V70.8051H142.129C142.332 70.8051 142.476 70.7881 142.544 70.7542C142.62 70.7202 142.67 70.6693 142.696 70.6014C142.729 70.5335 142.738 70.3893 142.738 70.1602V65.807C142.738 65.5778 142.721 65.4251 142.696 65.3657C142.662 65.3063 142.611 65.2554 142.544 65.213C142.467 65.179 142.332 65.1536 142.129 65.1536H141.825V65.162ZM144.665 67.2495H145.519C145.967 67.2495 146.297 67.2156 146.508 67.1392C146.72 67.0629 146.88 66.9525 146.99 66.7998C147.1 66.6471 147.151 66.4773 147.151 66.2737C147.151 66.07 147.1 65.8918 146.999 65.7476C146.897 65.6033 146.745 65.5015 146.559 65.4336C146.364 65.3742 146.018 65.3402 145.519 65.3402H144.665V67.2495ZM144.665 68.3951V70.0838C144.665 70.3214 144.682 70.4656 144.691 70.4996C144.708 70.5505 144.741 70.5844 144.784 70.6099C144.826 70.6269 144.944 70.6438 145.13 70.6438H145.697C146.026 70.6438 146.297 70.6099 146.517 70.5505C146.736 70.4911 146.922 70.3638 147.075 70.1686C147.227 69.9735 147.303 69.7444 147.303 69.4728C147.303 69.2437 147.252 69.0485 147.142 68.8873C147.032 68.7261 146.872 68.6073 146.66 68.5224C146.449 68.4375 146.119 68.3951 145.671 68.3951H144.665Z" fill="#3344BB"/>
<path d="M153.085 64.0844H154.835L157.168 70.1177C157.295 70.4402 157.405 70.6353 157.506 70.7117C157.608 70.7881 157.785 70.822 158.047 70.822V71.8997H154.362V70.822L154.581 70.8135C154.784 70.8135 154.928 70.7881 155.012 70.7287C155.097 70.6693 155.139 70.6099 155.139 70.5335C155.139 70.4656 155.105 70.3299 155.029 70.1177L154.801 69.4049H152.434L152.138 70.1941C152.079 70.3638 152.045 70.4741 152.045 70.525C152.045 70.5844 152.071 70.6353 152.113 70.6863C152.155 70.7372 152.223 70.7711 152.324 70.7966C152.383 70.8135 152.561 70.822 152.848 70.822V71.8997H149.839V70.822C150.033 70.822 150.177 70.8051 150.262 70.7711C150.346 70.7372 150.422 70.6863 150.481 70.6184C150.541 70.5505 150.6 70.4232 150.676 70.245L153.085 64.0844ZM152.857 68.2933H154.404L153.651 66.1464L152.857 68.2933Z" fill="#3344BB"/>
<path d="M78.2375 59.205C78.2291 59.2898 78.2037 59.3747 78.2037 59.4595C78.1699 60.2317 78.0685 60.9955 77.9417 61.7592C77.7895 62.6756 77.5782 63.5836 77.3245 64.4746C77.147 65.0856 76.978 65.6966 76.7835 66.3075C76.5806 66.944 76.3608 67.5804 76.1241 68.2083C75.9973 68.5478 75.8452 68.8702 75.693 69.1927C75.4648 69.6764 75.245 70.1685 74.9914 70.6353C74.7124 71.1699 74.4165 71.696 74.0953 72.2051C73.6811 72.8585 73.2584 73.5034 72.8104 74.1314C72.3539 74.7678 71.872 75.3873 71.3733 75.9982C70.6124 76.9402 69.784 77.8312 68.9217 78.6797C67.5861 79.995 66.1574 81.1915 64.5259 82.1334C64.4667 82.1674 64.4076 82.2013 64.3399 82.2352C63.6552 81.2509 62.9789 80.275 62.2942 79.2992C62.3534 79.2652 62.4041 79.2313 62.4548 79.1974C63.7736 78.4336 65.05 77.6105 66.2589 76.6771C66.8337 76.2358 67.3748 75.7606 67.9242 75.2854C68.423 74.8442 68.9133 74.4029 69.3782 73.9362C69.7671 73.5459 70.1137 73.1216 70.4603 72.6973C70.8914 72.1797 71.331 71.662 71.7368 71.1189C72.1087 70.6183 72.4638 70.1091 72.8019 69.583C73.1062 69.1078 73.3937 68.6241 73.6642 68.132C73.9854 67.5464 74.2897 66.944 74.5856 66.3415C74.7631 65.9766 74.9322 65.6032 75.0844 65.2298C75.4563 64.3134 75.8198 63.3884 76.0734 62.4295C76.2932 61.5979 76.4538 60.7494 76.6567 59.9178C76.8934 58.9164 77.0033 57.8982 77.0878 56.8799C77.2147 55.4882 77.1977 54.0881 77.1132 52.6879C77.0456 51.5593 76.9103 50.4477 76.6905 49.3445C76.4116 47.9444 76.0058 46.5782 75.507 45.2459C75.2957 44.6774 75.0167 44.1343 74.7631 43.5742C74.6786 43.3791 74.5941 43.1924 74.5011 43.0057C74.4334 42.8699 74.4081 42.7426 74.4673 42.5984C74.4926 42.539 74.5095 42.4711 74.5433 42.3693C74.6279 42.522 74.6955 42.6408 74.7631 42.7681C75.6677 44.5077 76.3862 46.3321 76.9695 48.2074C77.333 49.37 77.612 50.5495 77.8148 51.746C77.9586 52.5776 78.06 53.4262 78.1783 54.2663C78.2037 54.4275 78.1868 54.5887 78.1953 54.7584C78.1953 54.8348 78.2122 54.9027 78.2291 54.9791C78.2375 56.3877 78.2375 57.7963 78.2375 59.205Z" fill="#0097DB"/>
<path d="M62.0067 93.5893C61.9898 93.5553 61.9814 93.5299 61.9645 93.4959C61.8715 93.3092 61.8461 93.1141 61.9222 92.9104C62.2012 92.0958 62.2603 91.2557 62.0406 90.4241C61.8461 89.6604 61.4319 89.0154 60.8486 88.4724C60.4006 88.0566 59.8934 87.7511 59.3777 87.4371C59.1664 87.3098 58.9466 87.1825 58.7437 87.0383C58.0589 86.5461 57.7377 85.8503 57.6532 85.0356C57.6447 84.9508 57.6785 84.849 57.7123 84.7641C57.9829 84.1956 58.3971 83.7882 58.9466 83.4912C59.2424 83.33 59.5299 83.3045 59.8426 83.3979C59.9356 83.4233 60.0202 83.4488 60.1131 83.4912C60.3837 83.61 60.6542 83.7458 60.9247 83.8646C61.1867 83.9834 61.3643 84.1786 61.4488 84.4501C61.508 84.6708 61.6348 84.8405 61.8038 84.9762C61.9391 85.0866 62.0828 85.1969 62.2181 85.2987C62.3702 85.409 62.4717 85.5533 62.5478 85.7315C62.6577 86.0115 62.7084 86.3 62.7506 86.597C62.8014 86.9789 62.8944 87.3522 63.0043 87.7256C63.1311 88.1499 63.1987 88.5827 63.1902 89.0239C63.1818 89.6349 63.1818 90.2459 63.1649 90.8568C63.148 91.383 63.0634 91.9006 62.9113 92.4013C62.8521 92.5964 62.7676 92.7831 62.683 92.9613C62.5647 93.2074 62.4125 93.4195 62.1504 93.5214C62.1335 93.5299 62.1166 93.5638 62.0997 93.5808C62.0659 93.5893 62.0405 93.5893 62.0067 93.5893Z" fill="#3344BB"/>
<path d="M44.8967 27.6211C44.3726 27.7229 43.8823 27.8163 43.4004 27.9181C41.4899 28.3169 39.6555 28.9279 37.9226 29.8189C37.1702 30.2008 36.4178 30.5911 35.6824 30.9984C35.302 31.2106 34.9638 31.4821 34.6003 31.7197C34.3383 31.8979 34.0508 32.0506 33.7972 32.2373C32.9265 32.8738 32.0812 33.5611 31.2865 34.2909C30.8639 34.6727 30.4412 35.0546 30.0439 35.4534C29.7395 35.7589 29.469 36.1068 29.1901 36.4293C28.8096 36.879 28.4208 37.3288 28.0573 37.787C27.5247 38.4489 27.026 39.1447 26.5864 39.883C26.2144 40.4939 25.8509 41.1219 25.5043 41.7498C25.0056 42.6493 24.5744 43.5743 24.2363 44.5416C23.9911 45.2375 23.7544 45.9333 23.5177 46.6376C23.1965 47.622 22.9091 48.6233 22.7231 49.6416C22.6132 50.2441 22.5625 50.855 22.4864 51.4575C22.4526 51.7206 22.4272 51.9836 22.4019 52.2467C22.2835 53.3668 22.3004 54.4954 22.3258 55.624C22.3427 56.3283 22.385 57.0326 22.4441 57.737C22.4864 58.1867 22.5709 58.6364 22.6386 59.0862C22.7316 59.6632 22.8161 60.2402 22.926 60.8088C23.1289 61.9119 23.4247 62.9896 23.8221 64.0334C24.0926 64.7547 24.4307 65.4505 24.752 66.1548C25.107 66.9355 25.5466 67.6822 25.9608 68.4375C26.4173 69.2775 26.9583 70.0667 27.4993 70.8474C28.0235 71.5942 28.6237 72.2645 29.2154 72.9604C30.3059 74.2332 31.5401 75.3618 32.842 76.414C33.3661 76.8383 33.9409 77.2032 34.4989 77.5936C36.4094 78.9428 38.5143 79.9102 40.6953 80.7163C41.6506 81.0727 42.6396 81.3358 43.6456 81.5309C44.119 81.6243 44.5924 81.7007 45.0573 81.7855C45.1672 81.8025 45.218 81.8704 45.2856 81.9383C45.9788 82.7444 46.6804 83.5505 47.3736 84.3567C48.0583 85.1459 48.7431 85.935 49.4194 86.7242C49.4616 86.7751 49.5039 86.826 49.5715 86.9024C49.4785 86.9109 49.4194 86.9194 49.3602 86.9194C48.2528 86.9448 47.1454 86.9024 46.0379 86.8006C43.8907 86.5969 41.7858 86.1981 39.7232 85.5702C37.5929 84.9168 35.5387 84.0597 33.6282 82.9056C33.0871 82.5747 32.5207 82.2777 32.0051 81.9128C30.4158 80.8012 28.9111 79.5877 27.5501 78.2045C26.6117 77.2456 25.7241 76.2443 24.9041 75.1836C24.1264 74.1823 23.4163 73.1386 22.7654 72.0439C22.292 71.2547 21.8355 70.4486 21.4551 69.6085C21.1508 68.9466 20.8633 68.2677 20.6013 67.5889C20.3308 66.8931 20.0941 66.1887 19.8658 65.4759C19.7137 65.0007 19.6207 64.5001 19.5023 64.0164C19.291 63.1424 19.1304 62.2514 18.9866 61.3604C18.8852 60.7494 18.8007 60.1384 18.7753 59.5274C18.7669 59.2729 18.7161 59.0183 18.6908 58.7637C18.6231 58.1612 18.5978 57.5588 18.6147 56.9563C18.6316 56.532 18.6401 56.1162 18.6401 55.6919C18.6401 55.0045 18.7077 54.3257 18.7838 53.6468C18.8683 52.9255 19.012 52.2127 19.1642 51.5084C19.3079 50.8041 19.4516 50.0998 19.6038 49.3955C19.6629 49.1155 19.7475 48.8439 19.832 48.5724C20.0095 48.0038 20.187 47.4353 20.373 46.8667C20.4998 46.4849 20.652 46.12 20.8126 45.7551C21.1169 45.0593 21.4213 44.3634 21.7509 43.6846C21.9538 43.2603 22.1821 42.836 22.4188 42.4287C22.833 41.7074 23.2557 40.9946 23.6953 40.2818C23.9996 39.7811 24.3546 39.3229 24.7266 38.8732C25.2761 38.2198 25.8256 37.5664 26.375 36.9215C26.9499 36.2426 27.5923 35.6316 28.2517 35.0376C29.3422 34.0448 30.4834 33.1283 31.6838 32.2882C32.6222 31.6348 33.5605 30.973 34.5919 30.4723C35.6147 29.9716 36.6461 29.4625 37.7028 29.0382C39.1483 28.4612 40.6277 27.986 42.1578 27.6975C42.8848 27.5617 43.6118 27.4514 44.3388 27.358C44.3895 27.3496 44.4487 27.358 44.4909 27.3835C44.6177 27.4344 44.7361 27.5193 44.8967 27.6211Z" fill="#0097DB"/>
<path d="M59.1071 24.7869C58.6421 24.8123 58.1856 24.7444 57.7207 24.685C57.577 24.6681 57.4586 24.6087 57.3741 24.4984C57.2726 24.3626 57.1881 24.2183 57.0867 24.0826C57.0275 24.0062 56.9683 23.9298 56.8922 23.8789C56.7485 23.794 56.6471 23.8195 56.5879 23.9807C56.5456 24.0995 56.5287 24.2268 56.5118 24.3541C56.5034 24.439 56.5118 24.5323 56.5034 24.6172C56.478 24.8463 56.3681 24.9566 56.1314 24.9566C55.7764 24.9651 55.4129 24.9566 55.0578 24.9651C54.7197 24.9736 54.39 25.0414 54.0772 25.1857C53.8659 25.2875 53.6968 25.4318 53.5784 25.6439C53.4601 25.8561 53.3417 25.8815 53.1304 25.7627C52.9698 25.6694 52.8007 25.5676 52.6486 25.4657C52.471 25.3469 52.3442 25.1772 52.2682 24.9736C52.2174 24.8208 52.2259 24.6935 52.3358 24.5747C52.5471 24.3541 52.7585 24.142 52.9782 23.9298C53.1051 23.811 53.2403 23.7007 53.384 23.5904C53.7137 23.3443 53.7644 22.7588 53.5531 22.4448C53.4939 22.3515 53.4263 22.2496 53.3756 22.1478C53.2741 21.9357 53.3587 21.7914 53.5869 21.7914C53.9589 21.7829 54.3308 21.7829 54.6859 21.9187C54.8296 21.9781 55.0071 21.9611 55.1677 21.9611C55.2945 21.9611 55.3452 21.9017 55.3537 21.766C55.3621 21.6556 55.3537 21.5453 55.3452 21.4435C55.3283 21.121 55.4298 20.9598 55.7426 20.875C56.1483 20.7731 56.5625 20.7477 56.9683 20.858C57.6784 21.0532 58.3293 20.9174 58.9464 20.5525C59.1155 20.4592 59.293 20.3743 59.479 20.3064C59.7495 20.2131 60.02 20.2555 60.2567 20.4167C60.7217 20.7392 61.0006 21.155 60.9246 21.7575C60.8569 22.2496 61.0175 22.6485 61.4233 22.9455C61.474 22.9879 61.5332 23.0303 61.5839 23.0728C61.8714 23.3358 61.8967 23.5734 61.7784 23.9383C61.7615 23.9892 61.7361 24.0401 61.6938 24.0741C61.3388 24.3796 60.9584 24.6426 60.485 24.702C60.113 24.7529 59.7326 24.7614 59.3522 24.7869C59.2761 24.7954 59.1916 24.7869 59.1071 24.7869Z" fill="#3344BB"/>
<path d="M62.5477 34.2315C61.7868 34.2739 61.0937 34.0108 60.392 33.7987C60.0623 33.7054 59.8679 33.4678 59.8425 33.1198C59.8425 33.0774 59.8341 33.035 59.8256 33.001C59.8003 32.8738 59.7326 32.7974 59.5974 32.7719C59.4621 32.7465 59.3522 32.7889 59.2846 32.9077C59.2339 32.9926 59.1916 33.0859 59.1493 33.1792C59.0902 33.315 59.031 33.4508 58.9718 33.5866C58.8957 33.7478 58.8112 33.8072 58.6337 33.7902C58.3293 33.7648 58.025 33.7223 57.7291 33.6969C57.4164 33.6714 57.0951 33.6205 56.7824 33.6714C56.5457 33.7054 56.3259 33.7732 56.123 33.909C56.0892 33.9345 56.0553 33.9514 56.0215 33.9769C55.6749 34.189 55.3706 34.1466 55.1086 33.8242C54.9564 33.6375 54.8888 33.4168 54.8803 33.1877C54.8719 33.0604 54.9226 32.9586 55.0156 32.8822C55.1001 32.8144 55.1931 32.755 55.2861 32.704C55.6834 32.4749 56.0807 32.2458 56.478 32.0082C56.6048 31.9318 56.7232 31.8385 56.8246 31.7282C57.0191 31.5245 57.0867 31.2699 57.036 30.9899C57.0275 30.9135 57.0106 30.8457 57.0106 30.7693C57.0021 30.5826 57.1036 30.4638 57.2896 30.4638C57.4502 30.4638 57.6108 30.4808 57.7714 30.5232C58.025 30.5911 58.2702 30.6844 58.5238 30.7608C58.6083 30.7863 58.6844 30.8287 58.7689 30.8457C58.9634 30.8966 59.0817 30.8372 59.1493 30.6505C59.1832 30.5656 59.1916 30.4808 59.217 30.3959C59.3015 30.0819 59.5213 29.8953 59.8425 29.8783C60.0201 29.8698 60.206 29.9037 60.3836 29.9292C60.4765 29.9462 60.5695 29.9801 60.6541 30.0141C61.119 30.1838 61.6178 30.2262 62.1081 30.2771C62.3448 30.3026 62.5646 30.2177 62.7844 30.1498C63.131 30.0395 63.4691 29.9462 63.8326 29.9547C63.8918 29.9547 63.9509 29.9547 64.0101 29.9716C64.4497 30.0565 64.8386 30.3365 64.7709 30.9645C64.7456 31.2021 64.678 31.4312 64.5258 31.6263C64.4751 31.6942 64.4243 31.7706 64.3736 31.847C64.2637 32.0252 64.2722 32.2119 64.3905 32.3816C64.4497 32.4664 64.5258 32.5513 64.6019 32.6277C64.8555 32.9247 64.8639 33.2471 64.6188 33.5526C64.3229 33.926 63.9087 34.0957 63.4606 34.1551C63.1563 34.1975 62.852 34.206 62.5477 34.2315Z" fill="#3344BB"/>
<path d="M62.3025 39.0259C62.1334 39.0005 61.9643 38.9835 61.7868 38.9411C61.1781 38.7968 60.5864 38.6186 60.0285 38.3386C59.7833 38.2198 59.7157 38.118 59.7326 37.8464C59.741 37.7022 59.7241 37.5664 59.6396 37.4391C59.5635 37.3203 59.4874 37.2948 59.3691 37.3627C59.3015 37.3967 59.2338 37.4561 59.1916 37.5155C59.0648 37.7022 58.9549 37.8889 58.845 38.0925C58.7604 38.2537 58.6505 38.3131 58.473 38.2877C58.0926 38.2368 57.7122 38.1859 57.3233 38.1604C56.9598 38.1434 56.5963 38.1604 56.2328 38.1774C56.1314 38.1859 56.0299 38.2368 55.9285 38.2792C55.8693 38.3047 55.8102 38.3386 55.7425 38.3641C55.4128 38.5083 55.2691 38.4659 55.0747 38.1774C54.9902 38.0501 54.9056 37.9313 54.8464 37.7955C54.745 37.5834 54.7704 37.4476 54.9394 37.2864C55.1339 37.1082 55.3452 36.9724 55.5988 36.8706C56.0384 36.6924 56.4526 36.4632 56.8584 36.2256C57.112 36.0814 57.1881 35.8098 57.1965 35.5213C57.1965 35.4365 57.1965 35.3431 57.2134 35.2583C57.2642 34.9698 57.484 34.817 57.7714 34.8764C57.8644 34.8934 57.9573 34.9273 58.0419 34.9698C58.2955 35.0886 58.5491 35.2158 58.8112 35.3431C59.1324 35.4959 59.2846 35.4619 59.4705 35.1564C59.5128 35.0886 59.5466 35.0122 59.5804 34.9358C59.7157 34.6473 59.927 34.4946 60.2483 34.5115C60.5441 34.5285 60.8231 34.5794 61.0936 34.6982C61.4064 34.834 61.7276 34.9273 62.0658 34.9782C62.4715 35.0376 62.8604 34.9528 63.2493 34.8764C63.4099 34.8425 63.562 34.8085 63.7227 34.7746C63.9594 34.7237 64.1961 34.7406 64.4243 34.8255C64.7202 34.9273 64.8808 35.131 64.9315 35.428C64.9738 35.6571 64.94 35.8777 64.8216 36.0814C64.7117 36.2681 64.5934 36.4548 64.4581 36.616C64.2806 36.8281 64.2637 37.0318 64.4074 37.2694C64.475 37.3797 64.5257 37.4985 64.568 37.6173C64.6779 37.9398 64.5934 38.2453 64.3144 38.4574C64.0185 38.678 63.6804 38.8223 63.3169 38.8817C63.0802 38.9156 62.835 38.9581 62.5983 38.992C62.5054 39.009 62.4124 39.0175 62.3025 39.0259Z" fill="#3344BB"/>
<path d="M57.3657 29.3862C57.0698 29.3862 56.7739 29.3692 56.478 29.3862C56.1145 29.4116 55.7764 29.522 55.5059 29.785C55.3199 29.9632 55.0917 29.9887 54.8719 29.8614C54.7281 29.785 54.6013 29.6832 54.483 29.5729C54.2463 29.3522 54.2378 28.8855 54.5084 28.6819C54.7704 28.4867 55.024 28.2915 55.2861 28.0964C55.4382 27.986 55.5989 27.8842 55.7426 27.7569C56.0807 27.4514 56.1737 27.0781 56.0046 26.6538C55.9793 26.5859 55.9539 26.518 55.937 26.4416C55.9116 26.3059 55.9539 26.2295 56.1061 26.221C56.309 26.2125 56.5119 26.204 56.7147 26.2295C56.9514 26.2634 57.1797 26.3483 57.4164 26.4077C57.5263 26.4332 57.6362 26.4671 57.7545 26.4756C57.9405 26.4841 58.0081 26.4247 58.0504 26.238C58.0927 26.0513 58.1265 25.8646 58.1772 25.6864C58.2279 25.4912 58.2617 25.4658 58.4562 25.4658C58.6675 25.4573 58.8788 25.4488 59.0817 25.4573C59.3015 25.4658 59.5213 25.4997 59.7411 25.5337C60.2483 25.6185 60.7555 25.6949 61.2712 25.5846C61.4825 25.5422 61.677 25.4403 61.8798 25.3724C62.0743 25.313 62.2687 25.2452 62.4631 25.2112C62.8689 25.1348 63.1817 25.2961 63.4015 25.627C63.6466 25.9919 63.6889 26.3992 63.5367 26.815C63.5114 26.8914 63.4691 26.9678 63.4522 27.0441C63.4015 27.2732 63.4438 27.4854 63.6044 27.6721C63.7058 27.7909 63.8157 27.9012 63.9087 28.0285C64.1116 28.3085 64.1031 28.5461 63.9002 28.8092C63.6466 29.1486 63.3254 29.3692 62.8943 29.4286C62.3363 29.505 61.7784 29.5559 61.2205 29.5474C60.6541 29.5389 60.1131 29.4201 59.5805 29.208C59.4452 29.1571 59.3522 29.0637 59.2931 28.9364C59.2339 28.8176 59.1832 28.6904 59.124 28.5631C59.0986 28.5122 59.0817 28.4612 59.0564 28.4188C59.0056 28.334 58.9296 28.2746 58.8197 28.283C58.7182 28.2915 58.676 28.3764 58.6506 28.4697C58.6083 28.631 58.5745 28.8007 58.5322 28.9619C58.4477 29.2928 58.3547 29.3692 58.0081 29.3692C57.7799 29.3862 57.577 29.3862 57.3657 29.3862Z" fill="#3344BB"/>
<path d="M61.6009 43.6846C61.0937 43.7694 60.6287 43.6082 60.1638 43.413C59.8172 43.2688 59.4706 43.133 59.124 43.0057C58.9634 42.9463 58.8873 42.8445 58.8788 42.6748C58.8704 42.5051 58.8535 42.3353 58.8366 42.1656C58.8196 42.0468 58.8112 41.9026 58.6759 41.8686C58.5407 41.8347 58.4308 41.9111 58.3463 42.0214C58.2279 42.1826 58.1095 42.3353 57.9997 42.4966C57.9067 42.6408 57.7799 42.7087 57.6108 42.7002C57.3487 42.6918 57.0867 42.6918 56.8246 42.6748C56.7401 42.6663 56.6471 42.6408 56.5795 42.5984C56.4442 42.5135 56.3005 42.4711 56.1399 42.4541C55.6749 42.4032 55.2269 42.4032 54.8042 42.6578C54.6351 42.7596 54.4914 42.7342 54.3646 42.5899C54.2125 42.4202 54.1026 42.2335 54.0434 42.0044C53.9842 41.7753 54.0518 41.5886 54.2294 41.4359C54.3139 41.3595 54.4153 41.2916 54.5252 41.2577C54.8127 41.1473 55.1085 41.037 55.4044 40.9691C55.8102 40.8673 56.1568 40.6891 56.4357 40.3666C56.6048 40.18 56.7063 39.9678 56.7401 39.7132C56.7908 39.3568 56.8331 39.3314 57.1797 39.3484C57.4417 39.3568 57.7038 39.4078 57.932 39.5605C58.0081 39.6114 58.1096 39.6284 58.1941 39.6623C58.304 39.7048 58.4054 39.7387 58.5069 39.7896C58.6844 39.8745 58.8281 39.849 58.9549 39.6878C59.0225 39.6029 59.0733 39.5011 59.1324 39.4162C59.3691 39.0853 59.6988 38.992 60.0792 39.1532C60.392 39.289 60.6963 39.4247 61.0091 39.552C61.2712 39.6623 61.5501 39.7048 61.8376 39.6963C62.4631 39.6878 63.0971 39.6963 63.7227 39.6878C64.0778 39.6793 64.2722 39.8575 64.306 40.2224C64.3314 40.5703 64.2299 40.8843 64.0101 41.1473C63.9087 41.2746 63.7819 41.3765 63.6635 41.4953C63.4099 41.7498 63.3592 41.9705 63.5114 42.2844C63.6804 42.6239 63.6382 43.0736 63.207 43.3452C62.8182 43.5912 62.404 43.727 61.939 43.71C61.8291 43.6931 61.7108 43.6846 61.6009 43.6846Z" fill="#3344BB"/>
<path d="M60.3328 48.3263C59.7241 48.2754 59.1493 48.2415 58.5998 48.0378C58.3631 47.953 58.1349 47.8257 57.9066 47.6984C57.7375 47.5966 57.5685 47.4947 57.374 47.4693C57.2472 47.4523 57.205 47.4014 57.205 47.2571C57.1965 47.0789 57.205 46.9007 57.1965 46.731C57.1965 46.6292 57.1881 46.5274 57.1712 46.4255C57.1458 46.3067 57.0782 46.2728 56.9598 46.3152C56.9006 46.3407 56.833 46.3746 56.7907 46.4171C56.6893 46.5189 56.5794 46.6292 56.4949 46.748C56.3089 47.028 56.0553 47.0959 55.7341 47.0111C55.3959 46.9262 55.0493 46.8413 54.7027 46.8074C54.3139 46.7735 53.9166 46.7904 53.5277 46.7819C53.4432 46.7819 53.3671 46.7904 53.2825 46.7735C53.0205 46.731 52.843 46.5698 52.7838 46.3067C52.7246 46.0182 52.7922 45.84 53.0374 45.6788C53.3333 45.4836 53.6376 45.3309 53.9926 45.2545C54.3392 45.1781 54.6774 45.0424 55.0071 44.9066C55.3114 44.7793 55.4889 44.5163 55.5734 44.2023C55.5904 44.1344 55.6073 44.058 55.6326 43.9901C55.7087 43.7865 55.8778 43.7186 56.0722 43.8119C56.1229 43.8374 56.1736 43.8798 56.2244 43.9053C56.478 44.058 56.7316 44.2108 56.9936 44.3465C57.2472 44.4738 57.4417 44.4229 57.6277 44.2192C57.6784 44.1598 57.7122 44.1005 57.7629 44.041C57.9912 43.7271 58.287 43.6252 58.6505 43.7695C58.8957 43.8628 59.1239 43.9986 59.3522 44.1344C59.6058 44.2786 59.8678 44.4144 60.1553 44.4484C60.299 44.4653 60.4511 44.4653 60.6033 44.4653C60.9837 44.4823 61.3726 44.4823 61.753 44.5078C61.8713 44.5163 61.9897 44.5587 62.108 44.5757C62.4293 44.6351 62.5561 44.9575 62.4884 45.2121C62.4631 45.3224 62.4123 45.4327 62.3447 45.5261C62.1756 45.7467 61.9981 45.9588 61.8121 46.171C61.753 46.2389 61.6769 46.3067 61.6093 46.3661C61.474 46.4934 61.4486 46.6377 61.4994 46.8074C61.5247 46.8923 61.5501 46.9771 61.5755 47.062C61.6346 47.2911 61.5924 47.5117 61.4402 47.6984C61.1781 48.1057 60.7724 48.2924 60.3328 48.3263Z" fill="#3344BB"/>
<path d="M57.7462 52.3486C57.2644 52.374 56.7994 52.2637 56.3683 52.0601C55.9963 51.8819 55.6413 51.6782 55.2862 51.4661C55.0749 51.3473 55.0411 51.203 55.0833 50.94C55.1002 50.8381 55.1003 50.7278 55.0918 50.6175C55.0833 50.5242 55.0157 50.4817 54.9227 50.4817C54.8128 50.4817 54.7114 50.5242 54.6353 50.609C54.5508 50.7024 54.4747 50.7957 54.3986 50.889C54.1535 51.203 54.0182 51.237 53.6462 51.1182C53.2743 51.0078 52.9023 50.906 52.5388 50.8042C52.2937 50.7363 52.057 50.7702 51.8203 50.8296C51.685 50.8636 51.5582 50.8975 51.423 50.9145C51.2116 50.9484 51.0679 50.8721 50.9834 50.6769C50.9326 50.5666 50.8904 50.4478 50.865 50.329C50.8058 50.032 50.8904 49.8453 51.1693 49.718C51.3553 49.6332 51.5498 49.5653 51.7357 49.5143C51.9555 49.4465 52.1838 49.404 52.4036 49.3531C52.505 49.3277 52.598 49.2937 52.691 49.2598C53.1306 49.107 53.4518 48.8355 53.6124 48.3857C53.6209 48.3603 53.6378 48.3348 53.6462 48.3094C53.7984 47.9954 53.9759 47.936 54.2887 48.0972C54.4409 48.1736 54.5761 48.2754 54.7198 48.3688C54.7706 48.4027 54.8128 48.4451 54.8636 48.4791C55.2017 48.7167 55.3961 48.6743 55.6159 48.3348C55.8442 47.9869 56.2753 47.8681 56.6472 48.0548C56.8079 48.1397 56.9685 48.2245 57.1206 48.3263C57.5518 48.6064 58.0252 48.7506 58.5408 48.7421C58.9297 48.7421 59.327 48.7337 59.7159 48.7421C60.1301 48.7506 60.3245 49.0222 60.2231 49.421C60.1132 49.8283 59.8765 50.1508 59.5468 50.4054C59.4792 50.4563 59.4031 50.5072 59.3355 50.5666C59.2087 50.6684 59.1664 50.8042 59.2087 50.9654C59.2256 51.0248 59.2425 51.0842 59.2594 51.1436C59.3608 51.4491 59.2932 51.7037 59.0565 51.9158C58.7691 52.1789 58.4309 52.3401 58.0336 52.3486C57.9406 52.3486 57.8477 52.3486 57.7462 52.3486Z" fill="#3344BB"/>
<path d="M52.9952 54.784C52.767 54.7331 52.5895 54.801 52.4542 54.9876C52.4119 55.047 52.3697 55.1064 52.3274 55.1658C52.1583 55.3865 51.9385 55.4798 51.668 55.4374C51.4651 55.4034 51.2622 55.3356 51.0594 55.2846C50.6451 55.1658 50.2309 55.1064 49.7998 55.2252C49.7068 55.2507 49.6223 55.2846 49.5293 55.3186C49.225 55.4289 48.9713 55.3016 48.8784 54.9961C48.8699 54.9707 48.8615 54.9452 48.8615 54.9198C48.7516 54.4191 48.8445 54.2409 49.3348 54.0712C49.7575 53.9269 50.1802 53.7912 50.6029 53.6384C50.7043 53.6045 50.8058 53.5536 50.8987 53.5026C51.1016 53.3923 51.2538 53.2396 51.3468 53.0274C51.3891 52.9341 51.4229 52.8407 51.4651 52.7474C51.6088 52.4334 51.8624 52.3401 52.1583 52.5013C52.3528 52.6031 52.5303 52.7219 52.7163 52.8408C52.7754 52.8747 52.8261 52.9171 52.8853 52.9511C53.0628 53.0444 53.1812 53.0274 53.3165 52.8662C53.3672 52.8068 53.4094 52.7304 53.4602 52.671C53.5362 52.5777 53.6208 52.4843 53.7138 52.408C53.8828 52.2637 54.0857 52.2213 54.3055 52.2977C54.4154 52.3401 54.5168 52.3825 54.6183 52.4419C55.1593 52.7729 55.7511 52.9001 56.3851 52.8747C56.7148 52.8662 57.0445 52.8662 57.3741 52.8577C57.9067 52.8492 58.1603 53.265 57.8983 53.7657C57.7715 54.0203 57.5855 54.2239 57.3826 54.4106C57.3488 54.4361 57.3234 54.4615 57.2896 54.4955C56.943 54.7925 56.943 54.8858 57.1036 55.2422C57.1966 55.4544 57.1628 55.6495 57.0106 55.8277C56.5711 56.3284 56.0216 56.532 55.3622 56.4132C55.0663 56.3623 54.7789 56.2944 54.4915 56.235C54.0181 56.1332 53.5954 55.9126 53.1897 55.6495C53.0375 55.5562 52.9868 55.4204 53.029 55.2507C53.0628 55.081 53.0544 54.9282 52.9952 54.784Z" fill="#3344BB"/>
<path d="M52.2514 64.6953C51.6935 64.6953 51.1524 64.585 50.6199 64.4068C50.4761 64.3559 50.4085 64.271 50.3747 64.1353C50.3493 64.0419 50.3409 63.9486 50.3155 63.8552C50.2479 63.6431 50.0704 63.5837 49.8929 63.7195C49.8337 63.7619 49.7914 63.8298 49.7491 63.8892C49.6815 64.008 49.6054 64.1353 49.5547 64.271C49.4786 64.4577 49.3434 64.5256 49.1574 64.5171C48.8108 64.5171 48.4642 64.5341 48.1261 64.5171C47.7964 64.5001 47.5005 64.568 47.2046 64.7123C47.0863 64.7717 46.9595 64.8311 46.8411 64.882C46.4185 65.0432 46.0211 64.7632 46.0127 64.3135C46.0127 64.1013 46.1226 63.9571 46.2917 63.8552C46.6636 63.6346 47.0356 63.414 47.4075 63.1933C47.5005 63.1339 47.5935 63.083 47.678 63.0151C47.957 62.803 48.1261 62.5315 48.143 62.1751C48.143 62.1241 48.1514 62.0817 48.1599 62.0308C48.1937 61.8356 48.2867 61.7338 48.4896 61.7508C48.7939 61.7847 49.1067 61.8441 49.411 61.8865C49.5209 61.9035 49.6223 61.9205 49.7322 61.929C49.8675 61.9374 49.9689 61.8781 50.0366 61.7677C50.0873 61.6829 50.1296 61.598 50.1718 61.5217C50.4001 61.1228 50.6706 60.9871 51.1186 61.0889C51.6596 61.2162 52.2007 61.2331 52.7501 61.2247C52.9277 61.2247 53.0967 61.1907 53.2574 61.1143C53.5701 60.9786 53.8914 60.8937 54.238 60.9022C54.3056 60.9022 54.3732 60.9107 54.4408 60.9277C54.7621 61.004 54.9142 61.2841 54.8043 61.598C54.779 61.6574 54.7536 61.7253 54.7198 61.7847C54.593 62.0393 54.4662 62.2938 54.331 62.5484C54.2211 62.7606 54.2211 62.9642 54.3563 63.1594C54.5338 63.414 54.5 63.6685 54.331 63.9146C54.1112 64.2286 53.8068 64.4238 53.4518 64.5256C53.0629 64.6529 52.6572 64.6953 52.2514 64.6953Z" fill="#3344BB"/>
<path d="M53.232 60.4863C52.8178 60.4693 52.3528 60.4099 51.9048 60.2742C51.6343 60.1893 51.3891 60.079 51.1609 59.9178C51.0256 59.8244 50.958 59.7056 50.9749 59.5444C50.9834 59.4426 50.9834 59.3407 50.9749 59.2389C50.9749 59.1456 50.9495 59.0607 50.8565 59.0183C50.7551 58.9758 50.6621 59.0098 50.5945 59.0777C50.5015 59.1795 50.4001 59.2898 50.3409 59.4086C50.2394 59.6123 50.0704 59.7311 49.8759 59.8074C49.8337 59.8244 49.766 59.8244 49.7153 59.8159C49.3265 59.7396 48.9376 59.6632 48.5403 59.5953C48.3036 59.5529 48.0669 59.6123 47.8386 59.6886C47.7118 59.7311 47.585 59.782 47.4582 59.8159C47.23 59.8838 47.0778 59.8414 46.9426 59.6547C46.7904 59.4341 46.7566 59.188 46.858 58.9419C46.9088 58.8146 47.0102 58.7298 47.1285 58.6873C47.4329 58.5685 47.7372 58.4497 48.0331 58.3309C48.2191 58.2546 48.4135 58.1782 48.591 58.0848C48.9122 57.9236 49.132 57.6606 49.2335 57.3126C49.2504 57.2448 49.2757 57.1684 49.3011 57.1005C49.3687 56.9308 49.4533 56.8714 49.6308 56.9223C49.9013 56.9987 50.1718 57.092 50.4423 57.1854C50.5353 57.2193 50.6283 57.2617 50.7297 57.2787C50.9664 57.3296 51.1355 57.2278 51.2285 57.0072C51.2539 56.9393 51.2792 56.8629 51.3215 56.8035C51.4821 56.5744 51.7357 56.498 52.0485 56.5914C52.1922 56.6338 52.3359 56.7017 52.4796 56.7696C52.9699 57.0156 53.494 57.1429 54.0435 57.1005C54.238 57.0835 54.4324 57.0326 54.6184 56.9987C54.8635 56.9562 55.1171 56.9308 55.3623 57.0156C55.6497 57.1175 55.7427 57.2702 55.7004 57.5757C55.6582 57.8727 55.5314 58.1273 55.3031 58.3055C54.9988 58.56 54.8973 58.8655 54.9734 59.2474C54.9903 59.3068 54.9903 59.3662 54.9988 59.4256C55.0495 59.782 54.965 59.9856 54.6522 60.1554C54.2295 60.376 53.773 60.5287 53.232 60.4863Z" fill="#3344BB"/>
<path d="M51.4736 68.9637C51.2792 68.9297 51.0256 68.8958 50.772 68.8534C50.6621 68.8364 50.5606 68.8194 50.4592 68.7855C50.3662 68.7515 50.2648 68.7091 50.2056 68.6412C50.0111 68.4376 49.7744 68.4885 49.5377 68.5224C49.487 68.5309 49.4278 68.5988 49.394 68.6582C49.1827 68.9637 48.8868 69.0825 48.5233 69.0825C48.3373 69.0825 48.1598 69.074 47.9738 69.0825C47.6864 69.091 47.4159 69.1673 47.1708 69.3201C47.0524 69.3965 46.9256 69.4643 46.8157 69.5577C46.6551 69.6934 46.486 69.7019 46.3085 69.6256C46.1056 69.5407 45.9281 69.4134 45.8689 69.1843C45.8182 68.9722 45.8774 68.777 46.0634 68.6412C46.317 68.4545 46.5706 68.2848 46.8242 68.0981C47.0101 67.9539 47.2046 67.8181 47.3821 67.6569C47.6442 67.4108 47.7625 67.1138 47.7033 66.7404C47.6611 66.4859 47.7794 66.3416 48.0415 66.3586C48.3373 66.3755 48.6332 66.418 48.9291 66.4519C49.0305 66.4604 49.132 66.4774 49.2334 66.4774C49.4025 66.4774 49.4701 66.4265 49.5293 66.2567C49.5462 66.1973 49.5631 66.1379 49.5716 66.0785C49.6138 65.8325 49.7575 65.6712 49.9773 65.5864C50.1633 65.5185 50.3493 65.493 50.5522 65.5185C50.8396 65.5609 51.127 65.6033 51.4144 65.6118C51.7948 65.6288 52.1499 65.5355 52.4965 65.3997C52.7924 65.2894 53.0967 65.196 53.401 65.1027C53.4686 65.0772 53.5447 65.0687 53.6208 65.0687C53.9251 65.0518 54.128 65.23 54.1534 65.527C54.1703 65.6967 54.1196 65.8494 54.0604 66.0022C53.9758 66.1973 53.8913 66.384 53.8152 66.5792C53.7307 66.7913 53.773 66.995 53.9167 67.1732C54.1534 67.4787 54.1618 67.8266 53.9167 68.1236C53.8152 68.2424 53.68 68.3442 53.5447 68.4291C53.0798 68.7006 52.5641 68.8364 52.0315 68.9128C51.8456 68.9212 51.6934 68.9382 51.4736 68.9637Z" fill="#3344BB"/>
<path d="M55.1593 73.6223C55.1424 73.8514 55.1255 74.0805 55.1001 74.3096C55.0747 74.5048 55.1424 74.666 55.2861 74.8018C55.6242 75.1243 55.6496 75.4722 55.3622 75.8455C55.0663 76.2359 54.669 76.4735 54.204 76.5838C53.7476 76.6941 53.2826 76.7875 52.8177 76.8808C52.7416 76.8978 52.6571 76.8893 52.581 76.8723C52.4119 76.8384 52.2428 76.779 52.0738 76.745C51.9301 76.7111 51.854 76.6347 51.8117 76.4989C51.7948 76.4395 51.7779 76.3801 51.7525 76.3292C51.7018 76.2359 51.5919 76.1765 51.4989 76.1935C51.3975 76.2104 51.3552 76.2953 51.3383 76.3801C51.3129 76.5414 51.3045 76.7026 51.296 76.8638C51.2791 77.0845 51.2538 77.1184 51.0509 77.1693C50.6198 77.2881 50.1886 77.3984 49.766 77.5257C49.4278 77.6276 49.1404 77.8058 48.9629 78.1282C48.8868 78.2725 48.8107 78.281 48.6585 78.2216C48.5402 78.1706 48.4219 78.1282 48.3035 78.0773C47.9654 77.9246 47.8724 77.6191 48.1006 77.3306C48.3373 77.0251 48.5994 76.745 48.853 76.4565C48.946 76.3462 49.0474 76.2444 49.1404 76.1425C49.3855 75.8965 49.4025 75.6249 49.2757 75.3194C49.2418 75.2346 49.1996 75.1412 49.1827 75.0479C49.1573 74.8782 49.2165 74.7594 49.3856 74.7254C49.5377 74.6915 49.6899 74.6915 49.842 74.6915C50.0449 74.7 50.2478 74.7424 50.4422 74.7594C50.6113 74.7763 50.6451 74.7594 50.7043 74.5981C50.755 74.4624 50.7973 74.3266 50.8311 74.1908C50.9156 73.8344 51.0847 73.6817 51.4397 73.6477C51.6511 73.6308 51.854 73.6138 52.0653 73.6138C52.674 73.6223 53.2234 73.461 53.7222 73.0962C53.9843 72.901 54.2801 72.7652 54.6183 72.7737C54.9564 72.7907 55.1255 72.9434 55.1424 73.2913C55.1593 73.4186 55.1508 73.5204 55.1593 73.6223Z" fill="#3344BB"/>
<path d="M51.5328 72.8925C51.4652 72.8925 51.3976 72.884 51.3299 72.8925C51.0087 72.9179 50.7974 72.7737 50.679 72.4852C50.6283 72.3579 50.5353 72.2985 50.4254 72.2306C50.3409 72.1882 50.2817 72.1966 50.2394 72.2815C50.1887 72.3918 50.138 72.5021 50.1042 72.6209C49.9858 73.0452 49.8252 73.181 49.3772 73.2234C49.2335 73.2319 49.0982 73.2489 48.9545 73.2743C48.5741 73.3252 48.2275 73.4865 47.9401 73.741C47.8386 73.8259 47.7372 73.9192 47.6188 73.9956C47.3314 74.1993 46.8242 74.0296 46.7059 73.6901C46.6636 73.5798 46.672 73.4525 46.7312 73.3592C46.8158 73.2319 46.9003 73.0961 47.0102 72.9943C47.2892 72.7228 47.5935 72.4682 47.8809 72.1966C47.9908 72.0948 48.0838 71.9845 48.1768 71.8657C48.3205 71.6705 48.3374 71.4584 48.2106 71.2378C48.1852 71.1953 48.1683 71.1529 48.1514 71.1105C48.0922 70.9492 48.1599 70.805 48.3205 70.7541C48.405 70.7286 48.4896 70.7116 48.5825 70.7116C48.777 70.7116 48.9714 70.7201 49.1658 70.7286C49.2504 70.7286 49.3265 70.7456 49.411 70.7456C49.6646 70.7456 49.7829 70.6438 49.8337 70.3977C49.8506 70.3213 49.859 70.2534 49.8759 70.177C49.9436 69.9479 50.0873 69.7952 50.324 69.7697C50.5438 69.7443 50.772 69.7188 50.9918 69.7273C51.6427 69.7612 52.2345 69.5915 52.8009 69.2945C53.0291 69.1757 53.2743 69.0994 53.5025 68.9806C53.8491 68.8108 54.314 69.2012 54.2379 69.6C54.221 69.6934 54.1872 69.7867 54.1619 69.8716C54.1112 70.0413 54.0604 70.211 54.0182 70.3807C53.9674 70.5844 54.0097 70.7626 54.1619 70.9238C54.2464 71.0086 54.314 71.119 54.3563 71.2293C54.4662 71.4838 54.4324 71.7384 54.2633 71.959C54.1788 72.0609 54.0773 72.1542 53.9674 72.2306C53.4433 72.604 52.8431 72.7737 52.2091 72.85C51.9809 72.8755 51.7526 72.884 51.5244 72.901C51.5413 72.901 51.5328 72.901 51.5328 72.8925Z" fill="#3344BB"/>
<path d="M51.6426 82.091C51.4397 82.091 51.2368 82.108 51.0339 82.091C50.7719 82.0656 50.6704 81.9468 50.6451 81.6837C50.6197 81.4207 50.6873 81.1915 50.848 80.9794C51.0255 80.7503 51.1946 80.5297 51.3552 80.2921C51.4313 80.1817 51.482 80.0545 51.5242 79.9272C51.5665 79.7914 51.5412 79.7405 51.389 79.6896C51.296 79.6556 51.2622 79.5962 51.2622 79.5029C51.2622 79.3586 51.2537 79.2144 51.2537 79.0786C51.2537 78.841 51.3636 78.7052 51.5919 78.6713C51.7271 78.6458 51.8708 78.6543 52.0146 78.6458C52.1667 78.6373 52.3104 78.6458 52.4626 78.6373C52.5978 78.6289 52.6486 78.561 52.6655 78.4252C52.6739 78.3658 52.6739 78.3064 52.6655 78.2385C52.6401 77.9924 52.7162 77.7718 52.8007 77.5512C52.8345 77.4578 52.8853 77.4154 52.9952 77.4069C53.2995 77.373 53.5954 77.3305 53.8997 77.2966C54.2716 77.2542 54.6098 77.1354 54.9057 76.9062C55.2015 76.6856 55.5143 76.4735 55.8017 76.2444C55.9454 76.134 56.0807 76.1256 56.2329 76.185C56.4696 76.2783 56.6471 76.4141 56.6724 76.6856C56.7063 76.9741 56.7485 77.2627 56.757 77.5512C56.7654 77.7463 56.8246 77.8906 56.9852 77.9924C57.0444 78.0349 57.1036 78.0858 57.1543 78.1367C57.4502 78.4422 57.4755 78.8495 57.2135 79.1889C57.1543 79.2653 57.0867 79.3332 57.0106 79.3926C56.571 79.732 56.1061 80.012 55.565 80.1563C55.3537 80.2157 55.1339 80.2836 54.9226 80.3515C54.5591 80.4618 54.2716 80.3684 54.0519 80.0629C54.0265 80.029 54.0096 79.9866 53.9758 79.9611C53.8912 79.8932 53.7813 79.8169 53.6799 79.8678C53.6207 79.9017 53.5869 80.012 53.57 80.0884C53.5446 80.2496 53.5446 80.4109 53.5362 80.5721C53.5277 80.7503 53.4432 80.8606 53.2657 80.9115C53.1811 80.937 53.0966 80.9539 53.0121 80.9879C52.843 81.0473 52.6655 81.0982 52.4964 81.1746C52.1583 81.3273 51.8793 81.5395 51.7187 81.8874C51.7271 81.9637 51.6849 82.0232 51.6426 82.091Z" fill="#3344BB"/>
<path d="M55.1931 81.6159C55.1762 81.2086 55.3621 80.9879 55.7679 80.92C56.0553 80.8691 56.3428 80.8267 56.6217 80.7588C56.9768 80.674 57.2811 80.4873 57.5432 80.2327C57.7038 80.08 57.8898 79.9527 58.0757 79.8339C58.2702 79.7066 58.5238 79.766 58.6506 79.9611C58.8365 80.2497 58.9803 80.5551 58.9211 80.92C58.8788 81.2086 58.9803 81.4207 59.2423 81.5565C59.7411 81.8195 59.6988 82.3287 59.4283 82.6596C59.3776 82.719 59.3268 82.7699 59.2677 82.8208C58.7182 83.2536 58.118 83.5761 57.4164 83.6779C57.2557 83.7034 57.0782 83.6779 56.9176 83.6524C56.7739 83.6355 56.6555 83.5506 56.5625 83.4403C56.5287 83.4064 56.5034 83.3639 56.4696 83.33C56.3258 83.2112 56.216 83.2451 56.1652 83.4233C56.1483 83.4912 56.1483 83.5591 56.1483 83.627C56.1399 83.7203 56.1399 83.8137 56.1314 83.907C56.1145 84.0343 56.0469 84.1192 55.937 84.1701C55.8524 84.2125 55.7595 84.238 55.6665 84.2634C55.472 84.3313 55.2692 84.3992 55.0747 84.4756C54.7958 84.5944 54.5929 84.7895 54.4661 85.0696C54.3224 85.4005 54.111 85.4599 53.7982 85.2817C53.7391 85.2478 53.6883 85.2053 53.6292 85.1629C53.384 84.9508 53.3333 84.7301 53.4855 84.4416C53.5446 84.3313 53.6207 84.221 53.6883 84.1107C53.8236 83.8985 53.9758 83.6949 54.111 83.4827C54.3054 83.1857 54.2716 82.8463 54.0349 82.5832C54.018 82.5663 54.0011 82.5578 53.9927 82.5408C53.8321 82.3626 53.849 82.2353 54.0603 82.1165C54.1617 82.0571 54.2801 82.0062 54.39 81.9638C54.5252 81.9129 54.652 81.9214 54.7873 81.9723C55.0747 82.0826 55.1931 81.9977 55.1846 81.6922C55.1931 81.6668 55.1931 81.6413 55.1931 81.6159Z" fill="#3344BB"/>
</svg>
